<?xml version="1.0" encoding="UTF-8"?>
<svg id="Layer_1" xmlns="http://www.w3.org/2000/svg" version="1.1" viewBox="0 0 595.28 841.89">
  <!-- Generator: Adobe Illustrator 30.3.0, SVG Export Plug-In . SVG Version: 2.1.3 Build 182)  -->
  <path d="M179.39,451.84v95.48c1.24,16.31,8.99,30.67,20.78,41.84l231.12,186.11.04-120.57-251.94-202.86Z" fill="#fff"/>
  <path d="M431.29,246.15v236.42l-.13,140.35-.27-.22-91.43-73.96c-7.31-5.85-13.62-14.05-13.63-23.94l-.04-53.43-.06-89.06c0-.92.03-1.84.06-2.76.29-6.29,1.58-12.64,3.9-18.56,2.22-5.68,5.37-10.96,9.45-15.41l23.47-25.33,68.27-73.67.4-.43Z" fill="#752eff"/>
  <path d="M431.31,66.43l-.42.42-88.53,89.63c-9.58,11.3-15.9,24.6-16.57,39.78l-.13,127.94,104.78-113.09.45-.48.44-.48-.03-143.71Z" fill="#fff"/>
  <path d="M270.41,297.61l-82.6,89.49c-10.56,10.41-10.99,24.89.16,34.96l82.46,66.42-.02-190.87Z" fill="#752eff"/>
</svg>