<?xml version="1.0" encoding="UTF-8"?>
<svg id="Layer_1" xmlns="http://www.w3.org/2000/svg" version="1.1" viewBox="0 0 595.28 841.89">
  <!-- Generator: Adobe Illustrator 30.3.0, SVG Export Plug-In . SVG Version: 2.1.3 Build 182)  -->
  <defs>
    <style>
      .st0 {
        fill: #752eff;
      }

      .st1 {
        fill: #1a1d38;
      }

      .st2 {
        fill: #52459b;
      }
    </style>
  </defs>
  <g>
    <path class="st1" d="M414.47,671.52v139.47l-104.39-80.46-66.6-51.34-71.9-58.12c-17.48-14.13-27.64-35.4-27.64-57.88v-100.26l.15.17,44.95,34.65,16.34,12.6,38.1,29.37,66.6,51.34,104.39,80.48Z"/>
    <g>
      <path class="st0" d="M164.79,454.57l78.7,60.65v-205.52l-83.44,108.24c-8.81,11.42-6.68,27.83,4.74,36.63Z"/>
      <polygon class="st0" points="243.54 515.27 243.48 515.22 243.48 515.25 243.54 515.27"/>
    </g>
    <path class="st1" d="M414.47,24.38v180.92l-104.39,135.41v-155.57c0-16.44,5.44-32.42,15.48-45.44l88.9-115.33Z"/>
    <path class="st0" d="M414.47,239.1v406.36l-84.61-65.23c-12.47-9.62-19.78-24.47-19.78-40.22v-165.5l104.39-135.41Z"/>
  </g>
  <g>
    <polygon class="st0" points="1858.76 331.99 1858.76 532.3 1766.25 437.97 1858.76 331.99"/>
    <polygon class="st1" points="2011.11 654.72 2011.11 804.74 1766.26 570.08 1766.25 437.97 2011.11 654.72"/>
    <polygon class="st1" points="2011.11 56.24 2011.11 221.06 1918.6 332 1918.6 182.13 2011.11 56.24"/>
    <polygon class="st0" points="1918.6 538.65 1918.6 538.97 2011.11 628.41 2011.11 627.74 2011.11 245.77 2011.11 245.67 1918.6 371.56 1918.6 371.67 1918.6 538.65"/>
    <path class="st2" d="M1856.42,522.56"/>
  </g>
</svg>