<?xml version="1.0" encoding="UTF-8"?>
<svg id="Layer_1" xmlns="http://www.w3.org/2000/svg" version="1.1" viewBox="0 0 256 256">
  <!-- Generator: Adobe Illustrator 30.3.0, SVG Export Plug-In . SVG Version: 2.1.3 Build 182)  -->
  <path d="M257.39,115.98l.05,5.88c-.57,7.83-3.39,15.36-7.93,21.91l-15.82,22.78c-7.4,10.95-19.15,18.11-32.42,19.22l-.67.14H40.16c-10.57-.79-20.61-5.49-28.05-13.22-7.01-7.29-11.24-16.81-12-26.77l.08-6c.49-8.41,3.76-16.1,8.57-23.02l14.68-21.14c7.62-11.54,19.79-18.98,33.74-19.92h160c10.84.83,20.8,5.43,28.27,13.21,7.05,7.33,11.25,16.86,11.94,26.94ZM236,142.44c13.87-12.67,13.89-34.33.18-47.04-5.67-5.26-13.3-8.56-21.29-8.56H59.45c-8.06,0-15.77,3.32-21.46,8.66-13.61,12.74-13.53,34.27.22,46.89,5.58,5.12,13.12,8.45,20.97,8.45h156c7.76,0,15.25-3.3,20.83-8.4ZM224.03,161.08l.08-.3c-2.87.57-5.79,1.08-8.81,1.08H58.68c-21.17-.59-38.87-16.62-41.52-37.62-8.83,12.23-7.85,28.94,2.27,40.1,5.86,6.46,14.08,10.28,22.96,10.57l155.98-.05c10.34,0,19.82-5.58,25.66-13.78Z" fill="#fff"/>
  <path d="M56.7,120.83c.7,1.22,2.1,2.11,3.58,2.11l34.12.02v11.81s-37.4,0-37.4,0c-8.58-.48-15.17-7.57-15.13-15.99s6.68-15.44,15.27-15.86h37.26s0,11.81,0,11.81h-33.99c-1.49.15-2.8.68-3.6,1.94-.76,1.19-.88,2.84-.11,4.18Z" fill="#fff"/>
  <polygon points="207.27 118.84 230.34 134.76 209.54 134.77 196.85 126.01 184.18 134.76 169.79 134.77 169.79 102.91 184.15 102.91 184.17 120.41 209.55 102.9 230.35 102.92 207.27 118.84" fill="#fff"/>
  <polygon points="146.72 123.86 146.74 134.77 98.76 134.76 98.75 102.91 113.11 102.91 113.12 123.86 146.72 123.86" fill="#fff"/>
  <rect x="151.07" y="102.91" width="14.37" height="31.86" fill="#fff"/>
</svg>