<?xml version="1.0" encoding="UTF-8"?>
<svg id="Layer_1" xmlns="http://www.w3.org/2000/svg" version="1.1" viewBox="0 0 98.18 42">
  <!-- Generator: Adobe Illustrator 30.3.0, SVG Export Plug-In . SVG Version: 2.1.3 Build 182)  -->
  <path d="M98.17,15.32l.02,2.24c-.22,2.99-1.29,5.86-3.03,8.36l-6.04,8.69c-2.82,4.18-7.31,6.91-12.37,7.33l-.26.05H15.28c-4.03-.3-7.86-2.09-10.7-5.04C1.91,34.17.29,30.54,0,26.74l.03-2.29c.19-3.21,1.43-6.14,3.27-8.78l5.6-8.07C11.81,3.2,16.46.36,21.78,0h61.05c4.14.32,7.94,2.07,10.79,5.04,2.69,2.8,4.29,6.43,4.56,10.28h0ZM90.01,25.41c5.29-4.83,5.3-13.1.07-17.95-2.16-2.01-5.07-3.27-8.12-3.27H22.64c-3.08,0-6.02,1.27-8.19,3.3-5.19,4.86-5.16,13.08.08,17.89,2.13,1.95,5.01,3.22,8,3.22h59.53c2.96,0,5.82-1.26,7.95-3.21h0ZM85.44,32.53l.03-.11c-1.1.22-2.21.41-3.36.41H22.35c-8.08-.23-14.83-6.34-15.84-14.35-3.37,4.67-3,11.04.87,15.3,2.24,2.46,5.37,3.92,8.76,4.03l59.52-.02c3.95,0,7.56-2.13,9.79-5.26Z" fill="#fff"/>
  <path d="M21.6,17.17c.27.47.8.81,1.37.81h13.02v4.51h-14.27c-3.27-.18-5.79-2.89-5.77-6.1s2.55-5.89,5.83-6.05h14.22v4.51h-12.97c-.57.06-1.07.26-1.37.74-.29.45-.34,1.08-.04,1.59h0Z" fill="#fff"/>
  <polygon points="79.05 16.41 87.85 22.48 79.92 22.49 75.07 19.14 70.24 22.48 64.75 22.49 64.75 10.33 70.23 10.33 70.23 17.01 79.92 10.33 87.86 10.33 79.05 16.41" fill="#fff"/>
  <polygon points="55.94 18.32 55.95 22.49 37.64 22.48 37.64 10.33 43.12 10.33 43.12 18.32 55.94 18.32" fill="#fff"/>
  <rect x="57.6" y="10.33" width="5.48" height="12.16" fill="#fff"/>
</svg>