<?xml version="1.0" encoding="UTF-8"?>
<svg id="Layer_1" xmlns="http://www.w3.org/2000/svg" version="1.1" viewBox="0 11 50.84 11">
  <!-- Generator: Adobe Illustrator 30.3.0, SVG Export Plug-In . SVG Version: 2.1.3 Build 182)  -->
  <path d="M2.56,19.56l-2.51.03v-6.1s2.31,0,2.31,0c1.68,0,3,1.26,3.1,2.85.1,1.6-1.11,3.21-2.9,3.23Z" fill="#fff"/>
  <path d="M7.42,19.84h1.18c.26.44.59.65,1.01.7.39.04.99-.11,1.19-.5.23-.44.21-1.01.14-1.42-.95,1.01-2.46.91-3.24-.18-.71-.98-.7-2.35.05-3.3.82-1.04,2.33-1.05,3.2-.1l.06-.62h1.2s-.02,5.05-.02,5.05c0,1.4-1.26,2.24-2.55,2.13-1.06-.09-2.04-.51-2.22-1.75h0ZM10.99,16.82c0-.89-.63-1.47-1.4-1.41-.72.06-1.16.69-1.15,1.45s.53,1.35,1.26,1.36,1.3-.58,1.29-1.41Z" fill="#fff"/>
  <path d="M49.99,18.74c-.87.83-2.15.72-2.94-.08l-.14.57h-1.13v-6.4h1.19s.02,2.19.02,2.19c.88-.86,2.36-.98,3.2.08.85,1.06.79,2.69-.21,3.64h0ZM49.53,16.93c.06-.85-.52-1.54-1.28-1.52s-1.28.64-1.26,1.43c.02.76.49,1.39,1.24,1.4.64,0,1.24-.51,1.3-1.31h0Z" fill="#fff"/>
  <polygon points="40.24 19.2 39.04 19.22 39.03 16.64 36.45 16.64 36.46 19.22 35.23 19.21 35.23 13.19 36.44 13.17 36.45 15.66 39.03 15.66 39.03 13.18 40.24 13.18 40.24 19.2" fill="#fff"/>
  <path d="M21.77,19.18l-1.18.07-.04-.65c-.5.5-1.12.78-1.83.7-.62-.07-1.25-.44-1.59-1.06-.45-.82-.5-1.83-.09-2.67.32-.67.94-1.12,1.58-1.2.74-.1,1.41.16,1.93.68l.04-.63h1.18s0,4.76,0,4.76h0ZM20.55,16.82c0-.87-.61-1.46-1.38-1.4-.71.05-1.2.7-1.17,1.46.03.76.57,1.36,1.29,1.36s1.26-.59,1.26-1.42Z" fill="#fff"/>
  <path d="M32.2,17.73l1.33-.02c-.29.93-1.02,1.42-1.78,1.55-.88.14-1.82-.1-2.36-.84-.72-1-.71-2.5.17-3.4s2.47-.9,3.4-.06c.62.56.77,1.35.66,2.21l-3.51.02c.05.56.4.94.77,1.04.54.14,1.04.05,1.32-.5ZM32.43,16.35c-.18-.92-.76-1.02-1.32-.99-.51.03-.95.42-.95,1.03,0,0,2.28-.04,2.28-.04Z" fill="#fff"/>
  <path d="M45.27,14.41v4.77s-1.14.06-1.14.06l-.13-.57c-.6.68-1.37.74-2.18.47-.64-.22-1.12-.95-1.12-1.78v-2.94s1.2,0,1.2,0v2.69c0,.7.42,1.13,1.03,1.15.58.01,1.1-.38,1.11-1.06l.02-2.78h1.22s0,0,0,0Z" fill="#fff"/>
  <polygon points="28.95 19.22 25.44 19.22 25.46 18.2 27.51 15.42 25.44 15.42 25.44 14.42 28.94 14.42 28.89 15.44 26.83 18.21 28.95 18.24 28.95 19.22" fill="#fff"/>
  <path d="M16.85,18.18l.06,1.06-1.33-.09c-.53-.03-.95-.61-.95-1.13l-.03-2.57-.46-.07c-.11-.02-.1-.34-.09-.45l.03-.43c0-.11.3-.1.51-.11l.03-1.16h1.2s.01,1.18.01,1.18h1.07v.99l-1.08.05.04,2.5c0,.21.51.31,1,.23h0Z" fill="#fff"/>
  <rect x="22.26" y="12.81" width="1.21" height="6.42" fill="#fff"/>
  <rect x="5.8" y="14.42" width="1.24" height="4.81" transform="translate(-.02 0) rotate(-.06)" fill="#fff"/>
  <rect x="12.7" y="14.41" width="1.23" height="4.82" fill="#fff"/>
  <rect x="23.98" y="14.41" width="1.22" height="4.82" fill="#fff"/>
  <circle cx="24.59" cy="13.14" r=".73" fill="#fff"/>
  <circle cx="6.42" cy="13.13" r=".73" fill="#fff"/>
  <circle cx="13.31" cy="13.14" r=".73" fill="#fff"/>
</svg>