<?xml version="1.0" encoding="UTF-8"?>
<svg id="Layer_1" xmlns="http://www.w3.org/2000/svg" version="1.1" viewBox="0 102 256 48">
  <!-- Generator: Adobe Illustrator 30.3.0, SVG Export Plug-In . SVG Version: 2.1.3 Build 182)  -->
  <path d="M13.12,140.89l-12.63.13.02-30.68,11.61-.02c8.45-.02,15.09,6.32,15.57,14.35s-5.6,16.13-14.57,16.22Z" fill="#fff"/>
  <path d="M37.52,142.25l5.94.03c1.31,2.16,2.98,3.26,5.08,3.48,1.97.21,4.96-.54,5.98-2.53,1.14-2.21,1.08-5.07.72-7.15-4.77,5.08-12.36,4.55-16.31-.91-3.55-4.92-3.53-11.8.25-16.57,4.13-5.22,11.71-5.29,16.07-.49l.31-3.13,6.05.07-.11,25.29c-.03,7.06-6.31,11.26-12.84,10.72-5.31-.44-10.25-2.54-11.15-8.82ZM55.48,127.1c-.03-4.48-3.17-7.41-7.04-7.07-3.61.31-5.85,3.45-5.77,7.31s2.68,6.78,6.31,6.85,6.53-2.91,6.5-7.09Z" fill="#fff"/>
  <path d="M251.54,136.74c-4.36,4.18-10.83,3.63-14.79-.41l-.68,2.85-5.68-.07v-32.11s6-.06,6-.06l.08,11.07c4.43-4.33,11.85-4.93,16.11.42s3.96,13.51-1.05,18.31ZM249.19,127.66c.32-4.29-2.63-7.76-6.43-7.66s-6.45,3.2-6.34,7.21c.11,3.82,2.45,6.99,6.24,7.03,3.24.03,6.23-2.57,6.53-6.57Z" fill="#fff"/>
  <polygon points="202.51 139.06 196.46 139.18 196.45 126.21 183.46 126.17 183.49 139.16 177.35 139.13 177.34 108.84 183.41 108.74 183.48 121.25 196.44 121.26 196.45 108.8 202.51 108.82 202.51 139.06" fill="#fff"/>
  <path d="M109.67,138.94l-5.93.33-.2-3.27c-2.52,2.51-5.65,3.93-9.19,3.52-3.1-.36-6.27-2.2-8-5.32-2.28-4.12-2.51-9.19-.46-13.42,1.63-3.36,4.75-5.63,7.95-6.05,3.71-.49,7.07.79,9.68,3.43l.18-3.15,5.93.02.02,23.92ZM103.56,127.08c0-4.38-3.08-7.36-6.94-7.06-3.55.27-6.04,3.54-5.9,7.36s2.89,6.85,6.5,6.85,6.33-2.98,6.34-7.15Z" fill="#fff"/>
  <path d="M162.1,131.68l6.68-.08c-1.44,4.69-5.13,7.16-8.95,7.78-4.44.71-9.14-.49-11.87-4.24-3.64-5.01-3.55-12.55.87-17.1s12.42-4.51,17.08-.28c3.1,2.82,3.86,6.78,3.34,11.1l-17.62.1c.27,2.79,2,4.74,3.85,5.23,2.7.72,5.25.26,6.62-2.51ZM163.27,124.75c-.88-4.61-3.84-5.15-6.66-4.98-2.56.16-4.8,2.1-4.78,5.16l11.44-.18Z" fill="#fff"/>
  <path d="M227.81,115l.05,23.97-5.8.28-.65-2.88c-3.02,3.4-6.88,3.73-10.96,2.35-3.2-1.09-5.62-4.78-5.63-8.93l-.03-14.79,6.08.02.02,13.53c0,3.53,2.08,5.69,5.17,5.77,2.93.07,5.54-1.93,5.56-5.33l.08-13.95,6.11-.05Z" fill="#fff"/>
  <polygon points="145.76 139.16 128.1 139.17 128.22 134.02 138.55 120.08 128.13 120.05 128.14 115.05 145.69 115.01 145.48 120.15 135.1 134.1 145.75 134.21 145.76 139.16" fill="#fff"/>
  <path d="M84.94,133.94l.31,5.32-6.7-.43c-2.67-.17-4.76-3.07-4.79-5.69l-.15-12.91-2.32-.36c-.54-.08-.5-1.73-.46-2.27l.16-2.16c.04-.53,1.5-.5,2.57-.54l.15-5.82,6.02-.05.06,5.97,5.36.04v4.92s-5.43.25-5.43.25l.18,12.55c.01,1.04,2.56,1.56,5.02,1.18Z" fill="#fff"/>
  <rect x="112.15" y="106.93" width="6.1" height="32.25" fill="#fff"/>
  <rect x="29.39" y="115.01" width="6.25" height="24.16" transform="translate(-.13 .03) rotate(-.06)" fill="#fff"/>
  <rect x="64.08" y="114.96" width="6.17" height="24.22" fill="#fff"/>
  <rect x="120.79" y="114.97" width="6.13" height="24.21" fill="#fff"/>
  <circle cx="123.87" cy="108.6" r="3.68" fill="#fff"/>
  <circle cx="32.5" cy="108.56" r="3.67" fill="#fff"/>
  <circle cx="67.15" cy="108.57" r="3.66" fill="#fff"/>
</svg>
