<?xml version="1.0" encoding="UTF-8"?>
<svg id="Layer_1" xmlns="http://www.w3.org/2000/svg" version="1.1" viewBox="0 72 334.22 82">
  <!-- Generator: Adobe Illustrator 30.3.0, SVG Export Plug-In . SVG Version: 2.1.3 Build 182)  -->
  <path d="M85.55,121.73l-10.02,1.24-24.13,3.01-.5-44.84-.12-5.39-.1,1.09-.08,1.61-.47,9.3-.56,7.95c-.24,3.37-.73,6.59-1.46,9.89-1.69,7.58-5.3,13.76-11.96,17.92-2.64,1.64-5.39,2.86-8.34,3.86-3.18,1.08-6.3,1.99-9.61,2.61l-14.26,2.64-4.1.73c2.07,0,3.96-.24,6.03-.4l20.35-2.42,23.7-3.04.3,36.43.4,14.11.33-5.27.98-14.93c.18-2.78.64-5.41,1.17-8.14.55-2.85,1.36-5.55,2.48-8.22,1.94-4.6,5.12-8.43,9.29-11.16,2.33-1.52,4.75-2.69,7.36-3.67,2.75-1.04,5.45-1.88,8.33-2.48l9.22-1.92,11.25-1.99-2.06.03-13.43,1.46Z" fill="#fff"/>
  <path d="M170.5,104.68l-20.29-.03-6.49,6.43v31.35s6.76,6.35,6.76,6.35h19.74s6.34-6.28,6.34-6.28v-31.75s-6.07-6.08-6.07-6.08ZM167.89,140.97h-15.9v-28.18h15.9v28.18Z" fill="#fff"/>
  <path d="M268.88,109.41l.34,31.11-11.4.04c-.39,0-.88-.98-.79-1.35l.02-29.95-8.53-3.7v36.56s7.45,6.7,7.45,6.7l15.3.02,5.62-6.44-.22-36.89-7.79,3.89Z" fill="#fff"/>
  <polygon points="117.74 118.8 117.57 104.35 109.48 104.34 109.32 148.55 117.57 148.57 117.59 131.92 126.12 148.55 134.37 148.57 134.32 146.43 117.74 118.8" fill="#fff"/>
  <polygon points="324.32 104.75 323.96 137.79 323.72 148.79 332.71 148.79 333 104.69 324.32 104.75" fill="#fff"/>
  <rect x="269.5" y="122.82" width="43.97" height="8.06" transform="translate(162.57 417.42) rotate(-89.59)" fill="#fff"/>
  <polygon points="230.56 149.33 238.36 145.89 238.61 105.53 230.53 109.25 230.56 149.33" fill="#fff"/>
  <polygon points="213.6 140.17 193.07 114.49 183.29 114.62 202.55 140.22 213.6 140.17" fill="#fff"/>
  <polygon points="310.22 120.26 299.76 109.01 299.74 121.58 310.29 131.2 319.99 121.58 319.89 109.8 310.22 120.26" fill="#fff"/>
  <polygon points="183.26 148.98 212.96 149.22 220.29 143.01 189.54 143.01 183.26 148.98" fill="#fff"/>
  <path d="M216.03,104.89h-26.59s-5.79,6.01-5.79,6.01l29.46.05,7.37-5.89-2.49-.48c-.5.13-1.3.3-1.96.3Z" fill="#fff"/>
  <polygon points="119.99 111.11 123.68 116.18 135.6 104.36 127.11 104.37 119.99 111.11" fill="#fff"/>
</svg>
