<?xml version="1.0" encoding="UTF-8"?>
<svg id="Layer_1" xmlns="http://www.w3.org/2000/svg" version="1.1" xmlns:xlink="http://www.w3.org/1999/xlink" viewBox="0 0 256 256">
  <!-- Generator: Adobe Illustrator 30.3.0, SVG Export Plug-In . SVG Version: 2.1.3 Build 182)  -->
  <defs>
    <linearGradient id="linear-gradient" x1="295.07" y1="-17.6" x2="11.22" y2="243.15" gradientUnits="userSpaceOnUse">
      <stop offset="0" stop-color="#04ddf9"/>
      <stop offset="1" stop-color="#218ef8"/>
    </linearGradient>
    <linearGradient id="linear-gradient1" x1="342.07" y1="33.57" x2="58.22" y2="294.31" xlink:href="#linear-gradient"/>
    <linearGradient id="linear-gradient2" x1="325.26" y1="15.26" x2="41.4" y2="276.01" xlink:href="#linear-gradient"/>
  </defs>
  <g isolation="isolate">
    <path d="M51.15,162.27c.04,27.95,43.55,37.53,72.65,24.81,5.85-2.56,12.35-12.12,15.37-17.86-22.08-16.87-36.31-42.1-29.97-69.11,2.75-11.71,12.6-20.87,21.86-22.84,12.64-2.69,24.76,3.37,31.06,15.05,9.8,18.18,9.22,38.72,5.86,60.3,11.94,4.37,34.43-4.74,34.51-20.97.18-36.47.61-72.92.45-109.38v-1.66c-.03-5.86.19-12.37,4.28-16.56,2.23-2.29,5.46-3.56,8.64-3.41s6.28,1.72,8.28,4.21c3.19,3.97,3.35,9.5,3.36,14.59.04,19.69.16,39.38.1,59.07-.04,16.56.28,33.13-.85,49.66-.94,13.8-5.95,27.29-16.85,36.4-13.18,11.03-29.98,15.34-48.57,12.65-13.37,37.95-57.55,46.58-95.16,34.84-18.92-5.9-36.34-21.39-38.61-41.96-2.9-26.2-3.75-52.41,11.17-52.65,5.46-.09,12.37,6.76,12.38,12.39l.04,32.43h0ZM144.52,142.3c6.18-15.81,3.53-32.92-8.79-42.79-7.22,15.35-1.85,29.05,8.79,42.79Z" fill="url(#linear-gradient)"/>
    <circle cx="114.13" cy="242.95" r="12.86" fill="url(#linear-gradient1)"/>
    <circle cx="77.27" cy="243.06" r="12.76" fill="url(#linear-gradient2)"/>
  </g>
  <path d="M135.64,99.58s13.04-20.4,23.65-7.53c10.61,12.86,11.35,48.5,8.8,60.59-.2.41-23.03-7.98-23.83-10.84,0,0,6.81-31.54-8.62-42.21h0Z" fill="#3b6af3" isolation="isolate"/>
</svg>