<?xml version="1.0" encoding="UTF-8"?>
<svg id="Layer_1" xmlns="http://www.w3.org/2000/svg" version="1.1" viewBox="0 0 578 256">
  <!-- Generator: Adobe Illustrator 30.3.0, SVG Export Plug-In . SVG Version: 2.1.3 Build 182)  -->
  <path d="M116.78,133c4.68,10.27,6.32,20.8,6.7,31.7.1,11.63-1.49,22.36-3.22,34.23l15.48-19.38,18.29-23.4v83.97h39.13l-.07-228.28-76.29,121.18v-.03h-.02Z" fill="#fffaa1"/>
  <path d="M68.68,94.01l-15.44-16c-17.6-19.41-26.87-39.79-6.63-60.66-19.58,13.55-29.62,36.01-23.45,59.34,1.85,7.46,4.7,14.07,9.31,20.21l17.85,23.79c10.7,12.92,21.77,24.75,33.75,37.2-15.17-5-28.13-13.33-39.13-24.14-9.93-10.44-17.12-22.19-21.94-35.77-4.17-11.87-5.87-23.75-6.85-36.43-6.43,48.69,9.9,84.48,47.4,115.91l16.22,13.61c6.85,5.93,12.99,12.72,16.67,21.01,2.81,6.46,2.75,12.49.86,19.55,24.02-36.57,24.75-72.92-2.09-107.86-8.22-10.7-17.19-20.07-26.53-29.75l-.03.03.02-.02Z" fill="#fffaa1"/>
  <path d="M349.73,75.12l9.71,60.56,12.46.07,9.68-59.73.56,59.76,13.82-.07V49.32h-20.84l-8.44,57.71c.2.59-.2,1.29-.66,1.07l-8.75-58.73h-20.8v86.33l13.02.07.36-60.63h-.1l-.02-.02Z" fill="#fffaa1"/>
  <path d="M347.02,149.57c-4.27-.42-8.29-.49-12.49.03-10.46,1.29-17.89,9.87-17.89,20.53v49.27c0,10.46,7.46,18.82,17.65,20.17,6.59.86,13.19,1,19.58-1.98,6.92-3.24,11.04-10.38,11.04-17.95v-50.32c0-10.56-7.78-18.68-17.85-19.75h-.03ZM341.05,226.91c-4.83,0-8.26-3.19-8.26-7.85v-49.16c0-4.54,3.22-7.36,7.29-7.68,4.61-.36,8.48,2.64,8.48,7.68v49.83c.07,4.17-3.34,7.19-7.53,7.19h.02Z" fill="#fffaa1"/>
  <path d="M456.71,149.99c-5.93-1.22-11.87-1.19-17.68.36-9.04,2.42-14.72,10.66-14.72,20v48.79c0,8.65,4.87,16.56,13.02,19.31,6.7,2.25,13.78,2.36,20.9.42,8.68-2.32,14.21-10,14.17-18.78l-.14-51.71c0-9.34-6.85-16.56-15.6-18.38l.03-.03v.02ZM448,226.94c-4.1-.27-7.46-3.09-7.46-7.29v-49.79c-.03-4.76,3.41-7.58,7.82-7.68,4-.07,7.71,2.53,7.71,7.12v50.35c.03,4.48-3.58,7.58-8.09,7.29h.02Z" fill="#fffaa1"/>
  <path d="M241.35,149.5l-10.9-.07c-10.07-.07-19.34,9.27-19.31,21.7l.1,48.57c0,9.9,6.85,17.78,16.22,19.65,5.66,1.12,11.07,1.09,16.99-.27,9-2.09,15.11-9.8,15.11-19.14v-51.01c0-10.44-8.29-18.36-18.26-19.41h.03l.02-.02ZM235.28,226.87c-4.41-.1-7.78-3.09-7.78-7.46v-49.79c0-4.24,3.19-6.92,6.95-7.39,4.27-.53,8.71,2.22,8.71,7.15l.1,50.28c0,4.41-3.58,7.29-7.99,7.19h0v.02Z" fill="#fffaa1"/>
  <polygon points="518.06 150.23 506.23 219.46 494.43 150.16 477.94 150.23 493.48 239.16 517.56 239.1 533 150.16 518.06 150.23" fill="#fffaa1"/>
  <path d="M53.95,184.2c-9.65-7.88-17.36-16.63-26.07-26.94l-1.85,82.88,39.35-.07-.07-48.37c-4.76-2.39-7.85-4.68-11.36-7.53h0v.02Z" fill="#fffaa1"/>
  <path d="M422.65,123.56c-2.78-.8-4.65-3.48-4.68-6.88v-6.76l-13.92.14.49,11.32c.93,6.36,4.97,11.73,11.17,13.82,6.49,2.22,14.24,2.39,20.77-.59,7.39-3.34,9.9-10.7,10.44-17.92.73-9.71-2.46-17.78-9.65-24.28l-13.38-12.09c-4.54-4.1-6.26-10.7-3.81-16.17,1-2.22,3.54-3.22,5.53-3.22s4.93.73,5.8,2.81c1.32,3.15,1.07,6.43.93,10.24h14.48c.46-10.83-2.15-21.26-12.02-24.48-6.26-2.05-13.12-1.85-19.28.42-6.04,2.22-9.24,7.75-10.49,13.78-2.25,10.49,1.07,20.11,8.85,27.26l12.65,11.63c4.93,4.54,7.09,11.66,4.48,17.85-1.42,3.37-5.24,4-8.37,3.09l.03.03h-.02Z" fill="#fffaa1"/>
  <polygon points="369.77 150.16 369.74 163.43 386.4 163.47 386.44 239.13 402.71 239 402.75 163.37 419.43 163.33 419.36 150.16 369.77 150.16" fill="#fffaa1"/>
  <polygon points="230.08 135.75 230.11 98.42 248.54 98.38 248.47 85.36 230.08 85.36 230.11 62.41 253.63 62.37 253.61 49.32 215.01 49.32 215.01 135.75 230.08 135.75" fill="#fffaa1"/>
  <polygon points="285.7 225.75 285.6 150.16 269.38 150.23 269.34 239.13 311.64 239.13 311.57 225.82 285.7 225.75" fill="#fffaa1"/>
  <polygon points="329.07 122.63 305.57 122.59 305.54 49.32 290.74 49.39 290.6 135.75 329.07 135.75 329.07 122.63" fill="#fffaa1"/>
  <rect x="259.86" y="49.29" width="15" height="86.53" fill="#fffaa1"/>
</svg>