<?xml version="1.0" encoding="UTF-8"?>
<svg id="Layer_1" xmlns="http://www.w3.org/2000/svg" version="1.1" viewBox="0 0 256 256">
  <!-- Generator: Adobe Illustrator 30.3.0, SVG Export Plug-In . SVG Version: 2.1.3 Build 182)  -->
  <path d="M154.55,18.17c-.85.26-1.57.6-2.26.93l-.26.12c-.47.49-.97.98-1.51,1.52l-.21-.08c-.96-.35-1.94-.7-2.95-1l-.07.19-.1.27-.33.9-.05.14-.09.24-.09.25-.07.16.58.39.51.32.61.41.26.23.06.04,1.19-1.2.65-.67.05-.05.11-.12.22-.22.05-.05h0l.02-.03h0l.36-.33.02-.02.06-.07.71-.74c.48-.42,1.2-.72,2.05-.96.58-.16,1.23-.28,1.9-.37l.97-.13c.93-.09,1.92-.12,2.96-.08,4.57.18,9.99,1.59,14.99,3.41,3.07,1.11,6,2.37,8.47,3.6.51.1,1.03.2,1.57.3,1.81.34,3.76.67,5.74.78,1.7.1,3.41.03,5.07-.35l.35-.16.61-.32h0l-.86.19c-.59.11-1.32.2-2.29.19-2.97,0-5.01-.15-7.09-.47-1.08-.15-2.18-.35-3.43-.59-2.19-1.08-4.38-2.15-6.65-3.11-5.46-2.33-11.39-4.06-18.87-3.91-1.23.02-2.17.2-2.99.45" fill="#ffad01"/>
  <path d="M127.99,136.8c-.63-1.13-1.24-2.23-1.85-3.18l-.44-.82v-.02c-.51-1.03-.86-2.15-1.38-3l-.06-.08-.79-.84-.24-.36-.09-.25c-.3-.78-.42-1.75-.64-2.49h-.21l-.9.16c-.75.41-1.07,1.4-1.31,2.25l-.14.5c-.44,1.46-1.39,3.28-1.72,5.05l-.11,1.01c-.02.67.08,1.33.38,1.95l-.04.21c-.41,2.11-1.3,4.71-1.43,4.71l-.15.24c-.69,1.1-1.15,1.31-1.3,2.48-.07.55-.07,1.31,0,2.47v.27c.27.38.51.79.64,1.3l.1,1.07.85.96c.27.53.42,1.18.5,1.89l.08,1.09v.5l.02.83.09.36.07.26h0l.18,1.19.26.08.43.13,1.48.79c.54.4,1.07.93,1.55,1.65l.37.62.02.05.25.48.2.49.16.37c-.13-.03-.59-.25-1.23-.43l-.45-.11c-.82-.17-1.85-.23-2.9.15v.09l.03.3.14,1.26.08.48.02.08.02.08-.02.66c-.09.6-.32,1.41-.57,2.4v.02l-.24.96c.83.31,1.69.85,2.5,1.7l.3.31h0l.6.79.35.56-.79-.2c-.82-.19-2.13-.37-3.43.04l-.06.65c-.04.45-.07.95-.08,1.53l-.02.39c-.01.5-.02,1.08-.02,1.77v.14l-.06.25-.19.99-.09.57-.02.18-.03.23c.78.34,1.59.88,2.35,1.69l.38.45.2.26.44.65c-.15-.03-.77-.23-1.6-.34-.59-.08-1.27-.1-1.98,0l.05.84.16.63c-.38.62-.53,1.22-.53,1.76l.19,1.09.13.33.06.14.56,1.07c.31.51.6.99.72,1.42l.03.12.02.09.15.9c.11.69.17,1.37.2,1.95v.17l.04.72.25.15.84.34c1.01.27,2.21.24,3.18.17h.22c1.69-.12,6.07,1.03,8.58,1.63l1.48-.13c1.92-.18,3.91-.37,6.2-.44l.61-.03c.56,0,1.09-.11,1.61-.26l.26-.08c.36-.72.5-1.68.34-2.96v-1.32l-.02-.76v-1.04c.06-.67.24-1.22.75-1.44l-.38-.23v-1.04s.27-.51.27-.51l.09-.18.22-.88c.13-.62.21-1.29.16-2.07-1.19-2.57-2.27-5.25-3.39-7.89-.24-.55-.48-1.09-.72-1.65-.25-.58-.51-1.16-.78-1.73-.29-.63-.59-1.26-.9-1.87-.45-.89-.93-1.76-1.43-2.6-.39-.65-.78-1.29-1.2-1.9l-.24-.32-.45-.63c.14-1.28-.65-1.66-.37-3.09l.21.03.23-.38h.3l-.03-.71c0-.86.1-1.63.21-2.37l.09-.57c.11-.76.2-1.53.14-2.39l-.05-.71c-.09-.65-.25-1.31-.44-1.97-.27-.93-.6-1.84-.98-2.73-.25-.57-.5-1.11-.76-1.63l-.49-.95-.61-1.11c-.63-1.09-1.27-2.28-1.92-3.48-.36-.66-.71-1.32-1.07-1.97l-.26-.47" fill="#ffad01"/>
  <polyline points="145.41 26.01 145.8 25.7 144.96 25.59 144.56 26.42 145.41 26.01" fill="#ffad01"/>
  <path d="M21.07,109.59h0c3.55-11.13,6.54-13.39,6.81-12.79v.16c-.88,2.6-1.8,5.41-2.64,8.4-2.53,8.96-4.47,19.47-3.66,30.26.06.43.11,1.31.18,2.4.15,2.38.34,5.83.54,8.17.09,1.08.19,1.94.29,2.33.09.52.19,1.03.28,1.54l.24,1.38c1.32,5.47,3.26,9.57,5.24,14.64h0c-.78-2.99-.91-6.1-.76-8.6.19-2.98.77-5.11,1.14-5.18l.13.06c1.22,2.64.6,8.3,2.23,9.21l.36.11c1.17-.13,1.68,2.47,3.37,5.69,1.21,1.61,2.32,3.12,3.4,4.55.99,1.33,1.96,2.59,2.96,3.83h0l.78-1.08c.69-1.08,1-2.01,1.4-3.22l.22-.65.28-.8.43-1.13.22-.87c.14-.64.25-1.25.31-1.38h.05s.03.11.03.11h0l.02-.05v-.02h.03l.39,1.07.04.3c.07.53.22,1.58.31,2.17l.05.38.33.93c.37,1.18.45,2.15.61,3.17.12.77.28,1.58.66,2.53l.1.06.11.06c.16.24.23,1.13.5,2.12l.55,1.42.15.32-.33-.59.45.86-.11-.25c.28.53.59,1.05.89,1.55h0l.04.07v.02l-.06-.1h0v-.02h0v.02h0c.06.1.32.55.62,1.06l.54.9c.34.59.62,1.07.59,1,1.82,2.71,2.98,4.39,4.17,5.85l.74.88,1.01.36c2.58.91,4.59,1.29,6.87,1.38l1.07.02h.63c1-.02,2.07-.06,3.28-.13l.3-.02h0c.67,0,1.29-.05,1.87-.11h.02c.57-.07,1.13-.17,1.69-.27h.01c1.11-.2,2.24-.42,3.59-.51l.45-.03.97-.02c.61,0,1.27.03,1.99.1h1.83c1.24-.17,2.54-.08,3.56-.28.07-.49.21-1,.45-1.52l.08-.11.06-.09.87-.56h0c.53-.25,1.2-.49,1.96-.74l1.12-.38h0l.55-.19c1.2-.42,2.46-.9,3.55-1.52l.64-.32,1.24-.67.52-.3c1.87-1.1,3.22-2.15,4.16-3.09l.11-.11c.77-.79,1.25-1.49,1.49-2.04l.19-.65c.2-2.15.12-4.22-.13-6.26-.1-.84-.24-1.67-.4-2.51-.14-.78-.32-1.55-.51-2.33-.51-2.15-1.16-4.31-1.83-6.56l-.18-.56-.29-.98c-.13-.44-.26-.76-.63-1.42h0l-.11-.19-.61-1.02c-.13-.58-.2-1.14-.24-1.67s-.04-1.03,0-1.52c.15-2.86,1.08-4.99-.4-6.56l-.66-.56h-.02l-.16-.11-.02-.13v-.07h-.01c-.18-1.33-.49-2.53-.8-3.72-.14-.51-.25-1.04-.37-1.56l-.26-1.11-.14-.85c-.12-.8-.22-1.65-.22-2.59l-.05-.38-.04-.32c-.14-1.29-.19-2.75-.21-4.27-.04-2.74-.01-5.71-.31-8.45l-.12-.98c-.16-.47-.27-.98-.36-1.51-.21-1.24-.27-2.62-.37-3.96l-.41-.41.05-.31.15-1.09c.1-.77.19-1.56.28-2.35.31-2.77.61-5.56,1.39-7.86l-.18-.03-.14-.02-.57.37-.21.04c-2.61-.38-4.2.26-5.54,1.16-1.02.69-1.9,1.52-2.97,2.16l-.6.33c.12,2.66.01,5.55-.03,8.38-.03,1.67-.03,3.31.05,4.87.05,1.2.14,2.35.31,3.43h0l.03.27-.24.16-.1,1.45.34.59-.31.49v.02l-.05.22-.08.36.11,1.15c.22,1.13.62,2.3-.04,3.04.26,1.07.36,2.28.4,3.57.04,1.23.02,2.51-.03,3.81-.04,1.77-.1,3.56,0,5.2l.03.1.06.19c.41,1.34.9,2.61,1,4.26l-.28.02-.09.4-.07.12-.02.03h0l-.26-.03.02.39c.02.71-.1,1.55-.03,2.21l.18.6.2.27.23-.09.23-.16.28-.33.15-.14.56-.19-.16,1.23c-.15,1.19-.32,2.36-.7,3.32l-.25.56-.35.54.07,1.09-.26,1.13-.24,1.22v.79l.43,1.05-.11.13-.3.28v.02l.04.3-.36.91-.27.62c-.38.99-.89,2.62-1.24,4.2-.14.6-.25,1.19-.32,1.75l-.13-.85-.1-.75h0l-.04-.25-.03-.25c-.57-4.17-1.05-8.44-1.87-12.37l-.02-.1.23-.41c.11-.43-.1-.9-.36-1.41-.26-.5-.55-1.03-.61-1.58v-.3l.14-.55.05-.13.07-.04.83.1,1.11.29.3-1.03-.2-1.4-.14-.32c-.21-.53-.45-1.07-.6-1.7-.1-.42-.16-.87-.11-1.38l.65-.65.09-1.17.08.02.42-.41.23.02v-1.6c.02-1.88.03-3.75.03-5.61,0-1.06,0-2.12-.02-3.18v-2.65l-.02-.85h0v-.63c-.01-.92-.01-1.85-.03-2.76h0v-.35l-.02-1.49v-.15h0l-.02-.97-.02-1.2h0l-.02-1.24c0-.51-.02-1.03-.03-1.55-.01-.71-.03-1.42-.04-2.13-.04-2.32-.1-4.63-.15-6.93h0v-.48l-.02-.48-.26.06-.65,1.04h-.04l-1-.17-.19-.05-.76-.2-.85-.35c-.71-.3-1.38-.62-2.05-.96-.71-.37-1.42-.73-2.22-1.01v-1.09l-.59-.2-.45-.19-.33-.3-.1-.23c.17-.44.55-.67.37-1.46l-.38-.02h0l-.36-.14h0l-.32-.2-.38-.19c-.18-.51.08-.6.24-.77l.12-.32-.26-1c.07-.97.97-1.88,1.64-2.64l.44-.56c.2-1.02-.54-2.97.72-2.92h0v.02h.01v.03l.03.04c.27.82.81,1.21,1.5,1.33h1.23c.48-.07.98-.2,1.5-.34l1.41-.44c.57-.19,1.12-.37,1.62-.49l.23-.05.49-.09c-.27-.88.45-.76,1.09-.72l.82-1.2.69-1.01c1.63-2.72,2.76-5.94,3.23-9.82l-.37-.14-.25-.24-.12-.31v-.4h1.46l.15-.74c.12-.78.08-1.44-.03-2.04-.09-.56-.22-1.07-.3-1.6.71-.17.46.64,1.27.36l.26-.97c.17-.52.39-.98.84-1.21-.14-.58-.6-.85-.71-1.47l-.02-.36.32-.05.82.57.02.03.13.08.17.1.51-.67c.6-.71,1.32-1.28,2.1-1.8l.67-.44.07-.96v-.73l-.02-.91-.1-1-.08-.73c-.22-1.82-.46-3.55.13-5.15l-.06-.04-.28-.25-.48-.26c-.5-.18-1.06-.12-1.74.19.09.7-.25.96-.73,1.09l.17-.44.12-.32c.49-1.11,1.17-2.01,1.85-2.92.82-1.11,1.62-2.23,2-3.77.14-.6.24-1.26.24-2.01-.57-.09-.85-.49-.99-1.01-.18-.68-.13-1.59-.11-2.47h0v-.53l.18.04.18-.19.2-.26.18.04c-.71-2.68-.11-5.32,1.31-6.89l.87-.77v-.07c-.08-.59-.05-1.09.01-1.55.14-1.12.61-1.92,1.26-2.52.82-.76,1.88-1.25,2.89-1.82.95-.53,1.84-1.13,2.4-2.06l.66-.6.72-.66.37-.34.61-.55.44-.41.48-.43,1.1-1c1.3-1.18,2.69-2.44,3.91-3.53l.14-.13.72-.7c2.28-2.4,1.08-3.31,1.08-3.31.01-.82-.1-1.62-.32-2.32-.27-.84-.76-.99-1.32-1.93,0-.97.19-1.7.19-2.67l-.02-.06-.71-1.22-.05-1.05v-.85l.02-.86c.04-.63.13-1.22.24-1.78l.03-.22.24-.77c1.16-3.82,4.21-5.75,9-5.95,1.89.04,3.52.41,4.91,1.05-1.52-1-3.41-1.54-5.61-1.58-1.11.04-2.09.21-3.02.45-4.08,1.04-6.43,3.94-6.64,8.84-.96.05-1.67.1-2.02.16-5.3.4-10.77,1.72-15.63,2.85-3.81,1.33-6.99,2.6-10.03,4.29l-.4.21c-.57.32-1.12.71-1.66,1.09h0l-.5.55-.14.14-.61.54-1.12.73-.15.08-.41.22-.66.36-.22.15h-.02l-.11.07-.86.53c-3.13,1.91-6.32,3.92-9.38,6.15h-.01l-1.19,1.16v.02l-.06.04-.21.19-1.31,1.09c-.78.58-1.57,1.15-2.36,1.72l-.3.22-.02.02-.18.14-.24.17-.03.02-.81.79c-2.75,2.59-5.22,5.45-7.24,8.67l-.86,1.36-.55.47c-3.26,2.72-3.34,1.97-7.28,7.17-1.52,1.54-3.14,4.03-4.69,6.86l-.8,1.49-.13.24c-1.49,2.85-2.89,5.91-4.08,8.61-.69,1.58-1.32,3.04-1.84,4.27,2.14-6.54,2.48-9.96,3.96-13.2.47-1.01,1.03-2.01,1.82-3.08l-.02.02.02-.02c-1.18,1.6-2.21,3.1-3.18,4.61-1.75,2.7-3.31,5.45-5.11,8.87,0,0-2.67,7.53-3.41,9.33-1.31,3.93-3.87,9.53-5.66,17.69-.53,2.41-1,5.04-1.35,7.93h0" fill="#ffad01"/>
  <path d="M114.69,17.44l.2.16.22.2.82.07.46-.06.86-.14h0l-.24-.28c-.55-.03-2.16-.4-2.5-.08l.19.13" fill="#ffad01"/>
  <path d="M223.25,148.81c.18-1.23.34-2.47.48-3.73-.14,1.25-.3,2.5-.48,3.71" fill="#ffad01"/>
  <path d="M132.41,25.15l.05.56,1.32.29c2.01.48,3.97,1.17,4.69,1.32l.52-1c.44-.98.87-2.22.97-2.55l-.98-1.06c-.47-.53-.9-1.08-.97-1.51-.07-.42.09-.98.61-1.35l.02-.02.05-.04c.18,0,.77.1,1.42.21l.95.16h0c.53.1.99.18,1.14.18l.46-.96.37-.79.04-.09.26-.59c2.06-4.54,3.91-9.66,5.63-14.53.33-.92.66-1.85.98-2.74h.04c1.32-.35,2.44-.06,3.19.57h0c-.49-.8-1.47-1.25-2.6-1.18l-.94.21-.21.06c-.94,2.65-1.93,5.46-2.97,8.28-1.25,3.37-2.57,6.74-3.97,9.77l-1.29-.27h0c-2.67-.73-5.37-1.42-8.11-2.05l.05.77c.03.53.04,1.07.03,1.63,0,.66-.04,1.31-.1,2.01-.06.67-.25,1.46-.4,2.27-.1.51-.16,1.02-.22,1.53l-.04.9" fill="#ffad01"/>
  <path d="M196.47,41.49l-.63-.63c-.44-.35-1-.66-1.54-.95-.55-.31-1.07-.59-1.4-.84l-.1-.07-.35-.33h0c-1.09-.59-2.26-1.21-3.51-1.86h0c-1.96-1.41-3.91-2.67-5.83-3.74l-1.15-.64c-8.41-4.39-16.3-7.49-23.18-9.35-1.81-.49-3.55-.91-5.2-1.23h0c-.74.67-1.75,1.65-3.07,3.04l-.07.08-.25.26c-.94,1.01-2.01,1.76-3.1,2.34-1.3.7-2.61,1.14-3.71,1.4h-.03l-.28.57.04.06c.41.72,2,1.52,2.68,2.27,1.85,1.35,4.42,1.89,7.17,2.32l.11.02.42.07v.5l.26.28.1.25v.06l-.16.3-.2.76v1.86l.83,2.96h0l1,3.6.32,1.32c.09.46.11.97.04,1.6.71-.16.79.31,1.09.55l.02.2c.14,1.35-.29,2.16-.39,3.28v1.06l-1.17.39-.27.33c1.2.83,2.42,1.64,3.3,2.79l.34.49h1.09l.04.02v.3c-.04.63-.29,1.93-.4,1.5l-.21-.06-.26.49-.49-.17-.13-.08v-.02l.37-.53h-.92l-.4-.14-.68-.23-.18.13-.09.16-.27.08c.14.68.26,1.37.38,2.05.13.69.26,1.37.39,2.06.31,1.75.64,3.49.99,5.2.13.67.27,1.34.42,1.99h1.46l.15.73c.19.57.47,1.03.57,1.69v.87l.41.21,1.14.39.28.31-.93.87-.53.04.03.58.03.59-.08.54c-.07.54-.14,1.08-.23,1.62l-.08.53-.03.88.31.21.08.04,1.06.85h0l-.82.84-.39.19-.5.06h-.1l.02.45-.1.46-.05.13-.26.76.03.58.18.15,1.36.71.28.78c-.89-.16-.94.52-1.82.36l-.36.55v3.28l.09.19.27.74.05.22v1.4l-.1.73-.15.7-.28,1.34c-.14.8-.18,1.54.13,2.15l.04.18c0,.32-.6.03-.41.56l.38.96-.02.31-.44.3-.3,1.22v1.41s.15.04.15.04c.61.26,1.1-.07,1.69-.23v.32c-.08.89-.94,1.01-1.44,1.48l-.02.02c-.05.81-.03,1.58.28,2.04l.09.15.96-.21.65-.13.21.16-.26.51-.17.19c-.49.42-1.24.56-1.75.94l-.03.51-.27,1.06-.52.46h-.02l-.5.13h0l-.13.02v.27c.14,2.06.19,4.31.08,6.53l-.09,1.47c-.17,2.05-.52,4.02-1.13,5.71-.28.76-.61,1.43-1,2.05-.55.89-1.21,1.65-2.03,2.2l-.16-.05c-.65-.14-1.11-.48-1.44-.94-.38-.53-.58-1.23-.7-2-.23-1.43-.2-3.13-.4-4.58l-.04-.27-.02-.11c-.68-2.72-.29-6.51-.31-9.9v-.7l-.03-.96-.49-.26c-.69-.33-1.43-.63-1.64-1.45h0l-.04-.2v-.05l-.02-.04-.44.03-.11-.02-.3-.08-.11-.05-.25-.16.1.08h-.02l-.09-.08h0l-.11-.08-.34-.41-.09-.16-.18-.39-.08-.21-.1-.45-.04-.21-.03-.67v-.04l-.37-.36h-.03c-.87-.15-1.19.25-1.79.36.62,6.24,4.44,9.27,5.1,15.49l-.39.43h0v.21l.05.18.02.03.19.42.05.13.05.15h0l.03.26c-.02.5-.75,2.92-.73,3.65.06,2.02,1.31,3.16,1.1,4.92-.16,1.29-1.37,3.36-1.1,5.29l.1,1.06c.07.65.13,1.31.19,2l.09,1.11c.08.79.18,1.59.35,2.4l.32.36-.05,1.14-.27.5c.26.89.49,1.82.37,3.1l.78,1.05.58.78c.73,1.08,1.37,2.24,1.92,3.51.35.83.64,1.71.9,2.62.31,1.07.56,2.21.74,3.42l.18,1.39c.38.8,1.07,2.3.37,3.1v11.11c-.76.77-.26,1.43.11,2.19.21.43.38.9.26,1.45l-.25-.03-.13.36-.02.14h0l-.03.05-.15.07-.11-.02h-.04s0,.09,0,.09v.04c-.08.97.1,1.91.36,2.81l.36,1.17.04.12.22.74.11.43c.16.63.26,1.24.19,1.82-.08.6-.34,1.18-.9,1.7h0c.17.55.43,1.01.41,1.77h0v.06l-.04.37.4.18.59.26c.93.43,2.3,1.17,3.35,2.21l.49.52c.39.48.69,1,.85,1.59l.43.06c1.77.26,3.87.33,6.36-.16,2.32-.31,4.77-4.28,4.77-4.28,1.19-.94.79-1.01,2.01-4.48,1.41-.16.89-2.12.96-2.15.45-.89.48-1.07.45-1.14l-.04-.05c-.05-.06-.07-.18.28-.97l.1-.22.08-.2.04-.09.04-.08.3-.58c.24-.49.56-1.13.91-1.94.38-1.12.33-1.89.48-2.72l.1-.47.57.67c.3.1.57-.25.76-1.48,0-.42.66-1.04.66-1.81.1-.65.37-.75.7-.32.25.33.54,1,.79,2.04l.07.27c.97,1.49.72,2.59.88,3.5.12.66.47,1.22,1.68,1.76h.02l.69,1.34.2.21.48.39,1.02.62.42.85.39.78.37.72c.71,1.28,1.34,1.79,2.5.83l.66-.45c.61-.39,1.14-.77,1.41-2.23l.07-.37.35-1.39.06-.19c.42-1.26.39-2.06,1.13-3.08l.38-.48c.37-.61.73-1.22,1.09-1.84l.09-.7v-.07c.08-.83.09-1.77.49-2.62.99-2.06,3.98-3.1,3.65-6.93v-.39l.26-.64c1.07-2.55,2.81-4.38,2.66-8.22.49-.73.88-1.58,1.2-2.46.32-.89.56-1.84.76-2.77l.2-1.03.09-.58c.28-1.7.42-3.19.6-4.07l.32-.82h.2v.02c.13.17.12.73.2,1.56h0c.09.89.3,2.09.92,3.36v.02l.02.03.44.77.31.48c.48,1.54.78,5.28,1.3,6.54l.26.39c.18.11.32-.51.52-1.28l.07-.24c.23-.82.54-1.74,1.03-2.11l.07.24c.26.89.53,2.35.99,4.06.21.79.46,1.63.78,2.49l.19.49.11.3c.26.65.36,1.39.43,2.14.1.96.19,1.94.59,2.72.44.82.93,1.74,1.37,2.72.36.78.68,1.59.89,2.44.83-1.75,1.76-3.99,2.69-6.4,1.4-3.68,2.76-7.78,3.68-11.31v-.03c.12-.59.21-1.19.31-1.79.1-.59.21-1.18.29-1.78.26-3.95-.31-8.89.12-13.57.11-1.25.28-2.47.58-3.66,1.59-.53.77,1.49,2.18,1.15.93-2.93,1.3-6.76,1.46-10.7.14-3.89.06-7.91.06-11.29.43.31.88,1.19,1.27,2.06.55,1.22,1,2.39,1.13,1.84.08-.31.06-1.18-.09-2.93-.1-1.07-1.92-13.21-1.77-14.2-.03-.66-.05-1.31-.07-1.97-.05-1.15-2.22-7.37-2.31-8.51l-.31-2.92c.02.21-.61-1.39-1.55-3.67-1.06-2.59-2.51-6.08-3.85-8.85h0l-.74-1.47-.02-.05h0l-.57-1.47-.02-.04v-.03l-.59-1.5.27.67-.29-.7h0c-.24-.55-.49-1-.75-1.41l-.42-.61v-.02c-.67-.66-2.06-2.05-3.15-3.41-.54-.67-1.01-1.33-1.26-1.88v-.77c-.43-.35-1.07-1.26-1.64-2.02l-.77-.94h0l-.33-.27-.05-.07-.19-.22-.69-.71c-1.33-1.32-2.98-2.9-3.7-4.59-.88-.57-1.59-1.13-2.23-1.67-2.44-2.08-3.58-4.08-6.5-6.91" fill="#ffad01"/>
  <path d="M142.77,100.44c.35.19.77.29,1.29.27l.68-.08.21-.4h0c.27-.53.53-1.09.69-1.74.16-.64.26-1.36.21-2.22v-.05l-.02-.34c.8-.8,1.98-1.23,2.81-2.01l.1-.08h0c.65-.66,1.02-1.59.73-3.19-.3-.18-.45-.48-.38-1.02v-.07l.35-.55.08-.26h0l.12-.09h.19v-2.2c-.34-.85-.71-1.08-1.07-1.62l-.02-.03c-.33-.5-.99-1.76-1.42-2.69l-.22-.5-.18-.46v-.91c-.3-.7-.81-1.36-1.23-2.06l-.59-1.3v-.02l-.07-.76.06-.42.13-.79.04-.74h0l-.03-1.36c-.02-.54-.06-1.09-.1-1.68-.04-.66-.08-1.36-.09-2.07,0-.62,0-1.26.04-1.92l-.51-.56-.21-.25-.37-1.01-.39.28-.21.1-.12-.03.06-.47-.78-.44.17-.83c-.06-.5-.36-1.02-.83-1.4-.49-.38-1.15-.61-1.9-.5l-.09.43-.21.58-.2.38-.11.18-.46,1.11-.02.6c-.9.28-1.24,1.13-1.57,1.99-.3.82-.6,1.65-1.36,2.01v3.28c-.62.44-.88,1.06-.97,1.77v1.02l.03.43c.07.72.15,1.48.19,2.23l.02.38.23.14.13.07c.53.37.89.93,1.37,1.35l.09.09.16.96c.23.94.67,1.82,1.06,2.69.56,1.27,1.02,2.5.6,3.82l.43,1.23.19.86c.09.53.15,1.08.11,1.75l.36.72v1.46c.77,1.25.88,3.25,1.35,4.83.28.93.69,1.7,1.42,2.09" fill="#ffad01"/>
  <polyline points="196.9 26.26 196.9 26.27 197.24 25.4 197.28 25.23 197.2 25.26 197.13 25.5 196.9 26.27 196.9 26.26" fill="#ffad01"/>
  <path d="M156.12,117l-.55.56c-.54.43-1.32.84-2.05,1.08l-1.01.19-.27-.05-.09-.03-.17-.1.02.83c.1,2.05.79,4.32,1.35,5.15l.42.32.94-.61c.8-.97,1.2-2.86,1.35-3.77h0l.04-.26v-.11c.11-.93.02-1.64.11-3.38v-.02l-.09.2" fill="#ffad01"/>
  <path d="M155.86,109.43l-.19-.13-.14-.08c-.3-.18-.71-.39-1.22-.55l-.09-.02c-.53-.15-1.13-.22-1.74-.13l-.26.06h0l-.12.03-.27.09-.3.14c.06.34.05,4.01.66,6.28h0l.32.93.7.81h.51l.24-.13c.48-.27.86-.71,1.15-1.26l.48-1.31c.16-.64.27-1.31.32-1.99h0v-.03c.07-1,.04-1.98-.05-2.71" fill="#ffad01"/>
  <path d="M120.64,16.76l-.18.48c1.42-.39,2.63-.24,3.1-1.06l.02-.04.11-.26.33-.68.08-.21c-.99.25-1.3.62-2.15,1.12h0c-.33.2-.74.42-1.31.65" fill="#ffad01"/>
  <path d="M180.12,213.78h0c0-.91.74-1.65,1.65-1.65l.02-.21h-14.46v.02c-.91.07-1.61.82-1.61,1.75h0v7.61h-.4l-2.14,2.58s1.09.02,2.54,0v7.77h0c0,.91-.74,1.65-1.66,1.65v.2h7.31v-.2c-.8,0-1.46-.56-1.63-1.3l.51-8.33c.89-.08,1.67-.19,2.21-.35,1.17-.36,2.25-.89,3.03-1.32l.6,9.87c-.73,1.34-1.67,1.64-1.62,1.62l10.45.14c-2.92-1.13-4.68-1.97-4.8-2.03M170.4,221.28l.31-5.15h4.43l.31,5.14-5.05.02h0Z" fill="#ffad01"/>
  <path d="M105.86,216.03c2.17-3.07,5.67-4.1,5.67-4.1h-18.51v.19c.85,0,1.54.63,1.64,1.46v7.8l-2.08,2.5s.86.02,2.08,0v6.84s5.46,3.54,8.78,4.53c2.98-1.13,6.78-6.61,6.78-6.61,0,0-3.19,2.78-5.99,2.61-1.4-.09-3.56-1.48-5.36-2.85l.41-4.65c1.41-.08,2.69-.21,3.41-.43,2.27-.68,4.24-2.05,4.24-2.05l-7.43.02.47-5.24h5.91" fill="#ffad01"/>
  <path d="M158.13,231.25c-1.41-.08-3.56-1.48-5.36-2.85l.41-4.64c1.41-.09,2.68-.22,3.41-.44,2.27-.68,4.24-2.05,4.24-2.05l-7.43.02.45-5.18c1.28,0,2.62,0,3.77,0l6.63-4.2-17.33.03v.2c.86,0,1.54.63,1.64,1.45v7.8l-2.08,2.5s.86,0,2.08,0v6.85s5.47,3.53,8.78,4.52c2.97-1.13,6.77-6.61,6.77-6.61,0,0-3.19,2.78-5.98,2.61" fill="#ffad01"/>
  <path d="M49.36,228.4l.4-4.65c1.41-.08,2.69-.22,3.41-.43,2.27-.68,4.24-2.06,4.24-2.06l-7.43.02.45-5.18c1.29,0,2.63,0,3.77-.02l6.78-4.18-17.48.02v.2c.85,0,1.54.63,1.65,1.45v7.8l-2.09,2.5s.86.02,2.09,0v6.84s5.46,3.54,8.77,4.53c2.98-1.13,6.78-6.61,6.78-6.61,0,0-3.2,2.78-5.98,2.61-1.41-.09-3.56-1.48-5.36-2.85" fill="#ffad01"/>
  <path d="M135.38,224.7c5.68.07,10.12-2.35,12.35-6.38-2.22-3.96-5.73-6.64-10.55-6.64l-3.92-.07v-.03h.03l.12-.63c.25-.6.84-1.02,1.53-1.02v-.2h-14.1v.2l1.22.54.44,1.12.03.03-3.93.07c-4.82,0-8.33,2.67-10.54,6.64,2.23,4.03,6.66,6.45,12.35,6.38-11.15,14.5-23.46,17.88-23.46,17.88,0,0,10.18.52,20.73-9.52,1.77-1.69,4.33-4.4,5.84-6.2l.54,9.81,3.14,8.06-.3-33.15.18-.72.83-.8.85.86.14.66-.25,33.16,3.1-8.08.54-9.81c1.51,1.81,4.07,4.52,5.83,6.2,10.55,10.04,20.73,9.51,20.73,9.51,0,0-12.3-3.38-23.45-17.87M113.35,218.23c1.45-2.28,4.52-4.16,9.41-4.37l.49,8.52c-5.76-.06-8.47-1.85-9.9-4.14M133.03,213.85c4.88.22,7.96,2.1,9.4,4.37-1.42,2.29-4.13,4.08-9.89,4.14l.49-8.52h0Z" fill="#ffad01"/>
  <path d="M68.8,231.82v-17.04c3.3-1.15,5.31-2.87,5.31-2.87h-11.05l-6.51,4.16s4.41.11,7.84-.28v15.85h0c0,.91-.74,1.65-1.65,1.65v.2h7.71v-.2c-.86,0-1.55-.65-1.64-1.48" fill="#ffad01"/>
  <path d="M90.34,213.78h0c0-.92.74-1.66,1.66-1.66v-.21h-8.45v.21c.93,0,1.66.74,1.66,1.66l.45,7.49h-5.06l.47-7.59c.05-.88.77-1.56,1.64-1.56v-.21h-8.42v.21c.85,0,1.54.64,1.64,1.45v7.72l-2.28,2.57s.96.02,2.28,0v7.76h0c0,.92-.74,1.67-1.66,1.67v.2h7.3v-.2c-.79,0-1.45-.56-1.61-1.3l.5-8.31c1-.08,1.89-.2,2.46-.37,1.06-.32,2.03-.78,2.79-1.19l.59,9.73c-.73,1.32-1.68,1.64-1.62,1.61l10.45.14c-2.92-1.14-4.68-1.98-4.8-2.03" fill="#ffad01"/>
  <path d="M231.45,209.33s-6.29-2.23-9.37-1.4l-8.74,19.63-8.59-19.63c-3.07-.83-9.37,1.4-9.37,1.4,0,0,4.21-.38,6.39,1.38l.65.65v23.18c-2.12,1.83-6.34,1.57-6.34,1.57,0,0,6.35,2.04,9.4,1.12.6-1.22.88-3.55.88-3.55l.74-12.42,6.05,14.45.14.49,6.55-15.32.62,15.7h0c0,.91-.74,1.66-1.65,1.66v.2h11.13v-.2c-.86,0-4.62-.65-4.71-1.47v-18.86c1.86-1.37,5.23-1.07,5.23-1.07,0,0-1.81-1.29-5.23-1.36v-4.87c2.21-1.64,6.23-1.28,6.23-1.28" fill="#ffad01"/>
  <path d="M200.51,228.9s-3.64,2.74-6.47,2.58c-1.43-.09-3.62-1.51-5.45-2.9l1.3-14.78h0c0-.93,1.41-1.68,2.34-1.68v-.21h-9.59v.21c.87,0,1.58.65,1.67,1.49l.03,17.64s5.98,2.68,9.38,4.06c3.02-1.14,6.78-6.41,6.78-6.41" fill="#ffad01"/>
  <path d="M40.92,234.54l-.09-.14v-23.52h0c1.91-1.98,6.78-1.55,6.78-1.55,0,0-5.47-1.97-9.08-1.82-1.42-.03-2.8.33-3.04.4l1.23,20.14-12.97-20.12c-3.08-.83-9.36,1.4-9.36,1.4,0,0,4.2-.38,6.38,1.38.33.26.95,1.08,1.66,2.1v2.66c-3.42.07-5.23,1.36-5.23,1.36,0,0,3.37-.3,5.23,1.07v18.73c-.09.83-3.84,1.6-4.7,1.6v.2h11.14v-.2c-.93,0-1.66-.74-1.66-1.66h0l.59-15.26,10.06,15.92c3.05.92,9.4-1.12,9.4-1.12,0,0-4.22.26-6.33-1.57" fill="#ffad01"/>
  <path d="M100.26,250.88l-.31-.23c-.9-.68-1.15-1.07-1.15-1.57,0-.66.49-1.12,1.3-1.12.71,0,1.02.33,1.18.54l.28.72.1.2.13-.33c0-.85.04-1.17.04-1.3l-.15-.14c-.28-.07-.74-.19-1.45-.19-1.51,0-2.51.86-2.51,2.06,0,.89.41,1.64,1.61,2.58l.5.39c.9.71,1.07,1.2,1.07,1.74,0,.58-.48,1.25-1.46,1.25-.67,0-1.32-.3-1.55-1.11l-.1-.56-.11-.18-.13.28c-.01.18-.05.82-.05,1.42l.2.37c.47.2.96.28,1.59.28.58,0,1.19-.1,1.74-.45.78-.51,1.02-1.26,1.02-1.89,0-1.04-.47-1.78-1.79-2.78" fill="#ffad01"/>
  <path d="M111.36,247.54l-.29.05-.75.05h-4.32l-1.08-.05-.47-.14-.13.21-.23,1.25.09.18.13-.13.19-.38c.16-.24.42-.29,1.05-.31l1.62-.05v4.47c0,1,0,1.86-.05,2.32l-.32.6-.38.04-.18.09.21.11,1.37-.03c.3,0,.99.03,1.71.03l.21-.11-.18-.09-.55-.04-.43-.59c-.05-.47-.05-1.33-.05-2.33v-4.47l1.37.04c.97.02,1.26.32,1.28.61v.12l.13.22.1-.18.03-1.26-.09-.23" fill="#ffad01"/>
  <path d="M121.46,247.61l-1.24.03s-.7-.03-1.25-.03l-.23.09.18.1.39.03.47.62c.02.36.02.66.02,2.31v1.36c0,1.12-.03,2.1-.64,2.7l-1.5.59-1.36-.44c-.53-.43-.84-1.1-.84-2.68v-1.53c0-1.65,0-1.95.02-2.31l.4-.62.32-.03.17-.1-.24-.09-1.34.03c-.33,0-1.01-.03-1.59-.03l-.24.09.19.1.43.03.46.62c.03.36.03.66.03,2.31v1.59c0,1.58.41,2.38.97,2.89.79.72,1.84.75,2.41.75.71,0,1.49-.12,2.27-.79.92-.78,1.03-2.06,1.03-3.27v-1.17c0-1.65,0-1.95.02-2.31l.4-.62.31-.03.2-.1-.23-.09" fill="#ffad01"/>
  <path d="M127.28,247.61c-.66,0-1.34.03-1.68.03-.3,0-.99-.03-1.57-.03l-.24.09.19.1.43.03.47.62c.02.35.02.66.02,2.31v1.92c0,1,0,1.86-.05,2.32l-.32.6-.39.04-.18.09.22.1.75-.02h.62l1.07.05,1.25.07c2.01,0,3.15-.77,3.65-1.29.61-.62,1.18-1.66,1.18-3.04,0-1.3-.51-2.19-1.05-2.76-1.19-1.24-3.01-1.24-4.37-1.24M130.33,254.64c-.66.56-1.4.78-2.51.78-.85,0-1.28-.23-1.42-.44l-.11-.82c-.01-.21-.03-1.05-.03-2.2v-1.37c0-.86,0-1.81.02-2.18l.13-.22.71-.07c.85,0,2.09.13,3.1,1.09.47.45,1.04,1.34,1.04,2.72,0,1.12-.22,2.11-.91,2.71" fill="#ffad01"/>
  <path d="M138.45,255.64l-.56-.04-.43-.53c-.04-.47-.04-1.32-.04-2.38v-1.92c0-1.65,0-1.96.02-2.31l.4-.61.33-.03.17-.11-.23-.08-1.32.03-1.42-.03-.26.08.17.11.39.04.37.61c.02.35.02.66.02,2.31v1.92c0,1.06,0,1.92-.06,2.37l-.31.54-.4.04-.17.09.22.11,1.37-.03c.3,0,.98.03,1.7.03l.21-.11-.18-.09" fill="#ffad01"/>
  <path d="M145.28,247.46c-3.27,0-4.49,2.41-4.49,4.28s1.26,4.26,4.38,4.26c2.77,0,4.51-1.97,4.51-4.46s-1.68-4.08-4.4-4.08M145.63,255.45c-2.09,0-3.34-1.79-3.34-4.06,0-2.71,1.43-3.41,2.68-3.41,1.78,0,3.18,1.52,3.18,3.95,0,3.15-1.76,3.51-2.52,3.51" fill="#ffad01"/>
  <path d="M155.1,250.88l-.3-.23c-.9-.68-1.16-1.07-1.16-1.57,0-.66.49-1.12,1.29-1.12.71,0,1.02.33,1.19.54l.28.72.1.2.13-.33c0-.85.04-1.17.04-1.3l-.15-.14c-.28-.07-.74-.19-1.45-.19-1.51,0-2.52.86-2.52,2.06,0,.89.42,1.64,1.61,2.58l.5.39c.9.71,1.07,1.2,1.07,1.74,0,.58-.48,1.25-1.46,1.25-.67,0-1.32-.3-1.55-1.11l-.1-.56-.11-.18-.13.28c0,.18-.05.82-.05,1.42l.21.37c.47.2.96.28,1.59.28.58,0,1.19-.1,1.74-.45.78-.51,1.02-1.26,1.02-1.89,0-1.04-.47-1.78-1.79-2.78" fill="#ffad01"/>
</svg>