<?xml version="1.0" encoding="UTF-8"?>
<svg id="Layer_1" xmlns="http://www.w3.org/2000/svg" version="1.1" viewBox="0 0 256 256">
  <!-- Generator: Adobe Illustrator 30.3.0, SVG Export Plug-In . SVG Version: 2.1.3 Build 182)  -->
  <polygon points="42.28 132.14 14.93 97.7 .59 97.62 .67 158.67 15.36 158.85 15.58 123.39 43.13 158.44 57.39 158.58 57.39 97.75 42.86 97.48 42.28 132.14" fill="#fff"/>
  <path d="M99.83,96.18c-8.86.1-18.56,2.44-24.55,8.52-11.01,11.16-10.79,36.16.69,47.32,6.07,5.9,15.44,7.57,23.9,7.78,19.47.47,31.97-12.32,31.98-32.06,0-19.51-12.77-31.76-32.01-31.55ZM108.65,144.84c-5.21,3.24-13.31,3.26-18.62-.06-5.31-3.33-6.47-10.94-6.52-17.64-.07-10.35,4.85-17.86,14.3-18.43,10.2-.62,17.55,5.16,17.6,17.6.03,7.43-1.41,15.21-6.76,18.53Z" fill="#fff"/>
  <path d="M239.45,116.8l-.5,19.97c-.19,7.81-7.48,11.11-13.66,10.57-6.96-.61-11.1-5.84-11.03-13.63l.14-16.99h-16.07s.18,20.52.18,20.52c.09,10.1,6.68,18.76,16.65,21.09,7.47,1.75,15.95,1.72,23.47-.07,9.11-2.17,15.95-10.03,16.2-19.5l.57-22.07-15.96.12Z" fill="#fff"/>
  <path d="M169.29,138.64c0,5.14-3.65,9.1-8.66,8.76-4.68-.32-7.21-4.01-7.75-10.07l-14.94.1c.28,6.37,1.7,13.46,5.57,16.78,4.66,3.98,11.4,5.37,18.72,5.6,12.76.4,22.73-7.26,22.81-19.4l.28-42.91-16.03.02v41.12Z" fill="#fff"/>
  <polygon points="198.73 98.24 198.73 113.67 214.51 113.67 214.51 97.89 198.73 97.89 198.73 97.98 198.71 97.98 198.73 98.24" fill="#fff"/>
  <polygon points="254.88 107.69 255.19 98.15 254.88 98.15 254.88 97.89 239.09 97.89 239.09 113.67 254.88 113.67 254.88 107.69" fill="#fff"/>
</svg>