<?xml version="1.0" encoding="UTF-8"?>
<svg id="Layer_1" xmlns="http://www.w3.org/2000/svg" version="1.1" xmlns:xlink="http://www.w3.org/1999/xlink" viewBox="0 0 747.13 243.27">
  <!-- Generator: Adobe Illustrator 30.3.0, SVG Export Plug-In . SVG Version: 2.1.3 Build 182)  -->
  <defs>
    <linearGradient id="linear-gradient" x1="72.51" y1="272.11" x2="131.18" y2="-7.89" gradientUnits="userSpaceOnUse">
      <stop offset="0" stop-color="#c22e2e"/>
      <stop offset=".12" stop-color="#cf4939"/>
      <stop offset=".26" stop-color="#f49458"/>
      <stop offset=".37" stop-color="#cb4035"/>
      <stop offset="1" stop-color="#c63631"/>
    </linearGradient>
  </defs>
  <path d="M203.31,130.21c-2.64-1.72-5.64-2.99-8.61-4.06-15.05-5.41-31.15-7.02-46.92-9.71s-31.8-6.67-44.78-16.02c-15.13-10.9-24.53-27.9-32.54-44.75-8-16.84-15.32-34.44-27.8-48.29-2.85-3.17-6.18-6.23-10.34-7.17C23-1.88,16.28,11.41,13.35,18.39c-4.22,10.07-5.65,21.03-7.69,31.68C1.34,72.68-.52,95.75.13,118.76c.39,13.8,1.69,27.58,3.89,41.21,2.63,16.22,6.6,32.44,14.51,46.85,7.9,14.4,20.1,26.94,35.49,32.68,12.83,4.79,27.1,4.62,40.48,1.72,21.27-4.6,41.41-13.85,59.58-25.72,17.03-11.12,33.28-23.94,45.15-40.66,4.4-6.19,9.2-13.1,11.51-20.41,1.99-6.3,1.87-13.61-1.91-19.03-1.47-2.1-3.38-3.79-5.52-5.18h0ZM87.45,221.59h-.09c.3-.02.61-.03.9-.05-.27.02-.54.03-.81.05ZM175.44,144.53c.82,9.86-14.46,19.79-20.85,24.76-11.86,9.24-25.52,17.43-39.85,22.14-11.04,3.63-23.2,4.8-34.26,1.24-10.18-3.28-18.84-10.38-25.33-18.89s-10.97-18.37-14.64-28.42c-7.32-20.03-11.57-41.15-12.71-62.44-.58-10.76-.36-21.56.66-32.28.8-8.45,1.5-18.2,3.88-26.73.57-2.06,3.37-2.35,4.33-.44,3.39,6.73,6.14,13.98,9.43,20.68,3.75,7.62,8.5,14.97,11.88,22.66,3.79,8.62,7.66,17.21,12.66,25.21,5.81,9.3,13.17,17.82,22.48,23.62,21.94,13.67,48.54,9.46,72.08,17.93,2.49.89,4.82,2.24,6.7,4.09,2.28,2.24,3.35,4.55,3.55,6.86h0Z" fill="url(#linear-gradient)"/>
  <g>
    <g>
      <path d="M422.56,140.91l-8.19-13.81-21.33-.07-.07,13.84-14.09-.05-.02-61.29,38.44.19c13.7.07,23.98,11.35,22.7,24.94-.25,8.15-4.54,15.05-11.68,18.92l9.84,17.27-15.6.06h0ZM416.59,114.34c6.04-1.37,9.6-6.01,9.42-11.5s-4.22-10.3-10.09-10.32l-22.93-.09.06,22.02,23.54-.11h0Z" fill="#fff"/>
      <path d="M638.26,142.42c-13.65.05-25.9-6.22-31.83-18.31-4.44-9.05-4.18-20.14.69-28.96,6.23-11.29,18.12-16.8,30.77-16.85,12.22-.05,23.64,4.87,30.08,15.46,5.73,9.42,6.14,21.54.98,31.32-6.01,11.39-17.61,17.29-30.7,17.34h.01ZM658.43,110.3c0-11.32-9.18-20.49-20.49-20.49s-20.49,9.18-20.49,20.49,9.18,20.49,20.49,20.49,20.49-9.18,20.49-20.49Z" fill="#fff"/>
      <path d="M269.68,126.89l-24.31.08-.09,13.88h-14.4l.1-61.31,38.1.17c12.86.06,23.21,9.95,23.2,22.73.56,13.32-9.09,24.4-22.6,24.45h0ZM266.63,114.42c6.68,0,11.15-4.42,11.49-10.27s-3.3-11.55-9.76-11.59l-23.14-.14v21.98l21.42.02h0Z" fill="#fff"/>
      <path d="M351.1,131.55h-37.17l-4.04,9.3-15.15-.05,26.67-61.27h22.33l26.87,61.34-15.6-.03-3.92-9.3h.01ZM345.71,119.32l-11.47-27.2c-1.34-.54-2.58-.48-3.67.24l-11.37,26.99,26.51-.04h0Z" fill="#fff"/>
      <path d="M502.88,131.69l-37.18-.18-4,9.34-15.33-.02,26.74-61.3,22.21-.06,26.86,61.35-15.37.08-3.93-9.21ZM497.43,119.32l-11.45-27.21c-1.31-.59-2.54-.51-3.67.25l-11.34,26.95h26.47,0Z" fill="#fff"/>
      <path d="M745.14,140.68l-16.54.21-15.55-23.37c-.9-1.35-1.66-2.02-3.16-1.97s-2.02.93-2.9,2.25l-15.32,23.02-16.61-.05,21.53-31.81-20.46-29.36h16.58l14.98,22.63c.7,1.05,1.71,1.19,2.84,1.08,1.22-.12,1.75-.99,2.58-2.21l14.52-21.53,16.43.12-20.55,29.25,21.62,31.76v-.02Z" fill="#fff"/>
      <path d="M590.51,126.39c-6.53,8.98-16.15,14.26-27.1,14.32l-33.14.18.05-61.37,33.91.26c8.92.07,16.93,3.98,23.13,10.2,9.11,9.96,10.37,24.65,3.14,36.42h.01ZM580.94,110.65c.18-9.87-6.56-16.96-16.23-17.99l-20.1-.33v35.88l21.28-.47c8.88-1.22,14.88-8.05,15.05-17.1h0Z" fill="#fff"/>
    </g>
    <g>
      <path d="M321.79,182.25l-.45-14.86-7.49,14.67c-.77.57-2.86.41-3.99.19l-7.58-14.44-.27,14.45-5.01.07v-23.37l6.11-.08,8.75,16.99,8.41-16.65c2-.52,3.88-.26,6.35-.29l.08,23.31-4.92.02h.01Z" fill="#999a9c"/>
      <polygon points="676.78 182.33 671.69 182.17 658.08 166.76 657.8 182.26 652.8 182.3 652.76 159 658.21 158.97 671.31 173.97 671.67 158.94 676.77 158.95 676.78 182.33" fill="#fff"/>
      <path d="M467.24,182.15c-1.42-.4-2-3.98-3.42-4.87-2.33-1.45-5.5-.77-8.11-.42l-.18,5.62-5.13-.17v-23.39l15.57.17c3.78.04,6.37,3.6,7.01,6.51.91,4.14-.43,7.62-4.12,9.81l3.98,6.81c-1.65-.03-3.28.58-5.59-.07h-.01ZM466.14,171.67c2.1-1.38,2.38-3.45,1.84-5.28s-2.29-2.84-4.53-2.83l-7.81.05v8.26l10.51-.2h-.01Z" fill="#fff"/>
      <path d="M350.26,172.63h-13.7c-.36,1.89-.35,3.3,0,5.11l15.82-.04v4.59h-21.01v-23.36l20.31-.02.09,4.56-15.21.06c-.27,1.52-.28,2.72.05,4.48l13.74.11-.09,4.51h0Z" fill="#999a9c"/>
      <path d="M529.88,170.26c.42,6.9-4.46,11.83-10.78,11.92l-13.12.19v-23.44l13.7.22c5.75.09,10.14,4.95,10.2,11.11ZM520.69,177.1c3.65-1.14,4.56-4.86,4.06-7.9s-3.21-5.57-6.76-5.6l-7.01-.05v14.14c3.21.05,6.44.44,9.72-.59h0Z" fill="#fff"/>
      <path d="M636,182.93c-7.76.08-13.43-5.94-12.91-13.31.5-7.09,6.89-11.96,14.36-11.23,7.02.68,11.82,5.82,11.74,12.6s-5.5,11.86-13.19,11.94h0ZM643.91,170.64c0-4.32-3.51-7.83-7.83-7.83s-7.83,3.51-7.83,7.83,3.51,7.83,7.83,7.83,7.83-3.51,7.83-7.83Z" fill="#fff"/>
      <path d="M498.06,180.06c-4.54,3.52-10.72,3.66-15.49,1.14-5.34-2.81-7.33-8.79-5.65-14.51,1.48-5.04,6.8-8.5,12.57-8.35,5.31.14,10.11,2.94,11.85,7.41,1.92,4.93,1.22,10.82-3.28,14.31h0ZM497.11,170.66c0-4.32-3.5-7.82-7.82-7.82s-7.82,3.5-7.82,7.82,3.5,7.82,7.82,7.82,7.82-3.5,7.82-7.82Z" fill="#fff"/>
      <path d="M368.96,182.17l-12.63.16v-23.4l12.44.08c6.64.04,11.24,5.12,11.38,11.37s-4.19,11.7-11.19,11.78h0ZM368.66,177.59c4.37-.07,6.71-3.7,6.57-7.18-.14-3.76-2.84-6.79-6.9-6.82l-7.02-.05v14.16l7.35-.11h0Z" fill="#999a9c"/>
      <path d="M429.61,176.79c-.83,1.17-.56,3.77-.31,5.34l-5.24.11v-23.3l14.9.15c4.84.05,7.83,4.2,7.99,8.35.19,4.88-2.96,8.85-8.14,9.03l-9.2.31h0ZM437.48,171.88c2.91-.02,4.42-2.14,4.23-4.44-.14-1.81-1.53-3.8-3.84-3.82l-8.55-.07v8.4l8.16-.07h0Z" fill="#fff"/>
      <path d="M413.82,178.57l-14.17-.09-1.86,3.73-5.43-.05,10.37-23.19,7.47-.12,10.61,23.2c-1.98.4-3.43.25-5.16.16-.83-.96-1.24-1.97-1.82-3.65h0ZM411.66,173.89l-5.06-11.16-5.18,11.05,10.24.12h0Z" fill="#999a9c"/>
      <path d="M551.8,158.98l5.19-.04.06,13.06c.03,7.18-5.2,11.14-11.89,10.99-6.46-.14-11.33-4.03-11.38-10.98l-.09-12.98,5.2-.05.23,14.45c.05,3.12,3.11,4.62,5.55,4.81,2.78.21,6.21-.89,6.81-4.14.94-5.05.47-10.03.33-15.11h0Z" fill="#fff"/>
      <path d="M566.86,166.66c-2.53,4.13-.76,8.87,2.97,10.73s8.35.84,10.68-3.01l4.47,1.89c-1.96,4.65-6.34,6.47-10.94,6.65-7.58.3-13.36-4.76-13.51-11.93-.17-7.49,5.58-12.87,13.43-12.64,4.71.13,9.15,2.17,11.3,6.73l-4.67,1.77c-1.56-2.45-3.89-3.5-6.21-3.67-2.83-.21-5.79.67-7.52,3.49h0Z" fill="#fff"/>
      <path d="M601.63,182.02c-1.29.45-2.96.3-5.03.38l-.19-18.8-8.78-.08v-4.61h22.92v4.66h-8.96l.04,18.44h0Z" fill="#fff"/>
      <rect x="614.33" y="158.92" width="5.1" height="23.35" fill="#fff"/>
      <rect x="384.16" y="158.88" width="4.96" height="23.61" fill="#999a9c"/>
    </g>
  </g>
</svg>