<?xml version="1.0" encoding="UTF-8"?>
<svg id="Layer_1" xmlns="http://www.w3.org/2000/svg" version="1.1" viewBox="0 0 256 256">
  <!-- Generator: Adobe Illustrator 30.3.0, SVG Export Plug-In . SVG Version: 2.1.3 Build 182)  -->
  <g>
    <path d="M119.51,133.76l-7.82,2.31c-5.76,1.51-11.54,2.59-17.45,3.33-3.09.39-6.13.29-9.14-.39l-3.34-1.02c-1.2-.37-2.28-.97-3.36-1.62-4.36-2.63-8-6.67-9.94-11.4l-2.84-6.95c-1.47-3.88-2.75-7.75-3.86-11.74l-1.92-7.89-1.49-8.32c-1.62-11.04-1.9-22.16-.78-33.26l.59-4.87c.85-7.03,2.74-15.31,4.85-22.13,1.66-5.36,3.62-10.56,5.95-15.66,1.34-2.93,3.25-5.45,5.62-7.6,5.04-4.54,11.7-6.72,18.47-6.02,11.62,1.19,24.12,4.51,34.98,8.8,7.25,2.87,14.2,6.38,20.82,10.5,4.59,2.85,9.02,5.94,13.23,9.32,5.34,4.28,10.32,8.92,15.01,13.9l7.08,8.17c1.8,2.08,3.31,4.28,4.74,6.62.76,1.25,1.36,2.48,1.91,3.83.87,2.12,1.3,4.29,1.47,6.6.28,3.77-.36,7.44-1.86,10.91-.87,2-1.86,3.86-3.19,5.59l-4.55,5.9c-6.71,8.09-14.29,15.37-22.64,21.78-3.53,2.71-7.21,5.23-10.99,7.58-5.51,3.42-11.2,6.42-17.15,9-4.06,1.76-8.13,3.34-12.38,4.74ZM162.51,105.36c5.12-4.28,9.84-8.86,14.19-13.85l6.5-8c1.4-1.86,2.6-3.75,3.55-5.89,1.86-4.21,2.14-8.98.73-13.37-1.32-4.11-4.28-7.87-7.01-11.21-9.94-12.16-21.73-22.63-35.2-30.73l-8.24-4.52-3.99-1.93-3.43-1.55-6.5-2.57c-9.36-3.45-21.07-6.35-31-7.32-3.88-.38-7.64.51-11.03,2.37-2.63,1.45-4.83,3.44-6.64,5.83-.84,1.11-1.44,2.26-2.03,3.54-3.59,7.78-6.73,17.51-8.52,25.93-1.94,9.14-3.01,18.46-3.03,27.83-.03,11.05,1.4,22,4.09,32.7,1.63,6.5,3.84,12.82,6.41,18.96l1.94,4.1c2.86,5.01,7.98,8.69,13.7,9.66,2.05.35,4.03.4,6.13.16,20.85-2.34,41.62-10.32,58.92-22.17,3.61-2.47,7.07-5.14,10.46-7.97Z" fill="#fff"/>
    <path d="M87.21,89.65c4.36,2.25,8.89,2.7,13.11.02,1.81-1.15,3.4-2.51,4.87-4.07l4.2-4.48c2.42-2.58,5.3-5.37,8.81-6.15,1.01-.23,2.05-.31,3.05-.02,1.17.34,2.23.95,3.09,1.81l1.81,1.79,2.67,3.15,4.35,4.99c2.46,2.51,5.36,4.47,8.71,5.6,3.56,1.2,8.3.88,11.72-.69,9.87-4.53,13.36-17.24,6.83-26.08-1.18-1.6-2.44-3.06-3.97-4.34l-4.52-3.79-3.57-3.35-1.88-2.38c-1.35-1.93-2.23-4.06-2.53-6.41-.32-1.81-.27-3.55.18-5.33.94-3.74,4.14-6.5,7.99-6.84,5.07,3.66,9.76,7.75,14.16,12.17,4.18,4.2,7.95,8.73,11.44,13.5,2.07,2.84,3.45,5.96,3.74,9.53.32,3.97-.43,8.05-2.65,11.42-3.01,4.57-6.49,8.77-10.22,12.76l-5.41,5.41-7.96,6.82c-7.58,5.92-15.83,10.82-24.63,14.73-5.97,2.66-12.14,4.79-18.48,6.37-5.09,1.27-10.2,2.21-15.4,2.77-1.69.18-3.22.1-4.87-.19-4.73-.82-8.85-3.37-11.75-7.2-1.43-1.89-2.59-3.92-3.44-6.15l-1.38-3.6,1.52-2.48c1.23-2.01,2.31-4.01,3.24-6.18s1.62-4.17,2.08-6.41l1.19-5.74c.11-.53.41-1.08.81-1.41.54-.45,1.36-.43,1.95-.13l1.15.59Z" fill="#fff"/>
    <path d="M119.58,61.52l-1.39-1.36c-.64-.63-1.6-1.02-2.54-.98-1.28.05-2.45.61-3.38,1.44-2.59,2.29-3.48,4.9-5.91,6.75-2.63,2-5.72,1.14-8.09-.97-1.34-1.19-2.4-2.59-3.35-4.12-1.11-1.8-1.89-3.67-2.55-5.68-.89-2.67-1.35-5.33-1.43-8.14,0-.21-.23-.54-.38-.63s-.49-.03-.7.09c-2.92,1.75-5.63,3.7-8.33,5.79-2.41,1.87-4.74,3.72-7.02,5.72-.66.58-1.04,1.27-1.12,2.16-.21,2.4-.59,4.69-1.15,7.05-.77,3.69-2.15,7.19-4.23,10.47-.68-6.83-.58-13.65.16-20.47.84-7.78,2.37-15.44,4.7-22.9,1.36-4.35,2.97-8.55,4.73-12.72.88-2.09,2.09-3.91,3.61-5.53,4.54-4.84,11.14-6.77,17.63-5.81,8.72,1.29,17.26,3.22,25.49,6.4,2.19.85,4.32,1.66,6.39,2.74l-2.06-.16c-4.52.19-8.57,1.64-11.87,4.78-4.72,4.49-5.91,11.2-3.62,17.28.83,2.2,2.02,4.12,3.46,5.96,1.18,1.5,2.4,2.85,3.83,4.12,2.47,2.19,5.15,4,8.02,5.65l7.03,4.05c1.73,1,3.29,2.13,4.77,3.45.81.72,1.43,1.53,2,2.44,1.45,2.33,1.15,5.56-1.22,6.62-2.21.99-5.59-.41-7.73-1.65s-4.31-2.69-6.27-4.35c-2.72-2.3-5.11-4.82-7.5-7.49Z" fill="#fff"/>
  </g>
  <g>
    <path d="M191.57,217.28l-6.62.14c-2.21-.15-4.2-1.12-5.18-3.26l-21.31-46.35-.25,49.48-8.64.07.02-53.77c0-2.09,1.62-3.79,3.56-3.81l6.45-.05c2.43-.02,4.21,1.42,5.24,3.58l21.08,45.67.34-49.24,8.5.02v54.13c0,1.72-1.3,3.34-3.17,3.38Z" fill="#fff"/>
    <path d="M4.45,216.48l.27-6.52,17.78.42,6.33-.52c4.6-.37,5.26-6.33,4.26-11.25-.39-1.92-2.21-3.63-4.07-4.2l-10.14-3.13c-6.28-1.94-13.01-3.73-14.58-10.86-.95-4.33-.94-8.86.17-13.12,1.8-6.91,9.01-8.21,15.99-8.42s13.01.18,19.55,1.84l-.28,6.16-19.28-.47c-1.88-.05-4.15.39-5.69,1.24-3.19,1.76-3.14,10.04-.58,12.43,1.86,1.73,4.62,2.4,7.07,3.11,4.53,1.31,8.9,2.45,13.21,4.21,7.91,3.24,8.6,11.49,7.63,19.71-.67,5.64-4.83,9.63-10.53,10.44-8.98,1.27-17.92.74-27.1-1.08Z" fill="#fff"/>
    <path d="M217.57,190.47v15.52c-.01,2.53,1.84,3.94,4.29,4.08h23.01s.45,6.96.45,6.96c-9.39.32-18.33.71-27.44.05-5.3-.38-9.16-4.81-9.16-9.94v-37.15c.02-5.19,3.82-9.57,9.16-9.97,9.06-.68,17.95-.27,27.28.25l-.37,6.79-23.33.02c-2.02.21-3.89,1.51-3.89,3.67l-.03,12.81,24.19-.02-.02,6.94h-24.16Z" fill="#fff"/>
    <path d="M110.4,190.48l.04,15.36c0,2.51,1.76,3.99,4.2,4.24h23.07s.51,6.9.51,6.9c-9.24.39-18.21.73-27.33.16-5.31-.33-9.26-4.84-9.26-10v-36.76c-.02-5.38,3.66-10.02,9.27-10.39,9.04-.59,17.99-.28,27.14.3l-.51,6.75-22.98.02c-2.09.1-4.09,1.6-4.09,3.84l-.05,12.63h24.14s-.08,6.94-.08,6.94h-24.06Z" fill="#fff"/>
    <path d="M71.14,210.07c6.78.76,13.14.25,19.88-.51l.75,6.78c-7.95,2.04-16.05,2.47-24.05,1.22-14.12-2.21-16.24-16.59-16.16-29.37.07-12.45,2.33-26.16,15.77-28.62,7.73-1.41,15.43-.91,23.21,1.04l-.72,6.71c-6.27-.78-12.19-1.18-18.33-.51-10.3,1.12-10.83,13.55-10.74,23.29.08,8.51,1.23,18.95,10.38,19.98Z" fill="#fff"/>
    <path d="M245.61,252.83c0,.6-.15,1.7-.52,1.75l-1.73.25c-1.55.22-2.95-.26-3.61-1.63l-8.07-16.57-.09,18.1-3.26-.02.02-21.19c1.76-.35,3.27-.34,5.04-.07l8.78,17.81.08-17.98,3.34.02.02,19.52Z" fill="#fff"/>
    <path d="M138.34,249.36c-.9,3.37-3.41,5.61-6.84,5.58l-9.35-.08v-21.68s9.77,0,9.77,0c3.31,0,5.57,2.45,6.34,5.58.7,3.44.69,6.93.07,10.6ZM134.83,239.51c-.34-1.84-1.76-3.5-3.71-3.52l-5.57-.06v16.26s6.08-.18,6.08-.18c3.88-.12,4.12-7.58,3.2-12.5Z" fill="#fff"/>
    <path d="M223.69,249.99c-1.39,6.08-10.31,6.26-13.96,3.6s-3.34-10.06-2.41-15c1.09-5.77,7.86-6.86,12.87-4.84,4.71,1.9,4.72,10.88,3.5,16.23ZM220.45,248.42c.46-3.02.44-6.25-.09-9.08-.46-2.48-2.33-3.56-4.66-3.59-2.55-.03-4.51,1.08-4.94,3.72-.49,3.01-.54,6.26.03,9.25.48,2.53,2.51,3.57,4.89,3.54s4.35-1.08,4.77-3.84Z" fill="#fff"/>
    <path d="M117.57,249.66c-1.09,5.28-6.83,6.38-11.94,4.96-5.69-1.58-5.66-10.65-4.31-16.62,1.24-5.47,8.66-6.3,13.23-3.99,4.08,2.05,4.07,10.53,3.01,15.65ZM114.21,248.71c.56-3.1.54-6.44,0-9.37-.47-2.5-2.3-3.55-4.66-3.59-2.5-.04-4.56.95-5,3.65-.47,2.88-.48,6.13-.02,9.03.43,2.7,2.47,3.89,5.02,3.82,2.25-.06,4.2-.93,4.67-3.53Z" fill="#fff"/>
    <path d="M94.45,254.77l-2.33-7.46c-.16-.5-1.26-1.32-1.77-1.32l-4.81-.04v8.78s-3.3-.02-3.3-.02v-21.51s10.02-.07,10.02-.07c1.68-.01,3.14,1.08,4.2,2.29,1.06,4.2,1.02,8.14-2.85,9.4.74.54,1.85,1.62,2.13,2.58l2.13,7.26-3.43.11ZM93.7,239.15c-.05-1.66-.63-3.23-2.4-3.27l-5.76-.14v7.45s5.35-.11,5.35-.11c2.14-.04,2.88-1.76,2.81-3.93Z" fill="#fff"/>
    <path d="M155.43,233.31h3.41s-.09,15.5-.09,15.5c-.01,2.17-1.24,4.6-3.23,5.43-2.94,1.23-6.39,1.24-9.35,0-2.17-.92-3.49-3.55-3.5-5.92l-.08-15.04h3.38s.08,14.64.08,14.64c.01,2.67,1.82,4.33,4.46,4.33,1.09,0,2.54-.24,3.42-.86.74-.52,1.44-2.17,1.45-3.3l.04-14.78Z" fill="#fff"/>
    <path d="M74.07,246.46l-6.95.15-.04,8.11h-3.28s0-21.53,0-21.53l10.17-.04c2.43,0,4.08,1.68,4.58,3.94.68,4.57-.25,9.29-4.47,9.37ZM74.37,243.44c1.75-3.31,1.06-7.53-1.62-7.57l-5.65-.09v8.06c2.48.03,4.71.16,7.27-.4Z" fill="#fff"/>
    <path d="M170.21,252.05l7.2-.17.23,2.48c-6.1,1.45-13.08,1.38-14.41-4.61-.85-3.84-.78-7.78.07-11.56,1.28-5.71,7.67-5.94,13.64-4.69.2.63.12,2.07-.12,2.51l-6.24-.13c-1.86-.04-3.45,1.32-3.85,3.04-1.23,5.28-.93,13.24,3.49,13.14Z" fill="#fff"/>
    <polygon points="189.43 254.68 186.11 254.73 186.09 236.23 179.47 236.1 179.42 233.26 196.02 233.27 196.07 236.17 189.41 236.12 189.43 254.68" fill="#fff"/>
    <rect x="199.37" y="233.23" width="3.34" height="21.5" fill="#fff"/>
  </g>
</svg>