<?xml version="1.0" encoding="UTF-8"?>
<svg id="Layer_1" xmlns="http://www.w3.org/2000/svg" version="1.1" viewBox="0 0 256 256">
  <!-- Generator: Adobe Illustrator 30.3.0, SVG Export Plug-In . SVG Version: 2.1.3 Build 182)  -->
  <path d="M254.65,69.44l-39.9,88.67c-1.94,2.37-4.93,5.42-7.05,6.09s-7.1-2-8.49-3.76l-17.41-22.15-2.07-.57,26.21,39.6-21.06,47.31c-.8,1.8-4.25,4.74-6.13,5.36-2.25.75-7.81-1.55-9.18-3.67l-59.78-92.96c6.71,17.44,16.98,29.51,23.27,45.72-2.74,6.1-5.49,12.19-8.23,18.29-2.95,6.55-5.88,12.46-8.05,19.36-1.98,6.27-7.47,14.46-15.25,11.96-3.81-1.23-6.23-4.87-8.35-8.27-28.39-45.56-56.94-90.99-85.57-136.39-4.34-6.88-13.78-20.27-1.63-24.21,2.83-.92,5.86-.86,8.83-.79,9.66,0,19.34.44,28.99.65,6.86.15,15.86,3.28,20.33,8.76l21.84,26.79c-1.89-4.57-5.17-8.97-7.65-13.25-1.1-1.9-2.04-4-3.17-5.85-1.24-2.02-2.93-3.61-3.83-5.87s-1.01-5.01.34-7.05c.99-1.5,2.66-2.46,4.39-2.96,7.73-2.2,17.45-1.97,25.42-1.64,8.51.35,17.17,1.86,24.8,5.82,10.43,5.4,17.81,14.75,24.33,24.24,1.95,2.84,3.84,5.71,5.74,8.59,1.76,2.66,5.12,6.03,6.08,9.03-2.55-7.9-5.53-15.15-7.26-23.05-2.89-13.14,8.31-24.48,20.82-23.97l71.95-.19c2.27,0,4.41,1.04,5.81,2.83,1.67,2.15,2.02,5.05.91,7.53h0Z" fill="#48ba86"/>
  <circle cx="238.55" cy="212.79" r="17.43" fill="#48ba86"/>
</svg>