<?xml version="1.0" encoding="UTF-8"?>
<svg id="Layer_1" xmlns="http://www.w3.org/2000/svg" version="1.1" viewBox="0 0 50.84 34">
  <!-- Generator: Adobe Illustrator 30.3.0, SVG Export Plug-In . SVG Version: 2.1.3 Build 182)  -->
  <path d="M50.48,2.18l-7.9,17.55c-.38.47-.98,1.07-1.4,1.21s-1.4-.4-1.68-.74l-3.45-4.38-.41-.11,5.19,7.84-4.17,9.36c-.16.36-.84.94-1.21,1.06-.45.15-1.55-.31-1.82-.73l-11.83-18.4c1.33,3.45,3.36,5.84,4.6,9.05-.54,1.21-1.09,2.41-1.63,3.62-.58,1.3-1.16,2.47-1.59,3.83-.39,1.24-1.48,2.86-3.02,2.37-.75-.24-1.23-.96-1.65-1.64C12.91,23.05,7.27,14.06,1.6,5.07.74,3.71-1.13,1.06,1.28.28c.56-.18,1.16-.17,1.75-.16,1.91,0,3.83.09,5.74.13,1.36.03,3.14.65,4.02,1.73l4.32,5.3c-.37-.9-1.02-1.77-1.51-2.62-.22-.38-.4-.79-.63-1.16-.25-.4-.58-.71-.76-1.16s-.2-.99.07-1.4c.2-.3.53-.49.87-.59,1.53-.44,3.45-.39,5.03-.32,1.68.07,3.4.37,4.91,1.15,2.06,1.07,3.52,2.92,4.81,4.8.39.56.76,1.13,1.14,1.7.35.53,1.01,1.19,1.2,1.79-.5-1.56-1.09-3-1.44-4.56-.57-2.6,1.64-4.84,4.12-4.74l14.24-.04c.45,0,.87.21,1.15.56.33.43.4,1,.18,1.49h0Z" fill="#48ba86"/>
  <circle cx="47.3" cy="30.55" r="3.45" fill="#48ba86"/>
</svg>