<?xml version="1.0" encoding="UTF-8"?>
<svg id="Layer_1" xmlns="http://www.w3.org/2000/svg" version="1.1" viewBox="0 0 848.02 1000" fill="white">
  <!-- Generator: Adobe Illustrator 30.3.0, SVG Export Plug-In . SVG Version: 2.1.3 Build 182)  -->
  <path d="M713.85,356.39c9.73-54.52-26.61-97.36-68.82-128.52-59.06-43.49-125.91-69.45-194.71-89.57v719.18c30.5-26.61,61.01-56.47,90.22-86.98,62.31-68.8,120.09-138.9,144.09-223.28,9.73-38.29,4.55-81.78-27.91-107.74,27.92-22.07,53.22-49.33,57.13-83.09ZM595.06,604.98c-21.42,38.94-50.63,74.65-85.04,107.74l-.64-205.76c23.37-16.87,47.38-31.8,76.59-34.4,11.69,0,22.07,3.89,29.86,12.98,25.97,40.89-4.54,83.73-20.77,119.44ZM654.13,340.16c-5.85,32.45-41.55,51.28-66.86,64.91-25.31,12.98-51.28,23.36-77.89,33.1v-210.3c40.9,12.33,77.89,33.1,112.94,57.77,16.23,13.63,38.31,30.5,31.81,54.52h0ZM397.1,852.28V135.7l-57.77,29.86v384.26c-2.59,11.03,5.19,27.91-7.14,33.1-3.25.65-5.84-.64-7.14-3.24-24.66-92.82-35.05-190.83-39.59-291.44l-1.95-87.63-55.17,40.89v23.36c3.24,92.82,9.74,183.69,27.26,270.67l-22.07,24.67c-8.44-11.68-13.63-24.02-19.48-36.35-27.91-73.99-38.29-155.13-42.19-238.86l-48.03,35.7c4.55,127.22,28.56,247.3,105.8,342.71,14.93-16.87,29.86-34.4,44.79-50.63,7.79,34.4,18.82,67.51,31.8,99.95,21.41,49.98,45.43,100.6,90.86,139.55h0Z" fill-rule="evenodd"/>
  <path d="M839.11,229.82l-86.33-21.42-15.58-58.42-88.27-20.77-18.17-63.61-208.35-47.38-204.46,47.38-18.17,63.61-88.28,20.77c-5.84,20.12-11.03,39.59-16.23,59.07l-86.33,20.77c-6.49,183.69,44.14,345.31,135.66,489.4,66.86,103.2,167.46,212.25,277.81,266.12,74.64-35.7,140.85-95.42,200.56-162.27,144.74-167.45,223.93-363.47,216.14-593.24h0ZM584.67,785.43c-47.38,53.22-100.61,105.79-160.32,136.3-57.12-28.56-107.09-77.89-152.53-127.87-118.13-138.25-196.67-292.73-209.65-473.82-1.3-14.93-1.94-29.21-1.3-44.79l73.35-16.87,16.87-60.37,90.23-21.42.65-1.95,16.22-62.31,163.57-38.29,168.76,38.29,16.22,63.61,91.52,22.07,15.58,60.37,73.99,16.87c-1.95,197.31-80.49,362.83-203.17,510.17h0Z" fill-rule="evenodd"/>
</svg>