<?xml version="1.0" encoding="UTF-8"?>
<svg id="Layer_1" xmlns="http://www.w3.org/2000/svg" version="1.1" viewBox="0 0 24 24">
  <!-- Generator: Adobe Illustrator 30.3.0, SVG Export Plug-In . SVG Version: 2.1.3 Build 182)  -->
  <path d="M24.07,12c0,6.66-5.41,12.06-12.07,12.06S-.07,18.66-.07,12,5.33-.06,12-.06s12.07,5.4,12.07,12.06ZM21.4,11.01c-.2-.68-.75-1.07-1.43-1.09-.76-.02-1.39.35-1.69,1.06-.7,1.68.02,3.49-.18,5.05-.04.29-.28.44-.54.37-.33-.09-.59-.39-.57-.76l.07-.96c.09-1.16.22-3.18-.86-3.43-.45-.1-.86.19-.91.65-.13,1.18.38,2.3-.24,2.63-.16.08-.45.09-.58-.03-.21-.2-.29-.5-.24-.79.16-1.01.18-1.99-.07-2.98-.32-1.31-1.09-2.33-2.49-2.37-1.03-.03-1.92.56-2.3,1.53-.28.72-.38,1.5-.38,2.3,0,1.51.17,2.97.41,4.46.13.81.19,1.65-.56,1.73-.31.03-.63-.15-.74-.49-.05-.16-.08-.38-.07-.56.08-1.51.13-2.98.09-4.48s-.58-2.87-2.16-2.79c-.72.04-1.31.41-1.58,1.09-.37.93-.09,1.72-.72,1.85s-.78-.43-1.03-1.02c-.18-.42-.56-.64-1-.55-.35.07-.71.4-.71.85-.02,2.15.68,4.26,1.93,6.03,2.13,3.01,5.62,4.77,9.28,4.7,6.1-.11,10.98-5.16,10.84-11.24,0-.16-.16-.32-.3-.33s-.31.12-.33.26l-.11.7c-.02.15-.2.28-.35.26-.39-.03-.28-.85-.52-1.67Z"/>
</svg>