<?xml version="1.0" encoding="UTF-8"?>
<svg id="Layer_1" xmlns="http://www.w3.org/2000/svg" version="1.1" viewBox="0 0 24 24">
  <!-- Generator: Adobe Illustrator 30.3.0, SVG Export Plug-In . SVG Version: 2.1.3 Build 182)  -->
  <path d="M2.73,17.83c-.52.43-1.26.63-1.9.39-.77-.29-.99-1.14-.65-1.88.15-.33.38-.6.67-.82l8.64-6.63h-4.83c-.3,0-.57-.07-.8-.23-.35-.24-.5-.66-.36-1.06.07-.22.19-.39.36-.56.35-.32.8-.52,1.29-.52h9.54s-3.13-2.56-3.13-2.56c-.2-.17-.32-.4-.32-.65.05-.67.77-1.04,1.41-1.03.3,0,.62.07.87.26l7.54,5.79c.73.56,1.35,1.25,1.83,2.02.86,1.37,1.23,2.99,1.03,4.6-.31,2.53-1.97,4.64-4.22,5.79-3.58,1.84-8.24,1.04-10.79-2.12-.85-1.05-1.47-2.42-1.55-3.77-.01-.29.03-.56.06-.86l-4.69,3.84h0ZM19.94,15.94c.97-1.4,1.03-3.22.14-4.67-.39-.64-.94-1.18-1.6-1.58-1.72-1.06-3.98-1.05-5.7,0-.65.41-1.2.94-1.6,1.6-.91,1.51-.82,3.4.25,4.8.6.78,1.42,1.38,2.36,1.71,2.22.77,4.79.08,6.14-1.86Z"/>
  <path d="M18.52,14.86c-.92,1.38-2.81,1.8-4.3,1.08-.5-.24-.93-.6-1.23-1.06-.62-.91-.64-2.08-.04-3,.26-.4.6-.73,1.02-.97,1.53-.91,3.62-.52,4.58.97.59.91.58,2.07-.02,2.98Z"/>
</svg>