<?xml version="1.0" encoding="UTF-8"?>
<svg id="Layer_1" xmlns="http://www.w3.org/2000/svg" version="1.1" viewBox="0 0 24 24">
  <!-- Generator: Adobe Illustrator 30.3.0, SVG Export Plug-In . SVG Version: 2.1.3 Build 182)  -->
  <g id="_x32_069a460dcf28295e231f3111e03585e">
    <path d="M10.66,10.22l.9,2.82h-2.94l.89-2.82c.2-.68.37-1.48.55-2.14h.03c.17.66.36,1.45.58,2.14ZM24,4v16c0,2.2-1.8,4-4,4H4c-2.2,0-4-1.8-4-4V4C0,1.8,1.8,0,4,0h16c2.2,0,4,1.8,4,4h0ZM15.2,17.87l-3.72-11.46h-2.67l-3.67,11.46h2.16l.99-3.25h3.64l1.04,3.25h2.25ZM18.74,9.59h-2.11v8.28h2.11s0-8.28,0-8.28ZM18.86,7.28c-.02-.65-.46-1.14-1.17-1.14s-1.17.49-1.17,1.14.46,1.12,1.16,1.12,1.19-.49,1.19-1.12h0Z"/>
  </g>
</svg>