<?xml version="1.0" encoding="UTF-8"?>
<svg id="Layer_1" xmlns="http://www.w3.org/2000/svg" version="1.1" viewBox="0 0 24 24">
  <!-- Generator: Adobe Illustrator 30.3.0, SVG Export Plug-In . SVG Version: 2.1.3 Build 182)  -->
  <path d="M8.61,8.41c-.48,0-.81.05-.98.09v3.11c.21.05.45.06.8.06,1.27,0,2.05-.64,2.05-1.72,0-.97-.68-1.55-1.86-1.55h-.01Z"/>
  <path d="M20,0H4C1.8,0,0,1.8,0,4v16c0,2.21,1.8,4.01,4,4.01h16c2.2,0,4-1.8,4-4V4c0-2.2-1.8-4-4-4ZM11.86,12.4c-.81.77-2.02,1.11-3.43,1.11-.32,0-.6-.02-.81-.05v3.77h-2.36V6.84c.74-.13,1.77-.22,3.22-.22s2.52.28,3.22.84c.68.53,1.13,1.41,1.13,2.44s-.35,1.91-.97,2.5ZM15.42,17.39c-1,0-1.9-.22-2.47-.53l.42-1.71c.44.26,1.35.58,2.05.58s1.01-.25,1.01-.64-.24-.58-1.12-.88c-1.58-.53-2.19-1.39-2.18-2.3,0-1.42,1.22-2.5,3.11-2.5.89,0,1.69.21,2.16.44l-.42,1.64c-.35-.19-1-.44-1.66-.44-.58,0-.9.24-.9.63,0,.36.3.55,1.23.88,1.45.5,2.07,1.23,2.08,2.36,0,1.42-1.13,2.47-3.32,2.47h.01Z"/>
</svg>