<?xml version="1.0" encoding="UTF-8"?>
<svg id="Layer_1" xmlns="http://www.w3.org/2000/svg" version="1.1" viewBox="0 0 24 24">
  <!-- Generator: Adobe Illustrator 30.3.0, SVG Export Plug-In . SVG Version: 2.1.3 Build 182)  -->
  <g id="Layer_2">
    <g id="Surfaces">
      <g id="_3D_Substance_Surface">
        <g id="Outline_no_shadow">
          <path d="M10.36,8.99c.16.27.24.58.24.89,0,.44-.11.79-.31,1.04-.22.25-.5.44-.83.53-.38.11-.77.17-1.16.16h-.53c-.12,0-.25,0-.39-.02v-3.35c.08-.01.21-.02.41-.02.2,0,.43,0,.69,0,.4-.01.8.06,1.18.2.29.11.53.31.71.58h0Z"/>
          <path d="M19.78.26H4.2C1.84.26-.08,2.17-.08,4.54v14.98c0,2.36,1.91,4.27,4.27,4.27h15.58c2.36,0,4.27-1.91,4.27-4.27V4.54c0-2.36-1.91-4.27-4.27-4.27h0ZM12.2,11.97c-.4.57-.97.99-1.62,1.22-.73.26-1.49.39-2.27.38-.24,0-.41,0-.5,0-.1,0-.24,0-.44,0v3.19c.01.07-.04.14-.11.14h-2.01c-.08,0-.11-.04-.11-.13V6.42c0-.08.03-.11.1-.11.17,0,.38,0,.61,0,.24,0,.49-.01.77-.02.28,0,.57-.01.88-.02.31,0,.61,0,.91,0,.82,0,1.51.1,2.07.31.51.17.97.46,1.35.83.33.32.58.71.74,1.14.15.42.23.86.23,1.3,0,.86-.2,1.57-.6,2.14h0ZM18.8,10.72h-1.54v3.46c0,.37.06.63.19.79s.35.24.69.24c.1,0,.19,0,.28,0,.09,0,.17-.01.26-.02.03-.01.06,0,.09,0s.04.05.04.11v1.33c0,.12-.04.19-.13.21-.21.07-.43.12-.65.16-.26.05-.52.07-.78.06-.7,0-1.25-.18-1.65-.55-.4-.37-.6-.96-.6-1.76v-4.02h-.96c-.09,0-.13-.05-.13-.14v-1.6c0-.09.05-.13.15-.13h.96c.01-.18.02-.4.04-.64.02-.24.04-.49.06-.73s.05-.44.07-.59c.01-.03.03-.06.05-.09s.05-.05.08-.06l1.93-.24s.07,0,.09,0c.02.01.02.04.02.09-.02.25-.04.58-.05,1.01-.01.42-.02.84-.03,1.24h1.51c.06,0,.1.04.1.13v1.63c0,.05-.03.1-.08.11h0Z"/>
        </g>
      </g>
    </g>
  </g>
</svg>