<?xml version="1.0" encoding="UTF-8"?>
<svg id="Layer_1" xmlns="http://www.w3.org/2000/svg" version="1.1" viewBox="0 0 24 24">
  <!-- Generator: Adobe Illustrator 30.3.0, SVG Export Plug-In . SVG Version: 2.1.3 Build 182)  -->
  <path d="M12,24c6.63,0,12-5.37,12-12S18.63,0,12,0,0,5.37,0,12s5.37,12,12,12ZM2.79,13.73c.78-2.55,2.76-7.48,7.93-9.36v11.16c.2.2.7.59,1.17.59.73,0,1.76-.59,1.76-.59v-7.05c.61-1.27,3.41-3.53,5.29-3.53-1.14,1.31-1.67,2.08-2.35,3.52v7.05c.78.2,2.35,0,3.52-1.17-.95,2.16-3.52,4.7-4.7,4.7l-1.76-1.17-1.76,1.76c-1.76,0-4.7-1.17-5.87-2.94h1.76v-6.73c-2.14-.29-3.12,1.06-4.99,3.76Z" fill-rule="evenodd"/>
</svg>