<?xml version="1.0" encoding="UTF-8"?>
<svg id="Layer_1" xmlns="http://www.w3.org/2000/svg" version="1.1" viewBox="0 0 24 24">
  <!-- Generator: Adobe Illustrator 30.3.0, SVG Export Plug-In . SVG Version: 2.1.3 Build 182)  -->
  <g id="_x32_069a460dcf28295e231f3111e0439b1">
    <path d="M12.33,3.9c-.09-.46.03-.93.34-1.42.37-.59.82-.92,1.32-.98.66-.07,1.27.28,1.83,1.03.52.71.76,1.38.7,1.98,0,.37-.55.59-1.63.67-.84.07-1.45-.02-1.84-.26-.41-.24-.65-.58-.73-1.02h0ZM23.95,22.44c-.06.12-.27.11-.62-.05-.61-.29-1.28-.73-2.04-1.33-.84-.67-1.33-1.19-1.47-1.57-.03-.09-.02-.21.03-.36l.16-.43c.11-.39-.03-.78-.43-1.17-.19-.19-.45-.37-.77-.55-.74-.39-1.81-.72-3.22-.99-1.46-.28-2.85-.43-4.17-.47l-1.61.08c-.43.49-.83.95-1.23,1.37-.33.35-.66.68-.98.98-1.27,1.14-2.52,2.01-3.73,2.61-1.66.81-2.9,1.04-3.74.68-.11-.07-.14-.2-.11-.37l.15-.47c.58-1.25,1.52-2.39,2.81-3.42.11-.09.22-.18.33-.26,1.02-.76,2.41-1.56,4.15-2.38,1.14-.49,2.08-.82,2.82-.98l.69-.96c.28-.34.57-.67.86-.98.62-.68,1.27-1.3,1.94-1.86.06-.03.07-.06.03-.1-.34-.19-.9-.55-1.66-1.08-.65-.44-1.16-.75-1.53-.92-1.15-.52-2.32-.37-3.53.45-.73.48-1.12,1.02-1.16,1.6l-.04.72c.04.2-.6.53-1.92,1-.24.07-.44.14-.61.18-.29.06-.49.07-.59.02l-.03-.02-.09-.06c-.12-.23.43-1.03,1.64-2.41.08-.09.17-.18.25-.27h0c2.19-2.31,4.77-3.2,7.73-2.67.82.14,2.17.64,4.06,1.49.21-.21.57-.46,1.06-.74.62-.36,1.14-.55,1.53-.56.86,0,1.4.32,1.63.99.13.41-.17.98-.91,1.72-.77.78-1.49,1.27-2.18,1.48-.86.26-1.79.11-2.78-.43-.44.34-.94.83-1.48,1.46-.03.03-.05.06-.07.08l-1.28,1.53-.02.11.88-.03c.63.02,1.27.12,1.93.33,1.79.58,3.29,1.28,4.5,2.13.58.41,1.13.87,1.66,1.4.54.55,1.07,1.17,1.56,1.84.43.6.8,1.21,1.11,1.82.43.85.59,1.45.47,1.81h0ZM17.38,7.84c.16.12.53.18,1.14.15.68-.03,1.13-.16,1.39-.42.12-.12.12-.25-.02-.37-.16-.14-.45-.18-.87-.12-.36.06-.74.18-1.16.37-.41.19-.58.32-.49.37ZM8.29,15.82l-.19-.03c-.58.12-1.11.25-1.6.4-.69.22-1.33.48-1.92.77-.47.22-.92.47-1.32.74-1.3.84-1.9,1.66-1.79,2.45l.12.14c.34.22,1.02.05,2.02-.52,1.36-.79,2.57-1.72,3.65-2.81.36-.37.71-.75,1.04-1.15h0Z"/>
  </g>
</svg>