<svg xmlns="http://www.w3.org/2000/svg" id="acLogo" version="1.1" viewBox="0 0 557.66 1420" class="ac-logo">
  
  <defs>
    <style>
      .st0 {
        fill: #8200ff;
      }

      .st1 {
        fill: #e5e5e5;
      }
    </style>
  </defs>
  <g id="gauntlet">
    <path class="st0" d="M263.88,267.95c1.01-1.23,3.09-2.76,3.14-4.57l1.7-53.24,2.18-89.75c.03-1.14-1.01-2.58-1.74-2.3l-2.48.94,2.26-1.66c-6.05-5.76-11.32-11.32-16.93-17.6l-5.29,5.63-12.22,12.12c.28.71,1.22,1.79,1.88,2.07.6.26,2.05-.02,2.78-.16-.81.72-1.38,1.46-1.36,2.44l.33,14.05.42,18.92.41,21.14.45,15.43.41,15.14.45,14.98.42,13.43.45,14.97.29,11.23,7.28,7.92,3.16,3.52,5.62-5.82,4.94-5.75.2-9.4.45-14.09.41-13.86.45-14.99.41-17.72.45-18,.41-19.02.44-21.38.22-11.45,3-1.31c-1.54,1.14-2.47,1.83-2.5,3.6l-.31,17.22-.41,19.87-.45,20.32-.41,18.41-.44,17.13-.41,14.29-.46,14.56-.22,16.01-5.36,6-6.07,6.26-10.68-11.72c-1.04.68-1.32.3-.69-.39.88-1.75.16-3.74.12-5.61l-.31-14-.46-13.7-.43-15.06-.41-15.14-.46-13.71-.4-19.44-.44-23.56-.18-17.07c-.03-2.98-1.36-5.18-4.74-5.54l.19,6.66,1.68,69.86,2.06,69.28,15.22,17.14,11.97-13.53h0ZM251.92,268.2c-2.34-2.96-4.68-5.98-5.78-9.96,1.99,3.18,3.34,6.08,5.95,9.04,2.56-2.58,3.92-5.17,5.59-8.13-.52,3.82-3.01,6.47-5.76,9.05Z" />
    <path class="st0" d="M301.18,133.15s-.03-.02-.05-.04v.02s.06.04.08.07c0-.02-.02-.03-.03-.05h0Z" />
    <path class="st0" d="M305.03,136.4c.13-.19.5-.8.56-1.02l2.48-10.3c.53-2.2.58-3.99-.73-5.85.45-.7,1.09-1.81,1.29-2.7,2.3-10.17,4.23-19.99,5.78-30.32.12-.79-.76-1.59-1.64-1.76l-24.03,11.23-.77,1.19c-.16.25.25.93.47,1.24,5.72,4.73,10.92,9.7,15.53,15.58-1.65-.57-2.29-2.08-3.39-3.22-6.33-6.64-13.56-11.97-21.2-17.01-4.7-3.1-8.18-6.71-9.85-12.17-1.51-4.92-1.68-9.99-.99-15.21-1.67-1.54-4.02-3.13-4.96-4.99l-2.45-13.56c-1.29-7.15-3.92-13.84-8.51-19.97l-.17,59.09c0,1.92,1.2,3.78,2.29,5.11l6.99,8.55c10.5,11.55,22.58,17.39,33.74,26.9,2.13,1.82,4.39,3.46,5.71,5.95,2.02,1.33,3.03,4.39,3.84,3.25h.01Z" />
    <path class="st0" d="M243.49,99.6l-8.35,8.4c-10.62,9.62-22.07,13.89-32.96,26.41-1.34,1.54-2.5,3.56-2.74,5.48-.14,1.11,1,2.7,1.95,3.33,4.91-8.36,14.43-15.69,22.7-20.91,10.86-6.85,20.16-15.18,27.92-25.47,7.19,9.97,15.99,17.86,26.14,24.43l14.08,10.05,7.21,7.2-.15.64-7.79-7.51c-5.14-4.38-10.55-7.82-16.49-11-1.01,1.12-1.48,2.35-1.52,3.93l-1.27,44.68c-.06,1.98.75,3.11,2.63,3.57,5.53,1.33,10.95,2.61,16.04,5.03-6.28-1.52-11.95-3.54-18.35-4.26l-.12,5.76c6.08,1.42,11.81,2.38,17.19,4.95l-14.7-3.91c-.63-.17-1.55-.22-1.97.02-.34.2-.78,1.33-.79,1.82l-.36,17.95c-.03,1.44-.18,2.65.56,3.92l14.05-3.52,8.09-2.55.8-10.24-5.78-3.51c2.61.63,4.44,1.84,7.15,3.35.52-1.7.96-3.66.91-5.46-.03-.95-2.16-2.12-2.85-2.32l1.62-.8,5.15-34.27c.32-2.11-1.5-3.7-2-5.69,1.18,1.11,2.04,2.58,2.92,4.12,1.5-.79,2.75-3.09,1.87-4.62l-3.14-5.47c-11.99-12.32-29.59-19.79-40.07-32.64l-7.86-9.64c-.26-.32-.98-.72-1.3-.71-.24,0-.77.37-.94.56l-7.48,8.91h0Z" />
    <path class="st0" d="M254.42,10.81l.32,17.23c4.5,7.68,7.22,15.7,8.77,24.46.38,2.18.59,5.01,1.77,6.81,1.46,2.24,3.7,3.82,5.57,5.87-2.34,9.71-.8,19.62,7.34,25.56,1.16.84,3.04.04,4.15-.48l8.24-3.86,19.67-8.68c1.04-.46,2.04-1.57,2.12-2.51.08-.89-.5-2.14-1.17-2.86l-13.73-14.74c-10.59-11.37-20.91-22.51-31.04-34.28l-11.22-12.9-1.84-.61c-.35-.12-.89,1.22-.89,1.65l-.05,10.64c0,1.61.54,3.08,1.62,4.37l.36-15.67h.01Z" />
    <path class="st0" d="M190.66,83.53l5.37,2.43,22.81,9.87,4.78-3.51-2.86-2.12c1.51.22,3.51,1.27,4.46.67,8.4-5.29,10.08-16.17,7.71-25.71l3.02-2.8c2.15-1.99,3.51-4.34,3.92-7.29,1.31-9.56,4.32-18.33,8.94-26.81l.55-17.42.36,15.43c1.36-1.37,1.58-2.92,1.57-4.57l-.07-10.34c0-.51-.59-1.63-1.04-1.58-.37.04-1.37.42-1.62.72-15.29,18-30.82,35.42-47.19,52.47l-9.31,10.15c-1.25,1.36-.42,3.74,1.19,4.44,9.37,4.01,18.53,7.82,27.54,12.43-2.32-.21-4.12-1.47-6.2-2.42-7.14-3.25-14.07-6.46-21.46-9.11-1.51-.54-3.28.44-3.72,1.65-.4,1.09.02,2.87,1.24,3.43h0Z" />
    <path class="st0" d="M195.49,123.45c1.1,4.62,1.93,8.87,3.55,13.65,4.72-5.45,8.84-10.01,14.29-13.91l15.55-11.13c7.82-5.6,14.25-12.36,20.01-20,1.37-1.82,2.41-3.34,2.4-5.88l-.17-58.4c-4.73,6.39-7.35,13.1-8.62,20.43l-2.34,13.52-4.91,4.59c1.4,11.93-1.09,21.18-11.27,27.54-7.35,4.59-13.63,9.91-20.2,15.8,2.21-4.44,12.64-11.44,12.1-12.47l-.81-1.54-23.42-11-1.69.2c-1.7.2,4.35,26.85,5.63,32.87l.94,1.64c-.57,1.15-1.32,2.88-1.04,4.08h0Z" />
    <path class="st0" d="M262.51,294.56l13.27-9.92,17.54-11.29c1.06-.68,2.57-2.18,2.45-3.44l-2.57-26c-.2-1.98-1.21-3.34-2.89-4.45-5.68-3.76-11.94-6.67-18.38-9.04-.63.42-1.12,1.38-1.26,2.14l-.57,20.22-.16,13.54-7.76,9.08c-.76.88-.96,3.44-1.29,4.59l-.03,11.94c0,.85.81,2.2,1.65,2.63h0ZM267.28,282.73c1.21,0,2.19.98,2.19,2.19s-.98,2.19-2.19,2.19-2.19-.98-2.19-2.19.98-2.19,2.19-2.19Z" />
    <path class="st0" d="M242.85,280.44c0-1.23-.66-3.62-1.11-4.75l-8.01-9.36-.39-23.87-.24-9.95c-.02-.7-.56-1.8-1.26-2.15-6.16,2.33-12.33,5.2-17.83,8.75-2.08,1.34-3.23,3.24-3.46,5.58l-2.55,25.34c-.11,1.12,1.23,2.55,2.18,3.15l15.29,9.7,15.6,11.48c.71.23,1.92-1.26,1.91-2.18l-.14-11.74h.01ZM236.45,287.16c-1.22,0-2.22-.99-2.22-2.22s.99-2.22,2.22-2.22,2.22.99,2.22,2.22-.99,2.22-2.22,2.22Z" />
    <path class="st0" d="M231.51,169.7l-1.24-46c-.03-1.06-.9-3.36-2.07-2.81-7.74,4.12-26.87,17.37-25.77,24.57l5.23,34.36,2.9-1.01.62.1-3.22,1.72c-2.45,1.31-1.89,4.21-.44,6.76l6.88-3.17.15.43-4.42,2.18c-.92.46-1.68,1.96-1.57,3.05l.87,8.22,5.32,1.7,15.06,3.88,1.67.29c.38.07.63-1.26.58-1.59l-.44-20.5c.08-.57-.84-1.89-1.39-1.73l-15.31,4.23-.27-.36c5.39-1.92,11.04-3.42,16.81-4.74l-.25-5.74c-6.16.89-11.77,2.84-17.9,4.31,5.12-2.32,10.43-3.64,15.98-5.11,1.3-.34,2.26-1.56,2.22-3.03h0Z" />
    <path class="st0" d="M290.5,396.66l-.47-8.35-.57-8.32c-.04-.61-1.08-1.9-1.61-1.78l-1.91.43c-7.81,1.74-17.01,8.12-15.97,15.45l1.95,13.74c3.02-1.92,5.94-2.9,9.31-2.14,3.06.69,6.16,2.66,6.65,6.11-4.15-4.97-10.4-5.8-15.38-1.65-3.21,2.67-5.11,7.5-4.01,11.8l2.84,5.91c1.04,2.17,2.46,3.82,4.63,4.68,5.7,2.26,12.17-.5,14.51-6.37,2.38-5.95,3.51-12.8,1.85-19.09-.95-3.6-1.58-6.7-1.79-10.41h-.03Z" />
    <path class="st0" d="M232.19,212.39l.06-7.36-22.58-6.12c-.4-.42-1.18-.92-1.49-.7-.31.21-.65,1.11-.58,1.55l1.73,10.57,1.31,14.94c-.98.75-1.42,1.77-1.39,2.87l.35,10.83c0,.42.58,1.72.9,1.45l1.2-.99c5.62-4.65,12.49-7.24,19.3-9.89,1.61-.63,2.11-1.34,2.03-3l-.52-11.76c-6.36,1.71-11.83,4.82-17.92,7.46,4.35-4.07,17.58-7.56,17.6-9.86h0Z" />
    <path class="st0" d="M295.39,197.73l-1.8,1.51-21.91,5.77-.24,6.55c-.03.76.98,2.1,1.73,2.44,5.44,2.45,10.63,4.55,15.61,7.74-5.92-2.36-10.94-5.16-17.38-7.01l-.59,12.08c-.06,1.19.15,1.95,1.49,2.53l12.11,5.26c3.36,1.46,6.06,3.48,9.1,5.79.47-.4.7-1.42.64-2.2-.5-7.11,1.54-11.59-.94-13.05.57-7.81,1.08-15.84,2.56-23.73.29-1.53.78-2.77-.4-3.68h.02Z" />
    <path class="st0" d="M228.89,294.91l12.09,8.72,1.54-6.66c-11.48-8.54-22.8-16.22-34.79-23.62-1.27,2.17-1.68,4.12-1.55,6.43l22.71,15.13h0Z" />
    <path class="st0" d="M310.59,78.41c-8.72,3.37-16.94,7.23-25.39,11.16l-4.76,2.64c1.69,1.67,2.92,2.54,5,3.39l22.31-9.64,5.57-2.62c1.21-.57,1.5-2.75.82-3.75-.63-.93-2.17-1.71-3.55-1.17h0Z" />
    <path class="st0" d="M314.88,380.6l-1.93-16.11-2.1-15.75c1.02-21.52-1.66-38.67-12.03-57.49l-3.84-6.97c-.28-.52-.89-1.16-1.48-1.64l4.01-2.93c.49-2.32-.11-4.58-1.57-6.31-11.87,7.59-23.25,15.17-34.64,23.55l1.42,6.74,13.2-9.46,16.28-10.47c-9.39,7.14-18.65,13.87-27.51,21.56-.18.15-.35.31-.51.47-9.52,5.41-23.55,1.07-23.55,1.07-8.86-8.16-18.26-15.18-28.03-22.19l-1.36,2.17c-6.77,9.17-12.98,18.39-18.32,28.48-2.46,4.66-4.25,9.26-5.41,14.42-2.34,10.44-4.95,20.53-8.57,30.59-3.71,10.33-.44,18.95-3.08,25.75l-4.46,11.49c-.62,1.6-1.19,3.9-.21,5.39,1.86,2.86,5.54,3.63,8.72,2.65,8.94-2.75,15.04-14.08,16.84-23.57.81-4.26,1.89-8.71,1.01-12.97-.61-2.98-3.62-4.46-5.51-6.5,2.42.53,4.49,1.47,6.65,3.09,4.68-7.7,9.07-15.73,9.17-24.4l1.8,6.19c2.45-2.03,5.12.89,7.24-.44l6.31-3.96-4.51,6.33c-.65.92-1.56,1.49-2.75.87-1.51-.79-5-.14-4.96,1.85l2.58,11.74c1.09,7.91,2.76,15.59,2.89,23.63.14,8.59-1.12,16.81-1.21,25.39l-.22,21.05c-.06,5.38,1.09,10.59,2.74,15.65,1.49,4.57,5.66,7.11,10.23,6.93,9.73-.38,11.07-12.18,9.73-21.68l-1.42-10.1c-3.8-4.79-9.89-5.59-15.47-3.18,4.35-4.05,10.68-3.84,15.42-.05l.83-4.55,1.46-17.82c.49-5.95-6.34-8.65-12.56-9.67,5.02-.67,9.72.94,14.28,3.34.54-.07,1.43-.2,1.55-.54.09-.26.11-.8.11-1.37l-.04-23.94,2.11,12.42c.17.98.25,1.97.26,2.97l.31,41.25c3.38,1.58,12.01,4.7,18.94-.44,0,0-7.44,10.22-18.94.95l.16,21.64c.02,2.14.39,4.26,1.14,6.26,3.28,8.83,7.54,7.19,10.81,3.75,2.25-2.37,3.75-5.31,4.45-8.46v1.89c1.84-8.89,2.18-17.34,2.65-26.13l1.01-18.76.22-11.37c.02-.79-1.97-1.5-2.85-1.78,2.01-.63,4.62-1.02,6.12-2.7,2.62-2.95,5.02-5.94,8.29-8.12,6.37-4.25,11.72-3.8,13.96-8.87,1.69-3.84,3.88-7.59,7.31-9.89-2.45,3.74-4.99,7.59-4.6,12.18l2.79,13.25c4.3-3.28,9.71-3.72,13.7-.36-4.5-1.51-8.55-1.05-11.97,2.02-4.37,3.93-6.18,10.2-4.37,15.84,1,3.13,3.41,5.31,6.04,5.93,3.15.74,6.2,0,8.41-2.29,9.43-9.81,8.37-14.69,6.84-27.5h0Z" />
  </g>
  <g id="pull-set"><g id="chain">
    <path class="st1" d="M243.21,990.83c-1.51,1.85-2.29,4.11-2.31,6.49l-.03,3.63-.04,3.74v2.68h0c.24,4.29,2.89,8.12,7.07,9.54l.05-4.74c-1.8-1.19-2.84-3.15-2.81-5.32l.09-9.39c.01-1.4.35-2.7,1.24-3.79.45-.6,1-1.09,1.64-1.51l.02-4.74c-1.96.66-3.65,1.84-4.93,3.41Z" />
    <polygon class="st1" points="254.7 1017.01 254.7 1017.01 254.7 1017.01 254.7 1017.01" />
    <path class="st1" d="M254.94,987.46l-.05,4.62c1.71,1.1,2.74,2.86,2.98,4.88l-.09,10.34c-.16,2.19-1.24,3.92-3.06,5.13l-.02,4.58c4.03-1.32,6.9-4.93,7.25-9.22l.07-6.51v-4.73c-.23-2.34-1.17-4.51-2.75-6.24-1.19-1.29-2.67-2.25-4.33-2.85Z" />
    <path class="st1" d="M251.56,1010.2c-1.24-.2-2.36.65-2.5,1.88l-.15,16.55c0,.6.34,1.11.79,1.47h0c.68.55,1.54.66,2.34.27.62-.3,1.18-1.01,1.18-1.83l.13-16.32c.01-1.06-.82-1.87-1.79-2.02Z" />
    <path class="st1" d="M243.64,946.65c-1.51,1.85-2.29,4.11-2.31,6.49l-.03,3.63-.04,3.74v2.68h0c.24,4.29,2.89,8.12,7.07,9.54l.05-4.74c-1.8-1.19-2.84-3.15-2.81-5.32l.09-9.39c.01-1.4.35-2.7,1.24-3.79.45-.6,1-1.09,1.64-1.51l.02-4.74c-1.96.66-3.65,1.84-4.93,3.41Z" />
    <polygon class="st1" points="255.13 972.83 255.13 972.83 255.13 972.83 255.13 972.83" />
    <path class="st1" d="M255.37,943.28l-.05,4.62c1.71,1.1,2.74,2.86,2.98,4.88l-.09,10.34c-.16,2.19-1.24,3.92-3.06,5.13l-.02,4.58c4.03-1.32,6.9-4.93,7.25-9.22l.07-6.51v-4.73c-.23-2.34-1.17-4.51-2.75-6.24-1.19-1.29-2.67-2.25-4.33-2.85Z" />
    <path class="st1" d="M251.99,966.02c-1.24-.2-2.36.65-2.5,1.88l-.15,16.55c0,.09.02.18.04.26l-.08,7.48c0,.74.5,1.4,1.01,1.74.66.44,1.45.42,2.12.11.75-.35,1.17-1.05,1.17-1.87l.14-16.33c0-.13,0-.25-.02-.37l.06-7.43c.01-1.06-.82-1.87-1.79-2.02Z" />
    <path class="st1" d="M249.2,922.82l.05-4.74c-1.8-1.19-2.84-3.15-2.81-5.32l.09-9.39c.01-1.4.35-2.7,1.24-3.79.45-.6,1-1.09,1.64-1.51l.02-4.74c-1.96.66-3.65,1.84-4.93,3.41-1.51,1.85-2.29,4.11-2.31,6.49l-.03,3.63-.04,3.74v2.68h0c.24,4.29,2.89,8.12,7.07,9.54Z" />
    <path class="st1" d="M256.23,893.36l-.05,4.62c1.71,1.1,2.74,2.86,2.98,4.88l-.09,10.34c-.16,2.19-1.24,3.92-3.06,5.13l-.02,4.58c4.03-1.32,6.9-4.93,7.25-9.22l.07-6.51v-4.73c-.23-2.34-1.17-4.51-2.75-6.24-1.19-1.29-2.67-2.25-4.33-2.85Z" />
    <path class="st1" d="M252.85,916.1c-1.24-.2-2.36.65-2.5,1.88l-.11,12.56c-.18.24-.34.52-.34.84l-.17,16.63c0,.74.5,1.4,1.01,1.74.66.44,1.45.42,2.12.11.75-.35,1.17-1.05,1.17-1.87l.11-12.42c.23-.32.37-.71.37-1.13l.13-16.32c.01-1.06-.82-1.87-1.79-2.02Z" />
    <path class="st1" d="M249.63,878.64l.05-4.74c-1.8-1.19-2.84-3.15-2.81-5.32l.09-9.39c.01-1.4.35-2.7,1.24-3.79.45-.6,1-1.09,1.64-1.51l.02-4.74c-1.96.66-3.65,1.84-4.93,3.41-1.51,1.85-2.29,4.11-2.31,6.49l-.03,3.63-.04,3.74v2.68h.01c.24,4.29,2.89,8.12,7.07,9.54Z" />
    <path class="st1" d="M255.45,839.23s0-.02,0-.03l.13-16.32c.01-1.06-.82-1.87-1.79-2.02-1.24-.2-2.36.65-2.5,1.88l-.15,16.55c0,.07.02.13.03.2l-.15,14.42c0,.74.5,1.4,1.01,1.74.66.44,1.45.42,2.12.11.75-.35,1.17-1.05,1.17-1.87l.13-14.66Z" />
    <polygon class="st1" points="256.42 878.73 256.42 878.73 256.42 878.73 256.42 878.73" />
    <path class="st1" d="M256.66,849.18l-.05,4.62c1.71,1.1,2.74,2.86,2.98,4.88l-.09,10.34c-.16,2.19-1.24,3.92-3.06,5.13l-.02,4.58c4.03-1.32,6.9-4.93,7.25-9.22l.07-6.51v-4.73c-.23-2.34-1.17-4.51-2.75-6.24-1.19-1.29-2.67-2.25-4.33-2.85Z" />
    <path class="st1" d="M253.28,871.92c-1.24-.2-2.36.65-2.5,1.88l-.15,16.55c0,.09.02.18.04.26l-.08,7.49c0,.74.5,1.4,1.01,1.74.66.44,1.45.42,2.12.11.75-.35,1.17-1.05,1.17-1.87l.14-16.33c0-.13,0-.25-.02-.37l.06-7.44c.01-1.06-.82-1.87-1.79-2.02Z" />
    <path class="st1" d="M250.14,827.58l.05-4.74c-1.8-1.19-2.84-3.15-2.81-5.32l.09-9.39c.01-1.4.35-2.7,1.24-3.79.45-.6,1-1.09,1.64-1.51l.02-4.74c-1.96.66-3.65,1.84-4.93,3.41-1.51,1.85-2.29,4.11-2.31,6.49l-.03,3.63-.04,3.74v2.68h0c.24,4.29,2.89,8.12,7.07,9.54Z" />
    <polygon class="st1" points="256.93 827.67 256.93 827.67 256.93 827.67 256.93 827.67" />
    <path class="st1" d="M257.17,798.12l-.05,4.62c1.71,1.1,2.74,2.86,2.98,4.88l-.09,10.34c-.16,2.19-1.24,3.92-3.06,5.13l-.02,4.58c4.03-1.32,6.9-4.93,7.25-9.22l.07-6.51v-4.73c-.23-2.34-1.17-4.51-2.75-6.24-1.19-1.29-2.67-2.25-4.33-2.85Z" />
    <path class="st1" d="M250.57,783.4l.05-4.74c-1.8-1.19-2.84-3.15-2.81-5.32l.09-9.39c.01-1.4.35-2.7,1.24-3.79.45-.6,1-1.09,1.64-1.51l.02-4.74c-1.96.66-3.65,1.84-4.93,3.41-1.51,1.85-2.29,4.11-2.31,6.49l-.03,3.63-.04,3.74v2.68h.01c.24,4.29,2.89,8.12,7.07,9.54Z" />
    <path class="st1" d="M256.37,746.23c.23-.32.37-.71.37-1.13l.13-16.32c.01-1.06-.82-1.87-1.79-2.02-1.24-.2-2.36.65-2.5,1.88l-.11,12.56c-.18.24-.34.52-.34.84l-.17,16.63c0,.74.5,1.4,1.01,1.74.66.44,1.45.42,2.12.11.75-.35,1.17-1.05,1.17-1.87l.11-12.42Z" />
    <path class="st1" d="M257.6,753.94l-.05,4.62c1.71,1.1,2.74,2.86,2.98,4.88l-.09,10.34c-.16,2.19-1.24,3.92-3.06,5.13l-.02,4.58h0c4.03-1.32,6.9-4.93,7.25-9.22l.07-6.51v-4.73c-.23-2.34-1.17-4.51-2.75-6.24-1.19-1.29-2.67-2.25-4.33-2.85Z" />
    <path class="st1" d="M254.22,776.69c-1.24-.2-2.36.65-2.5,1.88l-.15,16.55c0,.09.02.18.04.26l-.08,7.48c0,.74.5,1.4,1.01,1.74.66.44,1.45.42,2.12.11.75-.35,1.17-1.05,1.17-1.87l.14-16.33c0-.13,0-.25-.02-.37l.06-7.43c.01-1.06-.82-1.87-1.79-2.02Z" />
    <path class="st1" d="M251.43,733.48l.05-4.74c-1.8-1.19-2.84-3.15-2.81-5.32l.09-9.39c.01-1.4.35-2.7,1.24-3.79.45-.6,1-1.09,1.64-1.51l.02-4.74c-1.96.66-3.65,1.84-4.93,3.41-1.51,1.85-2.29,4.11-2.31,6.49l-.03,3.63-.04,3.74v2.68h0c.24,4.29,2.89,8.12,7.07,9.54Z" />
    <path class="st1" d="M258.46,704.03l-.05,4.62c1.71,1.1,2.74,2.86,2.98,4.88l-.09,10.34c-.16,2.19-1.24,3.92-3.06,5.13l-.02,4.58h0c4.03-1.32,6.9-4.93,7.25-9.22l.07-6.51v-4.73c-.23-2.34-1.17-4.51-2.75-6.24-1.19-1.29-2.67-2.25-4.33-2.85Z" />
    <path class="st1" d="M251.86,689.3l.05-4.74c-1.8-1.19-2.84-3.15-2.81-5.32l.09-9.39c.01-1.4.35-2.7,1.24-3.79.45-.6,1-1.09,1.64-1.51l.02-4.74c-1.96.66-3.65,1.84-4.93,3.41-1.51,1.85-2.29,4.11-2.31,6.49l-.03,3.63-.04,3.74v2.68h0c.24,4.29,2.89,8.12,7.07,9.54Z" />
    <path class="st1" d="M257.64,653.59s.02-.08.02-.12l.13-16.32c.01-1.06-.82-1.87-1.79-2.02-1.24-.2-2.36.65-2.5,1.88l-.15,16.55s0,.04,0,.06l-.11,10.97c0,.74.5,1.4,1.01,1.74.66.44,1.45.42,2.12.11.75-.35,1.17-1.05,1.17-1.87l.09-10.98Z" />
    <polygon class="st1" points="258.65 689.4 258.65 689.4 258.65 689.4 258.65 689.4" />
    <path class="st1" d="M258.89,659.85l-.05,4.62c1.71,1.1,2.74,2.86,2.98,4.88l-.09,10.34c-.16,2.19-1.24,3.92-3.06,5.13l-.02,4.58c4.03-1.32,6.9-4.93,7.25-9.22l.07-6.51v-4.73c-.23-2.34-1.17-4.51-2.75-6.24-1.19-1.29-2.67-2.25-4.33-2.85Z" />
    <path class="st1" d="M255.51,682.59c-1.24-.2-2.36.65-2.5,1.88l-.15,16.55c0,.09.02.18.04.26l-.08,7.49c0,.74.5,1.4,1.01,1.74.66.44,1.45.42,2.12.11.75-.35,1.17-1.05,1.17-1.87l.14-16.33c0-.13,0-.25-.02-.37l.06-7.44c.01-1.06-.82-1.87-1.79-2.02Z" />
    <path class="st1" d="M252.35,641.84l.05-4.74c-1.8-1.19-2.84-3.15-2.81-5.32l.09-9.39c.01-1.4.35-2.7,1.24-3.79.45-.6,1-1.09,1.64-1.51l.02-4.74c-1.96.66-3.65,1.84-4.93,3.41-1.51,1.85-2.29,4.11-2.31,6.49l-.03,3.63-.04,3.74v2.68h0c.24,4.29,2.89,8.12,7.07,9.54Z" />
    <path class="st1" d="M259.38,612.39l-.05,4.62c1.71,1.1,2.74,2.86,2.98,4.88l-.09,10.34c-.16,2.19-1.24,3.92-3.06,5.13l-.02,4.58c4.03-1.32,6.9-4.93,7.25-9.22l.07-6.51v-4.73c-.23-2.34-1.17-4.51-2.75-6.24-1.19-1.29-2.67-2.25-4.33-2.85Z" />
    <polygon class="st1" points="259.14 641.94 259.14 641.94 259.14 641.94 259.14 641.94" />
    <path class="st1" d="M252.78,597.66l.05-4.74c-1.8-1.19-2.84-3.15-2.81-5.32l.09-9.39c.01-1.4.35-2.7,1.24-3.79.45-.6,1-1.09,1.64-1.51l.02-4.74c-1.96.66-3.65,1.84-4.93,3.41-1.51,1.85-2.29,4.11-2.31,6.49l-.03,3.63-.04,3.74v2.68h0c.24,4.29,2.89,8.12,7.07,9.54Z" />
    <path class="st1" d="M258.58,560.5c.23-.32.37-.71.37-1.13l.13-16.32c.01-1.06-.82-1.87-1.79-2.02-1.24-.2-2.36.65-2.5,1.88l-.11,12.56c-.18.24-.34.52-.34.84l-.17,16.63c0,.74.5,1.4,1.01,1.74.66.44,1.45.42,2.12.11.75-.35,1.17-1.05,1.17-1.87l.11-12.42Z" />
    <polygon class="st1" points="259.57 597.76 259.57 597.76 259.57 597.76 259.57 597.76" />
    <path class="st1" d="M259.81,568.21l-.05,4.62c1.71,1.1,2.74,2.86,2.98,4.88l-.09,10.34c-.16,2.19-1.24,3.92-3.06,5.13l-.02,4.58c4.03-1.32,6.9-4.93,7.25-9.22l.07-6.51v-4.73c-.23-2.34-1.17-4.51-2.75-6.24-1.19-1.29-2.67-2.25-4.33-2.85Z" />
    <path class="st1" d="M256.43,590.95c-1.24-.2-2.36.65-2.5,1.88l-.15,16.55c0,.09.02.17.04.26l-.08,7.48c0,.74.5,1.4,1.01,1.74.66.44,1.45.42,2.12.11.75-.35,1.17-1.05,1.17-1.87l.14-16.33c0-.13,0-.25-.02-.37l.06-7.43c.01-1.06-.82-1.87-1.79-2.02Z" />
    <path class="st1" d="M253.64,547.75l.05-4.74c-1.8-1.19-2.84-3.15-2.81-5.32l.09-9.39c.01-1.4.35-2.7,1.24-3.79.45-.6,1-1.09,1.64-1.51l.02-4.74c-1.96.66-3.65,1.84-4.93,3.41-1.51,1.85-2.29,4.11-2.31,6.49l-.03,3.63-.04,3.74v2.68h0c.24,4.29,2.89,8.12,7.07,9.54Z" />
    <polygon class="st1" points="260.43 547.84 260.43 547.84 260.43 547.84 260.43 547.84" />
    <path class="st1" d="M260.67,518.29l-.05,4.62c1.71,1.1,2.74,2.86,2.98,4.88l-.09,10.34c-.16,2.19-1.24,3.92-3.06,5.13l-.02,4.58c4.03-1.32,6.9-4.93,7.25-9.22l.07-6.51v-4.73c-.23-2.34-1.17-4.51-2.75-6.24-1.19-1.29-2.67-2.25-4.33-2.85Z" />
    <path class="st1" d="M254.07,503.57l.05-4.74c-1.8-1.19-2.84-3.15-2.81-5.32l.09-9.39c.01-1.4.35-2.7,1.24-3.79.45-.6,1-1.09,1.64-1.51l.02-4.74c-1.96.66-3.65,1.84-4.93,3.41-1.51,1.85-2.29,4.11-2.31,6.49l-.03,3.63-.04,3.74v2.68h0c.24,4.29,2.89,8.12,7.07,9.54Z" />
    <path class="st1" d="M259.89,464.16s0-.02,0-.03l.13-16.32c.01-1.06-.82-1.87-1.79-2.02-1.24-.2-2.36.65-2.5,1.88l-.15,16.55c0,.07.02.13.03.2l-.15,14.42c0,.74.5,1.4,1.01,1.74.66.44,1.45.42,2.12.11.75-.35,1.17-1.05,1.17-1.87l.13-14.66Z" />
    <path class="st1" d="M261.1,474.11l-.05,4.62c1.71,1.1,2.74,2.86,2.98,4.88l-.09,10.34c-.16,2.19-1.24,3.92-3.06,5.13l-.02,4.58h0c4.03-1.32,6.9-4.93,7.25-9.22l.07-6.51v-4.73c-.23-2.34-1.17-4.51-2.75-6.24-1.19-1.29-2.67-2.25-4.33-2.85Z" />
    <path class="st1" d="M257.72,496.85c-1.24-.2-2.36.65-2.5,1.88l-.15,16.55c0,.09.02.18.04.26l-.08,7.49c0,.74.5,1.4,1.01,1.74.66.44,1.45.42,2.12.11.75-.35,1.17-1.05,1.17-1.87l.14-16.33c0-.13,0-.25-.02-.37l.06-7.44c.01-1.06-.82-1.87-1.79-2.02Z" />
    <path class="st1" d="M254.58,452.51l.05-4.74c-1.8-1.19-2.84-3.15-2.81-5.32l.09-9.39c.01-1.4.35-2.7,1.24-3.79.45-.6,1-1.09,1.64-1.51l.02-4.74c-1.96.66-3.65,1.84-4.93,3.41-1.51,1.85-2.29,4.11-2.31,6.49l-.03,3.63-.04,3.74v2.68h0c.24,4.29,2.89,8.12,7.07,9.54Z" />
    <path class="st1" d="M261.61,423.05l-.05,4.62c1.71,1.1,2.74,2.86,2.98,4.88l-.09,10.34c-.16,2.19-1.24,3.92-3.06,5.13l-.02,4.58h0c4.03-1.32,6.9-4.93,7.25-9.22l.07-6.51v-4.73c-.23-2.34-1.17-4.51-2.75-6.24-1.19-1.29-2.67-2.25-4.33-2.85Z" />
    <path class="st1" d="M255.01,408.33l.05-4.74c-1.8-1.19-2.84-3.15-2.81-5.32l.09-9.39c.01-1.4.35-2.7,1.24-3.79.45-.6,1-1.09,1.64-1.51l.02-4.74c-1.96.66-3.65,1.84-4.93,3.41-1.51,1.85-2.29,4.11-2.31,6.49l-.03,3.63-.04,3.74v2.68h0c.24,4.29,2.89,8.12,7.07,9.54Z" />
    <path class="st1" d="M256.4,383.61c0,.74.5,1.4,1.01,1.74.66.44,1.45.42,2.12.11.75-.35,1.17-1.05,1.17-1.87l.11-12.42c.23-.32.37-.71.37-1.13l.13-16.32c.01-1.06-.82-1.87-1.79-2.02-1.24-.2-2.36.65-2.5,1.88l-.11,12.56c-.18.24-.34.52-.34.84l-.17,16.63Z" />
    <path class="st1" d="M262.04,378.87l-.05,4.62c1.71,1.1,2.74,2.86,2.98,4.88l-.09,10.34c-.16,2.19-1.24,3.92-3.06,5.13l-.02,4.58c4.03-1.32,6.9-4.93,7.25-9.22l.07-6.51v-4.73c-.23-2.34-1.17-4.51-2.75-6.24-1.19-1.29-2.67-2.25-4.33-2.85Z" />
    <polygon class="st1" points="261.8 408.42 261.8 408.42 261.8 408.42 261.8 408.42" />
    <path class="st1" d="M258.66,401.62c-1.24-.2-2.36.65-2.5,1.88l-.15,16.55c0,.09.02.18.04.26l-.08,7.48c0,.74.5,1.4,1.01,1.74.66.44,1.45.42,2.12.11.75-.35,1.17-1.05,1.17-1.87l.14-16.33c0-.13,0-.25-.02-.37l.06-7.43c0-1.06-.82-1.87-1.79-2.02Z" />
    <path class="st1" d="M255.87,358.41l.05-4.74c-1.8-1.19-2.84-3.15-2.81-5.32l.09-9.39c.01-1.4.35-2.7,1.24-3.79.45-.6,1-1.09,1.64-1.51l.02-4.74c-1.96.66-3.65,1.84-4.93,3.41-1.51,1.85-2.29,4.11-2.31,6.49l-.03,3.63-.04,3.74v2.68h.01c.24,4.29,2.89,8.12,7.07,9.54Z" />
    <path class="st1" d="M258.27,335.44c.66.44,1.45.42,2.12.11.75-.35,1.17-1.05,1.17-1.87l.14-16.33c0-.13,0-.25-.02-.37l.06-7.44c.01-1.06-.82-1.87-1.79-2.02-1.24-.2-2.36.65-2.5,1.88l-.15,16.55c0,.09.02.18.04.26l-.08,7.49c0,.74.5,1.4,1.01,1.74Z" />
    <polygon class="st1" points="262.66 358.51 262.66 358.51 262.66 358.51 262.66 358.51" />
    <path class="st1" d="M262.9,328.96l-.05,4.62c1.71,1.1,2.74,2.86,2.98,4.88l-.09,10.34c-.16,2.19-1.24,3.92-3.06,5.13l-.02,4.58c4.03-1.32,6.9-4.93,7.25-9.22l.07-6.51v-4.73c-.23-2.34-1.17-4.51-2.75-6.24-1.19-1.29-2.67-2.25-4.33-2.85Z" />
    <path class="st1" d="M256.3,314.23l.05-4.74c-1.8-1.19-2.84-3.15-2.81-5.32l.09-9.39c.01-1.4.35-2.7,1.24-3.79.45-.6,1-1.09,1.64-1.51l.02-4.74c-1.96.66-3.65,1.84-4.93,3.41-1.51,1.85-2.29,4.11-2.31,6.49l-.03,3.63-.04,3.74v2.68h.01c.24,4.29,2.89,8.12,7.07,9.54Z" />
    <path class="st1" d="M258.7,291.26c.66.44,1.45.42,2.12.11.75-.35,1.17-1.05,1.17-1.87l.14-16.33c.01-.49-.09-.89-.4-1.25-.36-.42-.87-.68-1.42-.78h-.01s-.59,0-.59,0c-.55.11-1.07.38-1.44.82-.21.26-.41.58-.41.94l-.17,16.63c0,.74.5,1.4,1.01,1.74Z" />
    <path class="st1" d="M267.66,287.63c-1.19-1.29-2.67-2.25-4.33-2.85l-.05,4.62c1.71,1.1,2.74,2.86,2.98,4.88l-.09,10.34c-.16,2.19-1.24,3.92-3.06,5.13l-.02,4.58h0c4.03-1.32,6.9-4.93,7.25-9.22l.07-6.51v-4.73c-.23-2.34-1.17-4.51-2.75-6.24Z" />
  </g>
  <path id="spear" class="st1" d="M258.14,1129.09l.61,72.94c.17,20.46-3.12,40.51-6.72,60.37l.13-11.31-.07-13.98-.36-.25-.21,23.4c-3.27-15.94-5.08-31.92-6.23-48.26l-.14-24.67.29-131.92c0-2.63-.76-4.44-1.89-6.65.32-1.88,1.83-4.22,1.82-6.14l-.13-20.24,6.02,6.98c.18.21.46,1.16.63,1.01l1.06-.97.03,13.65.39.24.05-14.97,4.97-5.61-.35,13.67c-.07,2.53-.05,5.14.72,7.55.44,1.37,1.58,3.46,1.08,4.8-1.16,3.06-1.79,5.48-1.79,8.8l.08,71.58v-.02ZM252.56,1050.55l-.86,142.65h1.27l.86-142.64h-1.27ZM251.68,1168.89h-.43v40.24h.43v-40.24Z" />
  <g id="view-the-art">
    <g>
      <path class="st0" d="M84.57,1306.01l-8.13-65.97h12.58l4.83,44.88,4.3-44.88h12.58l-8.13,65.97h-18.03Z" />
      <path class="st0" d="M113.87,1306.01v-65.89h12.73v65.89h-12.73Z" />
      <path class="st0" d="M131.9,1306.01v-65.89h26.39v12.73h-12.96v12.81h12.43v12.43h-12.43v15.11h13.81v12.81h-27.24Z" />
      <path class="st0" d="M168.64,1306.01l-7.06-65.89h12.89l3.68,41.58,3.68-41.58h12.27l3.53,41.58,3.53-41.58h13.04l-7.21,65.89h-15.8l-3.3-31.76-3.15,31.76h-16.11.01Z" />
      <path class="st0" d="M241.75,1306.01v-53.24h-7.82v-12.66h28.84v12.66h-7.82v53.24h-13.2Z" />
      <path class="st0" d="M266.45,1306.01v-65.89h13.12v23.55h6.21v-23.55h13.12v65.89h-13.12v-29.92h-6.21v29.92h-13.12Z" />
      <path class="st0" d="M304.73,1306.01v-65.89h26.39v12.73h-12.96v12.81h12.43v12.43h-12.43v15.11h13.81v12.81h-27.24Z" />
      <path class="st0" d="M352.52,1306.01l6.37-65.89h22.32l6.29,65.89h-12.5l-.92-10.66h-7.98l-.77,10.66h-12.81ZM367.09,1284.84h5.98l-2.91-33.52h-.61l-2.45,33.52h-.01Z" />
      <path class="st0" d="M391.49,1240.12h20.25c3.22,0,5.71.73,7.48,2.19,1.76,1.46,2.95,3.5,3.57,6.14.61,2.63.92,6,.92,10.09,0,3.73-.49,6.65-1.46,8.74-.97,2.1-2.66,3.56-5.06,4.37,1.99.41,3.44,1.41,4.33,2.99.89,1.59,1.34,3.73,1.34,6.44l-.15,24.93h-12.89v-25.77c0-1.84-.36-3.02-1.07-3.53-.72-.51-2.02-.77-3.91-.77v30.07h-13.35v-65.89h0ZM408.06,1264.51c1.84,0,2.76-1.99,2.76-5.98,0-1.74-.08-3.04-.23-3.91-.15-.87-.44-1.47-.84-1.8-.41-.33-1-.5-1.76-.5h-3.07v12.2h3.15,0Z" />
      <path class="st0" d="M433.76,1306.01v-53.24h-7.82v-12.66h28.84v12.66h-7.82v53.24h-13.2Z" />
    </g>
  </g>
</g></svg>