<?xml version="1.0" encoding="UTF-8"?>
<svg id="Layer_1" xmlns="http://www.w3.org/2000/svg" version="1.1" viewBox="0 0 683.56 683.56">
  <!-- Generator: Adobe Illustrator 30.3.0, SVG Export Plug-In . SVG Version: 2.1.3 Build 182)  -->
  <path d="M316.83,118.63c.31-.15,1.17-.46,1.29-.23l.61,1.14c2.46,11.44,2.79,22.86.79,34.44-2.28,9.16-4.95,17.8-9.32,26.14-3.96,7.57-8.67,14.33-13.39,21.4l-7.63,11.43c1.65,10.68,1.97,23.92-4.6,32.52-2.27,2.97-7.2,4.26-9.57,1.06-2.1-2.84-1.44-7.24.55-10.16,1.73.81,1.31,3.87,3.14,4.42,3.13.93,6.49-4.31,7.73-8.94,1.43-5.34,1.99-10.68,1.45-16.6-5.47,8.04-10.93,15.8-15.71,24.1,0,16.79,7.01,32.82,15.73,47.72-6.44-2.8-10.73-7.95-14.73-13.02-4.3-5.45-7.62-11.1-10.34-17.86-4.87,10.72-9.71,21.74-12.36,33.69-1.73,7.79-1.67,15.62-1.52,23.55l.36,18.94c.13,7.12-2.21,14.23-5.82,20.28-1.78,2.99-3.23,5.76-4.04,9.14-4.17,17.26-13.11,30.09-30.51,35.32-2.53.76-4.97,1.66-7.79.57,17.06-7.99,27.8-21.8,23.9-40.66l-4.02-13.09c-.91,5.1-2.47,9.57-4.62,14.18-4.8,10.3-10.67,19.55-16.96,29.01-5.8,8.72-10.67,17.74-14.2,27.31,2.89.05,5.47.19,7.9,1.13l11.22,4.32c3.14,1.21,5.97,1.57,9.7,1.57.58,2.08.23,4.42-.25,6.62-1.23,5.63-5.56,9.67-11.74,9.32-1.47,4.27-4.36,8.03-7.34,11.46-.6,7.61-2.19,14.97-6.69,21.39-2.44,3.48-6.07,6.22-9.63,4.99-1.21-.42-2.71-1.99-3.03-3.5-.7-3.28.36-6.74,2.99-8.65l.54,3.22c.1.58.82,1.57,1.28,1.92,2.48,1.92,7.37-3.39,9.51-7.95,1.57-3.34,2.71-6.56,3.56-10.3-6.85,4.56-14.65,3.84-20.66-1.32-3.84-3.29-5.47-7.98-6.41-13.3-2.2,3.58-4.24,8.38-2.39,12.56l7.26,16.41c3.26,7.37,6.59,15.56,3.89,22.83-1.57,4.24-2.98,8.37-5.73,12.39-7.54-26.96-20.85-50.42-39.89-69.99-.26-.27-.76-.82-.96-.68l-1.26.9c4.15,8.17,7.45,16.79,10.35,25.53,7.69,23.2,14.91,41.83,31.1,60.49,13.26,15.28,25.24,25.88,43.99,34.81l-8.47-9.34c-16.2-21.03-17.84-46.89-10.74-72.01,2.66-9.22,6.99-17.41,13.27-24.59l.82-.42c.18-.09.34.7.38,1.02-5.78,13.4-10.17,27-11.77,41.55,1.84,6.27,2.54,12.3,3.64,18.67l2.56,14.85c.24,1.38.36,3.02,1.07,4.24,4.34,7.42,9.25,14.08,15.45,19.98,8.68,8.26,17.78,15.32,28.27,21.16,13.48,7.51,27.29,13.48,42.03,17.97l13.83,4.17s.43,1.08.22,1.07l-.96-.05c-17.14-1.81-33.55-5.71-49.74-11.56l-24.92-9.01c-3.09.77-6.12.09-9-1.28-3.89-1.13-6.19-4.8-9.58-6.78l-27.86-16.22c-12.41-7.23-26.8-22.35-35.59-34.24-12.32-16.68-17.73-33.31-24.53-52.89-2.17,6.26-.46,12.9-2.85,18.56l-3.88-1.46-.79,2.35-.36-2.61c-5.85-1.9-13.45,2.04-13.24.62l.24-1.6,2.57-17.36,3.98-1.35.23-3.23h-3.73c-.23-8.99-1.04-17.37-2.26-26.12-2.15-3.43-3.49-6.84-4.44-10.75-4.87-3.57-8.89,1.46-10.62-4.93s2.48-13.21,9.04-14.55c11.74-2.39,21.01,5.12,30.3,11.19,11.67,7.62,21.54,16.81,29.81,28.78,2.25-6.61,6.03-11.9,11.81-15.69,3.94-12.01,9.13-23.42,16.43-33.85,6.28-8.99,12.08-17.76,17.02-27.53,5.31-10.51,8.39-21.99,6.62-33.82.04-1.97,1.58-4.67,2.45-6.5,2.16-4.51,3.79-8.5,5.26-13.34.95.32,2.33.95,3.13,1.67,11.89,10.56,16.2,21.37,20.25,36.72,1.15-11.15-4.48-25.73-9.02-36.81-3.18-7.78-4.12-15.41-2.12-23.59s4.88-16.19,11.54-22.15c-.61,9.84-.99,16.93,4.84,24.61l.82.41c-.94-18.92,3.95-35.46,13.11-51.48l1.49-19.88c1.38-7.03,2.71-13.57,4.91-20.4,6.24-19.37,14.25-37.67,23.61-55.7l8.27-17.49c1.85-3.9,2.42-8.46,2.09-12.66-.35-4.42-2.75-6.72-7.5-8.41,11.49-7.05,19.11-16.84,24.74-28.45,4.12-8.49,7.34-16.52,10.11-26.28,3.51,8.23,5.26,15.81,9.29,23.02,1.67,1.29,3.96,2.81,4.72,4.91l3.48,9.63c4.44,6.74,9.87,12.34,16.84,16.64.05.45-.54,1.43-.96,1.54-9.98,2.75-5.26,17.69-.74,26.81,8.09,16.32,15.94,32.37,22.82,49.26,5.27,12.94,11.1,31.32,11.77,44.81l.64,12.87c6.38,8.17,12.42,28.08,12.8,37.34l.59,14.21c4.99-5.85,6.51-13.62,5.65-21.38-.24-2.21-.48-2.9-2.58-4.74l1.09.44,2.06.85c6.24,5.8,9.42,15.08,11.17,23.6,1.31,6.38.65,12.59-1.56,18.72l-7.18,19.96c-2.19,6.08-3.09,12.15-2.92,18.85-.06.81.08.89.34.08,3.85-15.12,8.86-26.02,20.51-36.37.6-.53,2.55-1,2.98-.87l1.91,6.26c1.34,4.4,4.52,8.3,5.38,12.88l-.55,10.31c1.3,9.43,4.11,18.39,8.7,26.75,5.03,9.17,10.57,17.5,16.59,26.04,6.96,9.87,10.97,20.99,15.54,31.99,4.92,4.13,10.19,8.58,11.45,16.14,7.82-11.56,17.25-20.6,28.76-28.08,5.99-3.9,11.69-7.55,18.31-10.29,8.29-3.43,18.65-2.99,21.77,5.9,1.23,3.52,1.19,8.12-1.83,10.59-4.07-.56-7.92.28-11.25,2.95-9.09,7.3-15.49,23.55-19.56,35.08l-10.47,29.72c-7.57,21.46-27.08,46.7-45.88,59.81-8.3,5.79-16.49,11.02-25.56,15.64-17.68,9-35.46,16.83-54.55,22.46-15.38,5.07-30.63,8.73-46.7,10.88-.19-.06-.89-.55-.71-.66l.89-.55c15.18-4.48,29.77-9.75,44.18-16.34,12.05-5.76,23.07-12.45,33.06-21.2,18.06-15.81,30.52-35.42,28.89-60.09-.69-10.51-2.45-20.49-6.16-30.31l-6.01-15.94c3.83,2.04,5.62,5.6,7.66,8.93,5.44,8.87,8.13,18.63,9.85,28.94,2.83,16.99.7,34.12-7.21,49.38-3.83,6.87-8.04,12.96-14.04,17.96l-.54.74c-.08.11-.17.41-.06.36l1.12-.49c7.07-3.63,13.53-7.38,19.92-12.14,14.63-11.51,27.42-25,36.63-41.26,7.04-12.43,11.86-25.34,16.54-38.74l6.66-19.03,6.11-12.6c-6.49,5.18-11.41,11.34-16.4,17.8-6.2,8.03-11.17,16.37-15.83,25.4-5.03,9.75-8.8,19.41-11.4,30.68-3.58-5.12-5.75-10.7-6.9-16.64-1.56-8.05,7.89-25.87,11.96-35.36,1.8-4.19.01-8.88-1.79-12.8-.6-.68-.79-.51-.61.35-.92,7.26-4.82,13.59-11.51,16.36-3.85,1.59-8.23,1.42-11.97-.25l-3.2-1.43c-.26-.34-.51-.31-.66.13l3.64,9.25c2.7,6.86,8.65,12.76,10.57,8.62.72-1.55.93-3.11,1.35-5.2,3.63,3.51,3.93,9.48.76,11.51-3.66,2.34-8.81-1.44-11.71-6.15-3.73-6.06-4.95-12.67-6.25-19.71l-7.26-11.29c-9.08-.25-11.73-6.61-12.22-15.45l5.92-.6,11.05-3.88c4.23-1.48,8.15-2.77,12.52-3.43-3.05-7.98-6.63-15.2-11.12-22.14l-10.66-16.48-6.79-12.12c-3.32-5.92-5.32-11.98-7.13-18.92-1.61,5.05-3.73,9.9-4.55,15.29-1.85,12.21,3.68,24.11,13.25,31.58,5.78,4.51,12.26,6.29,9.06,6.89-11.93-1.79-22.2-8.42-29.08-18.34-3.88-6.19-5.99-12.81-7.71-19.92-.8-3.3-2.9-6.05-4.49-9.08-3.76-7.11-5.18-15.08-4.87-23.19l.64-16.48c.77-19.77-5.59-35.97-13.44-53.68-.09-.29-.35-.83-.44-.65l-.45.9-8.72,15.07c-3.56,6.16-9.33,10.91-15.25,14.67l-.93-.5c-.18-.1,5.51-8.93,7.67-14.01,4.26-10.02,8.55-22.75,8.2-33.46l-16.32-25.32c-.28,5.65.47,13.18,2.37,18.79,1.39,4.09,5.12,8.78,7.71,7.89.8-.27,1.46-1.74,1.93-2.7l.57-1.17c.56-1.13,3.42,3.36,1.92,7.88-.77,2.33-2.71,3.43-5,3.17-4.38-.5-7.41-3.51-8.8-7.66-2.97-8.83-3.27-17.99-1.54-27.4l-14.21-21.72c-7.45-11.39-13-23.51-15.88-36.87-2.3-11.84-2.17-23.59.99-35.16l.91-.66c.18-.13.44.49.48.75.87,5.48,1.7,10.74,3.74,15.86,3.6,9.07,10.01,16.12,17.71,21.97.2.12.66.32.61.19l-.38-.91-8.99-16.27c-8.74-15.65-15.42-32.13-20.27-49.44l-.29-1.05c-.05-.2-.41.37-.47.6-3.46,13.69-8.46,26.5-14.64,39.22l-15.17,28.51c1.95-.92,3.23-2.22,4.74-3.6,6.4-5.83,11.48-12.68,14.48-20.88,1.45-4.88,2.2-9.5,2.88-14.78ZM318.41,152.75c2.22-10.75,1.5-21.16-.52-31.4-1.07,4.56-1.49,8.56-2.97,12.63-3.81,10.47-10.91,19.13-20.22,25.34l-.26,7.3c-.2,5.39-.79,10.33-3.51,15.08-5.33,9.32-11.01,18.02-17,27.11-.43-.52-.81-1.19-1.2-1.97l4.83-18.65c2.94-6.9,5.97-13.42,9.66-19.95l13.13-23.25c7.69-13.62,14.16-27.41,19.26-42.22l4.19-14.33c.46-1.56.55-3.28.21-4.86-1.67,4.64-2.12,9.01-3.99,13.27-3.43,7.79-7.25,15.09-11.41,22.49-1,1.78-2.61,3.41-4.03,4.74l-3.69-.77c-1.68,3.46-2.94,6.98-3.7,10.81-1.51,7.56-3.88,16.97-9.31,22.02-.21-3.28.18-5.81,2.34-8.39l-.65,5.01c1.76-2.76,3.37-5.42,4.14-8.59l2.64-10.89c.94-3.88,2.17-7.44,4.12-10.89l4.02.55c.86-.88,2.13-2.3,2.79-3.47,4.4-7.74,8.71-15.18,11.89-23.68l-7.31,12.78c-1.73,3.03-5.34,5.7-7.61,3.9-1.57-1.24-.55-2.66-2.38-6.24-.55-1.08-.38-3.7.1-4.99l3.43-9.32c2.19-5.96,5.13-11.61,9-16.56,1.52-1.94,3.5-2.56,5.7-1.84l4.76-1.06c.83-3.97,3.51-6.44,7.47-6.12-2.89-6.54-5.29-12.74-7.41-19.6-1.82,6.72-3.81,12.68-6.72,18.68-6.97,14.39-11.94,23.23-25.86,33.15,7.66,2.61,7.37,11.94,4.66,19.82-4.56,13.23-13.45,26.5-18.72,40.08,3.17-3.76,6.14-11.82,10.75-11.53l-4.46,11.83-8.67,20.9c-5.3,12.77-8.38,25.94-9.49,39.75l1.71-1.1c.5-.32,1.12-.61,1.54-.68.33-.05,1.02,1.13,1.05,1.51l.5,7.77,11.68-17.07c7.5-10.96,14.5-22,19.6-34.13-1.84,1.24-3.84,3.29-5.5,1.73-4.56-4.28,1.12-17.15,6.4-23.55,1.4-1.69,4.15-3.3,6.13-2.45,2.81,3.88-.89,11.19-2.48,16.82,6.56-8.15,7.71-16.84,10.45-27.08,1.19,4-.44,7.84-1.55,11.61l-4.19,14.21c-1.4,6.71-4.04,13.06-10.09,16.68l3.65-4.15c3.81-4.33,5.38-10.02,5.82-15.93-1.25,3.41-4.55,5.91-6.08,9.36-6.12,13.83-13.67,26.31-22.22,38.77l-11.72,17.06.61,8.7,14.84-22.45c.81-1.22,1.19-2.86,1.23-4.1l1.32-.07,7.04-10.46c10.95-16.27,18.08-27.38,22.27-47.68ZM348.01,114.29c.39-3.03.05-5.24-.27-7.78-1.58-8.09-3.5-15.73-5.97-23.63-3.78-4.52-5.69-10.07-8.99-14.77-1.63-2.32-5.87.53-6.25,2.63-.12.64-1.02,1.73-.66,2l1.34,1c3.83,2.87,6.35,6.84,9.17,10.67s5.48,7.34,7.15,11.75c2.19,5.77,1.14,11.63,4.48,18.13ZM339.72,77.9c-.53-3.51-1.67-6.37-4.36-8.27l4.36,8.27ZM324.91,81.84c1.55-2.37,2.56-5.48.34-8.26l-.34,8.26ZM309.33,99.93l6.57-14.48,4.94-9.11-1.32-1.39c-4.65,2.13-7.64,6.2-9.62,10.83-2.83,6.61-5.48,12.93-5.99,20.58,2.24-1.91,3.74-3.98,5.42-6.43ZM374.55,193.42l-11.59-31.43-1.06-4.79-4.26-8.35c-2.74-5.36-4.58-10.83-6.06-16.71l-3.77-14.98c-2.95.49-5.11-.35-7.14-2.25-5.49-5.97-9.74-13.24-10.89-21.65,2.78,7.65,5.43,14.99,11.34,20.79,1.66,1.62,3.67,2.6,6.32,2.31l-1.72-5.88-4.5-12.99-4.91-11.06c-1.06-2.39-3.09-3.97-5.84-4.85.26,5.35,1.51,9.79,2.81,14.68-3.22-4.04-4.79-15.84-2.38-15.45l2.01.33-5.51-6.24c.33,5.71-3.05,6.77-1.67,12.46,4.87,20.06,13.18,38.57,23.25,56.55l16.55,29.53c3.71,6.62,6.33,13.36,8.52,20.34l.51-.34ZM306.08,112.09c2.45-.35,4.1-2.63,5.27-4.55,4.16-6.84,7.51-13.94,10.57-21.34,1.23-2.97,1.25-5.94-.7-8.89-2.84,4.85-4.67,9.97-7.24,15.01l-5.06,9.92c-1.15,2.26-3.27,3.78-4.94,5.7-.89,1.01.48,4.39,2.1,4.15ZM386.58,223.31l4.59,7.03c.46-9.82-.91-18.71-3.29-27.87-2.4-10.01-5.62-19.2-9.58-28.75-6.6-15.93-14.02-31.09-21.69-46.5l-3.94-9.3c-1.09-3.76-1.73-7.53-1.34-11.41.58-3.88,2.85-6.72,6.59-7.97-5.8-3.51-9.98-7.88-14.15-12.92l4.82,20c.89,3.71.86,7.46.09,11.14l5.4,21.19c1.13,4.44,2.98,8.68,5.26,12.62l4.1,7.09,3.21,3.53c8.88,13.74,12.74,23.22,15.74,39.47l4.19,22.65ZM347.66,176.35c.15.48,1.13,1.11,1.6,1.01.38-.09,1.08-1.21.98-1.62l-1.68-6.62c-.65-2.57-1.37-5.71-.85-8.11.49-.64,2.73-.18,3.07.5l4.82,9.5.17-11.21c-13.71-10.66-21.29-20.12-23.74-38.47-3.05,12.81-2.7,25.84,1.02,38.64,2.76,9.5,6.52,18.51,11.94,26.76l13.3,20.24c-4.3-9.49-8.25-18.46-10.96-28.55-3.08-.8-5.52-2.45-7.42-5.03-5.7-7.74-7.89-16.94-6.58-26.54.1-.74.33-1.51.6-1.92s2.09-.06,2.38.37c1.52,2.23,3.31,5.8,4.21,8.6l7.15,22.45ZM346.83,177.27c-2.33-8.77-4.97-16.99-8.16-25.38-.88-2.32-1.92-4.36-3.93-6.47-2.12,9.81.22,19.67,6.02,27.53,1.53,2.07,3.44,3.5,6.06,4.32ZM265.32,221.1c.77-14.05,4.11-26.93,8.78-39.76l9.24-22.29,4.3-10.96c-3.46,2.41-5.2,5.53-7.16,9.11-8.13,14.87-14.89,30.32-18.16,47.08-1.53,7.87-1.5,15.37-1.94,23.6l4.94-6.78ZM297.79,177.31c3.95-1.34,6.24-4.33,7.35-7.63l4.16-12.37c.46-1.37.23-3.63-.13-5.06-5.37-.37-9.01,7.57-11.21,13.13-1.48,3.74-2.58,8.1-.17,11.93ZM385.06,220.8l-3.94-22.23c-3.07-14.17-7.92-28-17.9-39.66l11.04,30.53c3.15,8.71,4.86,17.53,5.71,26.65l5.09,4.72ZM289.78,181.23c3.73-6.58,3.97-13.47,3.55-21.18-8.7,14.8-16.73,29.31-18.85,45.85,5.48-8.38,10.45-16.11,15.3-24.67ZM375.21,205.53c-.89-10.3-4.51-18.84-8.52-27.38l-9.7-17.54c-.61,5.58-.64,10.66.88,15.79.97,3.28,2.99,6.24,4.65,9.27l12.69,19.87ZM374.17,194.06l2.1,8.87c.48,2.04,1.06,4.07-.15,6.26l-16.78-26.28c.43,2.62,1.33,4.53,1.44,7.2l-2.13-5.97c-1.87-7.81-4.53-15.29-8.77-22.13l-.97-.65c-1.09-.73-.44,5.17,1.54,10.64.72,2,.64,3.97.23,5.77.96,1.66,2.18,3.61,2.2,5.87l-1.85-4.01c-.46-.99-1.73-1.72-2.79-.97,2.97,9.04,5.67,17.85,10.36,25.97,6.12,10.61,12.95,20.34,19.83,30.54l1.09-7.61c-1.45-2.12-2.87-4.27-3.46-6.49-.69-2.6.75-4.26,2.94-5.08-.82-7.59-2.27-15.2-4.42-22.22l-.41.28ZM258.7,230.18c.73-2.38.84-4.72.89-7.38l.18-9.23-.69,4.86-.48,5.9.1,5.83ZM379.11,225.04v-7.95c-1.83.21-2.7,2-2.17,3.51.59,1.67,1.15,2.83,2.17,4.44ZM387.29,238.63c-.17-5.59-.79-10.26-1.81-15.37-1.4-2.13-3.3-4.08-5.42-5.95l.34,9.37,6.89,11.94ZM270.1,228.59l-.38-10.21c-5.09,1.74-3.23,8.93-3.21,15.23l3.59-5.02ZM264.98,223.58c-2.4,3.23-5.06,6.36-6,9.93-.15,3.42.75,7.15,1.25,10.73,5.77-8.72,5.86-9.75,4.75-20.66ZM275.63,245.62c1.15,2.12,4.01,2.08,5.81,1.09,5.64-3.12,7.75-13.88,7.43-21.01-1.08,5.66-2.33,12.62-7.42,15.77-.77.48-3.25.68-3.81-.03l-2.12-2.71c-.58,1.76-1.03,4.77.11,6.89ZM375.05,243.99c.22-1.83-.03-3.72-.43-5.35-1.06,1.59-1.73,2.85-2.66,3.14-1.06.33-2.91-.16-3.72-.79-4.81-3.72-6.07-9.19-7.38-14.89-.23,4.92.93,9.51,2.37,14.04,1.19,3.74,4.13,6.49,8.16,6.76,1.61.11,3.45-1.24,3.65-2.92ZM382.74,240.22l6.42,6.98c1.27-5.11,2.07-9.66,2.29-14.59l-4.16-6.08,1.09,11.67c.04.4-.22,1.23-.34,1.52-.07.19-1.19.03-1.29-.15l-4.05-6.99.03,7.63ZM381.46,238.38c.53-3.37.56-5.92-1.19-8.41l-.77,5.88c-.06.78,1.56,2.36,1.97,2.54ZM267.71,244.84l3.04-5.41-.72-9.01-3.31,5.1,1,9.32ZM404.23,270.7c-.42-6.92-2.3-12.84-3.98-19.09-1.85-5.87-4.23-11.45-7.76-16.41l-2.27,12.03,7.55,9.27c3.43,4.34,5.09,9.2,6.46,14.2ZM259.47,245.67c-1.96-2.77-2.24-5.87-2.67-9.51-8.16,14.15-12.47,30.32-11.79,46.83,2.67-13.37,7.66-25.38,14.45-37.32ZM263.64,253.73l3.18-7.21-1.28-8.89-4.85,8.4,1.69,7.09-2.8-5.74c-4.88,9.24-9.23,18.28-11.8,28.16l-2.68,14.19.38,6.09,2.67-.45,3.2-13.34c2.88-9.13,6.48-17.59,10.45-26.33.24-.52,1.27-1.31,1.6-1.42l.24-.55ZM382.73,241.71c-1.97,8.26-3.63,15.25-7.22,22.49.23-2.91,1.36-5.48,2.35-8.24,1.74-4.85,3.08-9.52,3.67-14.75.13-1.16-1.26-2.79-2.41-3-.32,11.65-3.09,22.34-7.46,32.81l-7.05,13.59c6.07-4.17,10.66-9.6,14.54-15.72,4.11-6.49,7.58-12.92,10-20.3l-6.43-6.88ZM263.6,254.96c2.35,6.33,5.82,11.94,9.78,17.4,3.31,4.42,6.71,8.43,11.38,11.74-7.35-13.89-13-27.28-13.82-42.57l-3.03,5c1.94,9.03,8.2,16.6,8.45,25.31-1.43-4.73-3.33-9.05-5.21-13.7l-4.13-10.26-2.95,6.54-.48.54ZM399.4,285.23l-4.83-27.35-3.51-5.83-.87-3.26-1.95,4.21c-.33,1.26-.08,2.85.52,4.28,4.47,9.16,7.66,18.53,10.64,27.95ZM418.62,285.16c-.69-7.36-2.03-14.34-5.59-20.85.1,5.77-.15,11.01-2.64,16.02l-4.26,6.3-1.34,5.87-.33-7.05c.21-5.2.29-9.58-1.3-14.48-1.08-3.33-1.56-7.04-3.49-10.04-2.05-3.18-4.29-5.94-7.03-8.65,1.51,3.49,4.01,5.64,5.93,8.77l-3.49-3.33,4.99,25.55c1.56,8.01,3.34,15.68,7.58,22.73l1.24-9.77c.17-1.35,1.37-2.93,2.83-3.33,1.08,4.01.39,8.37-.77,12.11-.2.65-1.24,1.62-1.87,2.38-.67.81.69,2.89,1.69,3.3,5.96,2.46,8.78-15.51,7.84-25.53ZM235.82,347.43l-2.92,2.16-1.44,11.41c-1.29,5.93-3.32,11.29-4.16,17.84,3.45-3.36,5.46-7.44,6.87-11.72l4.94-14.97c-1.31,1.95-1.89,3.85-3.66,4.96,5.95-11.22,8.96-22.98,7.06-35.45l-2-13.06c-1.27.26-2.21.85-3.01,1.74-1.31,1.47-3.72.83-4.59-.94-6.91-14.1-.16-37.06,2.87-36.02,1.87.64,1.67,6.86,1.19,11.21l-1.76,15.73c-.32,2.86.07,5.6,2.44,7.98l2.99-11.45.66,8.96c2.75-5.1.27-10.52,1.89-15.38.19-.56,1.42-1.39,1.33-1.94s-.58-1.84-1.03-2.33c-6.01-6.5-7.26-14.55-6.49-23.84-6.87,8.6-10.63,19.67-10.11,30.73.23,4.9,2.12,9.33,3.83,13.76,4.87,12.67,11.56,28.95,7.1,41.95-3.36-17.29-8.18-32.94-22.51-43.47-1.87,5.41-3.96,10.28-6.46,15.2-1.08,2.12-.98,3.68-.73,6.06,3.18,30.19-26.03,56.23-34.15,76.82l-5.72,14.5,5.3-1.1,4.14-2.17-3.52,2.99,3.84.58c2.97-11.69,7.42-22.32,13.71-32.51,7.76-12.59,14.41-25.21,19.38-39.33-.97-5.87.12-11.45,2.56-16.87-.96-5.31-1.14-10.49.11-15.55.78-1.61,1.94-3.09,3.36-3.31,4.92-.79,6.11,6.11,6.74,11.89,1.54,1.34,3.52,3.09,4.45,5.15,2.96,6.54,4.42,13.42,4.4,20.78l3.1-.98ZM409.23,327.72l1.13,9.09c.97-6.14,1.91-11.59,3.96-17.19l6.61-18.12c2-5.48,2.66-11.13,1.54-16.87-1.41-7.23-3.47-14.37-7.97-20.23,5.31,12.74,6.88,26.22,3.57,39.49-.65,2.61-1.86,5.24-3.68,6.89-1.9,1.71-4.06,1.33-5.79-.51l.22,12.36.41,5.1ZM234.67,296.04l1.07-9.27c.48-4.18,1.16-8.52-.38-12.65-3.26,5.97-4.04,12.19-4.4,18.46-.42,7.39,1.66,20.64,6.3,16.63-3.83-3.18-3.16-8.2-2.59-13.18ZM409.14,305.8c2.47-3.93,2.29-7.88,1.78-11.44-1.63,3.92-1.95,7.93-1.78,11.44ZM436.79,321.19l.4,3.87v17.89c6.33,9.44,10.89,19.28,14.71,29.97,4.71,13.19,9.92,25.83,17.77,37.48,2.73,4.06,7.43,6.06,11.75,7.52-3.91-11.99-9.35-22.62-15.98-32.83l-13.19-20.28c-7.14-12.27-12.98-27.56-10.07-41.53l-5.29-11.44c-1-2.16-1.52-4.2-2.1-6.83-8.54,6.11-15.05,16.17-18.23,26.02-1.18,3.64-3.62,7.62-2.87,11.38l1.31,6.52-1.83-3.02c-.41.55-1.07,1.98-.91,2.63l1.7,7.08c-2.17-4.1-3.09-8.62-3.68-13.33l-2.4-19.31-.39-15.07c-2.36-4.3-4.34-8.49-5.92-12.96.71,7.44.64,14.47.41,21.85l-.41,13.08c-.26,8.22,2.04,15.81,6.2,22.74l3.34,6.88c1.34,6.13,3.23,11.87,6.35,17.42,5.22,9.31,14.13,16.48,24.9,18.89-10.4-6.25-17.86-15.6-19.34-27.79-.41-3.41-.76-7.63.34-10.9l5.05-15.1-2.48-11.3-4.09,9.88c-2.34,5.66-2.41,10.9-.97,17.05-1.17-2.21-1.49-4.11-1.9-6.57l-2.1,6.01c-1.01-1.4-1.52-3.34-1.25-4.92l1.17,3.15,2.97-11.17c1.43-5.37,4.29-10.34,6.07-15.7-.36-3.11.02-5.9,1.28-8.69l3-6.75c.29-.66,1.91-1.37,2.61-1.39,2.66-.09,3.68,5.35,4.12,9.56ZM244.17,330.44l2.25-14.57c.99-6.42,1.54-12.67.23-19.19-3.43.86-2.13,5.99-4.87,10.99-.22,4.5,1.29,9.07,1.64,13.49l.75,9.28ZM222.73,322.09c-.09-5.49-1.98-11.31-5.58-10.56s-3.95,10.81-2.7,16.21c1.74-3.86,4.15-6.18,8.28-5.64ZM436.16,341.12l-.07-17.28-.54-5.32c-.21-2.06-1.17-4.71-2.75-5.97-5.35,1.84-2.59,8.38-5.31,14.98l1.36,2.01,7.31,11.58ZM224,349.15c4.59,12.22,4.09,24.99-3.62,35.18-3.57,4.73-8.03,8.11-12.93,11.5,9.54-1.12,19.36-9.33,24.14-17.2,6.05-9.94,6.06-18.57,10.02-24.91,5.03-8.03,7.25-17.2,6.73-26.71l-.66-12.15-4.12,23.27c-2.22,12.53-7.44,30.58-14.56,40.79-.37.54-1.59.93-2.03.58-.36-.29-.9-1.73-.77-2.2l3.13-11.62c1.4-5.21,2.2-10.39,2.34-15.48-8.28.86-3.1-9.52-6.89-19.09-.55,3.93-1.24,6.86-2.91,10.05.34,2.45,1.14,5.34,2.13,7.98ZM218.48,327.45c.69-1.53,2.71-1.44,4.2-.87l-.06-3.29c-2.92-.96-4.76.71-6.23,2.83-1.61,2.34-2.16,4.78-.58,7.22l2.67-5.89ZM231.51,349.04c.38-7.59-1-14.41-4.14-20.95-.82-1.72-2.05-3.16-3.47-4.14-.56,2.17-.06,3.35.76,4.86,5.7,10.4-.5,21.78,6.84,20.23ZM220.18,340.66l2.4-13.03c-1.16-.82-3.02-.61-3.54.61l-2.81,6.59c.78,2.43,1.75,4.31,3.94,5.84ZM221.65,338.59c2.01-3.09,2.25-6.49,1.68-9.71l-1.68,9.71ZM428.94,332.48c0-.68-1.08-2.13-1.71-2.26.33,3.17.76,5.38,1.63,8.04l.07-5.79ZM215.28,334.92l-1.27-3.63c-1.69,3.7-2.71,7.87-1.89,12.33l3.16-8.7ZM477.07,423.18l-.67-1.59-.51-1.22c-.09-.21.61-.22.88-.26,2.82-2.21,1.23,1.16,2.54,5.66.83,2.86,2.25,5.25,5.06,6.32l1.14,3.14c1.19,3.27,2.29,6.31,2.35,9.58,1.64-3.9,3.35-7.12,5.59-10.4l-6.1-4.43c-3.22-2.34-3.37-9.77-7.46-11.44-4.63-1.9-9.1-4.59-11.89-8.91-6.86-10.62-11.87-21.83-16.1-33.76-3.97-11.19-8.47-21.7-14.95-31.52-.19,1.98-.36,3.5-.93,5.06l.02-6.53-5.83-9.15c-.03,3.66-.66,7.63.19,11.36,1.67,7.29,4.16,14.15,8.07,20.49l12.37,20.08c5.7,9.25,11.2,18.28,14.96,28.48,2.28-.22,4.1.14,5.49,1.4-5.79-1.38-11.24-.14-15.99,3.62-3.69,2.93-5.18,7.09-3.02,11.59l2.07,4.31,13.3-5.6c-.07,4.63-1.85,9.56-6.17,11.22,3.03.98,6.45-.23,8.23-3.31,1.54-2.68,2.32-5.71,2.81-8.67l-2.3.37c3.03-1.79,6.86-5.89,6.86-5.89ZM219.78,341.83c-1.98-1.73-2.94-3.01-4.12-5.25l-3.08,8.62c-.23.66.22,2.11.81,2.41,2.16,1.12,4.52-2.64,6.39-5.78ZM165.24,421.21c-4.36,3.92-8.1,8.86-9.42,14.54l6.19,9.95c.04-4.32,1.41-8.99,4.61-13.13,1.14,4.67,1.57,8.87,4.25,12.58,5.38,7.45,15.41,9.15,22.62,3.07l.3-1.54c.05-.25.81.1,1.25.29,2.64-3.34,5-6.76,6.32-10.86,3.9.63,7.84-.9,9.83-4.31,1.65-2.83,2.19-6.41,2.09-9.42-3.27.17-5.74-.14-8.38-1.15l-12.62-4.83c-2.92-1.12-6.08-1.02-9.37-.41l1.87-3.82c3.39-8.72,7.77-16.57,12.91-24.42,6.01-9.17,11.84-18.06,16.58-27.93,2.44-5.07,4.63-9.83,5.55-15.57l-3.35,3.71c-1.21,1.34-3.21,1.13-4.73-.41-4.95,12.78-10.42,24.89-17.86,36.42-6.62,10.75-11.63,21.87-14.94,34.09.34.38,1.31,1.05,1.68.83l1.01-.62c.42.54,1.31,1.37,1.83,1.55l2.71.96c3.7-1.45,7.64-2.45,11.54-1.54,2.74.63,4.22,3.1,4.45,5.46.62,6.19-6.66,6.76-4.55,10.79-3.34,2.95-4.28,6.76-9.37,5.01.8,3.12-.39,5.36-2.11,6.86-1.96,1.71-4.7,2.55-7.15,1.17-5.8-3.27-5.25-11.48-4.13-18.26l-4.95,2.11c-1.01.43-3.2-.24-4-.95-2.13-1.89-1.66-6.23-.67-10.24ZM169.63,497.08l4.25-10.49c1.49-3.69,1.25-7.75-.01-11.52-1.98-5.9-4.18-11.6-7.18-17.04l-3.11-3.5c.05,1.75-.58,4.45-2.14,5.52-6.73,4.66-12.99-12.6-6.89-24.18-3.8-5.17-7.57-10.08-12.03-14.71-5.93-6.15-12.64-10.92-19.67-15.69-4.08-2.77-7.93-5.44-12.38-7.52-8.14-3.8-18.86-4.49-22.64,3.01-1.73,3.42-2.11,7.61.5,10.61,2.51-.2,5.37-.39,7.83.84,3.31-3.19-2.35-7.87,1.22-12.69,3.41-4.6,12.2-2.3,16.91,1.73l14.35,12.27c2.97,2.54,5.42,5.66,7.57,8.85,2.84,4.2,4.21,10.81.53,13.22,15.41,18.62,25.92,37.45,32.88,61.29ZM548.21,398.68c2.64-.24,5.72.7,6.35,3.36,1.05,4.43-1.26,7.91-3.62,11.78,3.43-2.35,7.11-2.68,10.74-2.61,2.73-3.81,1.63-10.21-2-13.26s-8.69-3.29-13-2.22c-4.41,1.1-8.6,2.56-12.35,5.11l-19.9,13.5c-7.5,5.99-13.7,13.22-18.97,20.91,2,1.44,3.41,2.86,4.65,4.62l5.96-8.73c3.97-5.83,9.38-10.21,14.75-14.82,3.65-9.7,17.04-17.49,27.41-17.64ZM128.58,422.28l8.27,12.68c3.42-6.26-2.09-14.14-7.09-18.99-5.71-5.54-11.68-10.63-18.19-15.14-2.85-1.97-6.26-2.87-9.55-2.67-2.95.17-5.38,2.44-4.88,5.44l.74,4.42c4.44-1.74,9.06-1.36,13.29-.12,6,1.77,13.78,8.79,17.42,14.38ZM420.3,562.83c7.64-2.11,13.87-5.4,20.08-9.34l14.4-9.37,10.36-8.04,9.66-7.32,6.25-8.74,13.49-14.61c2.25-2.44,4.19-5.04,5.44-8.13l5.62-13.81c.26-.64,1.1-1.31,1.77-1.24-1.41,3.11-2.65,5.82-3.25,9.03l-1.3,6.96c5.23-4.15,8.48-9.84,10.37-16.32l8.13-27.8c3.81-10.73,9.54-20.5,16.41-29.51,5.31-6.96,15.52-10.79,16.07-20.5.13-2.36-.82-4.37-3.32-4.36l-5.61.02c-7.82,1.28-18.75,7.66-22.05,14.88,5.88-3.26,17.28-11.07,20.45-8.31.73.64,1.36,2.42,1.11,3.48-2.08,8.85-9.26,15.2-18.44,16.11l-5.71,11.21-8.52,23.94c-4.77,13.4-9.73,26.37-17.17,38.56-10.34,16.95-24.23,30.95-40.28,42.46l-20.91,11.76c-.24-.12-.98-.6-.85-.81l.65-1.03c9.54-7.3,16.44-16.7,21.07-27.85,5.4-14.49,6.68-29.73,3.38-45.35-2.72,4.45-2.2,9.59-.9,14.3,2.79,10.05,1.08,20.13-5.06,28.55l-24.05,33.03-7.3,8.13ZM525.76,423.29l1.01-.75c.21-.16.91.35.82.59l-.62,1.65c6.03-.83,11.04-4.47,14.24-9.85,1.78-3,3.05-6.53,1.41-7.95-1.18-1.02-6.13.81-8.83,2.44l-11.84,7.13c-1.36,4.62.89,8.14,2.31,7.65.39-.13,1.05-.57,1.51-.91ZM118.54,433.89l-8.63-18.94c-.52-2.21-.8-4.06.28-6.31-3.79-1.22-7.96-1.86-11.91.08.4,2.57,1.53,4.75,3.2,6.53,3.98,4.25,7.59,8.45,9.64,13.99l7.43,4.66ZM115.89,421.49l4.59-.4c-.6-5.97-3.92-10.56-9.84-11.71-.56,2.03-.32,4.21.61,6.21l8.9,19.12c2.93,1.12,5.29,1.95,8.84,2.22-2.12-8.71-7.02-9.88-13.1-15.43ZM122.87,422.19l11.15,10.47-3.63-6.17c-3.02-5.13-7.03-9.45-11.41-13.15,1.3,2.88,2.14,5.29,1.95,8.16l-3.11.71,5.44,3.67c-.44-1.87-.74-2.28-.39-3.69ZM107.75,453.92c5.46-.76,9.23.31,13.23,2.92l-6.54-18.24c-3.17-7.42-7.07-14.07-12.21-20.25l-4.46-4.03c.26,2.66,1.33,3.73,2.94,5.09,2.11,1.79,3.18,4.7,4.44,7.18,3.73,7.36,5.83,14.93,5.85,23.32l-3.17.54-.08,3.47ZM449.25,436.22l3.32-.83-2.82-4.26,2.05.83c-.57-1.7-1.46-4.2-1.39-5.98.19-4.61,3.59-6.64,6.77-9.42l-11.98,4.64c-3.01,1.17-5.85,1.41-9.24,1.51.94,7.65,3.18,13.24,10.4,13.15-1.14-1.28-2.34-2.27-1.34-4.33l4.22,4.69ZM166.11,430.17c1.07-5.08,2.75-8.64,5.75-11.98-1.31.03-3.25.49-3.97,1.32-2.65,3.08-3.21,7.35-1.79,10.66ZM476.23,473.72c-3.36,8.61.28,15.87,3.98,23.88,4.55-18.5,13.75-36.35,25.16-52.09,5.47-7.55,11.36-14.28,18.18-20.37-2.89-1.4-3.36-4.11-3.04-7.23-4.98,4.42-10.1,8.47-13.76,13.96l-6.06,9.08c-.06,5.54-1.68,10.65-5.68,14.59-1.5,1.48-3.82,1.71-5.69,2.64s-2.29,4.54-5.23,4.46c-1.39-.04-2.01-2.23-1.99-3.97l-5.88,15.05ZM175.13,428.97l2.63-9.69-4.91-.81c-3.37,3.79-5.23,7.64-5.64,13.02,2.89-.33,5.32-1.31,7.93-2.53ZM180.85,425.8l-1.13,2.5c-.64-1.49.46-3.54,1.67-4.48.56-.49.32-2.25-.1-2.98-.37-.65-1.62-1.18-2.59-1.29l-2.51,9.42,6.13.03-1.46-3.2ZM417.82,563.63l7.84-7.92,12.67-17.02c-7.54,7.95-14.88,15.22-23.95,21.26-9.87,6.8-20.17,12.17-31.28,16.69l-25.42,9.53c11.98-1.53,23.07-4.54,34.26-8.36l23.15-7.9,27.32-11.98c10.4-4.56,19.63-10.6,29.01-17.01,10.62-7.26,19.48-15.8,27.43-25.89,6.63-8.42,12.47-16.9,16.84-26.76,4.79-10.82,8.62-21.53,12.25-32.8,3.3-10.25,7.13-19.88,12.44-29.22l4.39-6.86-6.31,5.93c-6.16,8.32-11.58,17.02-15.26,26.77l-8.69,29.15c-2.23,7.47-5.78,13.86-12.13,18.43-2,7.47-5.18,14.46-10.6,19.94l-10.58,10.69c-2.36,1.65-4.21,2.87-7.23,3.45l.37-3.54-9.66,7.37-14.49,10.7-15.25,9.46c-5.33,3.31-11.22,5.08-17.19,6.98-4.38,3.26-8.86,5.94-13.93,7.97-1.32.53-3.52.67-4.41-.58.29-1.2,2-2.64,3.25-3.08l15.16-5.4ZM195.96,432.27c2.09-1.28,3.32-2.4,4.47-3.97,1.63-3.08.52-7.23-3.1-8.11-3.36-.82-6.95,0-10.17,1.31,4.65,2.76,8.2,5.58,8.8,10.77ZM492.89,432.59c-1.55-5.1-4.6-9.8-9.65-12.55,2.36,5.86,3.3,9.63,9.65,12.55ZM196.58,433.07l-4.67-.02,2.78-.9c1.59-.52-2.59-7.75-8.76-10.13l-3.41,2.02.93,4.57c3.23,3.28,7.7,5.69,12.04,6.26.47-.2,1.25-1.81,1.09-1.81ZM478.68,426.98l-1.08-3-3.21,3.31,4.29-.31ZM106.86,449.5l.84-8.67c.49-5.03-2.69-9.48-5.2-13.59l1.59,22.74,2.76-.47ZM450.14,437.15c4.17,7.29,12.64,13.99,19.61,9.55,6.24-3.98,9.77-10.89,9.14-18.47l-5.48.26c-.52,3.84-1.36,7.1-3.42,10.19-2.19,3.27-6.05,3.92-9.69,2.91-3.05-.85-5.43-2.36-6.93-5.3l-3.22.85ZM186.78,440.15c-2.51-3.13-4.18-5.73-4.35-10.07l-6.47-.1c-1.09,6.67-2.05,14.09,3.17,17.47,2.21,1.43,4.77.53,6.35-.92s2.91-4.37,1.3-6.37ZM195.11,436.15c-4.94-1.32-7.9-3.22-11.72-5.67.69,5.42,3.71,10.27,7.91,9.36,1.55-.34,3.38-2.11,3.81-3.69ZM458.93,439.61c2.3.81,5.03-1.04,5.69-2.83l2.18-5.95-11.91,5.21c1.01,1.12,2.61,3.07,4.04,3.58ZM466.76,451.78c9.37-.06,15.82-9.38,15.94-18.92l-2.64-2.23c-.47,6.14-3.04,11.53-7.55,15.39-3.8,3.25-8.64,3.98-13.14,1.76-3.72-1.84-6.14-4.83-9.05-7.98,2.91,7.24,8.69,12.04,16.44,11.99ZM174.44,535.81c-8.22-4.8-14.29-11.32-17.51-20.07-4.16-11.31-9.51-21.68-16.3-31.61l-6.1-8.92.81-.46c3.45,4.32,6.13,9.19,10.21,13.52-.63-5.89-2.81-10.84-5.72-15.59-7.3-11.93-14.04-23.85-19.87-36.57l-7.48-4.59,4.9,11.36,8.01,23.54c8.14,23.94,16.97,40.56,34.62,58.81,7.05,7.29,14.51,13.31,22.96,18.77,7.28,4.7,14.26,9.09,22.28,12.73-3.69-3.75-7.25-7.19-11.69-9.78l-19.11-11.16ZM243.01,569.58c-3.75-1.09-6.43-2.52-9.26-4.16l-10.13-8.14,3.03,4.82c-4.54-3.14-4.48-7.49-7.18-8.99l-2.55-1.42.58,2.5c-5.72-2.19-10-4.66-14.95-7.49-7.75-4.42-14.61-9.51-21.1-15.73-15.06-14.42-28.57-31.06-35.99-50.73l-7.02-18.62-8.9-24.17c-3.13.91-5.31-.26-8.63-1.12l8.73,17.13,11.05,18.91c2.67,4.57,4.53,9.19,5.72,14.33.22.96-.28,1.94-1.3,2.43,5.35,8.56,9.46,17.66,13.13,27.22,3.38,8.82,9.56,15.3,17.97,19.42,12.29,6.03,23.21,13.62,32.95,23.13l7.31,3.42,11.04,4.7c.06-2.08-.36-3.1-.97-5.22,1.49,1.49,1.87,3.27,1.53,5.62l17.6,6.46,16.41,5.35c9.95,3.24,19.82,5.88,30.5,6.89-18.72-5.63-36.18-13.09-52.93-23.42,1.21,2.6,4.06,3.7,3.36,6.89ZM488.6,456.63l10.65-15.82c-.78-1.75-2.3-3.36-3.7-4.25l-.41,1.81c-.06.26-.99-.23-1.41-.43-3.77,4.69-7.78,13.32-5.13,18.68ZM161.64,458.63c3.17-7.05-1.97-14.92-6.5-21.47-3.74,7.08-1.55,21.82,3.47,22.47.73.09,2.08-.46,3.03-1ZM499.41,442.47l-9.56,14.3c5.95-.75,9.97-8.67,9.56-14.3ZM457.57,478.25c-2.2-10.28-5.31-20.96-12.56-29.82,4.04,11.75,8.24,23.2,9.61,35.59.66-2.41.75-4.53,2.95-5.77ZM214.31,550.01c-2.32-3.25-4.12-6.28-5.78-9.83l-6.46-15.31c-2.92-6.91-5.67-13.58-6.99-21.08-.51-7.26-.79-14.31.35-21.45,1.86-11.58,5.12-22.23,9.45-33.39-3.98,4.37-6.27,9.37-8.51,14.59-8.85,25.03-8.89,53.46,7.28,75.25,3.01,4.33,6.4,8.12,10.66,11.2ZM484.15,461.99c2.09-1.8,3.03-2.94,4.08-4.52-1.95-2.41-1.56-4.51-1.7-7.68l-2.7,6.66c-.71,1.76-.73,3.87.31,5.53ZM114.48,473.06l3.12,1.08c.57-2.67.64-4.67.91-7.11l1.09-9.83c-3.61-2.2-8.07-3.02-12.2-1.91v4.08c1.16-2.1,3.02-4.1,5.69-2.82,1.15.56,2.17,3.18,2.09,4.58l-.7,11.93ZM108.2,472.09c-.61-1.93-2.06-5.05-2.01-7.18l.22-9.51-3.03.91-2.45,17.37,7.27-1.58ZM110.91,465.69l1.39,2.63c2.2-3.01,2.21-6.7.99-10.28-.25-.72-2.2-1.08-2.83-.64-2.66,1.84-3.57,4.58-3.01,7.5l1.29,6.75c.95-.58,2.2-1.48,2.19-2.22l-.02-3.73ZM472.36,465.58c-.77,3.09-1.92,4.66-4.66,5.06-1.78-.87-3.93-2.13-4.95-3.91l-5.15-8.98c.83,3.54,2.2,6.62,3.92,9.76,2.97,5.41,9.04,8.61,11.3,5.02,1.43-2.27.88-5.1-.45-6.96ZM177.42,473.27c4.35,4.97,13.11-5.64,14.23-14.07-2.57,5.1-8,12.45-11.72,10.12-1.2-.75-1.78-1.97-2.44-3.56-1.39,2.16-2,5.3-.07,7.51ZM113.26,472.7l-.55-3.86-2.73,3.39,3.28.47ZM198.24,501.65l-2.32-11.84c-.84,10.04.59,20.03,4.82,28.96l-2.5-17.12ZM447.47,525.6c2.14-2.36,3.6-4.82,5.14-7.41,4.79-8.15,5.64-17.65,2.72-26.52l-.74,12.12c-1.05,7.81-4.06,14.68-7.12,21.81ZM501.93,497.58l.62-4.04-2.99,7.05c1.44-.44,2.17-1.7,2.37-3.01ZM478.72,524.69c-1.99,2.26-2.95,4.93-3.66,7.94,5.62-2.31,9.45-6.64,13.51-10.92,5.56-5.87,9.94-12.35,12.21-20.38-1.59.93-2.91,2.02-4.09,3.29l-5.84,6.31-12.13,13.75ZM233.3,558.63l-13.13-11.14-11.11-11.75c.55,1.48,1.45,2.79,2.35,4.04l9.37,13.05,12.51,5.81ZM218.67,551.36l-7.4-10.46-3.21-4.17c2.4,5.86,5.14,12.04,10.61,14.63ZM242,568.22c-.65-1.76-1.5-3.2-2.65-4.05-5.07-3.8-10.27-6.76-16.28-9.01l7.48,6.64c3.36,2.98,7.04,5.13,11.45,6.42ZM226.24,567.74l-12.93-5.49c3.24,3.84,7.88,5.66,12.93,5.49ZM414.61,565.82c-5.24,1.25-9.88,2.79-14.37,6.01,4.05.89,10.27-3.24,14.37-6.01Z"/>
  <path d="M157.12,574.45c6.51,2.84,12.56,5.89,17.51,10.83,2.47,2.47,5.03,4.73,8.18,6.35l12.76,6.56c9.35,4.81,19.25,7.26,29.3,10.54,15.99,5.2,32.55,7.63,49.29,5.29,6.96-.98,13.5-2.36,20.45-1.44,4.06.54,6.24,3.31,6.11,7.92l5.64-10.18c2.53-4.57,7.3-8.61,12.03-6.94-.54,1.78-1.01,3.42-.27,4.63.35.58,2.15.41,2.5-.13s.86-1.99.7-2.74c-.61-2.92-3.53-4.44-6.77-4.47,1.73-4.8,7.14-7.3,10.39-13.15,3.01,5.04,7.79,7.68,10.36,12.93-3.56.46-6.24,1.84-6.86,5.27-.21,1.18,1.27,3.28,2.49,2.61,1.51-.84,1.15-3.15.51-4.85,3.33-1.46,6.95.04,9.34,2.7s3.61,5.71,5.25,8.77l3.42,6.39c-.06-2.63-.2-4.13.74-6.45.89-.76,2.94-2.38,4.79-2.39l12.01-.02,11.55,1.88c8.82-5.16,18.31-7.4,28.38-8.07h12.66s8.37,1.55,8.37,1.55c10.27-3.36,20.19-6.9,29.86-11.66l18.59-9.16c17.11-9.66,33.39-20.3,48.98-32.29,2.93-3.22,4.11-7.24,8.03-9.94l-1.67,5.22,3.23-2.66c.13-.1.7-.36.71-.21l.07.87-13.71,14.5c-4.84,4.26-9.32,8.71-13.16,13.94-4.95,6.74-10.82,11.58-18.58,14.93l-9.13,3.95-13.45,8.31-18.02,10.1c-12.56,6.15-25.03,11.46-38.62,15.09-12.95,3.46-25.81,5.57-39.23,6.27l-13.06.02c-8.08,5.63-17.85,3.36-25.15-3.01-1.32,5.78-4.13,9.05-9.61,9.66l-3.68-2.23c-2.43-1.47-3.43-4.52-4.32-7.4-7.05,6.4-16.58,8.17-24.67,3.15l-13.04.18c-27.38-1.66-53.77-8.81-78.1-21.56l-31.34-18.57c-12.44-7.37-23.2-16.48-33.87-26.14l-10.73-9.71c-3.65-3.3-7.21-7.72-9.71-11.19l-.59-1.11c-.09-.18.91-.04,1.08.11l6.61,6.07,19.38,15.12c12.3,8.53,24.84,16.05,38.49,22.73l-5.69-5.72c-3.97-3.99-9.1-6.6-14.11-9.08l-7.58-3.76c1.85.24,3.18,1,4.94,1.77ZM305.08,623.22c-2.92-1.38-4.45-.95-6.57,1.21l.91-5.82c.89-5.69-9.66-5.9-16.73-4.82l-12.1,1.84-16.98.02c-7.61,0-15-1.52-22.2-3.82l-30.27-9.68,17.63,10.22,5.36,1.89,3.54,1.78,12.74,5.67c1.96.87,3.92,1.41,5.33,3.61-4.07.02-7.38-1.71-11.03-3.23l-5.73-2.39c-4.47-3.79-9.32-5.82-14.79-7.63l-10.17-3.36c-8.62-2.85-17.11-6.42-24.11-12.29,6.94,3.8,13.43,7.67,20.82,10.24l13.3,4.22-13.56-7.86-13.04-6.8-13.47-6.34c-.79-.2-1.41-.75-2.27-1.23-16.86-9.31-32.63-19.55-47.85-31.71,10.74,11.5,31.86,29.21,44.68,36.87l30.63,18.31c23.86,12.83,52.41,20.99,79.83,22.13-6.22-1.6-12.37-3.28-17.44-7.46-.93-.95-2.06-1.46-3.38-1.95l-24.13-8.84-8.7-1.9c4.11-.69,8.16.72,12.29,2.22l22.65,8.24c1.39-5,12.13-5.84,18.86-6.61,5.91-.68,11.89-.44,17.24,2.04l-7.83-1.23-8.98.1-14.1,2.32c-1.9.31-3.56,1.49-4.33,3.47,5.92,2.42,11.93,2.82,18.2,2.79,5.84-.03,12-1.3,16.04-5.39-.49,1.32-1.9,2.95-3.25,3.56-9.37,4.22-19.22,3.09-29.48.85,9.21,6.84,18.43,6.9,28.94,7.23,4.08.13,8.63-.52,11.95-2.88.26-2.59.82-5.34,1.56-7.6ZM436.46,610.74l21.12-8.1,22.38-8.14,25.43-18.62,5.91-5.26c4.14-3.69,8.39-7.16,11.29-12.25-13.93,9.89-27.44,19.12-42,27.54l-21.97,11.08c-9.63,4.33-19.06,8.13-29.26,11.5,1.61,2.89.39,5.12-2.02,7.32l7.49-1.15c-.86-1.84-.1-3.26,1.62-3.92ZM495.94,587.48c5.13-3.35,9.46-7.26,12.56-12.56l-23.39,17.54,10.84-4.98ZM328.6,596.19l.91,5.14,4.17-1.88-6.23-6.69-2.37-3.25-4.91,5.6-4.02,4.32,4.88,2.24c-.11-2.59.42-5.82,2.54-7.56,1.53-1.25,4.67.03,5.03,2.09ZM328.64,608.96l-2.1-3.25c2.56-3.32,2-8.81,0-10.73-.45-.43-2.09-.42-2.48.06-3.24,4.04-2.33,10.05.99,13.34,1.3-.25,2.47.04,3.58.57ZM350.28,624.33c-4.68-5.73-5.75-11.82-10.29-17.39-1.69-2.07-4.9-3.52-7.01-2.64.12,1.49.16,3.42-.52,4.26-.52.65-1.93.89-3.34,1.23,1.08.55,2.53.86,4.03,1.03,9.21,1.05,17.72,12.79,14.22,22.01l-.4-6.82c-.35-5.9-8.5-15.07-15.87-14.46l7.98,13.32c.68,1.13.55,3.82-.43,4.58-1.79,1.37-3.95-.1-5.63-.87,3.02,3.5,6.87,5.03,10.85,6.45l-5.47-.77c6,3.58,14.44,4.48,19.69-.31,6.41.31,12.56.29,19.16-.32,30.25-2.8,53.13-10.63,79.69-24.87l18.77-11.58-30.23,10.77-9.67,4.15c-.44.19-.75,1.76-.35,1.83l1.83.32c7.34-.69,13.24-4.29,19.92-7.3-11.4,9.46-25.74,7.9-32.6,10.75l-12.66,5.26c-9.74,3.55-19.71,5.25-30.14,5.59-6.53,1.68-12.86,2.55-19.63,2.19-3.19.07-6.65.06-9.05-2.32,8.25,2.35,17.92,1.65,25.64-.32-7.59-1.95-14.66,2.31-21.53-1.08,7.53.82,19.93.84,19.97-5.23,0-1.55-.91-3.27-2.27-4.18l-6.08,5.42c1.51-2.58,3.7-4.23,5.36-6.05-6.57-4.11-13.26-1.98-18.38,2.57,2.47-4.34,7.26-4.88,11.84-6.07l-12.03.02c-1.71,0-3.8,1.16-4.48,2.27-2.24,3.62,1.82,7.57-.86,8.54ZM321.37,615.33l1.26-8.39c-1.04,1.13-1.69,1.89-2.53,2.41-.64.4-2.64-.14-3.03-.8-.71-1.21-.48-3.07-.02-4.48-3.59-.26-6.92,2.14-8.74,5.35l-6.85,12.12,4.38.61c1.98-3.92,4.35-7.18,8.07-9.05,2.85-1.43,5-.6,7.47,2.23ZM425.73,608.3c-4.31-1.32-7.51-1.34-11.26-1.27-11.79-.27-23.5,1.6-34.39,7.39,15.87,1.45,31.34-1.01,45.66-6.11ZM325.49,615.61l-.46-5.71c-.04-.52-1.05-1.53-1.37-1.57l-1.18,7,3.01.28ZM329.13,610.95l-3.15-2.1.46,4.96,2.7-2.86ZM383.19,626.96l9.5-3.03c9.25-2.95,18.35-5.32,28.06-6.73,3.71-.54,7.39-2.21,8.53-5.93.16-.52-.22-2-.75-2.13-1.88-.46-19.32,6.58-32.91,6.53l-15.07-.05c-1.63,0-3.73-.3-4.35,1.65,1,1.41,2.2,3.37,1.85,5.38-.23,1.31-1.69,2.73-2.98,4.17,2.58.14,5.74.89,8.13.14ZM338.22,628.78l.52-2.53-8.65-14.43c-2.7.84-3.46,3.28-2.76,5.77,2.93,10.51,10.54,12.93,10.9,11.18ZM313.91,628.31c.13-1.5-.05-3.53.75-4.75l5.27-8.11c-1.27-2.41-4.42-2.55-6.62-1.02-3,2.08-5.21,5.18-6.76,8.42,2.74,2.4,1.45,5.45-1.41,8.59,2.15,2.19,6.49-.3,8.76-3.11ZM322.17,615.79c-.25-.09-1.09.5-1.1.85-.2,3.89-2.89,8.44-5.62,11.99,4.71-1.06,9.13-11.93,6.72-12.84ZM316.81,630.03c.61,3.01,1.21,5.77,3.33,7.95,1.46,1.5,4.52,2.65,6.54,2.01,2.59-.83,4.26-3.31,5.16-5.56l1.58-3.92c-3.43-3.59-6.16-8.64-7.77-13.53-.15-.46-1.24-1.2-1.5-.85-.87,1.17.37,4.05-5.37,11.53-1.03,1.35-2.77,1.04-3.89,1.7l-5.93,3.51c-1.62.96-3.56-.06-4.86-1.01-3.41,1.64-7.09,2.62-10.84,3.14,7.07,4.49,17.81,1.83,23.54-4.96ZM243.03,623.97l-15.62-6.69c5,3.22,10.07,5.45,15.62,6.69ZM314.85,627.15c2.63-2.54,4.46-5.71,5.11-9.53-2.48,2.65-4.63,5.48-5.11,9.53ZM385.98,627.29c12.39-.45,23.49-3.69,34.49-8.85l-14.03,2.41-20.47,6.44ZM304.55,629.98c2.31-1.08,3.49-3.8,1.63-6.32-.93,1.85-1.47,3.89-1.63,6.32Z"/>
  <path d="M550.01,474.82c-6.17-2.4-11.72-2.06-17.9.52-1.26-2.58-1.45-5.41-1.74-8.3l-1.04-10.17c3.89-2.85,8.72-3.53,13.63-2.75l-.15-4.07-3.66-.44c-.04-10.28,3.27-19.59,8.69-28,1.51-2.35,2.74-4.85,5.9-5.51l-2.91,3.26c-2.62,10.18-4.13,20.37-3.82,30.97l-3.29-.02.32,4.2,3.34,1.15,2.4,14.18c.25,1.49.36,2.73.21,5ZM545.9,449.37c-.29-8.55,1.07-15.87,2.19-24.25-3.76,7.46-4.17,15.69-4.41,23.86l2.22.39ZM542.71,448.49c.15-6.86,1.03-12.44,2.08-18.89-3.07,6.17-4.28,12.63-4.54,19.41l2.46-.52ZM535.91,464.55c.19,2.78,1.62,5.37,3.36,6.96,1.95-5.06.33-9.87,1.69-15.24,1.77,4.63,1.31,9.03,3.73,13.38l-1.34-10.41-.12-3.79c-4.38-.78-8.77-.58-12.78,1.63l1.9,16.96,6.22-1.79c-2.16-2.16-3.61-5.1-3.72-8.33l-.26-7.65.76.08.57,8.21ZM546.45,456.15l-2.07-.68c-.85,2.61.36,4.58,2.72,6.1l-.65-5.43ZM540.29,472.15c2.62-.07,5.31.29,8.65,1.04l-1.06-4.35c-.71-2.9-.73-6.07-3.05-8.24l.93,9.54c.03.36-.49,1.33-.74,1.22l-1.18-.56-2.23-6.73-1.32,8.07Z"/>
  <path d="M554.67,498.78c-6.67-2.63-12.36-2.95-19.17-1.1-.76-1.35-1.18-2.83-1.38-4.52l-1.56-13.45c-.06-.54.41-1.82.74-2.1s1.26,0,1.79,0c5.67-1.22,11.19-1.42,16.53,1.15l1.79,9.79c.62,3.38,3.44,6,2.72,9.81l-1.49-3.33.04,3.75ZM543.1,478.67c3.34,4.56,3.02,12.87-.32,16.87,4.05-.25,7.7.39,11.09,1.95l-1.17-6.42-5.04-12.5c-1.03,3.57-.97,6.33-.87,9.97l-1.09-.05.65-10.36-11.17.42c-.25,0-1.08.34-1.28.47-.15.09-.08.35.05.44l.86.53,2.1,10.31c1.22,2.13,2.12,3.61,3.96,5.3,4.32-3.11,4.51-10.86,1.91-15.71-1.72,2.16-2.35,4.72-2.38,7.37l-.9.6c.07-3.4.27-7.06,3.61-9.18ZM539.5,495.88c-2.79-2.74-3.64-5.84-4.82-9.53l.99,10.13,3.83-.61Z"/>
  <path d="M268.66,296.92l-4.05-1.25-12.38-2.88c.76-6.31,2.42-12.26,4.65-18.23.43-1.14,1.69-2.04,2.95-1.82,5.45.95,16.09,4.41,14.89,7.68l-6.07,16.51ZM261.13,292.83l-.83-6.08c-.3-2.22.47-5.22,2.6-6.47.67-.39,1.99,1.8,1.78,2.63l-2.25,9.27c5.9.06,7.98-8.37,6.01-13.91-.51-1.45-2.49-2.27-3.89-2.16-1.13.09-3.01,1.13-3.74,2.31l-5.07,8.17c.81-3.89,3.61-8.36,6.06-10.72l-3.76-1.53c-1.94,5.52-3.51,11.33-4.72,17.44l7.78,1.41.03-.34ZM261.34,293.26l6.55,2.46,2.46-7.26,3.53-9.04-4.59-2.44c1.55,4.07,1.11,7.85-.38,11.95-1.09,3-4.59,4.52-7.01,4.05l-.56.28ZM261.64,290.29c1.14-2.82,2.24-5.93,1.58-9.08-2.57,2.56-2.09,5.86-1.58,9.08Z"/>
  <path d="M103.03,496.72c-4.26.33-9.26,3.73-8.16-.01,1.71-5.83,2.68-11.37,3.29-17.52,6.3-3.04,13.66-3.54,19.78-.15l-2.02,10.06-.83,8.47c-4.4-.51-7.9-1.16-12.07-.84ZM109.68,478.24c-3.31-.32-7.07.29-10.49,1.46l-3.33,17.93c4.12-1.48,7.8-2.13,11.37-2.15-1.68-2.37-1.72-5.15-1.56-7.69-1.29,1.64-3.03,3.32-4.84,2.78-.98-3.24,2.01-9.42,3.58-9.98.79-.28,2.45.14,3.58.51l1.5-2.45.18-.41ZM109.78,478.93l-.84,2.45,1.38,2.69-2.24-1.86c-1.59,4.05-2.27,8.5-.3,12.74,3.13-2.1,4.27-5.58,2-9.08l3.27-1.44c.32,3.77.8,6.65-.72,9.95l-.16-8.41c.06-.17-.23-.18-1.18.04,1.43,3.57.9,7.29-2.35,9.56l5.09.89.82-6.8,2.31-10.48c-2.69-.55-4.82-.88-6.84-.77l-.23.51ZM105.22,486.63l2.45-4.84c-.72-.17-2.2-.41-2.79-.24-1.03.29-3.55,5.1-3.17,8.26,1.5-.63,2.83-1.82,3.52-3.18Z"/>
  <path d="M146.22,401.99c2.81-1.72,5.81-3.49,9.11-1.87-1.82,1.18-3.68,2.19-4.37,3.34-1.02,1.7-.96,4.53.6,5.8,1.38,1.13,3.97.83,5.62.09,9.79-4.38,16.59-16.88,22.27-25.73-.51,6.33-3.84,10.94-6.24,16.06-5.95,10.38-15.47,21.45-27.68,18.57-3.86-.91-6.02-4.16-5.39-7.9s2.83-6.36,6.09-8.35ZM141.59,413.92c2.32,5.68,13.23,5.11,21-2.18,5.56-5.21,9.73-11.65,12.65-18.93-5.57,6.97-10.44,15.23-19.07,17.97-1.91.61-4.64.36-5.8-1.26-2.18-3.05-1.01-7.08,2.09-8.87-6.3.71-13.19,7.59-10.87,13.27Z"/>
  <path d="M494.92,399.74c3-1.64,5.95.23,8.47,1.64,3.85,2.15,6.39,5.96,6.22,10.37s-3.43,7.55-7.95,7.35c-7.51-.34-13.78-4.3-18.61-10.04-5.65-7.65-10.88-15.86-12.89-25.86l12.02,17.55c4.77,6.97,16.32,12.08,17.11,7.17.55-3.41-1.32-5.65-4.36-8.18ZM497.39,400.2c2.15,2.49,3.54,5.1,2.81,8.14-1.18,4.92-9.42,2.22-15.22-3.12-4.42-4.07-7.21-9.01-10.96-13.88,2.29,6.33,5.77,11.79,9.84,16.94s10.09,8.99,16.82,9.76c3.67.42,6.83-1.35,7.6-5,1.34-6.32-4.21-11.69-10.9-12.83Z"/>
  <path d="M214.16,418.74l-.83,1.79-.13-1.69c-.1-1.22-8.46-2.86-13.47-2.52.17-2.62,1.69-4.35,2.45-6.53l3.19-9.08c5.39-3.31,12.71-1.3,18.44,2.32l-2.27,5.37c1.14,2.44,1.03,5.74-1.44,7.11-3.62,2.01-1.82,5.53-5.92,3.23ZM215.49,402.16l2.47-.82c-3.61-1.17-7.53-1.6-11.45-.37l-3.74,10.92,4.24-3.64c1.94-2.96,4.97-4.65,8.06-5.68.06-.06.36-.4.43-.42ZM214.95,403.09c-.24.67.44,2.54,1.33,2.77l4.57,1.21,1.47-3.68c-2.62-1.11-4.57-1.38-6.65-.78,0,0-.2.13-.71.48ZM214.78,405.9l-.88-2.19-4.99,3.62,5.88-1.43ZM212.75,416.87c1.28-3.4,2.08-6.59,2.26-9.86-5.75.62-10.35,3.56-13.21,7.97l10.95,1.9ZM216.58,418.32l3.59-10.14c-.98-.65-2.96-1.24-4.02-1.27l-1.72,8.86c-.09.47-.03,1.78.36,2.06s1.44.52,1.79.48ZM218.63,415.62c2.7-1.3,2.68-3.83,2.24-5.9l-2.24,5.9Z"/>
  <path d="M385.24,295.57l-1.78,2.16-2.94-2.17c-1.42-5.61-3.27-10.71-5.82-16.16,4.89-3.96,11.05-5.63,17.47-6.65,2.44,6.55,4.37,13,5.77,19.89l-12.7,2.93ZM383.97,279.14c-2.07,2.69-1.78,6.6-.03,9.36-2.56.16-3.1-4.84-1.7-8.66.69-1.86,2.59-2.78,4.48-1.97,4,1.73,6.11,6.01,6.07,10.34l-.03,4.18,3.87-.75-5.2-17.7c-5.73,1.03-10.67,2.67-15.55,5.6,2.26,4.88,4.08,9.67,5.46,14.7.13.46,1,1.13,1.38.99.28-.1.95-.73,1.01-1.07l1.06-5.61c.23-1.24,1.16-2.6,1.99-3.27-.96,3.01-1.54,5.64-2,8.98l6.79-1.78c.56-3.77.45-7.76-1.88-10.88-1.18-1.57-3.83-3.78-5.7-2.45Z"/>
  <path d="M450.11,415.9c-5.09.3-9.26.69-13.9,2.66-1.03.44-2.54.82-3.69.98l-6.55-16.37c5.39-3.43,11.51-4.97,17.62-3.59l3.65,5.56-1.4.25,4.26,10.51ZM439.75,416.02l8.82-1.17-3.29-7.81-1.97-6.08c-4.44-1.28-8.25-.92-12.67,1.3l2.9,2.72c1.06-.73,1.63-.95,1.96-.58l1.65,1.84c.71-2.53,1.65-3.95,3.37-4.96-.61,2.36-.38,4.8,1.34,6.38-1.22,2.03.5,5.37-2.1,8.37ZM435.85,406.8l.7,2.72,1.11-1.91-2.41-2.53c-3.53,2.02-4.55-3.5-6.74-2.34-.71.38-.94,1.54-.59,2.35l4.65,10.79,1.91.49-1.74.54c-.3.09.32,1.11.63,1.56l4.96-1.95c-2.46-2.12-3.55-7.32-2.47-9.73ZM439.95,407.84c-1.18.06-1.88.35-2.17.91-1.32,2.48-1.13,4.74,1.12,6.76,1.81-2.26,1.71-4.68,1.06-7.67Z"/>
  <path d="M464.54,521.66c-4.18-3.37-4.73-10.78-.88-13.82l1.4,5.74c.09.38,1.2.93,1.56.96.45.04,1.32-.82,1.4-1.33,1.05-6.31-2.56-10.59,2.55-8.32l2.37,1.05c.65.29,1.79-1.96,1.28-2.48l-3.01-3.05c-1.89-1.91-3.13-4.76-1.96-7.24.34-.72,2.43-.68,2.95-.14l3.86,3.98c2.78,3.89,3.77,9.04,2.96,13.62-.42,2.35-2.86,3.55-4.94,2.68l-.23,4.95c-.09,1.99-1.9,3.86-3.46,4.47-2.02.79-4.2.26-5.86-1.08ZM462.74,510.44c-1.22,3.45-.76,7.45,2,9.96,1.51,1.37,3.52,1.91,5.47,1.2,1.38-.5,2.69-2.48,2.69-4.35v-5.22s3.54.35,3.54.35c2.95.29,3.19-14.89-6.2-18.95-.81,1.98-.37,4.16.97,5.48l3.25,3.18c.99.97,1.16,2.57.42,3.74-.52.81-2.26,1.52-3.1,1.03l-2.97-1.73.46,7.53c.06,1.01-1.41,2.6-2.31,2.77-1.04.2-2.67-.77-3.04-1.78l-1.19-3.21Z"/>
  <path d="M184.84,513.27l1.55-5.36c2.39,1.96,2.27,4.93,2.03,7.69-.3,3.48-2.07,6.6-5.62,7.64-2.79.81-6.29-.99-6.58-4.03l-.56-5.79c-2.13.73-4.57-.3-4.99-2.72-1.89-10.87,7.51-19.46,9.37-17.86.37.32.83,1.23.9,1.74.78,5.49-4.19,6.68-5.44,9.52-.23.51.72,2.19,1.25,1.98l3.24-1.31c.34-.14,1.15-.24,1.51-.17s.36,1.25.33,1.74l-.4,6.52c-.03.54.93,1.47,1.34,1.65.5.22,1.88-.61,2.06-1.22ZM184.81,514.84c-.45.56-2.24.81-2.82.49-.5-.27-1.54-1.32-1.52-1.91l.29-7.86c-1.54.65-2.81,1.36-4.16,1.51-.99.11-2.43-2-2.24-2.94.72-3.61,7.55-4.6,5.05-10.75-8.56,4.69-9.47,18.64-6.17,19.04.89.11,2.09-.09,3.6-.32l.02,5.03c0,2.14,1.39,4.26,3.16,4.92,1.89.7,4.35-.2,5.68-1.92,2.22-2.88,2.22-6.81,1.34-10.14-.64,1.89-.98,3.31-2.21,4.84Z"/>
  <path d="M260.2,295.78c1.46,9.56-1.79,24.75-8.11,32.7,1.1-8.34,2.61-15.8,2.43-23.74l-1.14-9.9c2.12-.35,4.97-.29,6.81.94ZM254.59,321.89c3.9-7.94,5.03-16.32,4.76-25.18l-4.54-.85c.62,4.94.94,9.05.62,13.72l-.84,12.31Z"/>
  <path d="M397.46,326.99c-.02.49-1.36-.04-1.7-.64-6.16-10.92-7.1-17.56-6.21-30.45,2.42-1.23,4.82-1.58,7.58-1.23-1.64,4.73-2.41,9.23-1.83,14.12l2.17,18.2ZM395.39,323.57l-1.43-18.37,1.64-9.67-5.06,1.19c-.48,6.06-.13,11.28.82,17.01l4.04,9.83Z"/>
  <path d="M530.92,488.33c2.09,1.65,2.5,4.44,1.41,7.06-.79,1.9-2.62,4.1-5.47,4-5.07-.18-7.71-8.5-5.93-16.04.9-3.81,1.57-7.83,4.59-10.83-1.26,7.2-3,17.4,2.75,19.29l2.65-3.49ZM530.59,496.27c1.78-2.21,1.63-4.67.39-6.52-.63,1.33-1.54,2.69-2.48,2.96-1.1.31-2.72-.65-3.36-1.66-2.42-3.78-1.87-7.96-1.8-12.51l-1.9,9.31c-.3,5.01,2.28,10.96,6.15,10.42.88-.12,2.26-1.08,3-2Z"/>
  <path d="M208.44,379.76c-.54-3.28.41-6,2.85-8.18,1.18,1.13.59,3.8,2.45,4.41.73.24,2.29-.58,2.85-1.26,3.85-4.6,3.64-10.15,4.55-16.41,4.05,10.06-.83,27.87-9.61,25.19-1.2-.37-2.79-1.95-3.09-3.75ZM210.13,380.94c1.55,2.49,4.75,2.07,6.62.13,3.57-3.69,4.72-8.9,4.59-13.89-1.5,3.62-2.04,6.79-4.7,9.05-.86.73-2.69,1.21-3.5.78-.99-.52-1.65-1.7-2.3-3.39-1.36,1.69-2.24,4.85-.71,7.32Z"/>
  <path d="M438.05,371.55c1.79.52,3.04,2.89,3.39,5.03.4,2.45-.28,4.57-2.21,5.92s-4.34,1.31-6.52-.16c-2.03-1.38-3.75-3.66-4.37-6.23-1.57-6.54-2.08-13.43.18-20.13.8,7.47,1.01,19.24,7.85,20.13l1.67-4.55ZM438.77,373.07c-.62,1.83-1.11,3.36-2.33,3.83-4.1,1.59-7-6.33-8.22-12.2l.98,10.53c.74,2.85,2.41,5.31,4.99,6.68,1.25.67,3.33.54,4.51-.28,2.35-1.63,2.34-5.66.07-8.57Z"/>
  <path d="M118.5,487.72l1.6,2.45c.37.58,1.04,1.42,1.56,1.6,1.87.65,4.28-3.42,3.85-8.63l-.87-10.66c4.99,7.14,6.52,19.19,1.5,24.91-1.79,2.04-4.87,2.73-6.77.69-2.52-2.7-3.37-6.71-.87-10.37ZM121.22,497.94c6.15,2.23,9.19-11.45,5.12-19.71.09,4.58.7,8.37-1.01,12.05-.69,1.47-2.18,2.76-3.69,2.52-1.18-.19-2.25-1.6-3-3.13-1.16,2.45-.85,7.02,2.58,8.26Z"/>
</svg>