<?xml version="1.0" encoding="UTF-8"?>
<svg id="Layer_1" xmlns="http://www.w3.org/2000/svg" version="1.1" viewBox="0 0 600.56 606.56">
  <!-- Generator: Adobe Illustrator 30.3.0, SVG Export Plug-In . SVG Version: 2.1.3 Build 182)  -->
  <path d="M167.75,560.91l-4.82-.49c-2.14-.14-3.3-.33-5.25-1.24l-13.24-6.2c-2.38-1.11-3.98-3.16-7.22-2.74l6.24,3.87,16.18,9.28,11.14,5.21-7.6-6.33c6.83,1.45,9.84,7.28,15.48,10.03,17.76,8.65,36.27,15.13,55.55,19.96l33.13,5.81,12.86-.55,8.83-.74c-6.3-1.45-12.72-4.45-19.32-4.86l-14-.85c-13.11-.8-25.26-4.66-37.19-10.09l-29.61-13.46c-4.03-1.83-8.86-2.04-12.86-4.49,4.45-.39,7.46.98,11.93,2.13l20.14,5.19,25.82,4.6,11.75,3.88.6.16,15.62,7.71-1.26.51-14.93-7.45-.46-.34-23.05-5.82-25.38-4.17,15.56,7.77c17.48,8.73,36.03,13.49,55.86,13.59l-5.02-2.97c5.52,1.72,8.74,2.79,14.55,2.42l-3.77,1.21c6.34,2.01,13.32,4.97,20.37,4.44l14.78-1.1c24.83-3.33,48.43-10.11,71.29-22.08.56,2.71-1.49,4.75-4.26,5.81l-2.42.93c-.42.16-.27-1.37-.59-1.92-18.95,9.21-38.73,13.92-59.25,17.51l-11.74,2.06c9.68,2.02,29.4-.64,36.59-3.61l23.49-9.69c2.83-1.17,4.83-1.81,7.79-1.84s6.29-2.08,9.78-1.85l-18.33,6.35c-8.08,4.12-15.65,7.48-24.83,10.37,20.78-2.36,40.95-7.38,60.65-14.92l12.3-4.71,14.63-8.69c-6.8,1.54-12.58,4-19.56,4.45l25.1-8.07c4.6-1.48,7.35-6,12.59-7.19l-6.62,5.17,13.69-4.66,23.93-15.46c14.57-9.42,27.72-20.38,38.95-33.6l5.98-7.04-3.94,2.91-37.7,28.66-14.91,11.08-.57-.63,41.77-31.96c7.05-5.39,15.04-9.72,20.02-17.06l10.02-14.76c8.2-13.97,14.49-28.47,20.68-43.42l9.77-23.63c5.62-13.6,11.5-26.95,18.43-39.21l-30.72,71.77-8.7,19.2-13,23.67c9.97-11.58,18.44-24.57,26.08-38.34l1.85-7.23.86,2.71,9.14-18.34c.47-1.63,1.31-3.16,2-4.94l10.1-26.28,2.66-14.85.79,5.59,6.04-22.27,3.71-19.5.31-6.79,1.03-8c-2.11,4.75-1.62,9.4-2.7,13.75l-3.33,13.39-4.36,20.15.16-5.6c.11-4,1.31-7.2,2.12-11.11l4.77-23.15c1.56-7.58,4.82-15.15,4.46-23.02-.66-14.58-2.98-28.72-5.57-43.04-1.49-8.21-4.76-14.64-8.12-22.68,2.55,2.46,3.81,5.37,5.68,8.78l-3.9-27.07-3.24-16.87c-2.4-12.5-8.14-23.7-13.37-35.26-3.53-9.69-8.98-17.7-15.38-25.32l-.19-.26-4.99-5.97-.36-.43-4.37-5.3c2.26,1.05,3.75,2.88,5.01,4.69l.4.57,5.26,5.41.13.38,1.86,1.62-13.34-19.8c-23.72-31.97-49.55-58.71-83.57-80.3l-7.57-1.29-.42-.11-4.94-2.05-.48-.2-3.66-1.95,4.33,1.02.48.36,4.99,2.13,1.23.11c-10.6-8.15-22.94-13.57-35.65-19.45-11.04-5.1-22.04-8.47-33.7-12.03-15.22-4.65-30.53-7.78-46.38-10.01l-13.19-.89-10.8-.58c-13.94-.75-26.78.77-40.32,3.82l-18.71,4.22-.48-.65,19.41-4.98c-22.01,1.95-42.87,6.52-63.81,12.71-16.96,5.02-32.47,11.58-47.89,20.06-13.21,7.26-26.39,14.07-37.07,24.79l-14.62,14.68-.68-.77c1.39-1.38,2.8-2.6,3.84-5.14-19.79,16.37-37.41,35.59-52.64,56.52l-.17,3.32,4.46-3.79c-.65,3.66-3.94,5.18-6.75,5.52-8.98,12.26-20.54,30.51-24.78,45.46l-5.98,21.11c-3.38,11.94-5.98,23.4-8.36,35.75-4.28,22.21-8.79,43.76-10.22,66.41-.65,10.39,1.59,20.33,3.01,30.45,1.49,10.66,3.19,20.8,5.97,31.12,2.73,10.13,5.38,19.81,9.32,29.1l.29.31,5.23,11.4c-3.16-3.3-4.48-6.97-6.1-10.64l-.25-.33c-4.95-11.6-8.02-23.72-11.28-36.39l-7.15-43.64-.04,13.21c2.3,20.3,5.54,40.09,12.39,59.35l8.3,18.79c5.89,16.49,12.91,31.71,22.12,46.64,5.19,8.41,11.53,14.94,17.76,22.95l-4.58-2.85,4.14,5.28c1.73-1.53,2.19-2.22,2.21-3.3l-.29-.63-5.35-12.94-5.52-12.16c-2.21-4.87-4.29-9.12-7.61-13.83l1.76-.33-3.76-14.26-.04-8.37c3.74-.45,5.94,2.88,6.91,5.79l.59.35c1.96,3.39,3.84,7.42,5.04,11.14l.39.45,5.46,14.86c1.99,5.42,3.34,11.13,6.42,16.1l6.79,7.29-.51.66-5.12-4.16,6.43,14.95c-4.35-5.74-6.35-12.23-9.57-18.62-.81-1.62-1.18-2.86-1.75-4.51l-8.94-26.04-.27-.46-5-11.18-.29-.5c-1.61-2.06-3.36-4.01-5.63-5.79-1.01,7.43,1.24,13.13,3.08,19.54,1.92,6.68,5.11,11.61,9.62,17.03l-3.13-1.24,5.51,12.5,5.32,13.04v.57l.99,5.63,3.23,3.28-.46.72-4.39-2.59,8.23,10.41c7.87,9.96,16.35,18.96,25.92,27.32,2.57,2.25,4.79,4.46,6.87,7.36-6.08-4.11-10.49-9.01-15.7-14.01-10.89-10.44-20.26-21.9-29.27-33.86l-6.22-4.07,3.31.42-12.9-18.59c-6.55-9.43-11.52-19.04-16.12-29.54-5.45-12.45-10.97-24.37-15.12-37.3-1.31-4.08-2.71-7.67-5.45-10.98,3.43,12.68,6.78,24.66,11.31,36.75l2.87,7.65.38.6,4.01,8.54,4.14,8.39.35.54,6.61,10.98.34.53,2.73,4.3.29.4,2.08,2.76.26.34,2.07,2.7.29.34,4.46,5.88c-2.12-1.51-4.22-3.55-5.19-4.96l-.32-.46-2.08-2.81-.22-.29-2.1-2.79-.28-.38-2.89-4.19-.35-.52-6.56-11.03-.53-.71-7.9-16.98-.26-.71c-3.72-8.22-6.48-16.93-9.25-25.95l-8.14-26.46c-1.76-5.71-6.46-9.34-6.96-16.15l5.88,7.03c-.07.12.57-.95.55-1.23l.67,2.29,2.19,5.94-1.62.23,3.85,7.22-1.37-5.81-1.21-7.73-3.95-22.89-.31,7.65c-1.77-2.21.24-7.01-.08-9.99-1.84-17.4-3.35-34.2-1.97-51.67l1.23-15.48,5.53-32.48c4.55-26.74,13.6-52.05,27.02-75.65l3.35-8.47,11.33-17.9c3.48-5.49,7.59-10.24,11.66-15.38,8.84-11.15,18.21-21.09,28.29-31.2,10.24-10.27,20.47-19.53,32.1-28.15l7.59-6.4-1.71-1.24,10.92-7.21c4.41-2.91,7.47-6.57,12.67-8.77l-6.25,5.57c9.51-4.75,19.12-9.29,29.3-13.7l25.95-11.24c3.67-1.59,6.93-3.04,11.12-3.49l-7.87,3.9c19.49-5.44,38.35-9.8,58.23-12.23l20.09-2.46c34.4-4.21,69.04-2.77,101.74,7.99l.48.11,8.84,2.77.47.4,7.12,2.71.59.34c2.13.84,4.32,1.93,6.31,3.29-3.03-.76-4.95-1.64-6.84-2.53l-.47-.3-7.25-2.81-.45-.32-8.81-2.82-.51-.09c-15.34-4.93-31.11-7.99-47.57-9.32l-10.65-.86c-5.93-.48-11.74-.25-17.99.11,5.36,1.09,10.66.95,16.5,1.45l7.75.66c29.45,3.47,57.59,11.58,85.02,22.95l-.02-1.03-.57-.23c-1.78-.65-3.45-1.56-5.04-3.23,2.14.47,4.51,1.44,5.51,2.47l.62.17,19.07,10.89c19.67,11.23,38.79,22.63,55.28,38.2l12.75,12.03c12.99,12.26,23.75,26.07,34.55,40.31l19.57,28.93-.03-3.73,13.3,25.49,2.02,8.02,7.32,23.71c6.32,20.46,11.34,40.88,14.07,62.18l1.31,10.26-.11-31.01c-1.06-14.61-6.05-28.06-10.64-41.26l-.33-.46-2.14-4.92-.35-.34-1.83-6,2.85,5.09.17.61,1.91,5.03.35.47c5.05,12.55,9.07,25.66,10.74,39.66l.73,24.07c1.35,12.56-1.76,24.76-1.85,37.54l-.12,16.79c0,1.11-1.43,3.43-1.8,4.41-1.99,16.49-5.14,32.48-10.46,48.29l-10.17,30.22c10.5-13.16,20.54-43.43,22.38-59.53l1.36-11.84.49-26.31c1.36,6.8,1.38,13.67,1.02,20.74-.81,15.51-3.5,30.03-8.53,44.75-3.33,9.72-6.29,19.02-11.86,27.65l-7.56,11.71-16.41,31.51c-17.71,29.7-45.2,63.98-72.9,83.89l-21.55,15.49c15.47-5.55,27.88-15.32,41.86-23.78-15.14,12.85-32.83,21.6-51.01,29.55-14.81,8.47-29.43,15.64-45.43,21.66-16.36,8.87-32.74,16.67-50.6,21.93l-18.53,3.96-9.91.03.39-.58,8.66-.32c12.78-1.6,24.77-4.48,36.23-9.99l21.93-10.55c-20.17,6.26-39.86,11.54-60.77,14.11l-6.59,5.08,3.28-4.59-15.49,1.51-8.54.72c-14.28,1.2-28.21-.94-42.45-2.05l-25.89-2.03c-15.49-2-30.98-5.23-43.79-14.38,13.31,6.45,26.08,11.63,40.7,12.77l12.85,1c-19.81-4.24-38.72-10.35-58.15-17.67l4.7,3.51-.64.77-14.19-8.58-33.54-17.5-17.14-10.73c-5.26-3.3-11.71-4.54-16.88-7.34l-.15-1.11,9.2,3-12.64-10.7,21.03,13.82,23.81,11.17,12.04,4.04,2.15,1.29.16.05h0ZM5.82,300.56c2.75-20.54,5.55-39.89,10.16-59.73l8.47-36.42,5.52-20.55c-6.41,12.93-11.27,26.69-14.76,41.38-3.88,16.36-7.34,32.14-9.05,48.83-.94,9.15-1.58,17.79-.34,26.48h0ZM596.23,298.73c.6-10.56-.17-19.73-1.95-29.34-2.9-15.59-5.88-30.71-10.73-45.61l3.97,29.18,7.23,38.32,1.49,7.45h0ZM3.8,312.06l1.85-.45-1.53-8.29-.32,8.74h0ZM419.77,573.24c7.83-3.01,14.21-6.15,20.76-9.99l-10.07,3.02-10.68,6.97h-.01ZM350.82,590.48c-2.2-.01-3,.34-3.97,1.1,1.54-.16,2.74-.53,3.97-1.1ZM310.85,599.98l5.92-.58c6.29-.62,12.44-.48,18.1-2.96-14.37,2.15-27.28,2.98-41.32,1.5-5.9-.62-12.2.9-17.76,1.15l12.36.84,22.7.06h0Z"/>
  <path d="M7.03,365.16c-1.23-3.88-1.86-8.74-1.75-13.11.75.94.92,3.12,1.05,4.77l.7,8.34Z"/>
  <path d="M176.04,563.03c-2.36.21-6.38-.97-8.29-2.12,2.74,0,5.97.81,8.29,2.12Z"/>
  <path d="M.88,259.49c-.47-6.55.96-12.65,2.46-19.11,3.23-17.1,7.9-34.04,16.85-48.93-7.03,15.71-12.81,30.91-15.77,47.81l-3.54,20.22h0Z"/>
  <path d="M277.69,3.81c-7-1.62-14.21-3.01-21.65-2.21-9.55,1.02-18.6,2.19-27.88,4.64-13.58,3.76-25.86,9.09-39.03,14.26,17.96-9.67,37.63-16.06,58.04-19l9.25-.75c7.7-.62,14.89.19,21.7,2.5l.56.17,3.55,2.31-10.93.57c-15.16.8-29.3,4.8-44.22,8.16,13.55-5.22,28.1-6.84,42.67-9.11l10.04-.25-1.64-1.11-.48-.2.02.02h0Z"/>
  <path d="M523.29,100.32l-3.53-4.46c1.81.76,3.32,2.46,4.18,3.87l.38.48,2.75,3.44.32.45,1.94,2.67.53.35,9.64,15.03.39.46,11.16,18.68.38.64,3.45,6.57.42.54c1.11,1.59,2.79,4.74,3.06,6.93l-3.79-6.52c-.28-.31-.39-.37-.46-.5l-3.38-6.42-.39-.45-11.25-18.84-.34-.58-9.52-14.79-.43-.57-2.01-2.65-.34-.42-2.79-3.41-.39-.48.02-.02h0Z"/>
  <path d="M20.9,189.82c3.84-8.62,9.01-16.47,14.54-23.7-4.55,8.57-9.13,15.92-14.54,23.7Z"/>
  <rect x="508.56" y="518.14" width="12.02" height="1.09" transform="translate(-216.05 515.78) rotate(-45)"/>
  <rect x="521.64" y="507.51" width="7.1" height="1.09" transform="translate(-205.43 520.17) rotate(-45)"/>
  <polygon points="529.06 503.18 546.67 482.01 547.36 482.64 530.2 503.4 529.06 503.18"/>
  <path d="M224.74,15.6l-6.72,1.98c1.82-1.58,4.06-2.43,6.72-1.98Z"/>
  <path d="M163.16,35.24c3.87-3.1,8.25-5.93,13-7.47-4.23,3-8.15,5.37-13,7.47Z"/>
  <rect x="177.59" y="24.65" width="5.7" height="1.33" transform="translate(12.69 96.43) rotate(-30.96)"/>
  <polygon points="85.02 91.57 87.63 88.64 88.76 88.89 86.15 91.83 85.02 91.57"/>
  <polygon points="90.43 86.94 93.04 84 94.17 84.25 91.56 87.19 90.43 86.94"/>
  <polygon points="504.59 527.37 507.2 524.43 508.32 524.68 505.71 527.62 504.59 527.37"/>
  <path d="M57.8,477.99c-1.69.11-3.27-1.67-2.69-2.97l2.69,2.97Z"/>
  <rect x="123.47" y="60.68" width="4.11" height="1.19" transform="translate(-13.64 73.31) rotate(-30.96)"/>
  <rect x="61.64" y="112.43" width="4.11" height="1.19" transform="translate(-65.99 109.5) rotate(-59.04)"/>
  <path d="M97.76,81.34l-1.56,1.91c-.16.19-1.26-.1-1.11-.3l1.39-1.78c.51.06,2,.25,1.28.16h0Z"/>
  <polygon points="550.62 476.09 555.05 470.33 555.72 470.94 551.66 476.31 550.62 476.09"/>
  <path d="M101.62,78.25l-1.56,1.92c-.16.19-1.26-.11-1.11-.3l1.38-1.77c.51.06,2.01.24,1.28.15h0Z"/>
  <path d="M105.49,75.15l-1.56,1.92c-.15.19-1.25-.11-1.11-.3l1.39-1.77c.51.06,2.01.24,1.28.15Z"/>
  <path d="M116.3,67.43l-1.56,1.92c-.15.19-1.25-.11-1.11-.3l1.39-1.77c.51.06,2,.24,1.28.16h0Z"/>
  <path d="M158.03,38.84l-1.56,1.92c-.15.19-1.26-.1-1.11-.3l1.38-1.77c.51.06,2,.24,1.28.16h0Z"/>
  <path d="M451.23,403.08l2.92,5.53,7.38,9.8c1.54,2.04,2.85,4.32,3.62,6.39l-9.86-12.42,1.24,10.97-3.62-13.99-16.36-16.64-.87-.31-7.72-7.01-15.42-15.17,1.15-.26,15.09,14.7,7.68,7.11.98.49,13.58,13.23.21-2.4v-.02h0Z"/>
  <path d="M509.34,477.53c.07-.12-.12-.7-.23-1.14l23.76-30.99c3.93-5.13,6.51-11.05,8.1-17.1,1.52-.55,2.82-1.66,3.36-3.07l9.81-25.69-6.94,4.98c5.06-5.74,8.75-9.48,10.85-15.9,5.79-17.7,11.41-44.47,10.64-62.81-1.14-27.21-4.24-53.77-9.94-80.34l-5.02-19.48v-.49l-5.74-11.91c4.26,2.67,4.52,7.72,6.25,11.33l.2.43,4.38,15.48c5.33,23.01,8.03,46,10.32,69.09l.06-26.45-.69-8.58-3.54-22.76-4.77-17.54c-1.4-5.14-2.27-10.68-4.53-15.47l-9.57-20.28.49-.42,5.22,8.64c-8.87-28.12-19.25-47.04-37.23-69.73l-6.13-6.84,2.35,4.91.4.49c.71.85,1.59,2.76,1.6,3.85l-2.29-3.38-.32-.44-3.04-4.27c-5.05-7.09-9.93-13.95-16.78-19.59l-30.87-25.42-15.3-11.05c-8.27-5.98-16.77-10.45-25.95-15.06-15.76-7.92-31.27-14.94-48.53-19.35-16.09-4.11-31.98-6.71-48.55-8.53l-18.55-.89,24.33,5.16,36.28,10.72,37.81,12.68.44.34c9.02,3.37,18.4,6.62,26.32,11.86l-26.79-11.27-.49-.19c-23.28-8.13-46.57-15.61-70.74-22.4-12.14-3.41-24.34-5.4-36.93-6.33-5.88-.44-11.96,1.3-18.08,1.39,3.73,6.62,6.13,12.86,7.12,20.68-3.47-2.75-4.47-7-7.59-9.86-4.58-4.2-11.54-6.89-17.8-7.02-6.8-.14-13.28,4.37-16.28,10.09,4.57-4.4,9.88-6.52,16.09-7.82,1.61-.34,3.21-.64,4.25.07-8.22,2.43-15.97,4.08-21.26,11.06-1.24,5.76,1.8,11.01,1.6,15.57-1.68-3.9-2.51-7.78-3.25-12.87-3.36,8.78.61,21.87,9.2,27.46l-.56-2.49,4.26,4.52,24.47,7.98c6.12,2,10.98,7.05,15.87,11.4,1.63-4.77,3.48-10.65,7.66-14.2l9.32-7.9,2.38,2.03c-4.45,3.12-5.26,7.38-5.42,12.17-.19,5.37-.34,10.84,4.03,14.9-1.02-3.13-2.17-6.23-2.46-9.72,5.4,12.69,8.39,20.5,21.25,26.94l-8.12-8.81-.35-.33c-.9-1.16-1.55-2.45-1.66-4.19l2.54,3.45.43.57c2.61,3.44,7.97,7.92,12.11,11.06l23.64,6.23h.67c1.9-.03,5.17,1.28,7.97,2.57l-8.83-1.64-.45-.11-18.1-4.13c7.16,3.36,14.29,6.57,22.25,8.46,3.76.89,8.63.48,12.61.72l9.46.57c-3.34-1.3-5.76-1.56-8.08-3.96l14.38,4.47c2.26.7,3.87,1.45,5.65,3.44l-3.89-1.42c.14,1.15.06,1.95-.04,1.85-3.07-3.16-13.74-3.89-19.85-3.11,8.35,1.23,16.12,2.2,23.18,6.54l-2.6-2.74.79-.77,2.72,2.07-.67-1.52c-.12-.27.6-1.09.79-.87l4.3,4.93c1.42,1.63,1.96,4.54,1.68,6.1l-1.85-2.78,2.37,9.85c.73,3.03-.73,5.46-3.11,7.11l-9.54,6.61c6.46,7.7,14.64,14,23.33,19.6,4.85,3.12,9.64,4.95,14.73,7.06,8.3,3.43,15.88,6.18,24.78,8.25-3.01.66-5.25.04-8.28-.03l22.49,6.84c2.31.7,4.56.62,7.32-.45-3.54-.59-6.68-.74-10.16-1.89,8.51-1.11,15.97-.37,23.71,1.63,3.07.79,6.06,4.83,8.41,6.58l6.58,2.16-4.26.12c1.67,7.04-.86,13.77-5,18.71,7.39,13.84,2.43,19.59-4.61,31.36-.51.85-1.48,1.65-2.35,1.84-.71.16-1.46-1.7-1.7-2.56l-5.34-4,3.69-.18-4.93-2.72-.4.56,2.45,2.16c-5.38-1.62-9.45-2.56-14.05-2.37l5.4,5.2c3.07,2.96,3.08,6.73,4.68,10.3l4.95,11.04c2.81,6.26,5.74,12.15,7.53,18.76,1.16,8.84,3.81,16.9,7.51,24.96-.6,4.11,2.15,9.84,6.65,9.9,7.1,5.45,15.64,10.25,25.35,10.59l10.41-3.7c5.34-1.9,10.57-5.32,13.26-10.45,3.95-7.54,2.67-25.38-5.58-30.26,3.78-2.33,10.35,4.6,12.56,9.87,2.97,7.09,2.72,13.78.9,21.09-.89,3.56-1.93,6.34-4.35,8.88-4.6,4.84-8.79,9.63-13.83,13.35l-.28-1.96c-.06-.39-1.55-.5-1.93-.3l-5.42,2.88,6.01-.38c-3.65,2.48-7.65,1.91-12.1,1.83-9.43-.17-18.84-2.29-25.84-8.89,2.9,5.25,5.56,11.07,9.61,15.17,4.9,4.94,10.46,9.09,16.19,12.65l6.79,1.5,5.87,2.07c-5.13,2.1-11.62,3.06-17.25.14l-16.21-8.39c-4.08-2.11-6.6-5.1-8.91-9.05-3-5.11-6.95-9.92-9.04-15.53l-5.67-15.19.79-.69.77,1.88.78-.62-8.61-24.93-.33,2.66.49.39c1.3,3.7,2.69,7.36,3.41,11.9-2.12-3.67-3.23-7.53-4.01-11.46l-.51-.37-1.47-7.67c-1.32-6.89-4.1-13.55-8.14-19.4l.49-1.8c.15-.54-1.49-2.31-1.61-2.3l-6.38,6.39c-4.12,4.13-15.86,7.88-22.44,7.29l-11.83-1.06c-1.26.11-1.7.32.13,1.6l-9.54-2.78c-7.79-2.27-14.93-4.29-23.14-4.01l4.82,5.18c-2.25.54-4.43-2.78-5.34-4.49-.61-.66-3.14-.97-3.5-.83l1.13,3.32c-2.14-1.9-3.23-3.26-4.38-3.08l-1.97.31c-.22.03-.2-.21-.12-.46l1.13-.9-1.84-8.71,3.73,7.75,14.11-1.99c3.9-.55,7.4-.19,10.61,2l-5.74-.97-9.45.69,15.52,3.19c1.47.3,4.73.06,6.27.02,4.74,1.54,9.66,3.35,14.75,3.31l7.04-.05c6.28-.05,12.61-2.63,17.68-6.67l-11.15,3.13-.61-.63,16.58-5.59,3.5-4.74c4.48,3.45,4.31,8.77,6.92,12.43,7.91,11.09,10.79,22.8,13.26,36,1.66,8.9,5.83,17.58,9.04,26.1,4.28,11.39,22.71,27.87,35.2,27.87l-9.77-4.72c-9.89-6.85-16.94-17.3-20.75-29.1,5.49.31,8.59,5.01,13.18,6.48l10.08,3.23c2.87.92,6.61,1.75,9.55.36,6.97-3.31,14.1-6.45,19.86-11.85,5.11-4.78,8.1-13.47,7.76-20.34-.23-4.61-1.82-8.85-3.08-12.61l-.85.46,1.79,10.55c.82,4.86-1.63,11.41-5.14,14.74l-7.93,7.53c-7.57,7.2-15.85,5.73-26.51,2.64-4.79-1.39-9.36-1.75-13.37-4.76l5.24,1.04-6.02-3.83.84,3.13c-5.3-4.45-10.25-10.1-11.89-16.82l-4.9-19.99c-3.2-13.07-8.88-24.99-16.59-35.8-2.17-6.97-6.12-12.19-13.33-15.23,4.07-3.28,7.72.64,12.14-.18,5.22-.97,8.78.04,13.23,2.57-.92-3.64-2.64-5.54-5.31-8.22l7.56,4.07-1.81.71c-.45.18.31,6.26,3.1,8.44l-.28-1.05.17-5.14.78,4.57.26.44c5.06-6.41,3.89-16.39,2.68-25.9,3,5.29,2.51,11.11,2.3,17.69,3.47-5.77,2.19-16.47-2.22-19.43.33-.42,1.2-1.42.93-1.83l-1.12-1.68c-.86-1.29-1.57-3.42-1.63-4.66l.42-.44,1.57-1.01c.4-.26,1.43.89,1.56,1.38l1.25,4.9c3.84-4.98,3.95-12.31.28-17.34-9.82-1.64-13.04-7.91-21.04-5.58-6.18,1.81-12.91,2.01-17.83-1.64,5.15,1.13,9.17,2.12,13.25,1.16l-17.91-4.16c1.51.72,3.38,1.86,4.49,3.04-4.61-.89-7.13-3.41-10.64-4.86-8.94-3.69-17.78-7.08-26.34-11.6l-8.05-4.26c-10.3-5.45-13.83-6.94-19.35-18.07-1.25-2.51-5.24-4.16-5.09-7.91,4.9,1.48,11.81-.29,13.47-5.55.92-2.91.77-8.54-.41-11.19-2.28-5.09-7.63-8.02-12.58-8.95l-11.92-2.24-14.13-2.68,2.69,1.64.28.12,8.53,3.8c-3.77-.47-6.46-1.57-9.39-2.77l-.24-.4c-4.61-2.73-10.08-3.8-15.27-6.13-7.2-3.24-13.99-7.53-20.67-11.65l-5.89-3.63c-3.46-2.13-6.73-6.78-9.03-10.12l-2.97,1.88-2.5-7.29c-2.25-6.57-1.6-12.96.52-19.75-6.26,4.71-10.3,11.45-10.08,19.12,2.4,3.2,3.69,6.97,1.5,10.74-4.43-2.14-4.7-6.19-4.69-10.87-1.18-3.24-6.26-6.73-9.92-8.07l-19.29-7.05c-4.1-1.5-7.9-3.84-11.74-5.96l-8-4.4-4.5-9.3-.11,4.46c-6.11-9.97-.94-29.75,9.67-37.86l-7.98.22,14.81-2.17c2.42-.36,5.99-1.39,8.23-1.13,7.03.79,12.07,4.87,16.41,9.74-.48-3.99-3.08-8.97-6.64-10.58-.62-.28-3.11.87-3.34.22-.19-.52-.81-2.22-.74-2.04,2.25-.59,3.31-1.1,4.39-2.43l2.54,1.03c7.1-1.11,13.71-1.15,20.76-.3l21.24-1.68c19.28-1.53,39.13-.1,56.97,6.05l.43.42,8.07,2.7.41.46,3.41,1.18c.14.05.22.14.46.33l3.41,1.22.51.2c2.13.84,4.31,1.93,6.31,3.29-3.03-.75-4.95-1.64-6.84-2.53l-.42-.38-3.41-1.18c-.14-.05-.2-.14-.45-.36l-3.41-1.18c-.14-.05-.2-.14-.48-.29l-8.06-2.73-.45-.34c-16.68-5.18-33.14-7.52-51.29-6.16l-11.78.88,11.82,1.05c16.99,1.51,33.43,4.61,49.82,8.96,11.77,3.12,22.41,7.27,33.41,12.23,20.55,9.26,39.5,19.96,57.22,34.25-1.9-3.45-5.27-5.12-7.9-7.83-3.84-3.95-7.8-7.07-12.26-10.12,3.66-1.63,7.41-1.54,10.56.44l-7.42-.45,16.48,12.12-1.69,1.6,5.44,4.02-2.21-2.97.38-.77,3.49,2.93-1.43,1.3c14.59,12.74,28.65,25.44,42.03,39.79,9.39,10.07,16.73,21.22,24.87,32.11l-3.55-8.6-6.54-11.68-.31-.53-4.24-6.34-.54-.63-4.88-7.09-.41-.53-4.67-5.73c-2.92-3.59-5.91-6.47-9.75-8.54l-.46-.02-3.66-2.92c2.12.65,3.69,1.1,4.51,1.77l.97.53-1.17-3.53,6.49,6.74,8.25,5.65-.49.68-4.64-2.4,5.12,7.02.6.67,4.91,7.07.53.64,4.24,6.34.28.56c6.72,10.91,12.5,22.35,17.44,34.6l12.46,30.86,8.78,22.96c2.77,7.25,5.18,14.27,6.48,21.69-.93.05-1.6-.03-1.57.28l.14,1.46c5.01,16.76,8.1,33.22,9.61,50.66l-.04,25.07c-.02,11.74-3.55,22.39-6.24,33.74-4,16.92-8.1,33.01-14.18,49.3-2.94,7.86-7.8,14.18-11.58,21.64l-15.27,30.18-.59-.53,3.3-9.07-17.55,24.32c-4.8,6.65-9.1,13.37-14.96,19.17l13.3-19.06c-1.1.64-2.74,1.4-3,2.18l-.07-.08h0ZM268.77,39.22c-1.56-2.13-3.87-2.52-6.18-1.96l6.18,1.96ZM267.91,91.87c-1.11-2.34-3.22-2.78-5.32-2.04l5.32,2.04ZM281.3,96.29c-1.16-1.47-2.73-2.21-4.8-2.07,1.16,1.47,2.73,2.2,4.8,2.07ZM294.17,114.88c.78-3.63-.29-5.63-2.09-7.89-1.01,3.39.26,5.66,2.09,7.89ZM398.07,167.45c1.85-1.33,1.71-3.82.9-5.44l-.9,5.44ZM403.19,193.52l-8.28-7.35c1.05,4.02,4.28,6.81,8.28,7.35ZM489.57,224.02c-2.9-4.07-7.56-7.03-13.09-5.27l13.09,5.27ZM487.82,239.33l1.64,3.2c.54-1.23.02-4.31-1.04-4.05-.59.66-.64.76-.6.85h0ZM570.33,351.59c4.59-15.3,6.18-34.24,4.68-50.36l-.67-7.18c-.96-10.39-2.44-20.28-5.49-30.04l1.21,14.74.67,10.16-.34,30.82-.06,31.86h0ZM470.32,278.7l.25-1.13-2.94-2.61-.25,1.13,2.94,2.61ZM480.33,331.93c-.56-6.91-2.55-12.6-6.04-17.67l6.04,17.67ZM566.69,364.63l1.06-7.92c-1.13,2.45-1.59,4.98-1.06,7.92ZM530.02,361.22c3.41.6,7.28-.25,9.17-2.76l-9.17,2.76ZM502.87,381.41l-2.69-2.97c-.58,1.3,1,3.08,2.69,2.97ZM550.01,417.16c5.61-9.01,8.38-19.01,10.96-29.56l-2.71,6.77-8.25,22.79Z"/>
  <path d="M241.5,80.57c-1.92-1.05-3.45-2.95-4.61-4.84,0,0,4.61,4.84,4.61,4.84Z"/>
  <path d="M461.23,529.17c.59-1.8,1.73-3.48,3.06-4.75-.21,2-1.5,3.76-3.06,4.75Z"/>
  <path d="M382.33,299.71c-1.29-.34-2.55-1.61-2.99-2.35l-6.15-10.13c-1.87-3.08-4.6-5.83-7.23-7.87-.07-1.06-.55-2.8-1.29-3.63-8.55-9.45-17.43-18.07-29.98-23.26l9.17,9.61.61.45,8.02,6.38.29.43,2.76,1.94.4.28,5.01,4.16c-2.09-.91-4.43-2.29-5.56-3.34l-.48-.45-2.75-1.93-.57-.41-7.86-6.5-.5-.41c-4.82-3.66-8.91-9.52-14.58-12.69-9.86-5.51-32.93-7.55-43.11-2.57-6.95,6.27-14.06,9.58-23.25,11.99l-6.07,1.59c-4.9,1.29-9.64,2.27-14.95,1.2-6.4-1.29-13.03-2.58-19.17-4.77-5.89-2.1-8.92-8.91-10.13-14.42-.74-3.38-1.64-5.79-2.9-8.78-3.53-8.41-3.59-17.39-3.83-26.74-9.34,14.8-8.27,30.17.66,45.45,2.18,3.73,3.09,6.64.41,10.46-2.31,3.3-2.71,7.48-1.49,11.59l-1.75-1.87c-1.72,9.05,5.22,19.78,10.74,27.35l-4.09-11.1-.13-.34-1.37-3.54-.16-.33-1.37-3.54-.32-.33-.93-4.48,1.89,3.63.19.45,1.4,3.48.14.35,1.41,3.5.11.39c2.34,5.42,3.96,11.2,7.22,16.7,1.97,3.32,7.09,7.36,10.84,8.87,18.58,7.45,53.66,18.26,71.86,18.52l32.54.47c7.03-2.97,13.99-3.37,21.63-2.7,17.93.81,34.37,7.56,49.52,16.77,9.62,5.85,18.9,11.15,27.89,17.8l11.46,8.49-2.65-.23,19.81,26.51c4.99,6.67,7.35,14.39,10.55,21.98-.36-7.88-2.59-15.05-4.67-22.08l-.34-.43-2.78-5.75-.27-.5c-3.16-4.69-7.09-8.86-11.38-12.64-.26-.09-.48-.15-.55-.21l-5.67-4.84c2.78.95,4.67,2.5,6.59,4.08l.42.35c3.97,3.17,8.48,8.7,11.03,12.49l.5.74,2.82,5.73.18.52c3.63,8.26,4.7,17.22,6.55,26.49l4.63,14.47c4.02,12.56,5.73,24.7,3.85,37.9-.95,6.65-3.77,12.53-5.7,18.91l-4.19,13.83c5.14-3.68,10.34-7.09,14.43-12.04l15.85-19.18.55.51-7.8,10.82,14.02-13.47c-.52.94-1.58,2.32-2.68,3.5l-16.33,17.64-13.59,13.57,11.68-7.19c-5.25,5.89-12.7,8.4-18.14,13.62l-5.99,5.75.63-2.76-5.04,2.98c-2.17,3.12-3.71,6.13-5.01,9.94l6.37-5.42c-1.02,3.1-3.73,5.84-8.12,7l3.64-9.72-13.46,5.75c8.34-5.34,16.02-9.4,23.61-16.65l-3.11-1.72,5.46-8.78.76.62-4.88,7.76,3.13.69,3.89-9.83c-.96-2.2-.4-4.34,1.74-5.99,1.35-8.91,1.65-17.74,1.08-26.47-1.57,4.28-1.56,8.57-6.09,10.62-1.46-3.68-.24-7.23-.17-10.71l.46-23.6c.06-3.13,1.68-7.87.68-10.59l-4.71-12.76c2.08,2.59,3.65,5.05,5.65,9.05.99-4.19.2-7.87-1.4-11.89-7.29-18.28-18.08-35-31.76-49.12-2.58-2.66-5.32-4.6-8.99-5.07,9.59,10.54,17.81,21.76,22.58,35.32l-6.79-12.51c-4.72-8.69-11.08-15.79-17.85-23.16l-7.1-1.86,4.79-.33c-10.25-8.13-22.26-13.65-34.9-15.29l4.02,2.61-.72.66c-2.18-.98-5.65-3.77-8.29-4.12l-16.58-2.17-8.52-.7-10.82-.9-25.82-3.67c-4.34-.62-8.07-1.38-12.42-.65-11.91,1.98-34.04-4.01-47.27-8.3-5.17-2.41-10.75-3.69-16.41-3.34l-19.84-7.13.22,1.09,2.01,2.89.27.4,4.78,5.06.54.37,2.71,1.95.67.6,13.76,8.02.69.18c6.59,2.88,13.46,4.35,21.21,4.27-7.45,1.75-15.04-.33-21.7-3.71l-.59-.14c-4.81-1.88-10.06-5.04-14.1-8.19l-.43-.51-2.74-1.87-.55-.37-5.09-4.81-.3-.4-2.07-2.83-.16-.36c-2.65-5.35-9.11-4.9-13.2-8.76l9.92,3.74-4.66-9.45-7.14-6.45c-5.29-4.79-9.06-10.04-11.28-16.6-1.3,4.89-1.41,9.32-.94,13.67l.35.54,2.76,4.8.42.44,6.38,6.96c-3.12-1.46-5.42-4.63-6.88-6.26l-.51-.56c-1.08-1.51-2.1-3.32-2.78-4.97l-.29-.62c-.59-1.79-1.34-5.16-.9-7.37l2.19-11.17c.69-3.52.51-6.45-1.16-9.33l-.27-.25-2.27-8.76,3.52,7.73-.08.37.75,2.1.87-6.83c.18-1.4-.29-3.85-.58-5.79l1.51,1.63,1.62-6.11c-3.93-5.64-7.82-19.93-7.67-25.62.28-10.57,3.17-19.81,6.15-30.43l-7.88,3.16-5.29,4.76c2.56-5.62,7.87-7.39,13.5-8.88.65,1.44.41,3.72-.05,5.25l-1.88,6.18,9.23-13.78c.72,3.18.53,4.19.55,6.79l3.51-12.46c.11-.38-.06-1.85-.43-1.91l-1.82-.33c1.13-1.25,1.88-1.97,3.91-3.48l-1.64,10.48c-3.79,13.16-6.7,23.96-.19,35.49l.63.58,1.89,3.35-2.69-2.66c-.09-.09-.36-.46-.42-.56l-3.32-6.29c1.13,6.34,3.14,13.28,7.47,18.21,4.22,4.82,10.1,9.01,15.83,11.73,6.78,3.22,14.4,1.76,21.59,1.78s8.68-6.29,9.54-5.35l1.29,1.41,20.56-8.87c1.21-.52,2.72-2.7,3.69-4.62l-10.41,1.79,11.21-3.34,6.38-16.8,2.74-3.28-7.37.22,8-1.63c-.21-4.18,1.07-8.43,4.83-11.19,8.51-6.27,18.92-11.34,29.85-10.9l14.83.6c4.58.18,9.68,2.8,13.16,5.5-6.06-2.13-11.29-5.26-17.17-4.42,8.06,3.14,14.53,6.99,22.11,11.43l-.58-1.8-.38-.21-3.31-4.43c1.54,1.03,3.32,2.43,4.12,3.43l.32.39,5.09,6.29c2.25,2.78,4.98,5.42,7.55,7.45l.39.31,3.45,2.7.53.4,3.32,3.37-4.01-2.6-.5-.45-3.5-2.71-.96-.32,7.26,8.48c1.41,1.65,4.02,3.02,6.06,3.82l-1.6-3.65,9.11,7.6-8.27-2.45,9.32,6.2-1.04,1.17c-.35.39,6.65,6.96,9.28,3.83,1.68,2.75,4.63,4.77,9.12,5.43-.94-3.51-4.33-4.93-7.51-6.66,13.47.35,11.19,21.64,5.07,34.01,4.69-3.07,7.04-7.68,10.34-12.14l5.4-7.28c.63,2.43,1.91,4.25,3.99,4.94l5.87,1.92,11.51,10.89c2.32,2.2,3.55,5.54,4.63,8.84-11.92,7.97-26.42,9.51-40.02,5l-11.17-3.7c6.75,4.45,14.44,5.66,22.05,7.46-4.74.42-9.29-.36-13.38-2.1l-11-4.68-8.9-4.41-4.51-1.98c-5.59-2.46-8.54-6.87-12.44-10.86-6.32-6.46-12.74-12.33-18.42-19.37-7.14-4.43-14.28-8.1-20.74-13.47l18.13,10.1c-8.61-9.63-19.76-15.53-30.78-21.25-4.15.85-7.28-1.51-10.36-3.59l-12.2-2.42-3.81,3.61c6.07-.63,11.15-.84,16.43.19l-11.76.69-8.06.47-5.23,13.75,10.44-1.46c3.35-.47,6.51-1.71,9.69-.54l-4.12.77,3.1,1.04-10.06,1.58-7.08,1.86,4.15-2.45c-2.26-.15-4.88-.06-6.68.82-.73.36-1.7,3.02-.94,3.24.61.17,2.2.46,2.91.35,7.61-1.23,15.67-.21,23.29.71l6.32.77c-4.09-2.93-8.04-4.92-12.7-6.62,7.27-.15,12.06,5.26,17.95,8.26,7,3.57,14.45,6.14,20.82,11.03,8.12,6.24,15.46,13.38,21.69,21.46,2.19,2.83,4.06,4.84,7.02,7.31-.11.04-1.87,1.07-1.59,1.54l1.32,2.22,5.47,9.2h.04ZM326.67,200.38c-4.3-3.5,5.22-1.21,13.5-3.06-11.47-2.72-22.23,1.8-31.58,7.51-4.93,3.01-8.04,6.79-7.74,13.31,4.41-5.2,9.55-10.96,16.36-13.8l9.46-3.95h0ZM348.46,199.93c-2.43-1.88-5.84-3.45-7.9-1.02l7.9,1.02ZM449.84,285.17l2.81-1.56c.63-.35-.39-2.62-.92-3.13l-9.78-9.32-10.1-8.03-3.71,7.86c-7.09,4.16-7.86,10.34-16.67,9.47,4.18-6.68,5.81-12.21,4.74-19.61-.23-1.64-.04-5.62-1.11-6.89-2.28-2.68-5.71-3.71-8.56-5.5-6.52-4.11-12.09-9.46-17.88-14.46l-7.26-1.98,4.28-1.65-3.51-3.88-9.11-10.26-12.77-10.42c-1.35-1.11-4.89-2.56-6.5-3.09-6.44.49-14.55-4.79-20.91-2.1l-15.68,6.65c-4.19,1.78-9.67,6.59-12,10.33,6.19-1.27,10.55-2.52,15.44-2.07l-11.15,2.31c8.35,3.28,16.47,6.01,24.38,10.54,10.46,5.99,20.03,12.5,29.03,20.37,5.6,9.95,12.95,17.92,22.38,24.14l19.27,12.72c1.48-1.06,2.36-1.04,3.88-.44,7.83,3.13,16.3,6.15,24.93,4.98,5.48-.74,10.84-3.14,15.76-4.6l.7-.39h.02ZM206.09,213.5l.97.08.83-8.99-.83.35-.98,8.56h0ZM224.7,257.15c-4.74-4.66-7.99-9.08-11.32-14.79.79,6.37,4.6,13.12,11.32,14.79ZM233.85,258.6l-13.73-8.78c3.33,4.5,7.77,8.46,13.73,8.78ZM275.67,253.6l5.06-4.05c-3.11.3-4.9.97-7.26,2.06l-10.24,5.45,12.43-3.46h.01ZM417.97,257.13h-.92l.08,6.96h.92l-.08-6.96ZM205.78,260.44c1.46-3.52-2.97-4.12-2.53,6.12l2.53-6.12ZM246.92,260.6c-4.86-1.13-7.13-1.37-10.62-.87,3.54,1.51,7.16,1.62,10.62.87ZM424.77,271.82c2.72-1.79,4.61-4.6,4.74-7.78l-4.74,7.78ZM387.58,276.4c-.65-.49-1.7-1.03-2.98-1.57l2.68,2.58.3-1.01h0ZM388.41,277.03l-.3,1.01c.65.49,1.7,1.03,2.98,1.57l-2.68-2.58h0ZM203.08,288.77l-1.77-7.01c-.99,2.5-.6,5.45,1.77,7.01ZM452.94,285.75c2.07-.52,3.11-.81,2.87-1.11l-1.09-1.38c-.16-.2-.92.75-1.15,1.01l-.63,1.48h0ZM450.08,285.62l-.17.59-1.91,1.16,4.44-1.26-2.36-.49ZM206,295.96c.2-2.3-1.14-4.18-3.01-4.55l3.01,4.55ZM251.27,328.02l-22.41-10.85,1.33,3.31-9.26-7.66c.76,1.98,2.23,5.84,3.91,6.62l7.68,3.56-1.52-2.88c6.36,4.01,12.44,7.7,20.27,7.91h0ZM279.64,331.04c-12.69-2.68-24.86-6.6-38.4-10.52,5.47,3.31,11.66,7.23,18.49,8.2l19.5,2.75.41-.43h0ZM311.43,339.51l-21.68-4.28-25.67-3.83c10.79,4,21.76,6.95,33.39,8.26l13.97-.15h0ZM280.08,331.18l-.39.75,4.75-.15-4.36-.6ZM372.49,338.06l23.96,6.4c-15.38-9.39-39.91-16.34-58.08-11.61l15.86,2.48,18.26,2.73h0ZM326.98,335.45l-30.76-.73c7.01,2.24,12.97,3.29,19.84,4.66l10.91-3.93h.01ZM379.58,346.68l-14.58-6.44c-7.04-3.11-14.13-4.38-22.08-4.34-3.29.01-8.29-1.75-11.28-.71l-12.75,4.44,15.34,2.86,24.97,2.71,20.39,1.48h-.01ZM425.18,364.59c1.85,1.56,3.69,2.58,5.44,1.75-14.45-11.22-30.01-19.38-47.1-24.42l-19.7-3.66,6.56,2.78,14.93,6.72c14.45,2.26,28.35,7.14,39.87,16.84h0ZM477.03,481.85l1.01-7.67c1.19-14.48-2.04-28.19-5.66-42.57-1.25,2.89-.88,6.27.23,9.54,3.21,9.46,2.96,18.71,3.61,28.45l.81,12.25ZM477.35,490.08l.86.08,3-14.37.76-8.48c.99-11.07-2.83-21.74-6.63-31.78.79,8.22,3.64,15.85,3.61,23.96l-.07,20.13-1.53,10.46h0ZM469.75,480.7c8.06-10.91,5.57-27.16,1.17-40.02l-.82,15.37-.58,17.35.22,7.29h0Z"/>
  <path d="M246.3,78.57c-2.75-2.92-4.72-8.18-5.39-12.1l5.39,12.1Z"/>
  <path d="M87.48,470.04l-5.76-10.39-10.8-15.38-15.34-26.42c-6.7-13.36-11.55-27.27-16.73-41.33-1.76-4.99-3.35-9.47-3.04-14.72-3.05-14.32-6.05-28.33-6.96-43.01l-.69-11.16c-.98-15.83-.46-31.39,2.15-47.18,3.78-22.87,8.82-43.9,18.48-65.01,4.03-8.81,7.93-17.43,12.9-25.67l8.17-13.54,16.03-24.81-3.76,3.03-.74-.68,9.8-10.18c5.2-5.41,8.5-11.8,14.85-16.36l-5.44,7.11,24.1-19.13c9.04-7.18,17.41-14.42,26.83-20.83l-3.7.1c8.02-5.89,16.55-5.49,20.3-12.92l-.35,2.39,7.15-1.48-7.34,4.3c-1.31,15.64-2.99,26.34,9.06,36.89,1.64,1.43,3.38,2.41,5.57,2.23,6.08-.48,11.34.96,16.03,5.35-2.06,1.33-3.83,1.37-6.07,1.07l-15.73-2.12c-7.65-1.03-16.77,4.29-22.17,9.8-8.12,8.28-12.62,18.28-17.06,28.65-2.49,5.82-6.77,10-10.59,14.95-6.89,8.91-17.79,14.21-29.08,11.61-5.33-1.23-8.8-4.26-12.06-8.53,2.29,5.7,5.07,10.91,8.54,15.66,6.45,8.81,14.86,1.8,22.23,5.84-4.71,2.21-8.97,2.22-13.94,2.12-4.86,6.32-8.16,13.57-11.79,20.68s-5.92,14.18-5.03,22.35l3.18,29.11c1.47,13.49-1.32,25.96-5.44,38.3-2.07,6.21-4.69,10.93-9.93,15.14-6.44,5.16-13.78,8.2-22.45,6.12,7.2,6.7,20.95,10.69,29.92,8.35,1.06-.67,2.01-3.66,2.17-4.52.08-.35.11-.57.17-.64.65-.86,1.86-1.93,3.55-3.24l.11,4.76c1.97-.83,3.41-1.37,6.07,0l-6.99,4.17,5.37,22.39c-4.53-6.79-4.54-14.56-6.69-22.16l-.11,6.63-.77.87-.64-6.63c-.59,3.69-.03,7.31.74,11.05l.7-4.93,3.34,13.65c.68,2.77,2.87,5.5,4.65,7.57l-1.06-6.72c3.06,8.59,8.06,14.35,15.09,19.94l14.58,11.59,9.4,9.78-.55-4.09,3.47,5.92,8.1,6.95-1.53,1.71c5.25,6.56,7.62,14.51,8.25,22.81l.79,10.4-1.02-2.06-2.4,11.86c1.77-2.57,2.71-5.18,3.88-9.01,1.31,5.14-2.72,8.77-5.42,13-4.02,6.31-7.58,12.35-15.18,15.83l9.98-.42c15.59-.66,23.38-10.05,27.99-25.11,2.02-6.62-1.35-18.47,3.62-19.31,1.41-.24,3.51.79,3.45,2.29l-2.82-1.45c-.64-.33-2.25,1.49-2.27,2.27l-.26,11.8,1.91-5.67.63,8.71c2.58-5.16,2.94-9.87,2.98-15.62,2.69,5.56-.23,12.43-3.17,18.47l10.05,18.3-.76.86-6.84-12.02-.47,2.62-3.33-7.28c.29,4.86,2.54,8.44,4.48,13.59-2.86-3.05-4.47-6.69-5.51-10.72-3.04,5.25-6.34,9.28-10.11,13.38-2.45,2.67-4.59,5.19-7.89,6.87-2.96,1.51-5.92,2.89-9.34,2.31,3.6-1.27,6.76-2.15,9.61-4.33-5.46,1.7-10.28,3.95-15.94,3.44l-14.83-1.32-.29-3.75c1.91.92,4.31,1.3,5.41.3l3.34-3.04.13-.39c1.1-.79,1.16-.84,0,0l-2.84-1.35c13.65-2.64,16.32-7.73,19.43-20.28.05-6.21-2.39-11.84-4.06-17.57-2.38-8.16-5.1-15.98-8.91-23.46-1.94-3.81-4.51-5.62-8.82-7.26l2.93-.13c-6.97-7.77-14.78-14.26-23.37-20.3,1.86,5.29,5.76,8.38,10.03,12.22-4.07-1.16-6.39-4.38-9.26-7.16-8.76-8.49-15.56-17.81-20.44-29.06-2.06-4.76-2.7-9.56-1.57-14.89l-12.21.61c-5.58.28-11.5-1.53-15.58-5.05,4.65,1.49,8.5,3.86,13.49,3.56-8.13-1.83-14.36-6.19-21.99-10.62l8.7,6.93c-4.7-1.34-8.82-4.68-12.34-8.93l4.65-.93c9.9,4.29,17.58-2.27,25.59-9.43-1.96,3.76-5.26,6.39-8.56,8.55,3.11-.93,7.9-1.88,10.14-4.36,3.43-3.8,5.76-8.59,7.56-13.35,2.01-5.3,2.58-18.9,1.77-25.73l-1.55-13.13c-.64-5.4-.71-11.34-.21-16.84l1.94-21.67c1.1-12.27,5.26-26.2,15.68-32.82-9.54-5.59-15.34-13.19-15.63-24.78l-.19-7.42c.78.91,2.15,2.83,2.64,4.14,3.16,8.57,11.94,13.44,20.86,11.25,5.95-1.47,10.61-4.84,15.25-8.67,1.43-1.18,2.59-2.58,2.14-3.7l-.83-.26c-.79-.26-1.48-2.49-.95-3.3l7.05-10.8c3.9-5.98,7.57-11.78,13.21-16.4l-11.53,15.86-7.02,10.56c-.46.69-.4,3.03-.23,3.27l.72.57c1.08-.46,2.5-1.59,3.46-2.86,6.13-8.18,11.14-16.22,15.78-25.38.7-1.39.78-3.16.48-4.77l12.13-12.57c3.42-3.55,7.36-6.32,12.37-6.96l7.9-1.01c-11.69-9.8-16.57-22.66-13.26-37.03l-11.21,8.36-26.95,20.96-19.01,15.03c-8.79,6.95-14.9,16.46-21.99,25.01-3.57,4.3-5.96,9.13-8.34,14.17l-13.87,29.42-25.96,64.99c-2.7,5.68-4.16,11.44-3.47,17.63-4.43,27.56,1.99,54,7.07,81.07l7.12,37.9c.65,3.48,1.65,6.51,3.5,9.53l-.54,2.88c1.98,6.04,3.5,12.57,6.7,18.05l6.53,11.19c5.26,9.01,10.14,17.85,16.04,26.25l4.22,6.01,5.69,8.16,8.04,9,11.93,12.03c7.59,7.66,15.5,14.38,24.93,19.68l-10.17-10.27.74-.76,14.17,13.45c9.7,9.2,26.23,18.49,39.04,22.07l10.3,2.87-1.45-2.52,15.55,1.48c1.65.16,4.74-1.32,6.25-1.98-8.43-.31-16.12.17-23.79-1.67,9.36-.14,17.56,1.1,26.48.25,14-11.8,17.48-28.68,6.66-41.96l-.7,3.35c-.62-3.71-1.28-6.01-4.11-7.41l-6.24-3.09-15.21-7.17c-3.31-1.56-6.09-3.47-8.89-5.71-3.14-2.51-5.94-4.44-8.27-7.94l5.06,2.38c.3.14,1.07,1.42,1.3,1.19l1.11-1.11c3.97,3.93,8.83,6.75,13.87,9.36l-1.41-3.47c6.89,5.26,12.76,9.29,20.96,12.66l-.89-4.31,1.45-.53c.46-.17.64-1.98,1.01-2.56,1.52-2.37,6.47-.82,8.33.53l.62.45c1.16.64,2.14,1.59,2.69,3.23l-3.26-2.7-.33-.6-6.32-1.44c-2.94,3.08-2.1,8.01,1.09,10.19l6.6,4.51c-2.94-.46-3.16-.75-4.78-1.42,3.22,7.97,4.43,16.35,5.6,24.71l3-10.77c1.58-5.68-.68-8.72-5.36-12.47,2.9.06,4,2.13,5.91,3.96l.41-8.74.75,7.22c.27,2.62.77,3.92,2.14,6.93l-2.12-1.53c-1.61,7.56-2.55,15.69-6.28,22.48-2.02,3.67-4.6,6.5-5.86,10.52,6.69-.72,12.4-3.84,15.25-9.51,3.7-7.36,1.56-14.43-1.34-22.44,3.94,3.69,3.91,9.21,4.16,14.3.54,11.18-8.15,17.59-19.1,19.48-3.49,8.62-10.35,14.16-19.44,15.57-2.69.42-5.45.53-7.18-1.71,10.61,2.63,20.79-2.98,24.88-13.38-3.48-.11-5.89.86-8.99,2.07-6.31,2.48-17.08,3.81-24.25,2.77l3.52,3.04-6.63-2.38-15.37-6.37c-17.4-7.21-33.51-16.68-48.33-27.81l-.29-.31-4.37-3.57-.43-.34c-1.55-1.23-4.01-3.51-5.53-5.84l6.47,5.08.32.27,4.33,3.63.49.4,16.41,10.64c5.19,3.37,9.67,6.57,15.56,8.49-16.6-9.87-31.35-20.95-44.53-35l-17.48-18.63,1.07,2.36c.07.22.12.4.17.47l8.64,12.53.58.61,4.38,5.27c-2.1-.98-3.88-2.97-4.96-4.64l-.55-.38-9.12-12.65-.07-.25h-.02ZM165.7,89.37c-.47-7.39-.35-13.33.18-20.2-3.14,6.38-2.94,14.12-.18,20.2ZM135.93,87.64l1.54-.11,4.67-3.8-.62-.73-5.59,4.64ZM180.73,108.62c-2.15-1.67-4.25-1.18-6.28.08l6.28-.08ZM196.19,111.06c-4.53-4.19-9.67-4.56-14.66-3.64,1,2.12,1.98,3.03,3.66,3.11l11,.53ZM167.69,109.1c-2.2,0-3,.34-3.97,1.1,1.54-.16,2.74-.53,3.97-1.1ZM43.95,222.64l15.7-38.65,4.88-10.59,8.08-18.4c-8.41,11.82-15.07,23.9-21.02,37.12-7.63,16.95-13.74,33.99-16.7,53.23,3.54-6.95,5.78-14.63,9.07-22.71h-.01ZM113.36,187.62l-6.6.31c2.18,2.03,4.43.99,6.6-.31ZM97.87,193.34c.32.03-.4-.04-1.11-.12-6.73,6.5-10.46,15.03-10.94,24.56l7.7-17.03,4.35-7.41ZM85.28,288.91l2.4-15.38c.6-3.87.32-7.79-.22-11.75l-1.8-13.16-1.18-10.11-.06,9.09,1.48,11.91c1.53,12.38-1.46,19.24-.61,29.39h-.01ZM84.52,274.87c.52-4.9.77-9.71.19-14.42l-2.06-16.53-.81.46.29,13.29s2.39,17.2,2.39,17.2ZM45.31,384.64l-5.3-30.09c-3.16-17.94-7.54-35.16-9.2-53.33l-1.21-13.23c-1.66,26.08,2.12,51.35,8.26,77.26,1.63,6.91,3.39,13.23,7.46,19.39h-.01ZM83.44,326.52l.7,3.37,1.75-5.59-2.07,1.72-.38.51h0ZM47.56,396.11c-.03-4.9-1.46-8.6-4.36-11.64l4.36,11.64ZM146.28,435.03l.12-6.52c.19-10.24-5.92-22.84-12.69-29.79l7.22,16.67,1.51,6.9,3.85,12.74h0ZM128.76,463.22l-1.48,2.43c4.14-1.15,6.71-2.59,8.86-6.41l-6.7,3.53-.68.44h0ZM220.58,489.44c-.79-3.07-1.25-5.59-4.41-5.61l4.41,5.61ZM222.43,518.36c2.11-1.19,2.77-3.62,2.05-5.51l-2.05,5.51ZM217.69,524.03c1.81-.29,2.56-1.35,2.29-2.77l-2.29,2.77ZM214.08,528.81c1.53.19,3.24.3,3.43-.25l.91-2.67-4.33,2.92h-.01Z"/>
  <path d="M234.89,101.24l-7.17-2.12,2.07,2.06c.45.45,0,1.46-.43,2.57-3.95-1.89-6.18-6.9-13.01-6.68-17.25.56-24.37-.9-37.73-12.32-3.72-3.18-6.26-7.93-4.68-12.9.9,5.52,2.12,10.07,7.01,13.07l-4.35-11.53c-2.11-5.59.91-13.42,6.37-15.17,5.75-1.84,10.05-1.29,16.31.23l-4.38-4.81-5.7,2.54c-.5-4.07,1.94-3.25,3.83-3.9l13.82-4.71,15.74-5.32c3.73-1.26,7.41-3.39,10.88-2.08-2.29.86-3.66,1.62-4.51,3.19-4.71,8.74-7.4,17.37-9.35,27.04-1.43,7.07.41,17.4,6.27,19.69l-3.37.31,3.81,7.29c3.73.79,6.34,1.47,8.58,3.53v.02h0ZM200.85,91.49l7.62,1.19,14.04,4.19c-1.02-2.72-2.03-6.76-3.61-9.07-1.77-2.58-3.38-4.65-4.48-7.22-3.56-8.32-1.88-16.11,1.13-24.23,1.55-4.18,2.66-7.93,5.42-11.93-8.64,2.23-16.7,5.09-24.9,8.74,3.3,3.32,6.21,5.67,7.69,10.25l-6.32-2.48c-6.06-2.38-11.37-2.25-15.83,2.23-2.53,2.54-3.15,4.7-3.03,8.15.23,6.42,2.67,13.08,8.57,16.37,4.23,2.36,8.72,3.04,13.7,3.82h0ZM217.81,72.57l2-7.4c1.58-6.86,3.75-13.04,6.59-20.31-9.77,6.52-10.24,14.7-8.59,27.71ZM217.59,82.56l-2.5-21.87c-1.23,4.81-1.36,9.48-1.19,14.79l3.68,7.08h.01ZM202.86,93.84l-7.53-.23c6.36,1.93,12.51,3.04,19.57,2.66-3.76-1.91-7.42-2.29-12.05-2.43h.01Z"/>
  <path d="M237.84,104.28l-2.95-3.04c1.64.32,2.89,1.71,2.95,3.04Z"/>
  <path d="M237.84,104.28l.96,1.7c.42,1.25-4.77,1.73-9.44-2.23l6.04,1.92c.29.11,1.85.09,2.15.04.45-.07.39-1.1.3-1.43h0Z"/>
  <path d="M339.94,171.16c-4.8,1.62-9.72-1.49-14.81-1.62-11.2-.29-21.55-.82-32.24-4.34.89,2.42,2.74,4.06,5.02,4.79l5.76,1.84c-3.73.24-8.55-.84-10.42-3.8-1.54-2.45-2.13-3.3-5.29-3.5-1.38-.09-3.83-1.1-4.6-2.12-.87-1.15-.8-4.62-.25-6.04,1.69-4.34,6.04-4.99,9.58-6.88l8-4.27c2.93-1.56,5.76-3.37,9.36-1.21l-5.91.72c5.5,2.69,8.16-1.83,14.84,4.27,10.18,9.28,27.06,16.5,41.43,19.19-6.76,3.28-13.5,5.17-20.66,3.43,5.3-.86,10.3.17,15.2-2.61l-19.9,1.04,4.9,1.11h0ZM341.27,165.27l-.52,2.27-9.75-6.6c-5.96-4.03-12.07-7.67-18.74-10.62-5.82-2.58-9.76.36-11.93-2.03-3.15,2.26-6.19,6.14-5.97,10.69.08,1.57,1.61,3.83,2.84,4.59,1.07.67,3.79-.49,5.12-.3l11.42,1.65c4.1.59,8.25,2.79,12.32,3.17,7.25.66,14.11.03,20.97-.77l-5.76-2.05h0ZM291.53,158.66l-.88-6.7c-3.74,1.07-7.9,4.26-6.93,8.59.55,2.46,4.13,3.46,7.17,3.17l.65-5.06h-.01ZM295.3,164.36l-3.17-3.22c-.04,1.35.13,2.59.73,2.71l2.44.51Z"/>
  <path d="M39.62,387.73c-7.67-20.7-12.7-42.44-14.29-64.9l-.87-12.41-.84-9.9c-.88-10.37-3.81-20.52-.73-30.38-.25,5.77-.7,10.98-.08,16.38l.73,6.36.83-8.14c.46-4.54.97-8.94,2.39-13.07-.95,8.6-2.41,16.41-2,24.87l.45,9.25.89,11.58c1.32,17.14,3.75,33.43,8.09,50.14l5.94,19.31c.04.13.47.64.63.85l.84,4.08-1.66-3.56-.33-.45h.01Z"/>
  <path d="M445.34,239.48l-2.06-.96c-.56-.26.08-1.38.56-2.16l-1.76-3.24.42,4.27c-3.85-1.21-1.13-4.32-1.46-5.72-.13-.53-1.05-1.76-1.36-2.21-1.68-2.45,9-5.64,12.57-3.32l14.07,9.15c.23.15,1.98.15,2.29.17s.45,1.26.14,1.31l-2.08.34-9.39,1.49c-3.49.56-7.07-.05-10.79-.86-.52.31-1.67,1.05-.99.68l.73.81c1.61-.24,3.46-.19,5.19,1.36l-5.64-.73-.44-.4v.02h0ZM443.48,227v.77h8.11v-.77h-8.11ZM460.98,235.84l-4.6-3.37c-2.89-2.95-8.47-4.93-12.35-2.5-1.07.67-.33,3.89.46,4.81s3.12,2.31,4.4,2.19l12.09-1.13h0Z"/>
  <path d="M60.28,162.18c4.32-8.07,9.44-15.07,15.18-21.95,1.6-1.91,3.88-3.86,5.86-4.95-5.26,6.2-9.92,11.45-13.99,17.68-1.91,3.33-3.54,6.84-7.05,9.22Z"/>
  <path d="M218.06,237.62c11.27,9.23,22.45,20.88,35.16,11.78-6.26,8.75-18.38,3.53-27.5-3.97-2.94-2.42-5.86-4.71-7.66-7.81Z"/>
  <path d="M383.63,574.43c-.24-3.35,1.61-4.57,3.9-5.45,4.99-1.92,8.6-5.97,14.74-5.75l-18.64,11.2Z"/>
  <path d="M221.41,27.74l-12.13-.63,11.41-3.49c9.24-2.82,18.45-4.71,28.22-5.88l-35.01,8.79,7.52.48v.74h-.01Z"/>
  <rect x="488.72" y="87.43" width="1.09" height="19.12" transform="translate(74.72 374.37) rotate(-45)"/>
  <rect x="107.19" y="510.56" width="1.09" height="18.58" transform="translate(-336.04 228.44) rotate(-45)"/>
  <path d="M526.45,128.25c-4.08-2.62-8.15-5.15-11.97-8.8,4.76,2.38,8.62,5.28,12.54,8.11l.51.32,13.44,11.21-.27,1.26-13.81-11.76-.44-.34h0Z"/>
  <path d="M184.26,237.94c-1.09-3.09-1.27-6.5-1.29-10.16.02-4.48.11-8.58,1.34-12.51-.45,7.9-.53,14.81-.05,22.67Z"/>
  <polygon points="45.4 434.56 36.09 420.7 36.91 420 46.57 434.53 45.4 434.56"/>
  <path d="M119.88,531.54c-.99-.98-3.05-2.51-3.84-4.13l4.4,3.26.82.81,13.11,8.66-.56.9-13.23-8.8-.7-.68v-.02h0Z"/>
  <rect x="57.01" y="115.71" width="42.24" height="1.79" transform="translate(-61.23 99.88) rotate(-49.33)"/>
  <rect x="407.43" y="42.83" width="1.38" height="15.03" transform="translate(180.55 392.85) rotate(-63.43)"/>
  <path d="M99.88,493.73c-2-1.42-3.98-3.26-5.56-5.79l6.09,5.06.67.46,5.54,5.04.52.47,5.9,4.01.45.26,5.41,3.55c-4.26.87-6.85.42-10-.34l-.51-.14-9.6-3.57-.44-.43-3.55-2.5c1.77.52,3.21,1.17,4.07,1.7.13.08.26.29.43.53l9.61,3.59.41.33,6.05-.11-2.9-1.66-.38-.23-5.55-4.4-.57-.45-5.56-5.01-.5-.36h-.03,0Z"/>
  <rect x="87.89" y="476.2" width="1.09" height="13.11" transform="translate(-315.46 203.93) rotate(-45)"/>
  <rect x="487.62" y="499.41" width="12.57" height="1.09" transform="translate(-208.86 495.67) rotate(-45)"/>
  <path d="M407.24,363.17l4.73,5.84c-3.27-2.05-5.47-4.34-8.07-7.27l2.24-.43c.52-.1.77.67,1.09,1.86h.01Z"/>
  <rect x="98.66" y="87.17" width="9.29" height="1.09" transform="translate(-31.77 98.74) rotate(-45)"/>
  <polygon points="401.38 574.59 382.15 579.62 381.61 578.81 401.63 573.67 401.38 574.59"/>
  <path d="M170.23,558.74l-8.9-4.06c3.63.69,6.56,2,9.43,3.31l.43.35,3.43,1.54c-.99-.1-2.85-.5-3.88-.81-.12-.04-.18-.16-.51-.33h0Z"/>
  <path d="M265.31,339.16l-7.76-3.84-.05-1.1,8.34,4.18.47.43,3.54,2.49c-1.76-.51-3.33-.99-4.08-1.71l-.45-.44h-.01Z"/>
  <rect x="518.81" y="469.92" width="8.81" height="1.38" transform="translate(-131.73 728.07) rotate(-63.43)"/>
  <rect x="94.46" y="503.27" width="1.09" height="7.65" transform="translate(-330.74 215.7) rotate(-45)"/>
  <rect x="92.03" y="95.68" width="7.1" height="1.09" transform="translate(-40.05 95.77) rotate(-45)"/>
  <rect x="63.93" y="454.98" width="1.09" height="7.65" transform="translate(-305.54 179.97) rotate(-45)"/>
  <rect x="477.71" y="82.93" width="1.09" height="7.65" transform="translate(78.74 363.58) rotate(-45)"/>
  <rect x="422.11" y="54.54" width="1.38" height="7.08" transform="translate(181.74 410.24) rotate(-63.43)"/>
  <rect x="210.37" y="469.05" width="1.09" height="6.56" transform="translate(-272.21 287.48) rotate(-45)"/>
  <rect x="109.11" y="100.5" width="6.56" height="1.09" transform="translate(-38.53 109.06) rotate(-45)"/>
  <rect x="107.59" y="356.78" width="1.09" height="5.46" transform="translate(-222.54 181.76) rotate(-45)"/>
  <rect x="140.36" y="541.81" width="1.38" height="5.7" transform="translate(-409.18 427.19) rotate(-63.43)"/>
  <polygon points="115.73 97.39 129.46 86.44 130.58 86.72 116.4 98.13 115.73 97.39"/>
  <rect x="87.5" y="498.18" width="1.09" height="5.46" transform="translate(-328.41 208.97) rotate(-45)"/>
  <rect x="154.72" y="549.35" width="1.38" height="5.01" transform="translate(-407.67 444.02) rotate(-63.43)"/>
  <path d="M481.54,98.91c-1.18-.9-2.33-2.01-3.19-3.47l3.87,2.76.46.33,2.68,2.58c-1.26-.52-2.37-1.09-2.97-1.55l-.86-.66h0Z"/>
  <path d="M194.2,250.26c-.15.25-2.51-.75-2.32-1.44l.75-2.67,1.57,4.1h0Z"/>
  <rect x="123.36" y="376.8" width="1.19" height="4.11" transform="translate(-177.24 117.75) rotate(-30.96)"/>
  <path d="M88.71,494.99c-1.69.11-3.27-1.67-2.69-2.97l2.69,2.97Z"/>
  <rect x="142.79" y="76.13" width="4.11" height="1.19" transform="translate(-18.84 85.45) rotate(-30.96)"/>
  <path d="M440.46,67.75c-1.72-.21-2.99-.93-4.01-2.16,1.72.2,3,.92,4.01,2.16Z"/>
  <path d="M431.96,63.11c-1.72-.21-2.99-.93-4.01-2.16,1.72.2,3,.92,4.01,2.16Z"/>
  <path d="M331,231.8l-2.77-2.29c1.42-.27,2.48.48,2.77,2.29Z"/>
  <path d="M477.03,95.04l-2.77-2.29c1.42-.27,2.48.48,2.77,2.29Z"/>
  <path d="M469.96,89.65l-2.68-2.58c1.28.54,2.33,1.08,2.98,1.57l.83.63,2.68,2.58c-1.28-.54-2.33-1.08-2.98-1.57l-.83-.62h0Z"/>
  <path d="M144.78,406.43l-2.77-2.29c1.42-.27,2.48.48,2.77,2.29Z"/>
  <path d="M118.24,369.64c-1,.15-2.36-1.32-2.18-2.89l2.18,2.89Z"/>
  <path d="M273.05,344.61l-2.77-2.29c1.42-.27,2.48.48,2.77,2.29Z"/>
  <path d="M135.62,82.88l-1.56,1.92c-.15.19-1.26-.11-1.11-.3l1.38-1.77c.51.06,2.01.24,1.28.16h0Z"/>
  <path d="M470.08,80.36l-2.77-2.29c1.42-.27,2.48.48,2.77,2.29Z"/>
  <path d="M473.94,83.45l-2.77-2.29c1.42-.27,2.48.48,2.77,2.29Z"/>
  <path d="M453.97,549.58l-1.56,1.92c-.15.19-1.26-.1-1.11-.3l1.39-1.77c.51.06,2,.25,1.28.16h0Z"/>
  <polygon points="192.52 255.63 192.31 251.33 192.97 250.91 193.18 255.2 192.52 255.63"/>
  <path d="M84.24,490.18c-1,.15-2.36-1.32-2.18-2.89l2.18,2.89Z"/>
  <path d="M92.24,498.38l-2.77-2.29c1.42-.27,2.48.48,2.77,2.29Z"/>
  <rect x="517.41" y="433.3" width="25.05" height="1.38" transform="translate(-95.25 713.83) rotate(-63.43)"/>
  <polygon points="510.49 467.62 522.61 447.16 523.41 447.81 511.47 467.77 510.49 467.62"/>
  <path d="M531.05,171.32c-.68-.85-1.56-2.73-1.6-3.86l2.33,3.37.36.55,2.65,4.91.43.43c1.51,2.54,3.01,5.35,4.01,8.75-2.06-2.72-3.38-5.43-4.7-8.24-.26-.26-.37-.33-.44-.46l-2.65-4.91-.38-.53h-.01Z"/>
  <rect x="434.78" y="71.81" width="1.38" height="9.16" transform="translate(172.37 431.7) rotate(-63.43)"/>
  <rect x="541.64" y="186.35" width="1.38" height="9.16" transform="translate(-28.13 262.75) rotate(-26.57)"/>
  <path d="M516.35,145.83c-.66-.87-1.52-2.73-1.59-3.87l2.33,3.38.29.51,1.96,3.4.34.48,1.98,3.38.41.54c.87,1.14,1.98,3.4,2.44,5.53l-3.17-5.09-.33-.48-1.96-3.38-.35-.49-1.96-3.37-.4-.53h.01Z"/>
  <polygon points="494.63 131.27 493.79 126.39 496.02 130.88 494.63 131.27"/>
  <path d="M444.49,81.96l-3.56-2.51c1.81.54,3.18,1.13,4.1,1.71l.55.34,3.52,2.51c-1.77-.5-3.32-1.01-4.07-1.72l-.55-.34h.01Z"/>
  <rect x="525.95" y="160.46" width="1.19" height="4.11" transform="translate(-8.58 294.03) rotate(-30.96)"/>
  <path d="M466.22,96.58l-2.77-2.29c1.42-.27,2.48.48,2.77,2.29Z"/>
  <path d="M470.08,99.67l-2.77-2.29c1.42-.27,2.48.48,2.77,2.29Z"/>
  <path d="M53.54,400.88c-.76-1.18-1.46-2.68-1.62-3.94l2.32,3.38.43.43,9.65,14.96.25.55,8.05,12.02-.45,1.21-8.38-12.59-.25-.56-9.67-14.95-.33-.51h0Z"/>
  <path d="M122.62,495.12l-6.47-6.43-5.12-6.52c2.56,1.25,3.87,3.58,5.92,5.73l5.45,5.69.22,1.54h0Z"/>
  <path d="M78.27,438.78l-4.1-6.94c2.23,1.91,3.47,3.89,4.71,6.07l.43.73,7.24,10.12.48.68,3.36,4.78.47.67,1.81,2.39.57.75,3.3,4.63.52.73,1.79,2.42.51.69,2.59,3.11.57.68,7.91,9.82-.41,1.16-8.07-10.1-.51-.71-2.51-3.19-.53-.67-1.86-2.43-.54-.72-3.29-4.64-.52-.73-1.8-2.42-.49-.66-3.45-4.72-.48-.65-7.27-10.13-.41-.72h-.02Z"/>
  <rect x="74.11" y="299.05" width="6.57" height="1.38" transform="translate(-225.31 234.89) rotate(-63.43)"/>
  <path d="M117.74,387.88l-2.77-2.29c1.42-.27,2.48.48,2.77,2.29Z"/>
  <rect x="174.14" y="454.21" width="1.33" height="4.64" transform="translate(-209.95 154.97) rotate(-30.96)"/>
</svg>