<?xml version="1.0" encoding="UTF-8"?>
<svg id="Layer_1" xmlns="http://www.w3.org/2000/svg" version="1.1" viewBox="0 0 768.56 290.89">
  <!-- Generator: Adobe Illustrator 30.3.0, SVG Export Plug-In . SVG Version: 2.1.3 Build 182)  -->
  <path d="M513.87,211.9l.22,2.89c-2.88.18-5.61,1.76-7.53,4.23l7.61-3.33.04.55c-4.32,1.96-8.75,6.23-12.16,8.75-.96.12-2.64.63-2.57,2.17,3.83-.26,7.48-.37,10.96.82,4.3,1.47,5.37,6.41,3.73,10.49l1.75-.97.18,2.23c-1.83.89-3.45,2.12-4.18,4.83l4.29-3.26.22,2.61c-2.5,1.74-5.15,3.16-8.25,4.37-6.54,7.57-15.23,12.57-25.47,13.81-4.74,10.27-12.28,17.43-23.89,17.96-2.59.12-5.13-.62-7.67-1.53-5.89,3.65-12.35,6.43-19.49,6.7l-9.49-.89c-10.81,4.89-21.19,8.69-31.13,1.31-10.46.84-20-.4-28.31-6.53-9.8,2.01-19.76.32-28.45-4.44-9.93,2.85-19.68-2.42-25.85-10.56-6.49.34-13.39-1.15-17.67-5.96l-5.33-5.98c-.91-1.02-2.3-3.19-3.81-3.31-8.34-.68-16.18-3.96-21.12-10.95l-4.78-8.9c-6.42-4.09-11.55-9.35-15.31-16.06-11.24-3.38-20.56-14.71-23.66-26.22-6.87-4.94-13.72-11.47-17.65-19.09-9.95-3.33-17.11-11.29-20.61-21.12-7.73-3.05-14.03-7.76-18.55-14.63-7.21-1.77-12.96-5.81-18.06-10.95-3.12-3.15-5.52-6.63-6.55-11.06-3.78-1.22-7.06-3.27-9.91-5.75-1.13,2.35-2.69,4.06-5.04,4.89l-.19-2.82c-3.5-2.25-.63-8.18-5.01-7.95l-6.8.36c-.61.03-2.09.6-2.51.24-1.95-1.69-2.66-8.65-7.61-13.41l-7.32-1.91-7.82-1c-.85,4.99.02,10.29.68,15.5l.97,7.72c.12.96-.45,3.01-.08,3.94l1.86,4.71c-.5.38-1.54.92-1.71.58l-.68-1.36c-.76-1.51-1.28-2.52-2.82-2.52-.99-1.27-2.37-3.81-3.67-4.91-1.98-1.68-3.07-2.92-4.63-4.99l-13.96-18.58-2.8-1.11c-8.08-9.69-15.49-19.31-22.64-29.71-9.71-13.22-15.21-27.43-23.77-41.01l-2.9-.68c.71-1.3,1.01-2.04,1.51-3.67.95,1.56,2.3,2.46,4.1,2.87l14.34,3.25c4.87,1.1,9.39,1.96,14.4,2.5,10.95,1.18,21.35,4.03,31.89,7.21,8.46,2.55,16.58,5.04,24.49,8.85,1.48.71,2.98,1.99,4.57,2.47l21.32,6.48,8.56,3.52c.27.11.63,1.42.35,1.51l-1.06.35c-.76.25-2.34,1.06-3.07,1.44l-11.45,2.12-11.58,2.87c.71,5.82.63,10.85,4.75,14.94,4.22,2.15,8.88,3.18,14.04,1.92,3.18,3.54,3.01,8.06,6.12,10.39,1.94-.27,2.7-.06,4.51.8l1.8-2.19c.19-.23.95-.76,1.08-.51s.38.98.31,1.25l-.7,2.93c.63-.48,2.46-1.22,2.6-.65-.11,1.05-.66,2.41-1.05,3.23,3.81,3.23,7.52,6.61,9.64,11.49,6.34.41,11.65,3.4,16.77,7.23,2.94,2.2,4.56,5.75,7.08,8,3.4,3.03,7.59,5.13,10.74,8.66,2.38,2.67,4.62,5.1,6.36,8.32.82,1.51,2.13,2.3,3.84,2.68,11.76,2.67,23.23,11.65,22.6,24.1l6.46,3.65c4.81,2.72,7.94,7.61,10.59,12.51,11.22,1.77,18.31,10.95,20.73,21.98,4.35,1.35,7.83,3.66,10.47,7.21l8.2,11.01c11.5,1.2,20.61,8.92,22.97,20.01,6.35,2.4,11.94,5.65,17.22,9.82,7.56.25,14.56,2.75,20.89,7.02,10.94-4.91,26.43.54,33.82,9.84,9.18-1.73,18.04.51,25.89,5.4,9.69-6.99,21.38-6.12,32.02-1.76,6.16-2.47,11.91-3.79,18.37-3.41,2.85-4.24,7.18-6.41,11.43-8.99,5.03-3.06,10.18-5.26,16.37-5.38,3.45-4.28,7.77-6.84,12.54-9.17l9.66-4.73c2.61-9.5,10.92-16.19,20.39-17.53l.02-.05h0ZM17.01,12.31l-3.41-.58c1.16.82,2.38,1.01,3.41.58ZM20.5,16.81c-.27-2.72-2.33-3.16-4.27-2.65l4.27,2.65ZM55.94,23.95c-3.81-1.57-7.57-2.46-11.6-3.52-7.6-2.1-14.81-4.14-22.73-5.79,1.73,2.15,3.84,4.03,5.78,4.92l6.24.72,22.31,3.66h0ZM23.42,23.62l5.54,2.25-3.27-2.87-6.89-5.19c2.68,4.42,5.28,8.29,8.34,12.53.34-1.47,0-3.19-.68-3.82l-3.04-2.9ZM49.32,30.68c2.74-2.72,4.15-.92,6.45-1.35l-17.04-5.86c-2.37-.81-4.41-1.61-7.35-1.43l16.37,11.53,8.92.93-7.36-3.82h.01ZM89.63,29.44c-10.42-3.95-21.08-7.35-32.55-9.62,5.8,3.02,11.93,4.83,18.13,6.74l14.43,2.88s-.01,0-.01,0ZM32.07,28.01l.12-.82-2.25-1.7-.12.82,2.25,1.7ZM95.07,37.74c-9.59-3.62-18.92-7.47-28.85-10.14-6.17-1.66-12.31-2.1-18.76-3.02,3.86,1.68,7.7,2.6,11.76,3.89l18.25,5.8c8.05,2.56,15.72,5.26,24.39,6.04l-6.79-2.56h0ZM28.88,27.55l-.85.61,1.72,2.4.85-.61s-1.72-2.4-1.72-2.4ZM36.88,37.66l-2.38-4.87c-.09,1.93.62,3.69,2.38,4.87ZM62.83,32.35l.97-.48-5.38-1.11-.3.57,4.71,1.02ZM40.4,35.55l-3.54-1.79c2.19,4.86,4.3,8.97,7.46,12.99l-3.92-11.2h0ZM61.02,33.11c-.67-.33-2.08-.36-2.82-.35l2.54.94.29-.59h-.01ZM35.38,39.95c-.88-1.65-2.14-3.23-3.62-4.75.47,2.01,1.72,3.59,3.62,4.75ZM61.41,33.31l-.31.63c1.29.4,2.82.75,4.64.78l-4.33-1.4h0ZM58.57,44.92l-14.64-9.6c4.41,4.31,9.41,7.31,14.41,10.24l.24-.64s-.01,0,0,0ZM80.95,45.72l-11.11-3.37c-.51-.16-1.12-1.52-.76-1.72.27-.15,1.25-.57,1.62-.55l9.05.59c4.95.32,9.25,2.12,14.06,2.32-5.31-2.49-10.73-2.54-16.11-3.51l-11.55-2.08-15.6-1.93c4.52,3.31,9.03,5.88,13.82,8.76l14.09,8.49c1-4.03,8.37.72,14.95.36l-18.47-5.55c-.36-.29-1.39-1.6-.92-1.72l1.8-.47,5.14.37h-.01,0ZM92.94,34.41l-2.89-.33,2.55.97.34-.64h0ZM50.65,43.77l-.04-1.23-6.76-4.48c.1,1.55,1.12,3.16,2.77,3.13l4.03,2.58h0ZM30.15,42.32l-1.84-2.3c.11.82.8,2.11,1.36,2.69l.48-.39ZM93.26,34.68l-.1.62,12.46,4.5c.47.17,1.22,1.13,1.32,1.58s-1.19.94-1.64.91l-5.39-.33-.13,1.7c-.02.29-1.36.29-1.66.26l-3.6-.37,3.21,5.61,2.55,4.46,1.02-4.36c1.24-.62,2.03-1.73,2.54-3.11l14.14-3.5-24.72-7.97h0ZM30.33,42.69l-.45.41c6.97,10.57,14.07,21.07,22.66,30.84-1.81-3.9-4.21-7.07-6.65-10.49l-15.55-20.76s-.01,0-.01,0ZM91.73,44.49l-16.29-2.85-.36.64,19.66,5.03c.13-1.77-1.22-2.51-3.01-2.82h0ZM55.28,49.04l-5.7-3.56c4.99,8.42,9.63,16,15.56,23.54l-9.86-19.97h0ZM59.05,45.28l-.25.82,2.38.84-2.13-1.65h0ZM128.39,43.89l-9.46-3.42,5.76,4.04,3.7-.62h0ZM64.27,61.5l.83-.15-6.05-11.06-.58.5,5.81,10.71h0ZM86.88,58.11l2.9,1.65,14.09,5.99c-4.47-5.46-4.35-10.71-7.96-16.2l-12.04-1.09,9.09,2.86c1.64.51,2.85,1.34,4.53,2.76-1.91.62-3.26.82-5.28,1.11l6.85,2.54c.48.18-.4,2.07-.84,1.99l-10.97-1.88-.36.27h-.01ZM50.26,54.5c-.12-1.58-.41-2.13-1.02-2.78.2,1.09.54,1.94,1.02,2.78ZM66.78,55.8l-3.14-1.99,2.56,5.16s.58-3.17.58-3.17ZM86.93,57.24l4.12-.7-9.06-2.57,2.8,2.07,1.93,1.5.21-.3h0ZM47.94,60.26c-.12-1.58-.41-2.13-1.02-2.78.2,1.09.54,1.94,1.02,2.78ZM73.9,63.61c-.9-3.34-3.47-5.25-6.08-6.5l6.08,6.5ZM107.54,79.62l6.39,8.49c3.04-3.51,3.77-8.16,2.61-12.65-.27-1.05-2.57-1.65-3.59-1.49l-2.75-1.47c-.26.75-.54,1.68-.88,1.56l-1.38-.49-6.24-3.5-14.2-8.22c-3.43-1.99-6.93-3.4-10.73-5.1l6.01,5.21c3.26,2.82,7.03,5.09,9.68,8.58,1.25,1.65,2.82,3.16,4.25,4.66l.8.84c.13.14.25.16.31-.03l.55-1.75,5.46,6.07-1.92-4.34c2.12-.28,2.11,2.93,5.64,3.61v.02h-.01ZM77.16,62.29l.12-.82-2.25-1.7-.12.82,2.25,1.7ZM68.23,86.5c-4.36-7.69-9.09-14.44-14.54-21.25,1.46,3.87,3.32,7.15,5.3,10.66,2.98,3.69,5.65,7.24,9.24,10.59h0ZM74.87,78.39c1.96-3.73-.1-6.49-2-9.05l2,9.05ZM81.09,71.44c.52,2.38,1.13,3.12.3,4.78l-5.6-6.52,4.31,9.87,5.64-2.32-4.65-5.81h0ZM94.04,77.72c-2.59-2.83-5.18-5.31-8.37-7.76,2.05,3.23,4.57,5.98,8.37,7.76ZM87.85,75.15l-3.11-2.55,1.04,3.48c.58-.64.77-.92,1.03-.92h1.04ZM122.93,71.92l-6.07-.38,6.41,2.4-.34-2.02h0ZM70.59,79.3l-.85.51,2.5,4.15.85-.51-2.5-4.15ZM78.72,86.78v-6.71c0-.86-2.85-1.31-2.9-.7l1.47,2.25c-.28,1.87.34,3.29,1.43,5.15h0ZM84.35,79.9l7.75.02c-.66-.8-1.53-1.83-2.04-1.63l-2.07.8c-.97.37-3.31-.45-3.64.81h0ZM118.97,80l1.19-2.17c.13-.24-.05-.35-.91-1.1l-.28,3.27ZM125.39,80.11l-1.63-3.81c-.66,2.48-.89,4.03-1.04,6.64,1.16-.26,3.02-2.03,2.68-2.83h0ZM80.05,80.87l-.16,2.59,1.25.08.16-2.59-1.25-.08ZM102.59,80.26l-.7.5,1.72,2.4.7-.5-1.72-2.4ZM72.36,85.47l-.7.5,1.72,2.4.7-.5-1.72-2.4ZM77.92,92.45l-.82-5.97-.95.39c-.17.07-.18,1.04-.09,1.24,0,0,1.86,4.34,1.86,4.34ZM112.64,88.8l-3.57-4.21,2.17,5.9,1.4-1.69h0ZM122.04,93.16c1.66-2.81,2.27-5.44,2.24-8.53-2.52,2.16-2.97,5.25-2.24,8.53ZM75.07,93.4c-.16-1.28-1-2.28-2.26-2.85.48,1.08,1.13,1.93,2.26,2.85ZM131.3,86.13l-2.1-.07-1.1,4.72,3.2-4.65h0ZM116.73,92.34v-3.09c-.65.5-1.67,1.24-1.42,1.52l1.42,1.57h0ZM136.53,98.08c1.61-1.66,3.63-2.29,5.94-3.3l-6.68-6.19-7.98,12.49,7.39,4.59c-.15-2.65-.62-5.58,1.34-7.6h-.01ZM78.18,95.67l-4.53-.51,7.33,9.71-2.8-9.19h0ZM115.93,94.88l-.07-1.13-1.68-2.25-.69.66s2.44,2.72,2.44,2.72ZM141.82,97.4c-2.47-.05-4.2,1.68-4.71,3.53l4.71-3.53ZM152.65,99.31l-.37.92,3.11,1.26.37-.92-3.11-1.26ZM144.5,106.05c1.33-1.51,1.34-3.87.86-5.14-1.78.19-3.65.53-4.41,1.35-.68.73-1.05,2.75-.99,4.11.96.46,3.81.51,4.54-.32h0ZM147.71,103.92l.88-1.93c.14-.3-1.18-.93-1.2-.68l.32,2.61h0ZM155.03,112.94l1.62,4.89c1.79-2.37,3.6-3.87,6.17-4.94,4.69-1.95-5.23-10.13-12.09-11.55.08,1.9.36,4.53-.16,5.75-1.69,4.01-5.78,4.31-9.92,4.07,2.83,6.54,9.32,10.79,15.48,13.2l-1.1-11.42h0ZM169.88,110.21c-2.61-3.7-5.61-6.51-9.15-8.24l5.76,7.13,1.45,1.63c.29.32,1.78-.31,1.94-.52h0ZM148.94,107.13l-.37-.92-3.51,2.7.46.47,3.42-2.26h0ZM171.27,114.46l-.77-2.03c-.17-.46-1.91.11-2.04.5l2.8,1.53h0ZM180.47,119.63c-2.32-3.05-4.41-4.33-7.12-5.94.15,1.22.84,2.18,1.74,2.73l5.37,3.22h0ZM143.75,119.2l-1.73-1.95c-.03,1.14,1.02,2.11,1.73,1.95ZM165.71,115.49l-3.09.42c-.55,2.69-.58,5.23.04,7.76,3.13-2.16,3.39-5.09,3.06-8.18h0ZM159.7,124.5l-1.51-7.45c-1.21,2.22-.9,5.05-.21,7.5l1.73-.06h0ZM165.9,128.76c3.59-3.91,3.84-8.39,2.22-12.75-.89,4.18-1.31,7.17-4.77,9.34l2.55,3.41ZM171.93,117.81l-1.44-.53c-.62-.23,1.4,5.05-1.05,10.11,2.77-2.32,3.53-6.19,2.49-9.58ZM147.23,122.39l-2.1-1.98c-.34.97.89,2.15,2.1,1.98ZM185.26,129.49l-4.16-4.93c-1.95-2.31-4.4-4.23-7.15-5.51.57,5.55-1.67,10.28-7.02,11.44,2.92,3.68,6.02,6.83,10.3,9.47.28-5.09,3.07-9.15,8.03-10.47h0ZM149.95,124.61c-.31-1.28-1.11-1.76-2.12-1.48l2.12,1.48ZM152.38,125.18l-.37.92,3.8,1.53.37-.92-3.8-1.53ZM188.44,129.12l-2.1-1.98c-.34.97.89,2.15,2.1,1.98ZM163.18,131.57l-1.27.54c2.15,2.41,4.13,4.74,6.79,6.39l-5.51-6.93h0ZM183.35,137.33c-.25-1.39-.44-2.37.14-2.6l2.83-1.15c1.33.18.76-.93-.13-1.02-4.57.93-6.63,5.51-5.05,9.52,1.95-.02,3.84-.09,5.55-.55,2.13-.58,3.12-4.44,1.48-5.87-1.57-1.37-4.09.27-4.81,1.68h0ZM193.59,133.25l-.47.94,2.13,1.06.47-.94-2.13-1.06ZM214.36,153.23c-.32-6.79-3.9-11.49-8.51-15.32l-6.42-3.52c5.64,4.67,9.83,9.72,12.28,16.66.46,1.15,1.56,2.28,2.65,2.18h0ZM189.36,146.89c.7.11,2.87-.34,3.75-.98,2.26-1.64,1.38-7.42-1.08-10.48.25,5.18,1.92,9.15-2.67,11.46h0ZM192.4,159.48l4.88,2.64c-.83-3.68-1.34-7.34,1.36-9.89,2.63-2.49,6.53-2.07,10.15-1.2-3.1-6.37-7.59-11.94-13.96-14.64.76,2.49,1.49,5.08,1.21,7.45-.37,3.14-3.54,4.91-6.47,4.69l-6.36-.47c2.5,4.35,5,8.36,9.2,11.41h0ZM174.35,140.09l-.51.6,3.89,3.31.51-.6-3.89-3.31ZM185.89,143.66c1.76.54,3.79.12,4.33-.88.4-.75.41-2.64.2-3.17-1.01,2.47-2.45,3.46-4.53,4.06h0ZM188.03,145.85l-6.83-2.02c1.13,2.74,4.66,2.48,6.83,2.02ZM204.3,155.68c1.48-.96,3.92-.63,5.82-.4.36-3.61-8.04-4.33-10.55-1.67-2.51,2.66-.5,9.47.06,9.5l1.56.1c-.05-2.76.31-5.72,3.11-7.53h0ZM207.93,156.89c-2.14-.61-3.62.62-4.41,2.36-.64,1.4-1.1,3.67.32,4.69.11-3.56.73-6.23,4.09-7.05ZM210.98,159.14l-1.46-.96c-3.01.58-4.46,2.55-3.68,5.58.47.24,2.83.04,3.33-.66.57-.8.9-1.77,1.81-3.95h0ZM191.03,160.48l-.51.6,2.39,2.04.51-.6-2.39-2.04ZM228.98,172.18c-2.45-4.3-5.46-7.59-9.28-10.42l-.2,3.06c-.94-2.92-1.74-5.03-4.2-6.01-1.12,4.83-4.23,7.33-8.84,8.65,1.66,5.8,4.91,10.96,10.25,14.15.03-3.81,2.13-7.05,5.83-7.92l6.44-1.51h0ZM194.41,163.05l-.37.92,3.8,1.53.37-.92-3.8-1.53ZM204.23,168.04c-.02,2.54,1.26,5.44,3.55,7.54l-3.55-7.54ZM241.52,179.05l7.8,6.63c-2.59-6.49-8.19-11.84-15.51-13.18.09.76.76,1.97,1.35,2.36l6.37,4.2h0ZM221.91,183.74c.37-4.1.65-6.18,1.82-8.76-3.8,1.08-5.96,4.11-5.03,7.78l3.21.98ZM230.91,175.87c-1.27-1.09-3.11-1.5-4.17-.95-.88.46-1.95,2.15-2.32,3.22l6.49-2.27h0ZM231.39,178.1c-4.24-.46-6.74,2.01-7.29,5.98,1.66.26,3.75,0,5.28-1.17,1.12-.86,1.91-2.94,2.02-4.81h0ZM237.96,203.34c-.59-4.07,2.18-5.64,5.34-6.94l4.97-3.95c-2.36-5.95-6.92-11.04-12.8-13.52.79,3.4,1.49,7.4-.89,10.08-2.25,2.54-5.67,2.3-9.06,1.39l3.23,5.99c1.94,3.59,5.22,5.54,9.21,6.95ZM231.2,188.87c4.07-.93,3.85-5.41,2.96-8.19-.09,3.22-1.05,5.7-2.96,8.19ZM224.15,186.12c1.52,1.43,3.43,1.47,5.23.84,1.25-.44,2.52-2.14,2.56-3.79-2.22,2.25-4.45,2.58-7.79,2.95ZM222.11,186.08c-.79-.83-1.75-1.27-2.99-1.32.8.82,1.75,1.26,2.99,1.32ZM229.95,203.44c-1.54-1.22-3.34-2.92-4.05-4.8l-3.52-9.28-3.58-1.76c3.19,10.3,10.44,18.96,20.53,23.43.64-2.59-1.12-3.49-2.84-4.86l-7.1-5.63.56,2.89h0ZM249.8,196.01c-.84-1.68-1.13-2.04-1.39-1.81l-1.7,1.48,3.09.33h0ZM260.05,198.18c-1.97-1.82-3.09-2.54-5.81-3.95l.2,2.63,5.62,1.33h-.01ZM243.59,204.37l-.52-6.23c-1.8,1.8-2.62,3.61-2.99,5.79l3.51.45h0ZM250.79,198.86l-5.73-1,.08,6.14c3.04-.28,5.17-1.18,5.64-5.14h.01ZM256.48,198.94l13.13,11.72c-2.96-5.06-8.14-10.33-13.13-11.72ZM266.86,211.09c-3.88-4.81-8.09-8.87-13.33-11.08-.51,4.84-1.95,8.27-5.31,11.4,2.43,3.79,4.83,6.76,8.24,9.86,3.24-5.1,2.46-8.01,10.4-10.18ZM250.36,205.31s-.79-1.02-.65-.85l-4.26,1.81c1.85,2.04,3.19,1.12,4.91-.97h0ZM244.54,207.21c-1.11-2.07-3.02-1.7-4.2-1.01l4.2,1.01ZM246.01,210.23c-1.43-1.01-2.45-1.28-4.26-1.63l1.34,2.39c.31.55,2.62-.06,2.92-.77h0ZM255.95,223.84l-9.31-11.6-2.49.66c3.33,4.52,6.7,8.88,11.8,10.93h0ZM267.69,213.34c-2.69-.14-5.92.89-6.74,3.87l6.74-3.87ZM292.82,230.52c-1.16-7.47-11.79-16.88-18.24-15.44,2.87,2.26,5.9,3.03,8.67,4.65,4.39,2.56,6.79,6.96,9.57,10.8h0ZM261.79,218.54c-1.78.65-2.82,2.53-2.41,3.87.29.93,1.83,2.06,2.83,2.46l-.42-6.33h0ZM269.01,226.81c2.14-3.16,1.68-6.3.48-9.01l-5.87.81c-.08,2.33.04,4.65.64,6.93,1.35.56,3.53,1.15,4.75,1.27h0ZM272.41,217.96c.28,3.77.14,6.3-.58,9.29,1.56-.3,3.21-.89,3.65-1.7,1.16-2.12-.21-8.05-3.07-7.59ZM277.13,242.52c-1.45-4.81-.87-8.68,2.52-11.57,3.12-1.48,6.33-1.46,10.06-1.16l-5.28-6.67c-1.77-2.24-5.17-3.25-7.83-4.25.48,2.2,1.18,4.45.82,6.13-.69,3.2-4.2,4.24-6.94,3.67l-4.18,2.05c2.64,4.74,6.17,8.94,10.83,11.81h0ZM255.06,226.52c-.31-1.28-1.11-1.76-2.12-1.48l2.12,1.48ZM263.35,228.8l-4.59-1.09c1.18,1.44,2.83,1.68,4.59,1.09ZM264.25,230.98l-4.77-.38c2.65,4.51,6.59,7.74,11.64,9.64l-6.87-9.25h0ZM282.85,235.1c2.18-2,5.36-1.99,8.3-2.92-3.19-1.11-7-1.42-10.2.06-3.7,1.72-4.31,9.87.23,11.62.12-2.89-.84-6.46,1.67-8.77h0ZM498.6,225.39l9.44-10.35c-5.6,2.69-10.96,7.99-12.33,13.3,2.18-.17,1.91-1.88,2.89-2.95h0ZM291.58,242.64c1.86-2.3,1.25-5.58.47-7.55l-4.88.94c-.51-1.83-2.13-.3-2.53.39-.34.6-.75,2.59-.5,3.26l1.64,4.29c1.88.38,4.62.13,5.8-1.33h0ZM276.7,244.64l-13.42-6.27c4.1,5.51,10.44,7.92,16.75,8.67-.86-1.33-2.03-1.79-3.33-2.4h0ZM304.62,257.58c-3.36-6.41-3.27-12.5,3.05-15.8-3.23-3.35-7.09-5.02-11.55-6.17.9,3.82-.04,6.31-2.55,8.39l-4.94,4.09c3.94,4.41,9.82,8.74,15.99,9.48h0ZM308.63,244c-1.68.04-3.43,1.55-3.68,3.51l3.68-3.51ZM510.48,240.58c3.13-1.28,3.69-7.14,1.37-9.69-1.18-1.29-3.46-2.06-5.5-2.27,1.99,1.59,2.17,3.37,2.72,5.77l1.42,6.19h0ZM327.45,269.07c-2.3-3.27-3.96-5.77-4.26-9.06-.35-3.66,1.78-6.06,5.46-6.24l2.28-4.33c-5.1-2.92-10.17-4.65-15.67-4.87,2.84,3.41,4.58,6.78,4.56,10.86,0,2.32-1.34,4.35-3.95,4.45-1.34.5-2.44,1.12-3.74,2.36,4.68,3.25,9.33,6.19,15.31,6.84h.01ZM307.28,257.3c3.46-.77,4.69-2.03,6.06-4.44-.3-2.73-1.07-5.04-2.46-7.53-5.23,1.91-5.13,6.33-3.6,11.97ZM507.07,233.26c.15-1.17-1.15-3.28-2.97-3.34-2.24-.08-4.39.45-6.28,1.28l9.25,2.07h0ZM289.74,252.19l-3.12-3.91-1.34,1.12,4.46,2.79h0ZM314.53,246.54c.69,4.31,1.37,7.75.83,11.82,4.62-.57,3.06-7.23-.83-11.82h0ZM506.85,235.17c-4.43-1.64-7.91-2.82-9.07.31l-2.07-2.16.86,6.75c1.63,1.57,5.32,2.69,7.49,1.63,1.55-1.68,2.34-4.06,2.79-6.52h0ZM490.44,253.8l8.47-5.95c-2.26-1.41-3.37-2.51-4.9-4.5l-1.46-8.93c-5.46,1.87-10.36,5.49-14.73,9.69,5.92,1.82,8.05,7.18,6.66,13.08,6.9-.77,13.04-3.3,18.64-6.98l.74-1.87c-4.78-1.13-7.01,5.59-13.42,5.46h0ZM348.88,253.1c5.79-.53,10.61,1.12,15.53,4.13-2.8-4.03-7.23-5.93-11.71-7.63-5.74-2.18-11.92-2.92-17.82-.84l5.39,5.13,8.6-.79h.01,0ZM333.07,264.04c.12-3.92,1.26-6.32,4.39-8.67l-4.92-4.89-1.48,2.46,2.52.24-2.71,1.12c-1.04.43-.35,6.16,2.19,9.74h.01ZM302.99,259.16c-4.83-.76-8.75-2.46-13.04-4.46,4.22,5.12,10.23,7.68,17.08,7.9-.07-2.1-1.79-3.08-4.05-3.44h.01ZM506.51,241.44c2.96.05,2.42-2.42,1.43-3.57l-1.43,3.57ZM309.76,258.66c1.41.2,3.34.15,3.54-.53l.7-2.33-4.24,2.86h0ZM334.04,268.73c-3.31-4.75-5.45-8.34-5.27-13.76-1.14.33-2.82,1.17-3.32,2.03-1.75,3.08.9,8.6,4.6,11.95.83.55,3.4.26,3.99-.22h0ZM502.5,244.25l-6.97-2.33c.91,1.96,2.57,3.61,4.74,4.42l2.23-2.08h0ZM359.17,275.84c-2.48-3.7-3.41-6.35-2.67-9.8-.1-2.66,1.39-4.7,3.71-6.06-5.79-3.53-11.84-5.58-18.57-4.36l2.65,3.76c3.04,4.3,1.81,9.37-2.61,12.27,5.91,2.73,11.68,4.44,17.48,4.19h.01ZM469.2,245.52l-3.72.44c1.71.85,2.96,1.16,3.72-.44ZM472.81,245.6c.46.14-.43-.21-1.16-.47l-.74,1.54c-.09.19.8.4.93.23l.98-1.3h-.01ZM481.98,257.6c3.15-4.59.51-10.31-5.21-12.13l-1.44,2.12c5.23,1.26,7.17,4.93,6.66,10.01h-.01ZM507.65,243.14c-2.97.29-3.59,1.43-4.91,3.42.83.15,2.82.05,3.55-.57.61-.52,1.23-2.1,1.36-2.85h0ZM337.03,267.71c4.2-1.97,3.73-8.42,1.2-10.44-3.94,1.5-4.44,8.84-1.2,10.44ZM343.95,262.25c-.63-1.61-1.76-3.19-2.94-4.44,1.42,4.35,1.27,8.42-2.62,11.21.18.37,1.11,1.24,1.62,1.23,1.85-.03,5.46-4.13,3.93-7.99h.01ZM471.61,268.8c2.59-1.42,4.55-3.53,5.93-5.91-4.15-.48-8.23-.68-10.67-3.76-2.43-3.08-1.2-7.22.59-10.86-7.47-.29-13.7,3.79-17.84,9.61l7.55,2.98c1.86.74,3.23,3.17,3.15,5.07-.08,1.76-1.4,3.61-3.05,5.39,6.41.29,11.86-2.6,17.37-6.37l-3.02,3.85h-.01,0ZM471,248.74c-.2-.21-1.36-.55-1.55-.21l-.72,1.26c-1.38,2.41-2.55,5.91-.46,8.39,1.78,2.12,5.35,2.83,7.76,2.83-4.12-3.12-6.49-8.07-5.02-12.27h-.01ZM362.43,259.16c-.31-1.28-1.11-1.76-2.12-1.48l2.12,1.48ZM479.68,257c.88-2.08.31-4.41-1.09-5.81-.88-.89-2.99-1.84-4.36-1.82-.78,1.59-1.34,4.21-.5,5.23,1.29,1.56,3.98,2.34,5.95,2.4ZM390.59,265.5c.31,0,.42-1.42.2-1.64-5.74-3.18-14.78-5.43-21.76-4.29.01,1.24,1.09,1.28,2.28,1.38,9.63.78,16.7,4.6,19.27,4.56h.01ZM448.05,255.8c.52.02-.56-.02-.93-.04l-.89,1.35c-.1.14.71.29.81.15l1.01-1.46ZM368.7,266.43c.34-1.43-.19-3.73-2.37-3.74l2.37,3.74ZM367.72,271.44c.5-3.38-1.3-6.36-3.72-7.96-1.72-.46-5.4,1.72-5.34,3.43.13,3.55,3.03,5.5,5.56,7.4.93-.22,3.34-1.78,3.51-2.87h-.01ZM383.98,270.92l1.92-.29,2.59-3.62c-5.85-1.92-11.5-3.69-18.05-4.58.97,3.6,1.35,6.46-.35,9.56l-2.23,4.07c5.68,2.82,12.35,3.73,18.85,3.38-1.28-3-2.23-5.8-2.73-8.52h0ZM422.19,261.62c-4.63-1.45-7.97-2.09-12.09-1.9,3.32.81,5.86,1.64,9,3.6.97-.25,2.26-.93,3.09-1.7ZM330.6,271.92c-5.12-.62-10.09-1.85-15.23-3.56,4.33,4.19,10.57,6.08,16.53,5.11.2-.36-.77-1.49-1.29-1.55h0ZM400.77,281.45c4.9,1.1,10.23,1.82,15.3-.36-2.81-2.25-4.98-5.02-4.48-8.36.53-3.56,3.13-6.27,5.84-8.36-5.06-3.43-10.96-3.63-16.15-1.98,2.6.52,5.52-.73,6.77,2.35-3.98-1.32-8.08-.91-11.44.59,5.18,5.01,8.86,11.56,4.15,16.13h.01ZM442.53,260.45l-.32-1.18-4.3.66,4.61.52h.01ZM455.44,266.6c.9-4.03-2.65-5.76-5.57-6.3l-1.35-.15c-.3-.03-.22,1.33.08,1.37,2.21.34,5.84,2.69,6.84,5.07h0ZM479.45,259.24l-4.26-1.55c1.02,1.42,2.76,2.27,4.26,1.55ZM446.21,274.94l-2.61-5.59c-1.16-2.47-2.37-4.45-1.69-7.39-4.79-.21-9.27.18-13.32,1.94,4.17,4.59,4.2,9.73.44,14.35,6.31.25,11.97-1.14,17.18-3.31ZM335.78,272.44c.13-.46-.42-1.97-.83-1.81l-2.24.83c1.32.61,2.35.97,3.07.98h0ZM488.61,258.87c-2.38-.64-4.06-.56-4.97,1.08l4.97-1.08ZM398.38,273.31c-.14-2.67-1.58-5.2-3.54-6.81l-1.21,1.21c2.23,2.17,3.11,3.27,4.76,5.6h-.01ZM444.89,262.31c-1.56.37-1.77.93-1.61,1.58l.51,2.08,1.1-3.66h0ZM453.65,267.12c-1.42-2.55-3.82-3.55-6.39-4.12-.37,3.3,1.46,7.02,5.08,7.77,1.29.27,2.07-2.3,1.32-3.65h-.01,0ZM423.7,275.91c3.52-2.88,3.71-7.14,1.89-10.78l-3.02,2.1c1.45,2.83,1.57,5.43,1.13,8.69h0ZM456.27,269.74c1.46-1.33,2.3-2.6,2.41-3.71.13-1.33-.85-2.78-1.88-3.46.67,2.83.38,4.71-.53,7.17h0ZM420.08,278.06c-4.93-3.08-4.3-8.04-1.56-11.88-2.54,1.11-4.72,3.86-5.13,6.58-.53,3.45,1.82,5.8,4.54,7.61l2.15-2.31h0ZM428.17,276.35c2.84-3.22,2.63-7.57-.32-10.47.98,4.25.46,8-2.58,10.95.14.3,1.34,1.28,1.61.98l1.29-1.45h0ZM353.49,277.48l-13.02-3.79c3.93,2.51,8.2,3.89,13.02,3.79ZM387.57,275.27c.86,1.5,2.96,3.07,4.29,3.01,1.42-.06,4.08-1.21,4.29-2.45.49-2.82-1.65-5.7-3.93-6.37l-1.78,4.37-.92-3.3-1.96,4.73h.01,0ZM452.59,277.23c12.59,3.82,23.14-4.06,27.86-14.93l-7.53,8.05c-5.66,3.16-11.75,4.29-18.12,3.12l-2.21,3.77h0ZM421.54,275.87c1.06-3.04.98-4.64-.22-7.3-1.23.86-2.44,2.41-2.5,3.56-.09,1.63,1.13,3.05,2.72,3.73h0ZM400.47,273.23l-4.85,7.04,2.55.8c.98.31,4.5-3.09,2.3-7.84h0ZM387.79,281.21c-7.91.64-14.4-1.05-21.47-3.57,6.3,4.59,14.44,5.22,21.47,3.57ZM450.44,272.38l-3.77-.65c.22.73,1.11,2.21,1.68,2.04s1.62-.94,2.09-1.39ZM449.57,277.23c-7.34,3.31-14.8,5.15-22.54,3.56l-2.39,2.12c8.25,1.9,18.77-.72,24.92-5.69h.01ZM392.98,283.06c-.52-.62-1.92-.8-2.08-.39.53.6,1.94.79,2.08.39ZM424.56,280.41c-.56-.47-2.18-.85-2.6-.41l-1.77,1.89c2.02.39,3.09-.2,4.37-1.49h0ZM389.59,283.23l-4.87.25c1.48.91,3.2,1.85,4.87-.25ZM419.52,283.66c-.63-.35-1.44-.69-1.88-.81-6.27,3.07-13.13,4.02-19.72,2.05-1.52-.46-3.04-.42-4.21.33,7.99,5.16,17.08,2.37,25.82-1.57h-.01Z" fill="#fff"/>
  <path d="M514.86,240.08c3.19-1.33,4.84-4.28,6.07-7.36,1.57-3.93,3.05-8.27,3.31-12.53.19-3.28-.86-7.71-4.09-9.34-1.72-.87-4.41.04-6.12.52-1.35.39-2.7.86-3.97,1.46-.85.4-1.84.9-2.33,1.74-.64,1.12,1.08,2.13,1.73,1.01.32-.56,1.52-1,2.15-1.26,1.17-.49,2.39-.88,3.62-1.2,1.1-.28,2.3-.61,3.45-.56,1.26.05,2.19,1.53,2.74,2.66,1.97,4.08.25,9.13-1.04,13.15-1.08,3.36-2.43,8.27-6.04,9.78-1.17.49-.66,2.42.53,1.93h-.01Z" fill="#fff"/>
  <path d="M509.79,246.35c3.61-.32,5.89-3.14,7.94-5.84,1.32-1.73,2.58-3.49,3.43-5.5.78-1.82,1.23-3.75,1.51-5.71.67-4.52.84-9.15.73-13.72-.04-1.68.13-3.63-1.16-4.92-1.1-1.1-2.73-1.45-4.21-1.66v1.93c3.88-1.26,4.25,5.64,4.4,7.9.23,3.64-.09,7.3-.97,10.84-.83,3.31-1.97,6.47-4.71,8.67-2.38,1.91-5.2,3.18-7.36,5.38-.66.67,0,2.03.97,1.67,7.5-2.72,12.3-9.27,13.58-17.03.64-3.9.57-7.86.12-11.77-.41-3.63-1.15-7.93-4.9-9.58-1.17-.51-2.19,1.21-1.01,1.73,3.44,1.51,3.73,5.82,4.04,9.08.32,3.45.37,6.99-.25,10.42-1.24,6.88-5.4,12.8-12.12,15.24l.97,1.67c2.58-2.64,6.22-3.94,8.74-6.66,2.68-2.89,3.76-7.17,4.4-10.96.71-4.16.74-8.42.03-12.58-.53-3.11-2.62-7.19-6.48-5.93-.84.27-1.05,1.78,0,1.93,1.14.16,2.85.33,3.54,1.4.46.72.32,1.94.35,2.76.03.91.04,1.81.04,2.72,0,3.79-.16,7.65-.75,11.4-.55,3.48-1.82,6.42-3.9,9.25-1.71,2.32-3.84,5.61-7,5.89-1.27.11-1.28,2.11,0,2h0l.03-.02h0Z" fill="#fff"/>
  <path d="M517.18,211.52c3.73.72,6.91-1.82,9.68-3.96s4.86-4.94,6.33-8.27c1.58-3.58,2.86-7.31,3.89-11.09.39-1.44,1.06-3.1.34-4.54-.66-1.32-2.04-2.09-3.33-2.68l-.46,1.7c3.79-.07,2.19,6.3,1.7,8.37-.73,3.05-1.9,5.99-3.47,8.7s-3.3,5.17-6.13,6.42c-2.69,1.18-5.64,1.53-8.24,2.96-.77.43-.45,1.76.46,1.7,7.27-.44,13.15-4.91,16.3-11.35,1.52-3.12,2.48-6.49,3.11-9.89s1.22-7.53-1.74-10.07c-.89-.76-2.18.52-1.29,1.29,2.75,2.36,1.66,6.57,1,9.64-.62,2.91-1.48,5.8-2.83,8.46-2.88,5.69-8.07,9.71-14.55,10.1l.46,1.7c3.15-1.73,6.97-1.85,9.96-3.92s4.8-5.32,6.27-8.38c1.56-3.24,2.61-6.7,3.08-10.27.4-2.97-.15-7.36-4.08-7.29-.84,0-1.33,1.31-.46,1.7.99.45,2.49,1.08,2.73,2.27.15.75-.26,1.71-.46,2.44s-.41,1.51-.64,2.26c-.93,3.13-2.01,6.25-3.36,9.23-1.24,2.73-2.84,5.08-5.19,6.98s-5.45,4.64-8.59,4.03c-1.15-.22-1.64,1.54-.49,1.76h0Z" fill="#fff"/>
  <g>
    <path d="M280.44,188.79c-.65-.15-1.01-.36-1.09-.62s-.36-.62-.84-1.07c-.4-.52-.68-.85-.85-.96-.16-.11-.52-.39-1.09-.85-.48-.45-.84-.71-1.09-.79-.24-.07-.44-.41-.6-1.01-.32-.68-.44-1.16-.36-1.47.08-.3.12-.83.12-1.58v-5.98c0-.75.04-1.24.12-1.47s.12-.71.12-1.47c0-.83-.04-1.35-.12-1.58s-.12-.71-.12-1.47v-9.02c0-.75.04-1.24.12-1.47s.12-.71.12-1.47v-3.16c0-.75-.04-1.24-.12-1.47s-.12-.71-.12-1.47v-2.93c0-.83.04-1.35.12-1.58s.12-.71.12-1.47-.04-1.24-.12-1.47-.12-.71-.12-1.47c0-.83.04-1.35.12-1.58s.12-.75.12-1.58c0-.75-.04-1.24-.12-1.47s-.12-.71-.12-1.47.04-1.24.12-1.47.12-.71.12-1.47c0-.83-.04-1.35-.12-1.58s-.12-.71-.12-1.47v-12.06c0-.75.04-1.24.12-1.47s.12-.71.12-1.47v-2.93c0-.83-.12-1.39-.36-1.69s-.2-.79.12-1.47c.24-.6.5-.94.78-1.01s.66-.3,1.15-.68c.48-.52.83-.85,1.03-.96s.5-.39.91-.85c.48-.38.76-.71.84-1.02.08-.3.44-.56,1.09-.79.8-.3,1.35-.38,1.63-.23.28.15.82.23,1.63.23h6.52c.88,0,1.45.02,1.69.06s.8.06,1.69.06,1.45-.02,1.69-.06.76-.06,1.57-.06,1.35.02,1.63.06.86.06,1.75.06c.8,0,1.35-.09,1.63-.28s.78-.09,1.51.28c.64.15,1.03.36,1.15.62s.42.62.91,1.07c.4.45.68.75.84.9s.48.45.97.9c.48.53.86.79,1.15.79s.5.3.66.9c.32.68.4,1.13.24,1.35-.16.23-.24.68-.24,1.35v5.52c0,.68-.04,1.13-.12,1.35-.08.23-.04.64.12,1.24.08.68.2,1.13.36,1.35.16.23.32.64.48,1.24.16.68.42,1.15.78,1.41s.3.66-.18,1.18c-.4.6-.79.77-1.15.51-.36-.26-.91-.39-1.63-.39s-1.21-.02-1.45-.06c-.24-.04-.72-.06-1.45-.06s-1.21.02-1.45.06c-.24.04-.68.06-1.33.06h-2.9c-.72,0-1.29.13-1.69.39s-.81.1-1.21-.51c-.4-.52-.42-.92-.06-1.18.36-.26.62-.73.79-1.41.24-.6.42-1.01.54-1.24.12-.23.22-.68.3-1.35.08-.52.12-.92.12-1.18s-.02-.51-.06-.73c-.04-.23-.1-.47-.18-.73s-.16-.62-.24-1.07c-.16-.45-.36-.75-.6-.9-.24-.15-.56-.3-.97-.45-.72-.3-1.13-.41-1.21-.34-.08.08-.48.11-1.21.11-.81,0-1.33-.04-1.57-.11-.24-.07-.72-.11-1.45-.11-.81,0-1.23-.02-1.27-.06-.04-.04-.46.06-1.27.28-.4.15-.7.34-.91.56-.2.23-.38.53-.54.9-.24.75-.36,1.18-.36,1.3v4.23c0,.75.02,1.24.06,1.47s.06.75.06,1.58c0,.68-.02,1.13-.06,1.35-.04.23-.06.72-.06,1.47v8.79c0,.75.02,1.24.06,1.47s.06.71.06,1.47c0,.83-.02,1.35-.06,1.58s-.06.72-.06,1.47v2.93c0,.68.02,1.13.06,1.35.04.23.06.75.06,1.58v2.93c0,.75-.02,1.24-.06,1.47s-.06.71-.06,1.47v11.84c0,.68.02,1.13.06,1.35.04.23.06.72.06,1.47v7.22c0,.08.08.45.24,1.13.32.83.76,1.32,1.33,1.47.72.23,1.15.32,1.27.28.12-.04.58-.06,1.39-.06h4.29c.12,0,.5-.07,1.15-.23.48-.15.82-.41,1.03-.79.2-.38.38-.79.54-1.24.08-.45.16-.77.24-.96s.12-.36.12-.51-.02-.34-.06-.56c-.04-.23-.06-.6-.06-1.13-.08-.6-.18-1.01-.3-1.24-.12-.23-.26-.68-.42-1.35-.16-.6-.42-1.03-.79-1.3-.36-.26-.34-.66.06-1.18.4-.6.8-.77,1.21-.51.4.26.97.39,1.69.39h5.67c.72,0,1.21.02,1.45.06.24.04.72.06,1.45.06s1.29-.17,1.69-.51.84-.21,1.33.39c.32.6.3,1.03-.06,1.3-.36.26-.62.7-.78,1.3-.16.68-.28,1.13-.36,1.35-.08.23-.2.64-.36,1.24-.16.68-.2,1.13-.12,1.35.08.23.12.68.12,1.35s-.02,1.13-.06,1.35c-.04.23-.06.68-.06,1.35v2.71c0,.75.08,1.26.24,1.52.16.26.08.7-.24,1.3-.24.6-.48.94-.72,1.01-.24.08-.6.34-1.09.79-.48.45-.81.75-.97.9s-.52.45-1.09.9c-.4.38-.65.7-.72.96-.08.26-.44.51-1.09.73-.81.23-1.33.28-1.57.17s-.77-.17-1.57-.17h-6.64c-.89,0-1.45.02-1.69.06s-.81.06-1.69.06c-.81,0-1.33-.02-1.57-.06-.24-.04-.77-.06-1.57-.06h-3.38c-.81,0-1.35.06-1.63.17s-.83.06-1.63-.17v.1h0Z" fill="#752eff"/>
    <path d="M319.32,108.4c-.16-.68-.28-1.13-.36-1.35-.08-.23-.24-.68-.48-1.35-.16-.6-.42-1.03-.79-1.3-.36-.26-.3-.69.18-1.3.48-.6.91-.77,1.27-.51.36.26.86.39,1.51.39.72,0,1.21.02,1.45.06.24.04.72.06,1.45.06h2.9c.64,0,1.09-.02,1.33-.06s.76-.06,1.57-.06c.72,0,1.29-.13,1.69-.39s.8-.09,1.21.51c.4.53.4.92,0,1.18s-.68.73-.84,1.41-.28,1.13-.36,1.35c-.08.23-.2.68-.36,1.35-.16.75-.18,1.26-.06,1.52.12.26.18.81.18,1.64v3.04c0,.75-.02,1.26-.06,1.52-.04.26-.06.81-.06,1.63v3.04c0,.75.02,1.26.06,1.52.04.26.06.81.06,1.63v6.2c0,.75-.02,1.24-.06,1.47s-.06.75-.06,1.58v3.16c0,.38-.02.64-.06.79s-.06.28-.06.4.02.26.06.45.14.47.3.85c.24.9.76,1.43,1.57,1.58.64.23,1.05.32,1.21.28.16-.04.6-.06,1.33-.06h4.16c.12,0,.54-.07,1.27-.23.48-.15.79-.34.91-.56.12-.23.26-.52.42-.9.24-.75.34-1.18.3-1.3-.04-.11-.06-.54-.06-1.3v-6.2c0-.83.02-1.37.06-1.64.04-.26.06-.77.06-1.52v-3.04c0-.83-.02-1.37-.06-1.63-.04-.26-.06-.77-.06-1.52,0-.83.02-1.35.06-1.58s.06-.71.06-1.47c0-.83-.02-1.37-.06-1.63-.04-.26-.06-.77-.06-1.52,0-.83.02-1.35.06-1.58s.06-.71.06-1.47c0-.83.02-1.37.06-1.64.04-.26.02-.77-.06-1.52-.08-.68-.16-1.13-.24-1.35-.08-.23-.2-.68-.36-1.35-.16-.68-.42-1.13-.78-1.35s-.34-.64.06-1.24c.48-.6.91-.75,1.27-.45s.86.45,1.51.45c.72,0,1.21-.02,1.45-.06s.76-.06,1.57-.06c.72,0,1.21.02,1.45.06s.72.06,1.45.06h2.78c.72,0,1.27-.15,1.63-.45s.78-.15,1.27.45c.4.6.42,1.01.06,1.24s-.66.68-.91,1.35c-.16.68-.28,1.13-.36,1.35-.08.23-.16.68-.24,1.35-.08.75-.1,1.24-.06,1.47s.06.75.06,1.58v5.86c0,.83-.02,1.37-.06,1.64-.04.26-.06.77-.06,1.52s.02,1.24.06,1.47.06.72.06,1.47-.02,1.24-.06,1.47-.06.75-.06,1.58c0,.75.02,1.24.06,1.47.04.23.06.72.06,1.47v6.09c0,.75-.02,1.24-.06,1.47s-.06.72-.06,1.47c0,.83.02,1.35.06,1.58s.06.72.06,1.47v18.04c0,.83-.02,1.35-.06,1.58s-.06.72-.06,1.47.02,1.24.06,1.47.06.72.06,1.47v3.16c0,.75-.02,1.24-.06,1.47s-.06.72-.06,1.47.02,1.24.06,1.47.06.72.06,1.47v5.98c0,.83-.02,1.37-.06,1.63-.04.26-.02.77.06,1.52.08.6.16,1.01.24,1.24.08.23.2.68.36,1.35.24.6.56,1.03.97,1.3.4.26.36.7-.12,1.3-.48.52-.91.66-1.27.39-.36-.26-.91-.39-1.63-.39h-2.78c-.72,0-1.21-.02-1.45-.06s-.72-.06-1.45-.06c-.81,0-1.33.02-1.57.06s-.72.06-1.45.06c-.65,0-1.17.13-1.57.39s-.81.13-1.21-.39c-.4-.6-.44-1.03-.12-1.3.32-.26.56-.69.72-1.3.16-.68.3-1.13.42-1.35.12-.23.22-.64.3-1.24.08-.83.1-1.37.06-1.63-.04-.26-.06-.77-.06-1.52v-15.45c0-.83-.02-1.37-.06-1.64-.04-.26-.06-.77-.06-1.52,0-.83.02-1.35.06-1.58s.06-.71.06-1.47v-4.45c0-.11-.08-.54-.24-1.3-.24-.98-.77-1.5-1.57-1.58-.72-.15-1.13-.21-1.21-.17-.08.04-.48.06-1.21.06h-2.9c-.72,0-1.15-.02-1.27-.06s-.5.02-1.15.17c-.81.08-1.33.6-1.57,1.58-.16.75-.24,1.18-.24,1.3v4.45c0,.75-.02,1.24-.06,1.47s-.06.75-.06,1.58v3.16c0,.75.02,1.24.06,1.47s.06.75.06,1.58v3.16c0,.75-.02,1.24-.06,1.47s-.06.75-.06,1.58v3.16c0,.75.02,1.24.06,1.47s.06.75.06,1.58c0,.75-.02,1.26-.06,1.52-.04.26-.02.81.06,1.63.16.6.26,1.01.3,1.24.04.23.14.68.3,1.35.16.6.42,1.03.78,1.3.36.26.34.66-.06,1.18-.4.6-.79.75-1.15.45s-.91-.45-1.63-.45c-.81,0-1.33.02-1.57.06-.24.04-.68.06-1.33.06-.72,0-1.21-.02-1.45-.06-.24-.04-.72-.06-1.45-.06s-1.21.02-1.45.06c-.24.04-.72.06-1.45.06-.65,0-1.17.15-1.57.45s-.84.15-1.33-.45c-.4-.52-.42-.94-.06-1.24.36-.3.62-.75.79-1.35.24-.68.4-1.13.48-1.35.08-.23.16-.64.24-1.24.16-.75.22-1.26.18-1.52-.04-.26-.06-.81-.06-1.63v-20.97c0-.75-.02-1.24-.06-1.47s-.06-.71-.06-1.47c0-.83.02-1.35.06-1.58s.06-.75.06-1.58v-20.86c0-.83-.02-1.35-.06-1.58s-.06-.75-.06-1.58c0-.75.02-1.24.06-1.47s.06-.71.06-1.47v-15c0-.83.02-1.35.06-1.58s.02-.71-.06-1.47v-.06h.01,0Z" fill="#752eff"/>
    <path d="M397.19,188.79c-.65.45-1.13.6-1.45.45-.32-.15-.93-.3-1.81-.45-.72-.15-1.23-.19-1.51-.11s-.79.11-1.51.11c-.81,0-1.33-.02-1.57-.06s-.77-.06-1.57-.06-1.33.02-1.57.06-.77.06-1.57.06h-18.83c-.72,0-1.29.15-1.69.45s-.85.15-1.33-.45c-.56-.52-.65-.94-.24-1.24.4-.3.68-.79.84-1.47.24-.6.4-1.01.48-1.24.08-.23.2-.68.36-1.35.08-.83.1-1.35.06-1.58s-.06-.71-.06-1.47c0-.83-.02-1.35-.06-1.58s-.06-.71-.06-1.47.02-1.24.06-1.47.06-.75.06-1.58v-2.93c0-.75-.02-1.24-.06-1.47s-.06-.71-.06-1.47c0-.83.02-1.37.06-1.63.04-.26.06-.77.06-1.52v-2.93c0-.83-.02-1.35-.06-1.58s-.06-.71-.06-1.47.02-1.24.06-1.47.06-.71.06-1.47v-12.06c0-.75-.02-1.24-.06-1.47s-.06-.75-.06-1.58v-3.04c0-.75.02-1.24.06-1.47s.06-.71.06-1.47-.02-1.24-.06-1.47-.06-.75-.06-1.58c0-.75.02-1.24.06-1.47s.06-.75.06-1.58v-2.93c0-.83-.02-1.35-.06-1.58s-.06-.71-.06-1.47.02-1.24.06-1.47.06-.71.06-1.47v-3.04c0-.83-.02-1.35-.06-1.58s-.06-.71-.06-1.47.02-1.24.06-1.47.06-.75.06-1.58c0-.75.04-1.24.12-1.47s.04-.71-.12-1.47c-.08-.68-.18-1.13-.3-1.35-.12-.23-.3-.64-.54-1.24-.16-.68-.42-1.15-.79-1.41-.36-.26-.3-.66.18-1.18.56-.52,1.03-.66,1.39-.39.36.26.91.39,1.63.39.8,0,1.33.02,1.57.06s.8.06,1.69.06c.8,0,1.33-.02,1.57-.06s.72-.06,1.45-.06h3.14c.88,0,1.45-.02,1.69-.06s.76-.06,1.57-.06c.72,0,1.21.02,1.45.06s.76.06,1.57.06h9.42c.72,0,1.21-.02,1.45-.06s.76-.06,1.57-.06c.88,0,1.49-.11,1.81-.34s.8-.07,1.45.45c.64.53.84.96.6,1.3-.24.34-.28.88-.12,1.64.16.75.26,1.24.3,1.47s.14.75.3,1.58l.48,2.93c.16.75.42,1.3.79,1.63.36.34.26.77-.3,1.3-.48.53-.91.58-1.27.17s-.95-.69-1.75-.85c-.72-.15-1.21-.24-1.45-.28s-.72-.13-1.45-.28c-.81-.15-1.35-.19-1.63-.11s-.87.11-1.75.11h-6.4c-.89,0-1.45-.02-1.69-.06s-.81-.06-1.69-.06h-1.39c-.12,0-.54.11-1.27.34-.81.23-1.33.72-1.57,1.47-.16.68-.24,1.09-.24,1.24v13.53c0,.83-.02,1.35-.06,1.58s-.06.71-.06,1.47.02,1.24.06,1.47.06.75.06,1.58v1.3c0,.11.02.26.06.45s.1.47.18.85c.16.38.34.72.54,1.01.2.3.54.49,1.03.56,1.04.23,1.69.34,1.93.34s.92-.07,2.05-.23c.72-.07,1.21-.15,1.45-.23.24-.07.68-.19,1.33-.34.72-.23,1.23-.52,1.51-.9.28-.38.74-.34,1.39.11.64.38.8.75.48,1.13s-.48.87-.48,1.47v8.12c0,.68.14,1.18.42,1.52.28.34.14.73-.42,1.18-.65.38-1.11.41-1.39.11s-.78-.56-1.51-.79c-.72-.15-1.19-.3-1.39-.45s-.66-.26-1.39-.34c-1.13-.15-1.81-.23-2.05-.23s-.89.11-1.93.34c-.89.23-1.45.72-1.69,1.47-.24.68-.34,1.11-.3,1.3s.06.66.06,1.41c0,.83.02,1.35.06,1.58s.06.75.06,1.58v9.02c0,.83-.02,1.35-.06,1.58s-.06.71-.06,1.47c0,.83.02,1.35.06,1.58s.06.72.06,1.47v1.35c0,.15.02.3.06.45s.14.41.3.79c.16.75.64,1.2,1.45,1.35.8.23,1.25.34,1.33.34h11.11c.88,0,1.47.02,1.75.06s.82.02,1.63-.06c.72-.07,1.21-.15,1.45-.23.24-.07.72-.19,1.45-.34.4-.07.74-.21,1.03-.39.28-.19.52-.34.72-.45s.4-.19.6-.23.42.1.66.39c.32.23.48.45.48.68s-.08.45-.24.68-.32.47-.48.73-.28.58-.36.96l-.48,2.93c-.16.75-.24,1.26-.24,1.52s-.08.81-.24,1.63c-.16.75-.12,1.28.12,1.58s.04.75-.6,1.35v.07h0Z" fill="#752eff"/>
    <path d="M411.31,188.79c-.65-.15-1.01-.36-1.09-.62s-.36-.62-.84-1.07c-.4-.52-.68-.85-.85-.96-.16-.11-.52-.39-1.09-.85-.48-.45-.84-.71-1.09-.79-.24-.07-.44-.41-.6-1.01-.32-.68-.44-1.16-.36-1.47.08-.3.12-.83.12-1.58v-5.98c0-.75.04-1.24.12-1.47s.12-.71.12-1.47c0-.83-.04-1.35-.12-1.58s-.12-.71-.12-1.47v-9.02c0-.75.04-1.24.12-1.47s.12-.71.12-1.47v-3.16c0-.75-.04-1.24-.12-1.47s-.12-.71-.12-1.47v-2.93c0-.83.04-1.35.12-1.58s.12-.71.12-1.47-.04-1.24-.12-1.47-.12-.71-.12-1.47c0-.83.04-1.35.12-1.58s.12-.75.12-1.58c0-.75-.04-1.24-.12-1.47s-.12-.71-.12-1.47.04-1.24.12-1.47.12-.71.12-1.47c0-.83-.04-1.35-.12-1.58s-.12-.71-.12-1.47v-12.06c0-.75.04-1.24.12-1.47s.12-.71.12-1.47v-2.93c0-.83-.12-1.39-.36-1.69s-.2-.79.12-1.47c.24-.6.5-.94.78-1.01s.66-.3,1.15-.68c.48-.52.83-.85,1.03-.96s.5-.39.91-.85c.48-.38.76-.71.84-1.02.08-.3.44-.56,1.09-.79.8-.3,1.35-.38,1.63-.23.28.15.82.23,1.63.23h6.52c.88,0,1.45.02,1.69.06s.8.06,1.69.06,1.45-.02,1.69-.06.76-.06,1.57-.06,1.35.02,1.63.06.86.06,1.75.06c.8,0,1.35-.09,1.63-.28s.78-.09,1.51.28c.64.15,1.03.36,1.15.62s.42.62.91,1.07c.4.45.68.75.84.9s.48.45.97.9c.48.53.86.79,1.15.79s.5.3.66.9c.32.68.4,1.13.24,1.35-.16.23-.24.68-.24,1.35v5.52c0,.68-.04,1.13-.12,1.35-.08.23-.04.64.12,1.24.08.68.2,1.13.36,1.35.16.23.32.64.48,1.24.16.68.42,1.15.78,1.41s.3.66-.18,1.18c-.4.6-.79.77-1.15.51-.36-.26-.91-.39-1.63-.39s-1.21-.02-1.45-.06-.72-.06-1.45-.06-1.21.02-1.45.06-.68.06-1.33.06h-2.9c-.72,0-1.29.13-1.69.39s-.81.1-1.21-.51c-.4-.52-.42-.92-.06-1.18s.62-.73.79-1.41c.24-.6.42-1.01.54-1.24.12-.23.22-.68.3-1.35.08-.52.12-.92.12-1.18s-.02-.51-.06-.73c-.04-.23-.1-.47-.18-.73s-.16-.62-.24-1.07c-.16-.45-.36-.75-.6-.9s-.56-.3-.97-.45c-.72-.3-1.13-.41-1.21-.34-.08.08-.48.11-1.21.11-.81,0-1.33-.04-1.57-.11s-.72-.11-1.45-.11c-.81,0-1.23-.02-1.27-.06-.04-.04-.46.06-1.27.28-.4.15-.7.34-.91.56-.2.23-.38.53-.54.9-.24.75-.36,1.18-.36,1.3v4.23c0,.75.02,1.24.06,1.47s.06.75.06,1.58c0,.68-.02,1.13-.06,1.35-.04.23-.06.72-.06,1.47v8.79c0,.75.02,1.24.06,1.47s.06.71.06,1.47c0,.83-.02,1.35-.06,1.58s-.06.72-.06,1.47v2.93c0,.68.02,1.13.06,1.35.04.23.06.75.06,1.58v2.93c0,.75-.02,1.24-.06,1.47s-.06.71-.06,1.47v11.84c0,.68.02,1.13.06,1.35.04.23.06.72.06,1.47v7.22c0,.08.08.45.24,1.13.32.83.76,1.32,1.33,1.47.72.23,1.15.32,1.27.28.12-.04.58-.06,1.39-.06h4.29c.12,0,.5-.07,1.15-.23.48-.15.82-.41,1.03-.79.2-.38.38-.79.54-1.24.08-.45.16-.77.24-.96s.12-.36.12-.51-.02-.34-.06-.56c-.04-.23-.06-.6-.06-1.13-.08-.6-.18-1.01-.3-1.24-.12-.23-.26-.68-.42-1.35-.16-.6-.42-1.03-.79-1.3-.36-.26-.34-.66.06-1.18.4-.6.8-.77,1.21-.51.4.26.97.39,1.69.39h5.67c.72,0,1.21.02,1.45.06s.72.06,1.45.06,1.29-.17,1.69-.51.84-.21,1.33.39c.32.6.3,1.03-.06,1.3-.36.26-.62.7-.78,1.3-.16.68-.28,1.13-.36,1.35-.08.23-.2.64-.36,1.24-.16.68-.2,1.13-.12,1.35.08.23.12.68.12,1.35s-.02,1.13-.06,1.35c-.04.23-.06.68-.06,1.35v2.71c0,.75.08,1.26.24,1.52.16.26.08.7-.24,1.3-.24.6-.48.94-.72,1.01-.24.08-.6.34-1.09.79-.48.45-.81.75-.97.9s-.52.45-1.09.9c-.4.38-.65.7-.72.96-.08.26-.44.51-1.09.73-.81.23-1.33.28-1.57.17s-.77-.17-1.57-.17h-6.64c-.89,0-1.45.02-1.69.06s-.81.06-1.69.06c-.81,0-1.33-.02-1.57-.06s-.77-.06-1.57-.06h-3.38c-.81,0-1.35.06-1.63.17s-.83.06-1.63-.17v.1h0Z" fill="#752eff"/>
    <path d="M487.01,182.59c.32.6.5.96.54,1.07s.3.43.79.96c.4.45.68.77.84.96.16.19.44.55.84,1.07.24.3.48.53.72.68s.44.28.6.39.28.25.36.4c.08.15.08.38,0,.68-.16.6-.56.73-1.21.39s-1.37-.51-2.17-.51-1.35.02-1.63.06-.87.06-1.75.06h-6.64c-.89,0-1.57.17-2.05.51s-.93.17-1.33-.51c-.24-.45-.34-.81-.3-1.07.04-.26.16-.52.36-.79.2-.26.38-.56.54-.9s.24-.73.24-1.18c0-.75-.08-1.24-.24-1.47s-.32-.71-.48-1.47c-.32-.75-.54-1.24-.66-1.47s-.3-.68-.54-1.35c-.32-.75-.48-1.24-.48-1.47s-.16-.68-.48-1.35l-.97-2.82c-.24-.83-.4-1.35-.48-1.58-.08-.23-.24-.68-.48-1.35-.32-.75-.52-1.24-.6-1.47-.08-.23-.24-.68-.48-1.35-.32-.75-.48-1.24-.48-1.47s-.16-.68-.48-1.35c-.24-.83-.4-1.35-.48-1.58-.08-.23-.28-.68-.6-1.35l-.97-2.82c-.72-1.73-1.41-1.88-2.05-.45-.32.68-.52,1.11-.6,1.3-.08.19-.28.58-.6,1.18l-1.09,2.37c-.24.6-.4,1.01-.48,1.24-.08.23-.2.64-.36,1.24-.16.68-.22,1.15-.18,1.41.04.26.06.73.06,1.41v8.79c0,.75.02,1.24.06,1.47s.06.68.06,1.35c0,.75-.04,1.24-.12,1.47s-.04.75.12,1.58c.08.68.16,1.13.24,1.35.08.23.2.64.36,1.24.16.68.44,1.15.84,1.41.4.26.4.7,0,1.3-.48.6-.91.75-1.27.45s-.91-.45-1.63-.45h-5.8c-.72,0-1.21-.02-1.45-.06s-.72-.06-1.45-.06c-.4,0-.72.06-.97.17s-.46.21-.66.28c-.2.07-.4.11-.6.11s-.42-.15-.66-.45c-.4-.6-.42-1.03-.06-1.3.36-.26.62-.73.79-1.41.16-.68.3-1.11.42-1.3s.22-.62.3-1.3c.08-.83.12-1.35.12-1.58v-1.47c0-.75-.02-1.24-.06-1.47s-.06-.75-.06-1.58c0-.75.02-1.24.06-1.47s.06-.75.06-1.58v-5.86c0-.83-.02-1.35-.06-1.58s-.06-.71-.06-1.47.02-1.24.06-1.47.06-.75.06-1.58-.02-1.35-.06-1.58-.06-.71-.06-1.47.02-1.24.06-1.47.06-.71.06-1.47v-12.06c0-.75-.02-1.24-.06-1.47s-.06-.71-.06-1.47.02-1.24.06-1.47.06-.75.06-1.58v-6.09c0-.75-.02-1.24-.06-1.47s-.06-.71-.06-1.47v-2.93c0-.83.02-1.35.06-1.58s.06-.71.06-1.47-.02-1.24-.06-1.47-.06-.71-.06-1.47.02-1.26.06-1.52c.04-.26.06-.81.06-1.64v-5.86c0-.83.02-1.35.06-1.58s.02-.71-.06-1.47c-.08-.68-.16-1.13-.24-1.35-.08-.23-.2-.68-.36-1.35-.24-.68-.56-1.15-.97-1.41-.4-.26-.4-.66,0-1.18.48-.6.91-.75,1.27-.45s.9.45,1.63.45h8.69c.72,0,1.27-.15,1.63-.45s.78-.15,1.27.45c.32.6.3,1.03-.06,1.3-.36.26-.62.7-.78,1.3-.16.68-.28,1.13-.36,1.35-.08.23-.2.68-.36,1.35-.16.68-.18,1.13-.06,1.35.12.23.18.72.18,1.47s-.02,1.24-.06,1.47-.06.68-.06,1.35v5.64c0,.68.02,1.13.06,1.35.04.23.06.68.06,1.35,0,.83-.02,1.35-.06,1.58s-.06.68-.06,1.35.02,1.13.06,1.35c.04.23.06.72.06,1.47,0,.68-.02,1.13-.06,1.35-.04.23-.06.68-.06,1.35,0,.75.02,1.24.06,1.47s.06.72.06,1.47l-.12,2.03c-.16.75-.08,1.26.24,1.52.32.26.56.06.72-.62.24-.75.4-1.24.48-1.47.08-.23.28-.71.6-1.47.32-.75.52-1.24.6-1.47.08-.23.24-.68.48-1.35l1.21-2.82,1.21-2.71,1.21-2.71c.32-.68.52-1.13.6-1.35.08-.23.32-.71.72-1.47l.97-2.82c.4-.68.64-1.11.72-1.3s.28-.66.6-1.41c.32-.68.52-1.13.6-1.35.08-.23.24-.68.48-1.35.4-.68.62-1.13.66-1.35.04-.23.22-.68.54-1.35.32-.75.6-1.2.84-1.35s.4-.64.48-1.47c0-.38-.08-.69-.24-.96-.16-.26-.32-.49-.48-.68s-.26-.39-.3-.62.06-.49.3-.79c.48-.6.92-.77,1.33-.51.4.26,1.04.39,1.93.39s1.47.02,1.75.06.86.06,1.75.06h6.76c.88,0,1.55-.17,1.99-.51s.91-.17,1.39.51c.4.6.32.98-.24,1.13-.56.15-1.05.49-1.45,1.01-.48.53-.81.87-.97,1.02-.16.15-.44.49-.85,1.01-.4.6-.7.96-.91,1.07-.2.11-.5.47-.9,1.07s-.63,1.03-.66,1.3c-.04.26-.22.73-.54,1.41l-1.33,2.59-.97,2.71c-.4.75-.62,1.24-.66,1.47s-.22.68-.54,1.35c-.32.68-.54,1.13-.66,1.35-.12.23-.3.68-.54,1.35-.4.68-.65,1.13-.72,1.35-.08.23-.24.64-.48,1.24-.4.68-.65,1.13-.72,1.35-.08.23-.24.68-.48,1.35l-1.21,2.71c-.32.68-.52,1.13-.6,1.35-.08.23-.28.72-.6,1.47-.32.68-.52,1.11-.6,1.3-.08.19-.32.62-.72,1.3-.24.68-.4,1.13-.48,1.35-.08.23-.32.68-.72,1.35-.32.68-.54,1.22-.66,1.63s-.18.81-.18,1.18.06.77.18,1.18c.12.41.3.96.54,1.63.24.75.42,1.24.54,1.47s.3.72.54,1.47.4,1.24.48,1.47c.08.23.28.68.6,1.35.24.75.4,1.24.48,1.47.08.23.28.72.6,1.47.24.83.38,1.35.42,1.58s.18.72.42,1.47c.32.68.54,1.13.66,1.35.12.23.3.72.54,1.47.32.75.52,1.22.6,1.41.08.19.24.66.48,1.41.24.83.38,1.35.42,1.58s.22.72.54,1.47c.24.75.42,1.22.54,1.41s.34.66.66,1.41l.97,3.04c.32.68.5,1.15.54,1.41.04.26.18.77.42,1.52.16.68.32,1.13.48,1.35.16.23.36.72.6,1.47l1.09,2.93c.24.75.42,1.26.54,1.52.12.26.38.73.79,1.41l.03.1h0Z" fill="#752eff"/>
    <path d="M535.91,183.61c.16.68.26,1.13.3,1.35.04.23.18.64.42,1.24.16.68.44,1.15.84,1.41.4.26.4.66,0,1.18-.48.6-.91.75-1.27.45-.36-.3-.91-.45-1.63-.45h-8.69c-.65,0-1.15.13-1.51.39s-.79.13-1.27-.39c-.48-.6-.54-1.01-.18-1.24.36-.23.62-.68.79-1.35.16-.6.3-1.01.42-1.24.12-.23.22-.68.3-1.35.16-.75.2-1.24.12-1.47s-.12-.75-.12-1.58v-2.93c0-.75.02-1.26.06-1.52.04-.26.06-.81.06-1.63v-24.02c0-.75-.02-1.24-.06-1.47s-.06-.71-.06-1.47c0-.83.02-1.35.06-1.58s.06-.71.06-1.47v-2.93c0-.75-.02-1.24-.06-1.47s-.06-.75-.06-1.58.02-1.35.06-1.58.06-.71.06-1.47v-15c0-.75-.02-1.24-.06-1.47s-.06-.75-.06-1.58c0-.75.02-1.24.06-1.47s.06-.71.06-1.47v-3.04c0-.83.02-1.35.06-1.58s-.02-.71-.18-1.47c-.08-.68-.16-1.13-.24-1.35-.08-.23-.24-.64-.48-1.24-.16-.68-.42-1.15-.79-1.41-.36-.26-.3-.69.18-1.3.4-.52.8-.66,1.21-.39.4.26.92.39,1.57.39.72,0,1.21.02,1.45.06s.72.06,1.45.06h2.9c.64,0,1.09-.02,1.33-.06s.76-.06,1.57-.06c.72,0,1.27-.13,1.63-.39s.74-.09,1.15.51c.4.53.42.92.06,1.18s-.62.73-.78,1.41c-.16.6-.28,1.01-.36,1.24-.08.23-.2.68-.36,1.35-.16.75-.18,1.24-.06,1.47s.18.75.18,1.58v3.04c0,.75-.02,1.24-.06,1.47s-.06.72-.06,1.47v3.04c0,.75.02,1.24.06,1.47s.06.72.06,1.47-.02,1.26-.06,1.52c-.04.26-.06.81-.06,1.63,0,.75.02,1.24.06,1.47s.06.72.06,1.47v3.04c0,.75-.02,1.24-.06,1.47s-.06.72-.06,1.47v3.04c0,.83.02,1.35.06,1.58s.06.72.06,1.47v2.93c0,.75-.02,1.24-.06,1.47s-.06.75-.06,1.58c0,.75.02,1.24.06,1.47s.06.75.06,1.58v15c0,.75-.02,1.24-.06,1.47s-.06.75-.06,1.58v2.93c0,.75.02,1.24.06,1.47s.06.72.06,1.47c0,.83-.02,1.37-.06,1.63-.04.26-.06.77-.06,1.52v2.93c0,.83-.04,1.35-.12,1.58s-.04.72.12,1.47h-.01Z" fill="#752eff"/>
    <path d="M581.78,103.1c.56.53.76.94.6,1.24-.16.3-.24.87-.24,1.69-.08.83-.06,1.37.06,1.63.12.26.26.77.42,1.52s.28,1.24.36,1.47c.08.23.2.72.36,1.47.08.38.2.7.36.96s.28.51.36.73c.08.23.12.43.12.62s-.16.43-.48.73c-.24.23-.46.34-.66.34s-.4-.07-.6-.23c-.2-.15-.44-.3-.72-.45-.28-.15-.58-.26-.91-.34-.72-.15-1.21-.24-1.45-.28s-.77-.09-1.57-.17c-.97-.15-1.61-.19-1.93-.11s-.93.11-1.81.11c-.97,0-1.51-.04-1.63-.11s-.66,0-1.63.23c-.72.23-1.21.71-1.45,1.47-.24.75-.36,1.17-.36,1.24v1.24c0,.75.02,1.24.06,1.47s.06.71.06,1.47c0,.83-.02,1.35-.06,1.58s-.06.72-.06,1.47v11.84c0,.83.02,1.35.06,1.58s.06.72.06,1.47v2.93c0,.75-.02,1.24-.06,1.47s-.06.75-.06,1.58v11.84c0,.75.02,1.24.06,1.47s.06.75.06,1.58c0,.75-.02,1.24-.06,1.47s-.06.71-.06,1.47v2.93c0,.83-.02,1.35-.06,1.58s-.06.72-.06,1.47.02,1.24.06,1.47.06.72.06,1.47v8.91c0,.83-.02,1.35-.06,1.58s.02.72.18,1.47c.08.68.14,1.13.18,1.35.04.23.14.64.3,1.24.24.68.54,1.13.91,1.35.36.23.34.64-.06,1.24-.48.52-.91.66-1.27.39-.36-.26-.87-.39-1.51-.39-.72,0-1.21.02-1.45.06s-.72.06-1.45.06-1.21-.02-1.45-.06-.72-.06-1.45-.06h-2.9c-.72,0-1.27.15-1.63.45s-.79.15-1.27-.45c-.4-.52-.4-.92,0-1.18s.68-.73.85-1.41c.16-.6.28-1.01.36-1.24.08-.23.2-.68.36-1.35.16-.75.18-1.24.06-1.47s-.18-.75-.18-1.58c0-.75.02-1.24.06-1.47s.06-.71.06-1.47-.02-1.24-.06-1.47-.06-.71-.06-1.47v-23.9c0-.75-.02-1.24-.06-1.47s-.06-.71-.06-1.47.02-1.24.06-1.47.06-.71.06-1.47c0-.83.02-1.35.06-1.58s.06-.71.06-1.47v-2.93c0-.75-.02-1.24-.06-1.47s-.06-.75-.06-1.58c0-.75.02-1.24.06-1.47s.06-.71.06-1.47v-2.93c0-.83-.02-1.35-.06-1.58s-.06-.71-.06-1.47v-5.98c0-.75.02-1.24.06-1.47s.06-.71.06-1.47.02-1.16.06-1.24c.04-.07-.06-.49-.3-1.24-.16-.45-.38-.75-.66-.9-.28-.15-.66-.3-1.15-.45-.97-.15-1.49-.23-1.57-.23h-1.45c-1.05,0-1.73-.04-2.05-.11s-.93-.04-1.81.11c-.72.08-1.21.13-1.45.17s-.77.13-1.57.28c-.81.15-1.37.41-1.69.79s-.77.34-1.33-.11c-.56-.6-.68-1.07-.36-1.41s.56-.88.72-1.63.28-1.24.36-1.47c.08-.23.2-.71.36-1.47l.48-3.16c.08-.38.1-.69.06-.96-.04-.26-.06-.49-.06-.68s.02-.39.06-.62.22-.45.54-.68c.64-.52,1.13-.64,1.45-.34s.84.45,1.57.45h9.18c.8,0,1.33-.02,1.57-.06s.76-.06,1.57-.06h3.14c.72,0,1.21.02,1.45.06s.76.06,1.57.06h3.02c.72,0,1.21-.02,1.45-.06s.8-.06,1.69-.06h3.02c.8,0,1.33.02,1.57.06s.72.06,1.45.06c.8,0,1.39-.15,1.75-.45s.86-.19,1.51.34v.02h.01Z" fill="#752eff"/>
    <path d="M645.05,103.1c.64.23,1.03.43,1.15.62s.42.55.91,1.07c.4.53.66.86.78,1.01.12.15.46.45,1.03.9.48.38.86.6,1.15.68.28.08.54.41.79,1.01.32.68.4,1.15.24,1.41-.16.26-.24.81-.24,1.64v5.86c0,.83-.02,1.37-.06,1.64-.04.26-.06.77-.06,1.52s.02,1.24.06,1.47.06.72.06,1.47v3.04c0,.75-.02,1.24-.06,1.47s-.06.72-.06,1.47v18.04c0,.83.02,1.35.06,1.58s.06.72.06,1.47v2.93c0,.83-.02,1.35-.06,1.58s-.06.72-.06,1.47v2.93c0,.75.02,1.24.06,1.47s.06.75.06,1.58-.02,1.35-.06,1.58-.06.72-.06,1.47v11.95c0,.83.02,1.35.06,1.58s.06.72.06,1.47.06,1.24.18,1.47.02.75-.3,1.58c-.24.6-.48.94-.72,1.01-.24.08-.6.34-1.09.79-.48.45-.81.75-.97.9s-.44.45-.84.9c-.48.38-.79.7-.91.96-.12.26-.5.51-1.15.73-.72.23-1.23.28-1.51.17s-.87-.17-1.75-.17h-3.26c-.89,0-1.45-.02-1.69-.06s-.77-.06-1.57-.06c-.89,0-1.45.02-1.69.06s-.81.06-1.69.06c-.81,0-1.33-.02-1.57-.06s-.77-.06-1.57-.06c-.89,0-1.47.02-1.75.06s-.83.06-1.63.06-1.35.06-1.63.17-.83.06-1.63-.17c-.65-.15-1.01-.38-1.09-.68-.08-.3-.36-.71-.84-1.24-.4-.38-.71-.62-.91-.73-.2-.11-.54-.39-1.03-.85-.48-.53-.84-.81-1.09-.85-.24-.04-.44-.36-.6-.96-.4-.83-.54-1.35-.42-1.58s.18-.71.18-1.47.04-1.24.12-1.47.12-.75.12-1.58c0-.75-.04-1.24-.12-1.47s-.12-.75-.12-1.58c0-.75.04-1.24.12-1.47s.12-.71.12-1.47v-9.02c0-.83-.04-1.35-.12-1.58s-.12-.71-.12-1.47.04-1.24.12-1.47.12-.71.12-1.47-.04-1.24-.12-1.47-.12-.75-.12-1.58c0-.75.04-1.24.12-1.47s.12-.71.12-1.47-.04-1.24-.12-1.47-.12-.75-.12-1.58v-15.11c0-.75.04-1.24.12-1.47s.12-.71.12-1.47-.04-1.24-.12-1.47-.12-.71-.12-1.47v-3.04c0-.75.04-1.24.12-1.47s.12-.71.12-1.47-.04-1.26-.12-1.52c-.08-.26-.12-.81-.12-1.64,0-.75.04-1.24.12-1.47s.12-.71.12-1.47-.04-1.24-.12-1.47-.12-.71-.12-1.47c0-.83-.06-1.37-.18-1.64-.12-.26-.06-.73.18-1.41.32-.6.6-.94.84-1.01.24-.07.6-.34,1.09-.79.56-.45.92-.73,1.09-.85.16-.11.44-.39.85-.85.48-.45.76-.81.84-1.07s.44-.51,1.09-.73c.8-.3,1.35-.38,1.63-.23.28.15.82.23,1.63.23h16.42c.88,0,1.47-.07,1.75-.23.28-.15.78-.07,1.51.23v.09h-.01ZM638.89,115.5c-.16-.45-.34-.79-.54-1.02-.2-.23-.54-.38-1.03-.45-.72-.07-1.11-.11-1.15-.11h-4.17c-.72,0-1.17-.04-1.33-.11-.16-.07-.56,0-1.21.23-.4.15-.66.34-.79.56-.12.23-.26.53-.42.9-.16.3-.26.62-.3.96s-.06.88-.06,1.64c0,.68-.02,1.13-.06,1.35-.04.23-.06.72-.06,1.47v11.84c0,.75-.02,1.24-.06,1.47s-.06.72-.06,1.47.02,1.24.06,1.47.06.75.06,1.58v5.75c0,.75.02,1.24.06,1.47s.06.75.06,1.58c0,.75-.02,1.24-.06,1.47s-.06.68-.06,1.35v23.56c0,.75-.02,1.18-.06,1.3-.04.11.06.51.3,1.18.16.75.64,1.24,1.45,1.47.72.3,1.15.41,1.27.34s.54-.11,1.27-.11,1.21-.02,1.45-.06.72-.06,1.45-.06c.8,0,1.27.02,1.39.06s.5-.06,1.15-.28c.48-.15.79-.28.91-.39s.26-.39.42-.85c.32-.68.48-1.09.48-1.24v-7.22c0-.75.02-1.24.06-1.47s.06-.71.06-1.47-.02-1.24-.06-1.47-.06-.75-.06-1.58v-2.82c0-.75.02-1.24.06-1.47s.06-.71.06-1.47-.02-1.24-.06-1.47-.06-.75-.06-1.58c0-.75.02-1.24.06-1.47s.06-.71.06-1.47c0-.68-.02-1.13-.06-1.35-.04-.23-.06-.71-.06-1.47v-5.98c0-.75.02-1.24.06-1.47s.06-.68.06-1.35v-3.04c0-.75-.02-1.24-.06-1.47s-.06-.71-.06-1.47v-3.04c0-.68.02-1.13.06-1.35.04-.23.06-.71.06-1.47v-2.93c0-.83-.02-1.35-.06-1.58s-.06-.71-.06-1.47v-4.4c0-.3-.12-.64-.36-1.01v.02h0Z" fill="#752eff"/>
    <path d="M696.48,103.1c.48.6.56,1.03.24,1.3-.32.26-.68.7-1.09,1.3-.32.6-.46,1.03-.42,1.3.04.26-.02.73-.18,1.41-.08.75-.08,1.24,0,1.47s.12.75.12,1.58v2.93c0,.75-.02,1.24-.06,1.47s-.06.75-.06,1.58.02,1.35.06,1.58.06.72.06,1.47-.02,1.24-.06,1.47-.06.72-.06,1.47v3.04c0,.75.02,1.24.06,1.47s.06.72.06,1.47-.02,1.26-.06,1.52c-.04.26-.06.81-.06,1.63v2.93c0,.75.02,1.24.06,1.47s.06.72.06,1.47v5.98c0,.75-.02,1.26-.06,1.52-.04.26-.06.81-.06,1.64v20.97c0,.75.02,1.24.06,1.47s.06.72.06,1.47-.02,1.24-.06,1.47-.06.72-.06,1.47v6.09c0,.75.08,1.28.24,1.58s.12.79-.12,1.47c-.24.6-.52.92-.85.96-.32.04-.72.28-1.21.73-.4.45-.68.77-.84.96-.16.19-.48.51-.97.96-.48.38-.77.7-.84.96-.08.26-.44.47-1.09.62-.81.3-1.35.39-1.63.28s-.83-.17-1.63-.17h-16.42c-.81,0-1.37.06-1.69.17s-.89.06-1.69-.17c-.65-.15-.99-.38-1.03-.68-.04-.3-.3-.71-.79-1.24-.48-.38-.81-.62-.97-.73s-.52-.39-1.09-.85c-.4-.53-.75-.81-1.03-.85-.28-.04-.5-.36-.66-.96-.32-.83-.42-1.35-.3-1.58s.18-.71.18-1.47v-11.95c0-.83.02-1.35.06-1.58s.06-.71.06-1.47v-3.04c0-.83-.02-1.35-.06-1.58s-.06-.71-.06-1.47v-35.97c0-.75.02-1.24.06-1.47s.06-.71.06-1.47v-10.6c0-.23-.04-.71-.12-1.47-.16-.68-.26-1.13-.3-1.35-.04-.23-.18-.68-.42-1.35-.16-.6-.42-1.03-.79-1.3-.36-.26-.34-.69.06-1.3.48-.6.91-.75,1.27-.45.36.3.9.45,1.63.45h5.67c.72,0,1.21-.02,1.45-.06s.76-.06,1.57-.06c.72,0,1.27-.13,1.63-.39s.74-.09,1.15.51c.4.6.42,1.03.06,1.3-.36.26-.62.73-.78,1.41-.16.6-.28,1.01-.36,1.24-.08.23-.16.68-.24,1.35-.16.75-.2,1.24-.12,1.47s.12.75.12,1.58v2.93c0,.75-.02,1.24-.06,1.47s-.06.72-.06,1.47v5.98c0,.75.02,1.24.06,1.47s.06.75.06,1.58v8.91c0,.75-.02,1.24-.06,1.47s-.06.72-.06,1.47.02,1.24.06,1.47.06.75.06,1.58v5.86c0,.83-.02,1.35-.06,1.58s-.06.72-.06,1.47.02,1.24.06,1.47.06.72.06,1.47-.02,1.24-.06,1.47-.06.75-.06,1.58v5.86c0,.83.02,1.35.06,1.58s.06.72.06,1.47-.02,1.24-.06,1.47-.06.72-.06,1.47.02,1.24.06,1.47.06.75.06,1.58c0,.75-.02,1.24-.06,1.47s-.06.72-.06,1.47-.02,1.2-.06,1.35c-.04.15.06.56.3,1.24.16.45.34.75.54.9.2.15.5.3.91.45.72.15,1.17.23,1.33.23h5.55c.16,0,.56-.11,1.21-.34.48-.15.79-.28.91-.39s.26-.39.42-.85c.24-.75.36-1.18.36-1.3v-1.3c0-.75.02-1.24.06-1.47s.06-.71.06-1.47v-3.04c0-.75-.02-1.24-.06-1.47s-.06-.71-.06-1.47.02-1.24.06-1.47.06-.75.06-1.58c0-.75-.02-1.24-.06-1.47s-.06-.71-.06-1.47.02-1.24.06-1.47.06-.71.06-1.47c0-.83-.02-1.35-.06-1.58s-.06-.71-.06-1.47.02-1.24.06-1.47.06-.71.06-1.47v-5.98c0-.75-.02-1.24-.06-1.47s-.06-.71-.06-1.47v-17.93c0-.75.02-1.24.06-1.47s.06-.71.06-1.47-.02-1.24-.06-1.47-.06-.75-.06-1.58v-2.93c0-.75.02-1.24.06-1.47s.06-.71.06-1.47c0-.83.02-1.35.06-1.58s.02-.71-.06-1.47c-.08-.68-.18-1.13-.3-1.35-.12-.23-.26-.68-.42-1.35-.24-.6-.54-1.03-.91-1.3-.36-.26-.34-.69.06-1.3.48-.52.91-.64,1.27-.34.36.3.9.45,1.63.45s1.21-.04,1.45-.11.76-.11,1.57-.11c.64,0,1.09.02,1.33.06s.72.06,1.45.06h2.9c.72,0,1.25-.13,1.57-.39s.72-.13,1.21.39v-.02h0Z" fill="#752eff"/>
    <path d="M740.9,103.1c.56.53.76.94.6,1.24-.16.3-.24.87-.24,1.69-.08.83-.06,1.37.06,1.63.12.26.26.77.42,1.52s.28,1.24.36,1.47c.08.23.2.72.36,1.47.08.38.2.7.36.96s.28.51.36.73c.08.23.12.43.12.62s-.16.43-.48.73c-.24.23-.46.34-.66.34s-.4-.07-.6-.23c-.2-.15-.44-.3-.72-.45-.28-.15-.58-.26-.91-.34-.72-.15-1.21-.24-1.45-.28s-.77-.09-1.57-.17c-.97-.15-1.61-.19-1.93-.11s-.93.11-1.81.11c-.97,0-1.51-.04-1.63-.11s-.66,0-1.63.23c-.72.23-1.21.71-1.45,1.47-.24.75-.36,1.17-.36,1.24v1.24c0,.75.02,1.24.06,1.47s.06.71.06,1.47c0,.83-.02,1.35-.06,1.58s-.06.72-.06,1.47v11.84c0,.83.02,1.35.06,1.58s.06.72.06,1.47v2.93c0,.75-.02,1.24-.06,1.47s-.06.75-.06,1.58v11.84c0,.75.02,1.24.06,1.47s.06.75.06,1.58c0,.75-.02,1.24-.06,1.47s-.06.71-.06,1.47v2.93c0,.83-.02,1.35-.06,1.58s-.06.72-.06,1.47.02,1.24.06,1.47.06.72.06,1.47v8.91c0,.83-.02,1.35-.06,1.58s.02.72.18,1.47c.08.68.14,1.13.18,1.35.04.23.14.64.3,1.24.24.68.54,1.13.91,1.35.36.23.34.64-.06,1.24-.48.52-.91.66-1.27.39-.36-.26-.87-.39-1.51-.39-.72,0-1.21.02-1.45.06s-.72.06-1.45.06-1.21-.02-1.45-.06-.72-.06-1.45-.06h-2.9c-.72,0-1.27.15-1.63.45s-.79.15-1.27-.45c-.4-.52-.4-.92,0-1.18s.68-.73.85-1.41c.16-.6.28-1.01.36-1.24.08-.23.2-.68.36-1.35.16-.75.18-1.24.06-1.47s-.18-.75-.18-1.58c0-.75.02-1.24.06-1.47s.06-.71.06-1.47-.02-1.24-.06-1.47-.06-.71-.06-1.47v-23.9c0-.75-.02-1.24-.06-1.47s-.06-.71-.06-1.47.02-1.24.06-1.47.06-.71.06-1.47c0-.83.02-1.35.06-1.58s.06-.71.06-1.47v-2.93c0-.75-.02-1.24-.06-1.47s-.06-.75-.06-1.58c0-.75.02-1.24.06-1.47s.06-.71.06-1.47v-2.93c0-.83-.02-1.35-.06-1.58s-.06-.71-.06-1.47v-5.98c0-.75.02-1.24.06-1.47s.06-.71.06-1.47.02-1.16.06-1.24c.04-.07-.06-.49-.3-1.24-.16-.45-.38-.75-.66-.9-.28-.15-.66-.3-1.15-.45-.97-.15-1.49-.23-1.57-.23h-1.45c-1.05,0-1.73-.04-2.05-.11s-.93-.04-1.81.11c-.72.08-1.21.13-1.45.17s-.77.13-1.57.28c-.81.15-1.37.41-1.69.79s-.77.34-1.33-.11c-.56-.6-.68-1.07-.36-1.41s.56-.88.72-1.63.28-1.24.36-1.47c.08-.23.2-.71.36-1.47l.48-3.16c.08-.38.1-.69.06-.96-.04-.26-.06-.49-.06-.68s.02-.39.06-.62.22-.45.54-.68c.64-.52,1.13-.64,1.45-.34s.84.45,1.57.45h9.18c.8,0,1.33-.02,1.57-.06s.76-.06,1.57-.06h3.14c.72,0,1.21.02,1.45.06s.76.06,1.57.06h3.02c.72,0,1.21-.02,1.45-.06s.8-.06,1.69-.06h3.02c.8,0,1.33.02,1.57.06s.72.06,1.45.06c.8,0,1.39-.15,1.75-.45s.86-.19,1.51.34v.02h.01Z" fill="#752eff"/>
    <path d="M752.62,173.91c.64-.23,1.09-.3,1.33-.23.24.08.68.19,1.33.34.64.08,1.09.1,1.33.06.24-.04.68-.06,1.33-.06s1.09-.07,1.33-.23c.24-.15.68-.11,1.33.11.64.23,1.01.49,1.09.79.08.3.4.71.97,1.24.4.38.76.6,1.09.68.32.08.6.41.84,1.01.32.6.4,1.02.24,1.24-.16.23-.24.64-.24,1.24s.02,1.02.06,1.24c.04.23.06.64.06,1.24s.04,1.01.12,1.24c.08.23-.04.64-.36,1.24-.24.6-.46.96-.66,1.07-.2.11-.58.36-1.15.73-.48.53-.78.92-.91,1.18-.12.26-.5.51-1.15.73-.65.23-1.09.28-1.33.17s-.68-.17-1.33-.17h-2.66c-.65,0-1.09.06-1.33.17s-.68.06-1.33-.17-.99-.47-1.03-.73c-.04-.26-.34-.66-.91-1.18-.48-.38-.87-.62-1.15-.73s-.58-.47-.91-1.07c-.24-.6-.3-1.01-.18-1.24.12-.23.18-.64.18-1.24v-2.48c0-.6-.06-1.01-.18-1.24-.12-.23-.06-.64.18-1.24.32-.6.6-.94.84-1.01.24-.07.64-.38,1.21-.9.4-.38.66-.71.78-1.01.12-.3.5-.56,1.15-.79h.02,0ZM763.96,103.1c.4.6.46,1.03.18,1.3-.28.26-.62.73-1.03,1.41-.32.6-.48,1.01-.48,1.24s-.08.68-.24,1.35c-.16.75-.2,1.24-.12,1.47s.12.75.12,1.58v8.91c0,.75.02,1.24.06,1.47s.06.72.06,1.47-.06,1.24-.18,1.47-.18.75-.18,1.58v2.93c0,.75.04,1.24.12,1.47s.12.68.12,1.35v3.04c0,.75.02,1.24.06,1.47s.02.72-.06,1.47c0,.75-.04,1.24-.12,1.47s-.16.72-.24,1.47v1.58c0,.23-.04.72-.12,1.47v1.47c0,.23-.04.72-.12,1.47s-.12,1.24-.12,1.47v1.58l-.24,2.93v2.93l-.24,3.04c-.08.75-.12,1.24-.12,1.47v1.35c-.16.75-.24,1.24-.24,1.47s-.04.75-.12,1.58c0,.75.12,1.3.36,1.63s.08.81-.48,1.41c-.4.45-.78.56-1.15.34-.36-.23-.87-.34-1.51-.34h-2.66c-.65,0-1.13.11-1.45.34s-.72.08-1.21-.45c-.56-.6-.72-1.05-.48-1.35s.32-.83.24-1.58v-1.58c0-.23-.04-.71-.12-1.47v-1.35c0-.23-.04-.71-.12-1.47l-.24-3.04v-1.47c0-.23-.04-.71-.12-1.47-.16-.75-.2-1.24-.12-1.47s.04-.71-.12-1.47v-1.58c0-.23-.04-.71-.12-1.47v-1.47c0-.23-.04-.71-.12-1.47-.08-.75-.12-1.24-.12-1.47v-1.58c-.08-.75-.14-1.24-.18-1.47s-.06-.71-.06-1.47c-.08-.75-.1-1.24-.06-1.47s.06-.71.06-1.47c0-.83-.02-1.35-.06-1.58s-.06-.71-.06-1.47c0-.68.02-1.13.06-1.35.04-.23.06-.71.06-1.47s-.02-1.24-.06-1.47-.06-.71-.06-1.47c0-.83.04-1.35.12-1.58s.12-.71.12-1.47-.02-1.24-.06-1.47-.06-.71-.06-1.47v-8.91c0-.83.02-1.35.06-1.58s.02-.71-.06-1.47c-.08-.68-.16-1.13-.24-1.35-.08-.23-.24-.64-.48-1.24-.16-.68-.44-1.15-.84-1.41s-.36-.69.12-1.3c.48-.52.91-.66,1.27-.39.36.26.9.39,1.63.39.64,0,1.09.02,1.33.06s.72.06,1.45.06,1.21-.02,1.45-.06.72-.06,1.45-.06h2.78c.8,0,1.41-.15,1.81-.45s.84-.15,1.33.45l-.03.04h0Z" fill="#752eff"/>
  </g>
  <path d="M521.95,209.67c-1.5.05-2.97-.31-3.62-1.79s-.11-3.19-.73-4.72c-.39-.95-1.05-1.78-1.37-2.75-.39-1.18-.4-2.52-.34-3.75.11-2.42.66-4.84,1.24-7.19.53-2.13,1-4.72,2.13-6.62.22-.37.18-.31.44-.55.22-.2.38-.31.77-.4.54-.12,1.21-.06,1.8.04,3.7.64,7.25,2.67,10.51,4.43.97.52,1.76-.86.86-1.46-1.51-1.01-3.66-1.46-5.37-2-2.4-.76-4.85-1.55-7.34-1.96-.67-.11-1.41-.26-2.05.05-1.7.81-2.64,3.11-3.33,4.71-1.75,4.11-2.47,8.75-1.86,13.2.32,2.32,1.28,4.24,2.81,6s3.38,3.26,4.64,5.25l1.16-1.16c-4.7-3.18-7.54-8.22-7.26-13.96.14-2.88.98-5.7,2.08-8.34,1.04-2.51,2.36-5.67,5.47-5.91,1.08-.08,1.09-1.78,0-1.7-3.18.25-5.01,2.54-6.27,5.25-1.45,3.11-2.58,6.4-2.91,9.83-.63,6.65,2.58,12.6,8.03,16.29.71.48,1.6-.46,1.16-1.16-1.86-2.96-5.2-4.92-6.59-8.17-1.62-3.8-.89-8.9.33-12.71.57-1.79,1.33-3.99,2.67-5.37.14-.15,1.03-.64.6-.54-.07.02.21,0,.26,0,.32,0,.65.07.96.13,2.2.41,4.36,1.07,6.49,1.74,1.73.54,3.94.97,5.47,1.99l.86-1.46c-3.37-1.82-7.02-3.86-10.83-4.58-1.4-.26-3.03-.36-4.17.65-.31.27-.56.6-.79.94-1.2,1.79-1.66,4.37-2.19,6.44-.66,2.56-1.26,5.21-1.44,7.85-.09,1.29-.05,2.59.19,3.86.22,1.16.79,2.1,1.34,3.13,1.01,1.92.17,4.19,1.44,6.11,1.06,1.61,2.93,2.13,4.77,2.06,1.09-.04,1.09-1.73,0-1.7h-.02,0Z" fill="#fff"/>
</svg>