<?xml version="1.0" encoding="UTF-8"?>
<svg id="Layer_1" xmlns="http://www.w3.org/2000/svg" version="1.1" viewBox="0 0 683.56 944.89">
  <!-- Generator: Adobe Illustrator 30.3.0, SVG Export Plug-In . SVG Version: 2.1.3 Build 182)  -->
  <path d="M264.98,946.33h-10.71c-.7-6.34-1.64-12.95-2.78-19.93-2.32,6.98-4.54,13.57-6.89,19.93h-7.66c2.95-12.1,12.71-23.76,13.22-36.8l3.3-84.18,5.66-46.18,2.32,77.95c.47,15.88-.93,31.29,1.46,46.99,2.17,14.21,2.14,28.17,2.08,42.22h0Z" fill="#752eff"/>
  <circle cx="282.13" cy="669.08" r="7.88" fill="#752eff"/>
  <circle cx="284.54" cy="564.47" r="7.66" transform="translate(-315.8 366.53) rotate(-45)" fill="#752eff"/>
  <circle cx="277.09" cy="884.65" r="7.24" fill="#752eff"/>
  <path d="M269.78,219.75h-.02.02Z" fill="#752eff"/>
  <path d="M185.97,129.9l5.63-20.08,5.38-26.89c5.21,19.52,2.59,31.23-11.01,46.97Z" fill="#752eff"/>
  <path d="M229.37,210.65c-11.85-8.93-25.94-7.2-32-20.22,8.67,4.78,16.25,7.32,26.82,8.4,1.85,2.1,4.39,8.45,5.17,11.82h0Z" fill="#752eff"/>
  <path d="M248.33,113.1c-12.63-7.58-22.56-12.41-37.23-11.03,13.07-5.59,29.29-2.81,37.23,11.03Z" fill="#752eff"/>
  <path d="M238.76,282.97c-7.52-.44-13.81-6.15-11.66-14.26l11.66,14.26Z" fill="#752eff"/>
  <path d="M449.81,645.83l15.32-15.78c-.39,6.86-6.94,15.61-15.32,15.78Z" fill="#752eff"/>
  <path d="M548.08,569.19c-6.62,3.84-10.78,10.54-13.88,17.53l22.31,15.26c5.36-9.14,8.37-14.54,8.77-22.4.39-7.5-10.56-14.24-17.2-10.39ZM553.79,595.59h0l-15.16-9.05c.53-6.65,10.06-15.44,16.97-11.57,6.93,3.89,4.37,15.22-1.81,20.62Z" fill="#752eff"/>
  <path d="M575.84,564.63l-15.11-12.05c6.69-1.2,14.33,4.52,15.11,12.05Z" fill="#752eff"/>
  <path d="M262.9,904.11c2.17,14.21,2.14,28.17,2.08,42.22h-10.71c-.7-6.34-1.64-12.95-2.78-19.93-2.32,6.98-4.54,13.57-6.89,19.93h-7.66c2.95-12.1,12.71-23.76,13.22-36.8l3.3-84.18,5.66-46.18,2.32,77.95c.47,15.88-.93,31.29,1.46,46.99h0Z" fill="#752eff"/>
  <circle cx="282.13" cy="669.08" r="7.88" fill="#752eff"/>
  <circle cx="284.53" cy="564.42" r="7.66" transform="translate(-330.16 711.69) rotate(-76.72)" fill="#752eff"/>
  <path d="M139.77,418.35c-15.16-4.26-27.85-9.35-44.17-16.1l41.44-74.73,1.03,3.14-32.01,69.28c11.19,5.73,23.18,9.45,33.71,18.41h0Z" fill="#752eff"/>
  <path d="M126.11,122.84l-1.9.47c2.77-10.53,7.64-21.15,14.45-30.69.3,12.48-3.81,23.48-12.55,30.22h0Z" fill="#752eff"/>
  <path d="M105.06,459.81l17.07,49.13c3.7,10.66,5.32,21.45,7.02,32.91-9.56-16.54-15.59-33.75-22.23-51.59l-12.84-34.48,35.76-23.87,12.59-7.46c-10.83,14.51-23.62,24.18-37.37,35.36h0Z" fill="#752eff"/>
  <path d="M145.7,130.56c1.17-.34,4.52-1.09,5.96-.9,7.43.99,15.15,11.43,12.39,19.17-7.49-13.57-23.52-16.75-18.35-18.27h0Z" fill="#752eff"/>
  <path d="M174.56,194.91h0l-1.55,7.57c-.35,1.72-5.49-1.68-6.48-3.16l-12.66-25.52c-4.77-9.62-9.5-17.49-7.88-29.45l6.37,15,1.96-10.83c1.97,2.4,4.04,8.61,3.3,11.66-5.84,23.97,19.29,23.29,16.95,34.73h0Z" fill="#752eff"/>
  <path d="M190.46,822.83c-.27,6.34-3.53,10.72-7.21,11.35h0c-5.03.84-9.83-2.84-10.96-8.03-1.57-7.23,2.83-15.21,10-15.38,3.75-.09,8.38,7.35,8.17,12.06Z" fill="#752eff"/>
  <path d="M170.03,652.17c12.29,32.53,21.74,64.71,25.2,98.57l-25.77-75.06c-13.67-32.01-24.89-62.79-30.52-97.45-2.7-16.64,3.96-35.15,13.66-49.38-1.27,14.61-8.95,28.66-6.65,42.98,4.51,28.08,14.1,53.92,24.08,80.34h0Z" fill="#752eff"/>
  <path d="M245.15,153.16c-11.58,8.5-25.94,9.96-37.47,1.19,9.89-10.79,26.07-12.52,37.47-1.19Z" fill="#752eff"/>
  <path d="M263.59,358.63l1.05,14.08h-.01c-7.56-9.86-9.74-21.32-11.59-34.28,7.11,4.68,10.83,7.92,17.25,14.29-2.05,1.47-6.83,4.14-6.7,5.91h0Z" fill="#752eff"/>
  <polygon points="299.71 90.04 291.25 92.99 291.37 74.3 299.71 90.04" fill="#752eff"/>
  <path d="M294.13,398.61l26.07-8.68-8.86,20.2h-.01c-12.22,4.35-20.1,12.32-27.63,23.98l22.12-8.26c-1.02,8.26-2.29,17.48-5.43,25.36l-15,37.6-9.04-16.46c-.43,14.13.07,24.37-3.96,39.64l-16.72-32.61c-5.45-10.62-3.44-24.93-6.24-38.05l8.55-1.65-17.71-18.33,10.9-2.16c-13.39-10.71-23.1-17.17-30.45-32.25l32.23,11.19-15.3-34.79-.51,18.73c-23.26-13.26-8.62-31.66-15.13-59.55l-6.31,23.04c-4.22-8.82-6.66-19.12-7.04-29.63l-1.15-31.73c13.68,12.49,19.52,27.97,26.41,44.34l17.81,42.29,15.18,36.33c.68,1.62,4.27,4.25,5.83,4.65,7.57,1.91,15.24-28.82,27.49-44.41l-6.1,31.21h0Z" fill="#752eff"/>
  <path d="M339.46,152.05c-10.17,9.51-23.01,8.2-35.32,1.11,8.52-10.73,24.9-10.16,35.32-1.11Z" fill="#752eff"/>
  <path d="M308.36,86.73l-15.65-37.66c18.13,10.31,38.48,31.88,41.79,51.21h0l-24.67,1.74-.65-10.45,13.52-4.26-14.34-.58h0Z" fill="#752eff"/>
  <path d="M331.47,34.24c12.91,3.78,19.36,15.93,20.96,27.72-9.3-8.29-15.38-17.15-20.96-27.72Z" fill="#752eff"/>
  <path d="M319.84,42.15c11.2,11.41,21.1,20.72,35.92,26.68h0l.64,12.48-23.98-19.02c-5.48-4.35-10.54-12.68-12.58-20.14h0Z" fill="#752eff"/>
  <path d="M342.45,203.72c23.25-10.22,30.57-37.37,17.28-57.46-3.09,3.74-1.33,6.61,1.01,9.82h-5.84c-.97,0-3.02,17.75-15.67,23.61-8.62,3.99-16.34,2.68-25.23.7l9.88,9.61c-14.53,1.18-19.44-10.32-28.44-15.2l-1.43,13.82-11.07-29.79c-1.43-3.87-2.86-8.31-5.12-10.03-2.26-1.72-10.84.16-11.7,3.06l-7.4,25.02-1.46-16.57c-6.04,12.97-15.48,22.65-27.65,29.89l5.21-10.73c-13.02,4.8-26.73,6.04-36.22-4.74l19.64,1.8-3.98-4.86c-.43-.53-.57-1.29.15-1.44l6.56-1.41-17.62-7.38,3.82,9.51c-6.03-2.31-10.47-6.27-13.53-12.17l-8.04-4.35c3.47-2.47,7.01-4.46,6.52-6.26l-2-7.4,13.25-11.57c4.75-4.15,11.59-3.8,16.97-.83,10.39,5.73,19.35,8.52,31.73,12.44,4.53,1.43,11.83-4.06,13.49-9.06,1.88-5.66-2.24-12.21-5.35-17.93,5.41,1.71,9.89,8.18,10.94,13.61,1.2,6.18-1.69,11.91-5.4,17.67l12.96-3.05c.24-7.01.96-12.03,2.93-16.93l8.24,17.63c3.71-8.34,9.87-1.5,12.72-2.86l36.77-17.54,16.14,18.6c5.95-10.95-1.15-20.19-4.87-30.3-2.91-7.93-1.54-18.07-1.33-27.81l-15.23-11.47,2.36,27.29c.21,2.46,1.71,6.65,2.65,9.49-9.05-6.15-21.35-5.03-29.08,1.39l-4.82,20.86-1.94-20.43-20.6,6.43c5.46-6.18,10.84-6.89,19.76-9.49-.03-3.94-.66-8.22-2.18-15.19l-9.97,6.97c-23.23,8.35-37.24-9.58-63.57-10.94,25.56-9.02,41.34,20.26,62.04,6.59,3.29-25.59-27.26-62.81-46.62-63.91-9.41-.53-19.35,11.89-18.74,21.52.67,10.57,12.59,17.78,7.5,22.67-.46.45-1.12.35-1.51-.25l-2.48-3.88c-2.94-4.61-8.79-10.95-11.79-16.73-1.96,9.43-2.29,19.13-2.42,31.05-9.17-18.68-4.97-40.43,10.9-55.77-22.69-.59-25.15,21.03-30.93,45.19l-3.07-23.1c-13.9,24.08,2.73,41.02-4.39,55.99-3.74,7.86-4.73,15.82-5.47,24.43l-2.55,29.8c-.5,5.81,1,11.58,2.37,16.88h-.05c4.59,17.73,16.34,26.75,34.56,28.97,10.17,9.69,15.63,29.87,8.96,44.04-3.52-11.56-2.13-23.78-13.68-28.85,4.86,14.22,8.31,28.11,5.38,41.65-2.62-6.16-3.94-14.64-6.42-18.43l-12.4-18.99c.95,7.77.58,19.95,4.4,26.47,9.78,16.71,23.42,29.33,36.72,42.87,7.56,14.33,23.17,21.52,38,13.97,15.73,6.81,33.15,1.14,39.67-14.68,7.34-11.32,14.64-20.99,24.17-30.82l6.16-30.34c-10.49,13.62-6.12,30.47-19.1,37.22,5.27-15.49,7.08-29.66,4.69-45.18l-5.75,20.84-.92-22.56c-.27-6.7,4-13.45,6.85-19.62-7.06,2.33-8.97,6.12-14.7,12.43l2.45-9.59c.6-2.33,1.42-6.13.2-7.5l-5.07-5.67c22.29,7.8,37.23-4.1,34.86-7.86l-3.49-5.54,9.77-8.39c-.72,13.34-6.89,20.44-12.34,31.05h0ZM299.91,194.48c8.29,8.56,6.14,21.21-3.2,26.62,3.11-9.49,4.01-16.71,3.2-26.62ZM256.67,206.44l11.93-29.18c.44-1.08,1.86-4.82,2.67-4.33l5.11,3.08,4.69-6.15,15.15,38.04c2.55,6.4-8.38,14.54-14.82,13.02l-5.44-13.99-6.2,12.82c-2.59.22-7.63-1.01-9.66-2.38-2.92-1.98-4.65-7.96-3.43-10.93h0ZM252.83,192.79c-1.83,10.21-2.35,16.5.7,26.62l-9.41-7.65c-3.92,7.7-6.49,15.05-12.56,21.24,2.56-14.76,9.86-27.95,21.27-40.21h0ZM315.88,279.2l-5.09-14.57-10.59,15.34,11.72,4.98c-3.94,7.85-8.21,13.75-13.91,18.53l-.32-8.93c-.07-2.07-4.72-4.76-6.73-5.97-12.19-7.35-23.72-2.07-37.66,1.9,1.89-2.56,5.34-5.92,8.38-8.53l-14.76-12.71,23.74-.2v.02c12.06-.1,22.9-.85,32.01-6.06-9.07-6.43-17.46-1.52-26.26-1.28-7.34.2-16.95-2.25-24.57-.85l-24.86,4.57c4.94-5.26,7.39-10.39,8.08-17.42l10.83,2.51-3.45-14.97,12.67,16.24,1.9-18.41,3.53,8.22c2.45,5.7,7.63,9.18,13.25,7.51l3.39-15.7,2.96,15.25c2.62.59,7.45-3.06,8.93-5.91l6.57-12.65-.6,19.29,12.81-17.5-1.15,16.87,6.48-8.65c8.27,11.3,12.63,25.35,2.7,39.08h0ZM321.16,242.28c-6.71-9.46-10.68-18.45-12.56-29.46,8.05,8.02,12.45,17.55,12.56,29.46Z" fill="#752eff"/>
  <path d="M363.42,699.72l-17.95,52.89c1.97-18.38,7.28-35.47,11.58-54.55.31-1.38,3-4.06,4.38-3.83,1.37.23,2.52,3.93,1.99,5.49h0Z" fill="#752eff"/>
  <path d="M345.03,385.23l-17.63,21.25c1.05-13.8,6.94-23.49,11.64-34.61,8.68-20.55,14.07-43.06,14.46-65.65.13-7.42-3.15-14.31-.06-22.09,3.75,8.34,8.49,17.82,9.81,26.59l5.41,36.06,3.27,31.01,2.15,46.48-14.36-27.41c-2.73-5.21-8.64-9.94-14.69-11.63Z" fill="#752eff"/>
  <path d="M373.49,647.81l20.74-68.98c-2.59,25.65-2.06,71.35-20.74,68.98Z" fill="#752eff"/>
  <path d="M434.52,393.7c-10.55-24.05-21.93-47.32-31.32-72.43,18.23,25.18,29.94,52.05,44.71,80.63h0l-39.78,12.62,22.67-12.76c1.91-1.07,4.58-6.1,3.72-8.06h0Z" fill="#752eff"/>
  <path d="M408.52,429.83c15.35,8.02,25.95,16.08,40.8,26.43l-13.44,33.59c-7.47,15.59-12.35,31.17-24.27,45.81l18.12-57.51,9.73-20.56-30.94-27.76Z" fill="#752eff"/>
  <path d="M417.79,569.78c12.13-8.96,26.83-15.37,42.85-13.42-13.38,7.12-26.9,12.35-42.85,13.42Z" fill="#752eff"/>
  <path d="M483.31,527.99c-8.39-.67-15.4-2.74-23.91-5.36,7.04-4.06,18.07-6.43,23.91,5.36Z" fill="#752eff"/>
  <path d="M472.21,364.08l-10.75-16.97,19.2-2.27,27.33,14.02c4.74,2.43,9.21,9.75,8.08,14.62l-5.43,23.35-9.7-13.35-2.44,22.69-2.58,27.16c-6.45-18.71-5.12-59.49-10.42-57.11l-6.12,2.74c-2.69,1.21-7.53,2.08-9.49,1.44,2.02-5.44,4.47-12.93,2.32-16.32h0Z" fill="#752eff"/>
  <path d="M533.47,431.37l-16.55,50.02c2.77-32.57,12.41-64.02,29.77-92.03l-13.22,42.01h0Z" fill="#752eff"/>
  <path d="M545.01,482.91c5.16-12.19,9.06-24.54,19.7-33.85-6.19,24.79-17.8,44.96-31.51,65.14,2.01-11.71,7.4-20.87,11.81-31.29h0Z" fill="#752eff"/>
  <path d="M555.41,704.46c-10.3-3.63-19.77-10.56-29.64-17.22-25.58,10.27-52.29,5.67-72.26-10.45,5.41-6.72,7.31-14.34,4.21-20.29-2.21,4.38-4.97,16.29-9.66,16.96l-24.34,3.49,5.13-15.98-4.86,3.59-8.56-9.17c1.35,8.91,4.16,19.74-3.48,26.06-13.66,11.3-34.81,9.91-49.8,1.9-5.88-10.63.06-21.61,11.32-24.99,10.97-2.87,20.88-7.7,31.06-14.19,20.76,4,40.35-2.72,53.6-19.48l3.56-1.6c.57-.26.55-.09.8.56l1.98,5.24c5.43-10.32,6.73-19.51,7.69-32.04l3.67-15.6c9.61,6.08,21.47,10.39,31.74,1.92-7.8-.78-15.79-.94-21.72-4.56-6.7-4.08-8.12-14.88-6.22-20.91,11.84,2.77,20.72.33,26.38-8.99l-11.13,2.23,7.3-14.44c-18.04,12.17-37.17,16.82-47.41,4.31-2.17-2.65-3.12-10.61-.84-13.27,13.3-2.24,23.39,14.23,31.74,3.35,3.15-4.11,1.49-12.72-4.27-13.7l-14.45-2.46c7.85-6.73,18.07-4.48,27.95-1.4,8.92,2.78,16.25,7.53,16.58,18.57l.95,31.85c.23,7.6,4.28,12.56,13.06,13.13-4.76,11.17-2.4,21.58,4.62,30.13,6.75,8.22,16.17,11.88,28.85,10.59,3.21,7.22,4.42,15.17,1.41,23.3-13.65-10.86-24.3-19.9-39.1-25.78l10.31,13.02c-20.83-1.31-37.68-9.41-54.58-22.29,1.76,10.07,9.82,15.68,16.18,21.62l-14.6,2.7c12.06,2.48,24.82,11.83,33.38,21.19,7.57,8.28,10.79,18.74,16.83,30.1,3.6-8.21.84-16.07-.96-26.93l7.4,8.78-.78-11.11c16.19,14.73,19.06,34.34,45.65,38.73-2.57,12.82-13.38,17.52-24.69,13.53h0Z" fill="#752eff"/>
  <path d="M579.32,539.05c7.59,6.26,10.16,13.43,4.97,22.05l-23.6,39.18c-5.48,9.09-17.6,4.83-23.46.03-7.39-6.04-6.61-15.36-1.81-24.42l19.43-36.73c5-9.45,18.16-5.31,24.47-.11h0Z" fill="#752eff"/>
  <path d="M586.46,639.82c7.78,5.04,5.96,13.81-1.88,21.33l-11.96-9.6c3.31-5.85,8.99-11.77,13.84-11.73Z" fill="#752eff"/>
  <path d="M598.84,720.41l-4.79-8.03c-1.05-1.75,2.34-6.6,4.27-7.21l5.48-1.73c1.53-.48,4.13,5.74,3.34,7.22-1.68,3.13-5.1,6.86-8.3,9.75h0Z" fill="#752eff"/>
  <path d="M618.66,754.76v-.02l.02.02h-.02Z" fill="#752eff"/>
  <path d="M618.66,754.74l-12.57-12.95,2.91,33.39-19.42-11.3-19.08-11.78,7.16,16.2c-4.71-2.84-11.46-6.83-14.35-10.87l-36.65-51.24c12.78,3.5,18.95,13.35,26.96,21.96l17.49,18.8-11.69-28.14,16.77-1.5c2.21,9.78,12.4,18.95,22.87,14.9,7.67-2.97,14.22-10.98,21.57-17.07,1.64,14.02,1.75,27.71-1.97,39.6Z" fill="#752eff"/>
  <path d="M601.23,587.02l-.02-.02c8.03-4.25,22.31,8.42,21.82,17.68l-9.76,23.33c-4.74-6.63-5.52-10.51-13.49-11.66l12.42,14.66-13.74,20.94-4.61-12.91c-.99-2.78-8.74-5.61-11.46-3.89-4.93,3.12-10.44,11.01-14.33,17.18l14.05,14.36c-7.46.96-17.47-5.45-17.06-13.4.83-16.08,25.21-33.15,27.97-56.5l-14.6,12.83.33-10.71,22.48-11.89h0Z" fill="#752eff"/>
  <path d="M620.51,633.98l15.18,23.18v.02l-7.91,2.56,6.56,4.27c1.76,1.15.71,6.1-.36,8.57l-7.44,17.25c-.27.63-2.65,1.29-3.34,1.37-.92.1.83,4.09.25,4.8l-9.59,11.72c-3.11-4.21-5.84-8-8.46-9.16-6.63-2.94-17.31,10.57-15.78,13.73l5.2,10.73c-1.8-.33-5.54-1.71-7.11-3.35-9.96-10.32,9.35-27.63,16.45-38.18l10.92-25.91-9.79,3.54,15.22-25.14h0Z" fill="#752eff"/>
  <path d="M670.76,687.99c-8.57-3.71-17.34-9.51-26.36-16.81,11.37.13,19.4,6.24,26.36,16.81Z" fill="#752eff"/>
  <path d="M659.74,721.31c2.18,5.12,1.57,13.11-.64,19.47-3.19-12.7-7.66-25.2-16.21-36.06-5.72-7.27-6.95-15.29.28-22.33h0l16.56,38.92h.01Z" fill="#752eff"/>
</svg>