<?xml version="1.0" encoding="UTF-8"?>
<svg id="Layer_1" xmlns="http://www.w3.org/2000/svg" version="1.1" viewBox="0 0 470.1 50.51">
  <!-- Generator: Adobe Illustrator 30.3.0, SVG Export Plug-In . SVG Version: 2.1.3 Build 182)  -->
  <path d="M115.53,32.52l-.15,1.4c-10.16-1-19.47,2.04-19.47,2.04l-3.98-.52c-5.84,3.71-17.58,4.74-17.58,4.74l-16.59,3.68v.03s-.05-.02-.05-.02l-2.18.49,3.02,3.76-5.25-3.19c-11.21,2.44-31.98,2.14-31.98,2.14l3.41,3.44L0,46.47H0s8.29-1.44,8.29-1.44l9.31-1.6-4.21-1.4,17.07-1.19.25.33,12.36-2.14,21.03-3.62.86-2.88,3.04,2.21,17.45-3.01,6.85-1.18c6.12.15,18.23,1.42,23.23,1.97Z" fill="#f6f6f6"/>
  <path d="M470.1,9.89l-5.99-1.78-34.96,5.89c-25.78-9.97-101.5,5.47-101.5,5.47l-6.65-1.61-13.06.48-2.69-1.25-29.02-2.88s-3.03,1.39-7.12,3.93c-4.08,2.55-13.55,1.66-21.36,2.01-7.8.35-15.53,2.56-20.82,5.02-4.4,2.05-13.98,2.23-17.08,2.23-.63,0-.99-.01-.99-.01-8.98,3.74-16.95,3.47-22.88,3.45-5.93-.03-8.81,2.59-14.34,4.4-5.54,1.81-20.19,2.26-20.19,2.26,0,0-17.73,1.08-29.92-2.43-2.04-.59-4.11-.95-6.15-1.15l.15-1.4c1.41.15,2.25.25,2.25.25l13.34-.33c7.6,5.02,30.64.64,30.64.64-3.08-.31-5.88-4.46-5.88-4.46,8.55,2.56,16.52-2.7,16.52-2.7,0,0,9.06-2.22,26.69,0,3.89.49,7.48.55,10.69.35,11.37-.67,18.23-4.58,18.23-4.58l-11.12.98c8.12-5.3,14.06-5.5,19.02-4.67,4.95.83,3.39-8.29,3.39-8.29,0,0,1.01.85,1.84,2.85.83,2,3.98,1.96,3.98,1.96,1.25,4.88,10.27,2.45,15.33,2.48,5.06.02,6.32-3.07,9.57-3.9,1.19-.31,3.39-.19,6.29.02,5.01.37,12.13,1.02,19.84.23,10.84-1.11,21.38,1.98,25.25,2.78.47.1.84.16,1.1.18,2.41.15,3.1-2.68,3.1-2.68,4.92,3.16,23.49-1.39,26.51-1.95,3.01-.55,2.95-2.64,2.95-2.64,5.72.74,17.58-2.86,17.58-2.86l-2.49,1.97c30.43-4.51,48.64-.01,54.58.35,5.93.35,9.59,3.51,17.59-.99,8.01-4.49-14.91-5.79-14.91-5.79,10.05-3.91,18.33.05,18.33.05,2.5,3.56,3.09,2.19,10.06,3.5,6.97,1.3,14,1.6,14,1.6l.3,3.02Z" fill="#f6f6f6"/>
</svg>