<?xml version="1.0" encoding="UTF-8"?>
<svg id="Layer_1" xmlns="http://www.w3.org/2000/svg" version="1.1" viewBox="0 0 1920 205.48">
  <!-- Generator: Adobe Illustrator 30.3.0, SVG Export Plug-In . SVG Version: 2.1.3 Build 182)  -->
  <path d="M1918.77,27.9s-28.72-1.22-57.19-6.51c-28.47-5.33-30.88.24-41.09-14.25,0,0-33.82-16.12-74.87-.2,0,0,93.62,5.29,60.9,23.57-32.68,18.32-47.63,5.45-71.85,4.03-24.26-1.47-98.65-19.78-222.95-1.42l10.17-8.02s-48.45,14.65-71.81,11.64c0,0,.25,8.51-12.05,10.75-12.34,2.28-88.19,20.8-108.29,7.94,0,0-2.82,11.52-12.66,10.91-1.06-.08-2.57-.33-4.49-.73-15.81-3.26-58.86-15.83-103.14-11.32-31.49,3.22-60.58.57-81.04-.94-11.85-.85-20.83-1.34-25.69-.08-13.28,3.38-18.42,15.96-39.09,15.88-20.67-.12-57.51,9.77-62.62-10.1,0,0-12.87.16-16.26-7.98-3.39-8.14-7.52-11.6-7.52-11.6,0,0,6.37,37.12-13.85,33.75-20.26-3.38-44.52-2.56-77.69,19.01l45.42-3.99s-28.02,15.92-74.46,18.64c-13.11.81-27.78.57-43.67-1.42-72.01-9.04-109.02,0-109.02,0,0,0-32.56,21.41-67.48,10.99,0,0,11.44,16.89,24.02,18.15,0,0-94.11,17.83-125.16-2.61l-54.49,1.34s-3.34-.4-8.95-.99c-20.42-2.24-69.89-7.41-94.89-8.02l-27.98,4.8-71.28,12.25-12.42-9-3.51,11.72-85.9,14.74-50.49,8.71-1.02-1.34-69.73,4.84,17.2,5.7-38.03,6.51L0,189.12l101.02,16.45-13.93-14s84.84,1.22,130.63-8.71l21.44,12.99-12.34-15.31,8.9-1.99.2.08v-.12l67.77-14.98s47.96-4.19,71.81-19.29l16.26,2.12s37.89-12.33,79.3-8.32c8.33.81,16.78,2.28,25.11,4.68,49.79,14.29,122.22,9.89,122.22,9.89,0,0,59.84-1.83,82.47-9.2,22.59-7.37,34.35-18.03,58.58-17.91,24.22.08,56.78,1.18,93.46-14.04,0,0,1.47.04,4.04.04,12.66,0,51.79-.73,69.77-9.08,21.61-10.01,53.18-19.01,85.04-20.43,31.9-1.42,70.58,2.2,87.25-8.18,16.71-10.34,29.08-16,29.08-16l118.54,11.72,10.99,5.09,53.35-1.95,27.16,6.55s309.3-62.85,414.6-22.27l142.8-23.98,24.47,7.25h0l-1.23-12.29Z" fill="#f6f6f6"/>
</svg>