<?xml version="1.0" encoding="UTF-8"?>
<svg id="Layer_1" xmlns="http://www.w3.org/2000/svg" version="1.1" viewBox="0 0 685.33 256">
  <!-- Generator: Adobe Illustrator 30.3.0, SVG Export Plug-In . SVG Version: 2.1.3 Build 182)  -->
  <path d="M571.65,80.47c.55-2.17,1.6-4.28,3.29-5.79-.1.86-.19,1.73-.16,2.6.32.48.71.92,1.04,1.4-2.21,1.77-3.56,4.45-4.01,7.22-.25,1.29-.28,2.61-.2,3.93-.58-3.08-.77-6.3.03-9.35h.01Z" fill="#fff"/>
  <path d="M586.24,77c3.18-.76,6.48-.7,9.72-.37,2.35.27,4.7.73,6.9,1.61-.01,2.86-.01,5.71,0,8.57-.36.02-.73.02-1.08.01-1.21-1.99-2.73-3.85-4.7-5.12-2.12-1.39-4.75-1.93-7.26-1.64-2.05.2-4.11,1.09-5.44,2.7-.89,1.05-1.41,2.38-1.59,3.73-.11,1.48-.03,2.99.46,4.4.7,2.12,2.18,3.87,3.84,5.33,1.97,1.74,4.16,3.22,6.31,4.73,1.7,1.23,3.4,2.47,5.04,3.78,1.86,1.51,3.66,3.13,5.13,5.04,1.73,2.19,2.89,4.85,3.17,7.63.27,2.8-.07,5.69-1.21,8.27-.94,2.18-2.44,4.11-4.28,5.59-2.95,2.37-6.73,3.58-10.48,3.76-1.33.16-2.67,0-4.01-.05-4.3-.33-8.58-1.44-12.33-3.6-.34-2.4-.54-4.82-.65-7.24-.13-1.39-.1-2.78-.1-4.17,0-1.04-.02-2.09.05-3.13h1.3c.68,2.67,1.64,5.28,3.03,7.67,1.25,2.1,2.93,4.01,5.07,5.23,1.98,1.14,4.29,1.64,6.57,1.57,2.74,0,5.54-1.16,7.31-3.29,1.76-2.06,2.44-4.9,2.08-7.56-.18-2.66-1.47-5.16-3.31-7.06-3.02-3.21-6.96-5.3-10.45-7.93-1.91-1.42-3.76-2.92-5.39-4.66-1.82-1.89-3.29-4.18-4-6.72-.68-2.55-.72-5.28-.05-7.84.59-2.2,1.81-4.24,3.5-5.77,1.91-1.76,4.34-2.89,6.86-3.48h0Z" fill="#fff"/>
  <path d="M328.38,76.62h1.5c7.01,16.7,14.03,33.39,21.05,50.09.45,1.06.91,2.13,1.33,3.2.11.42.57.54.91.73,1.82.96,3.64,1.93,5.45,2.9v1.11h-13.6c-2.32-4.74-4.21-9.68-6.28-14.53-.95-.09-1.92-.01-2.87-.04h-17.52c-.34,0-.69-.03-1.01.06-.09.45-.3.86-.45,1.3-1.6,4.41-3.24,8.8-4.83,13.21-3.81.02-7.62,0-11.42,0v-1.14c2.36-1.15,4.71-2.32,7.07-3.49.2-.2.23-.51.36-.75,6.76-17.56,13.58-35.1,20.33-52.66M326.97,93.92c-2.65,7.28-5.35,14.54-7.99,21.83h17.91c-3.15-7.59-6.36-15.15-9.54-22.73-.18.27-.26.6-.39.91h.01Z" fill="#fff"/>
  <path d="M362.35,84.16c2.83-.77,5.81-.63,8.69-.25,1.22.15,2.41.47,3.6.75.1.81.02,1.64.04,2.46v5.05c-.29,0-.58,0-.86.01-1.2-1.52-2.43-3.08-4.06-4.15-1.06-.73-2.33-1.15-3.62-1.17-.79.04-1.58.14-2.28.53-1.09.54-1.88,1.6-2.1,2.79-.2,1.18-.02,2.41.49,3.49.83,1.61,2.28,2.76,3.69,3.84,2.68,2.04,5.54,3.87,7.89,6.31,1.32,1.37,2.47,2.97,3.01,4.82.41,1.15.48,2.4.44,3.6.01,2.02-.66,4.02-1.79,5.68-1.11,1.58-2.66,2.85-4.42,3.65-1.99.94-4.21,1.32-6.39,1.3-3.48,0-6.99-.69-10.11-2.25-.17-.06-.16-.26-.19-.4-.35-3.61-.56-7.23-.41-10.86.38,0,.77-.02,1.15.01.54,1.56,1.26,3.07,2.03,4.52,1.05,1.88,2.41,3.7,4.36,4.71,1.64.82,3.62,1.06,5.35.4.92-.34,1.73-.98,2.31-1.76.93-1.29,1.19-2.97.93-4.52-.19-1.9-1.39-3.52-2.79-4.74-1.61-1.45-3.49-2.56-5.22-3.84-1.22-.92-2.43-1.87-3.5-2.97-1.4-1.4-2.56-3.07-3.15-4.97-.74-2.7-.55-5.79,1.08-8.14,1.35-1.99,3.53-3.28,5.82-3.89h.01Z" fill="#fff"/>
  <path d="M386.62,86.28c2.14-1.78,4.97-2.52,7.71-2.65,2.05-.07,4.1.08,6.11.43.93.19,1.87.35,2.76.7-.02,2.48,0,4.96-.01,7.43h-.9c-1.15-1.45-2.31-2.95-3.85-4.01-.87-.61-1.86-1.06-2.91-1.23-.89-.07-1.82-.11-2.66.22-1.25.41-2.25,1.48-2.58,2.75-.4,1.74.09,3.64,1.24,5,1.18,1.42,2.72,2.48,4.19,3.58,2.67,1.97,5.48,3.87,7.59,6.47.92,1.18,1.71,2.49,2.07,3.95.98,3.42.18,7.34-2.22,10-2.09,2.35-5.19,3.59-8.27,3.89-3.68.25-7.45-.26-10.86-1.72-.38-.21-.84-.3-1.14-.61-.08-.53-.17-1.07-.18-1.6-.27-3.16-.48-6.35-.27-9.52.37,0,.74,0,1.11.01.63,1.62,1.32,3.22,2.17,4.73.77,1.31,1.64,2.58,2.82,3.55,1.45,1.25,3.42,1.9,5.33,1.7,1.68-.14,3.28-1.12,4.09-2.61.87-1.51.85-3.36.43-5-.53-1.79-1.85-3.2-3.28-4.33-1.2-.99-2.51-1.82-3.78-2.72-2.53-1.83-5.08-3.84-6.62-6.62-.64-1.22-1.11-2.57-1.15-3.95-.03.07-.05.15-.07.22.03-.81-.08-1.63.08-2.43.25-2.17,1.34-4.24,3.04-5.63h.01Z" fill="#fff"/>
  <path d="M425.16,83.62h1.74c2.33,5.6,4.74,11.17,7.1,16.77,2.51,5.9,5.02,11.81,7.52,17.71.14.36.51.56.77.83.84.82,1.73,1.59,2.57,2.41.11.3.02.65.04.97h-14.89v-.96c1.26-.96,2.49-1.95,3.75-2.91-.32-.99-.8-1.92-1.17-2.89-.97-2.31-1.94-4.62-2.91-6.92-.03-.23-.28-.14-.43-.16-3.34.02-6.68-.03-10.01.02-1.25,3.27-2.52,6.54-3.8,9.79,1.32,1.02,2.63,2.06,3.95,3.09,0,.3,0,.6.01.9-1.41.08-2.83.01-4.24.04h-6.95c0-.31,0-.63.01-.94,1.09-1,2.19-2.01,3.26-3.03.51-1.07.87-2.2,1.33-3.3,4.12-10.48,8.23-20.96,12.34-31.44M424.12,95.82c-.12.38-.26.74-.41,1.11-1.08,2.76-2.14,5.54-3.24,8.3,2.6,0,5.19.01,7.79-.01-1.26-2.96-2.52-5.93-3.77-8.89-.11-.19-.11-.5-.38-.5h0Z" fill="#fff"/>
  <path d="M458.06,83.83c2.6-.39,5.26-.23,7.85.18,1.02.19,2.04.39,3.02.73-.02,2.49.02,4.97-.02,7.46-.31-.01-.61-.02-.91-.01-1.31-1.73-2.73-3.47-4.67-4.52-1.3-.73-2.87-.95-4.33-.62-1.46.34-2.69,1.52-3,3-.28,1.47,0,3.07.85,4.31.98,1.45,2.42,2.5,3.79,3.55,2.27,1.68,4.62,3.28,6.68,5.21,1.52,1.44,2.89,3.12,3.59,5.12.88,2.49.79,5.31-.18,7.76-.81,2-2.27,3.7-4.09,4.84-2.29,1.46-5.03,2.06-7.72,2.04-3.52.01-7.06-.71-10.22-2.27-.22-.72-.2-1.48-.29-2.22-.1-.65-.08-1.31-.13-1.97-.12-.94-.08-1.88-.11-2.82-.13-1.41-.02-2.83.02-4.24h1.1c.95,2.37,1.96,4.76,3.54,6.79.83,1.02,1.82,1.96,3.02,2.53,1.87.9,4.21,1.03,6.03-.05,1.33-.77,2.22-2.18,2.46-3.68.2-1.53,0-3.14-.75-4.51-1.05-1.84-2.79-3.13-4.49-4.34-2.02-1.38-4.06-2.77-5.83-4.48-1.87-1.76-3.46-4-3.87-6.59-.46-2.58.04-5.42,1.72-7.49,1.68-2.13,4.32-3.27,6.95-3.71h-.01Z" fill="#fff"/>
  <path d="M486.1,83.92c1.57-.32,3.17-.33,4.76-.28,2.2.12,4.4.42,6.52,1.07,0,2.49.01,4.98,0,7.47h-.87c-1.38-1.75-2.82-3.58-4.85-4.61-.87-.46-1.85-.68-2.83-.71-1.02.02-2.07.27-2.89.9-1.27.92-1.78,2.62-1.51,4.12.13,1.28.77,2.46,1.64,3.39,1.31,1.41,2.91,2.5,4.46,3.64,2.3,1.68,4.63,3.35,6.53,5.48,1.47,1.64,2.57,3.67,2.84,5.87.41,2.78-.27,5.74-1.97,7.99-1.36,1.8-3.3,3.09-5.42,3.81-2.87.99-5.98.92-8.95.5-2.21-.34-4.39-.99-6.38-2.01-.28-1.27-.3-2.6-.41-3.9-.15-2.43-.22-4.87-.11-7.31.37-.01.74,0,1.12,0,.97,2.47,2.04,4.96,3.73,7.03,1.27,1.56,3.09,2.77,5.13,2.95,2.18.35,4.59-.69,5.61-2.7,1.21-2.39.69-5.47-1.07-7.46-1.53-1.78-3.55-3.02-5.45-4.36-1.93-1.38-3.83-2.85-5.37-4.67-1.55-1.81-2.57-4.11-2.62-6.51-.12-2.26.55-4.61,2.07-6.33,1.59-1.86,3.93-2.93,6.3-3.38h0Z" fill="#fff"/>
  <path d="M504.8,84.23c5.06,0,10.12-.02,15.19.01-.05.31.1.69-.08.96-1.25,1.01-2.53,1.99-3.78,3.02,0,10.05-.01,20.1,0,30.15.9.66,1.75,1.38,2.63,2.06.39.34.85.61,1.2,1,.04.27.01.56.01.84-1.35.1-2.71.02-4.06.04-3.71-.02-7.42.03-11.12-.02v-.92c1.28-.99,2.52-2.03,3.81-3,.04-10.06,0-20.12.02-30.18-1.28-1-2.54-2.02-3.82-3.02-.01-.32-.02-.63,0-.95h0Z" fill="#fff"/>
  <path d="M524.07,84.23h9.84c7.79,8.79,15.58,17.57,23.37,26.36.02-7.41.02-14.83,0-22.24-1.57-1.04-3.11-2.11-4.65-3.18v-.94h10.48c.75.01,1.5-.03,2.25.02-.06.31.1.7-.11.97-1.34,1.06-2.71,2.09-4.04,3.16-.03,11.31,0,22.62-.01,33.93-1.07-.03-2.16.05-3.22-.04-2.97-3.22-5.86-6.54-8.81-9.78-5.48-6.14-10.99-12.25-16.47-18.39-.06-.04-.19-.11-.25-.15-.01,8.06,0,16.12,0,24.18,1.61,1.09,3.25,2.15,4.87,3.24v.93c-4.29-.02-8.58.03-12.87-.02v-.92c1.36-1.05,2.71-2.13,4.06-3.2v-28.64c-1.4-1.54-2.86-3.03-4.42-4.41v-.89h-.02Z" fill="#fff"/>
  <path d="M395.25,130.66c3.5-.94,7.2-.69,10.73-.05,1.07.2,2.14.43,3.2.71.03,2.11.01,4.22,0,6.32-.29-.03-.62.08-.87-.06-1.48-1.75-3.27-3.29-5.42-4.14-2.07-.84-4.49-.91-6.55.03-2.47,1.1-4.22,3.41-5.14,5.9-1.11,3.03-1.15,6.38-.4,9.5.6,2.25,1.68,4.41,3.39,6.02,1.82,1.77,4.43,2.74,6.96,2.42,2.23-.25,4.27-1.41,5.86-2.97.67-.65,1.32-1.33,1.85-2.11.29,0,.58,0,.87,0-.02,1.97.02,3.95-.02,5.93-2.46,1.22-5.21,1.7-7.93,1.92-2.82.18-5.7-.08-8.36-1.07-2.07-.77-4.01-1.96-5.54-3.55-2.05-2.07-3.35-4.82-3.8-7.68-.2-.88-.1-1.79-.19-2.69.09-.82,0-1.66.2-2.47.45-2.8,1.71-5.47,3.65-7.55,2-2.17,4.66-3.67,7.5-4.42v.02Z" fill="#fff"/>
  <path d="M416.94,130.53c3.49,0,6.98,0,10.48,0,1.35,0,2.71-.06,4.04.17,2.21.31,4.52,1.13,5.93,2.95,1.64,2.15,1.39,5.31-.11,7.47-.9,1.33-2.19,2.36-3.56,3.16-.02.26.21.45.31.67,1.5,2.59,3.02,5.16,4.52,7.75,1.41,2.38,3.22,4.62,5.61,6.07.02.27.02.55-.01.82-1.13.33-2.32.4-3.49.38-1.45-.06-2.95-.31-4.18-1.15-1.63-1.09-2.67-2.81-3.59-4.49-1.58-2.86-3.16-5.72-4.73-8.58-.8,0-1.6,0-2.39,0v10.75c1.02.71,2.03,1.45,3.06,2.16.37.19.17.66.21.99h-12.1v-.79c.95-.82,1.96-1.56,2.94-2.35v-22.84c-.97-.79-1.97-1.54-2.94-2.34v-.8M425.77,133.11c0,3.38-.02,6.76.02,10.14,1.24-.04,2.48,0,3.72-.02.86-.06,1.59-.64,2.11-1.29,1.26-1.62,1.53-3.88.92-5.81-.37-1.19-1.31-2.18-2.48-2.61-1.35-.57-2.85-.37-4.28-.41h0Z" fill="#fff"/>
  <path d="M448.67,130.54c6.75-.03,13.5-.02,20.25,0v6.42h-.85c-1.08-1.26-2.12-2.55-3.22-3.79-2.45.02-4.9,0-7.35,0-.02,3.26,0,6.52,0,9.77h7.68c.7-.94,1.4-1.89,2.11-2.83.2-.32.61-.15.92-.17v8.65h-.81c-.71-1-1.48-1.94-2.18-2.94-2.57-.03-5.15,0-7.72,0v11.32h8.25c1.08-1.57,2.19-3.11,3.26-4.68.29,0,.58-.02.88,0v7.4h-21.21v-.84c.97-.77,1.95-1.54,2.91-2.32v-22.81c-.96-.8-1.97-1.54-2.93-2.35v-.8h0Z" fill="#fff"/>
  <path d="M476.91,130.54c6.26-.02,12.53,0,18.79,0,.45.02.9-.02,1.35-.04.22.06.11.33.14.5v5.95h-.88c-1.07-1.25-2.11-2.53-3.19-3.77-2.43-.02-4.86.02-7.29-.02-.17.22-.08.52-.1.78v8.99c2.56.02,5.13,0,7.69,0,.7-.94,1.4-1.89,2.1-2.83.19-.34.63-.16.95-.19v8.65h-.8c-.75-.97-1.5-1.96-2.23-2.95-2.57,0-5.15-.03-7.72,0,.01,3.76,0,7.53,0,11.29,2.76.03,5.51,0,8.27,0,1.09-1.56,2.19-3.12,3.27-4.68.28,0,.57,0,.86,0v7.41h-21.21c.03-.33-.13-.78.22-.99.91-.69,1.79-1.43,2.7-2.12.01-7.63.01-15.26,0-22.89-.93-.7-1.83-1.45-2.76-2.16-.31-.21-.12-.63-.16-.94h0Z" fill="#fff"/>
  <path d="M504.25,130.54c3.11-.03,6.21,0,9.32,0,1.8,0,3.6-.04,5.4.04,2.46.21,4.91.8,7.13,1.91,2.27,1.13,4.29,2.83,5.61,5.02,1.26,2.05,1.83,4.47,1.88,6.86.04,2.54-.44,5.12-1.58,7.41-1.12,2.29-2.9,4.25-5.06,5.6-2.25,1.39-4.87,2.14-7.5,2.27-3.51.03-7.03,0-10.54,0-1.57-.03-3.14.05-4.7-.04.03-.3-.06-.66.17-.89.92-.72,1.83-1.45,2.75-2.17.05-.18.02-.37.04-.55-.01-7.46.02-14.91-.02-22.37-.96-.71-1.87-1.5-2.83-2.21-.11-.28-.1-.59-.08-.88M513.06,133.95v22.32c1.38.53,2.86.73,4.33.77,1.41.07,2.85-.21,4.12-.83,1.79-.89,3.21-2.42,4.13-4.18,1.44-2.7,1.83-5.86,1.54-8.89-.26-2.23-1.04-4.45-2.47-6.21-1.5-1.88-3.72-3.14-6.07-3.57-1.8-.38-3.65-.15-5.48-.21-.16.23-.08.53-.09.8h-.01Z" fill="#fff"/>
  <path d="M236.99,144.94h124.86c2.07,0,4.14-.02,6.21,0v.56h-131.08v-.58h.01Z" fill="#fff"/>
  <path d="M550.07,145.51c0-.2-.02-.41.1-.58,26.94.03,53.88,0,80.82,0h50.15v.58h-131.08.01Z" fill="#fff"/>
  <path d="M496.65,174.07c.3-.06.81-.21.96.17,6.3,15,12.61,30.01,18.91,45.01.17.35.24.77.56,1.03,1.34,1.1,2.63,2.26,3.96,3.37v.46c-5.35,0-10.71.02-16.06,0,.02-.2-.06-.46.16-.56,1.65-1.14,3.29-2.29,4.94-3.43-2.27-5.56-4.64-11.09-6.93-16.64h-14.89c-2.12,5.54-4.25,11.08-6.36,16.62,1.69,1.21,3.43,2.36,5.12,3.58v.43c-4.08.05-8.17,0-12.26.02-.02-.16-.03-.31-.04-.46,1.38-1.2,2.8-2.35,4.15-3.58,1.87-4.73,3.67-9.5,5.52-14.24,4.08-10.59,8.19-21.17,12.27-31.76M495.32,185.06c-2,5.31-4.08,10.59-6.07,15.91,4.27,0,8.54,0,12.81,0-2.14-5.12-4.3-10.24-6.45-15.36-.11-.18-.09-.45-.29-.54h0Z" fill="#d8976f"/>
  <path d="M580,174.59c3.24-.49,6.55-.36,9.81-.08,2.84.33,5.67.74,8.46,1.38.78.17,1.58.3,2.34.55-.03,2.64.02,5.28-.02,7.91-.13,0-.25,0-.37,0-1.45-2.02-3.24-3.83-5.4-5.08-2.24-1.34-4.81-2.06-7.39-2.33-2.79-.31-5.65-.16-8.36.63-2.44.73-4.71,2-6.59,3.72-1.93,1.76-3.45,3.93-4.54,6.29-1.13,2.36-1.76,4.92-2.17,7.5-.16,1.8-.33,3.6-.22,5.4.15,3.92,1.09,7.83,2.94,11.3,2.11,4.07,5.57,7.49,9.86,9.19,2.13.84,4.41,1.31,6.7,1.3,3.62.09,7.3-.79,10.4-2.7.04-3.63,0-7.27.02-10.9-.02-2.02.03-4.05-.02-6.07-2.04-1.14-4.03-2.36-6.06-3.51-.03-.17-.04-.34.02-.5,5.56.02,11.11.02,16.67,0,0,.15,0,.31.02.48-1.31,1.16-2.58,2.37-3.91,3.5-.04,6.09.02,12.19-.03,18.28-2.34.79-4.62,1.77-6.99,2.46-3.12.95-6.36,1.54-9.62,1.6-5.44.08-10.98-1.06-15.69-3.86-4.31-2.5-7.75-6.44-9.68-11.03-2.16-5.21-2.6-11.13-1.26-16.61,1.19-4.97,3.94-9.55,7.81-12.89,3.72-3.24,8.43-5.26,13.3-5.96l-.03.02Z" fill="#d8976f"/>
  <path d="M238.6,175.07c2.9-.02,5.8,0,8.7,0,6.36,12.01,12.71,24.03,19.05,36.05,6.3-12.01,12.59-24.03,18.9-36.04,3.16-.02,6.32-.02,9.48,0v.42c-1.6,1.23-3.27,2.39-4.9,3.58-.04,13.55,0,27.1-.02,40.66,1.77,1.29,3.55,2.56,5.32,3.86.19.1.08.35.11.53h-17.49c-.15-.53.39-.72.72-.98,1.55-1.15,3.15-2.24,4.68-3.42.08-1.13.01-2.28.04-3.41v-27.33c-.01-1.32.04-2.64-.05-3.95-2.4,4.64-4.91,9.24-7.34,13.87-3.71,6.98-7.43,13.96-11.13,20.94h-.71c-4.93-9.23-9.89-18.45-14.83-27.68-1.23-2.26-2.41-4.54-3.66-6.79-.02,11.45,0,22.91,0,34.36,1.8,1.31,3.61,2.62,5.41,3.93,0,.11.02.33.02.44-4.53.06-9.07,0-13.6.03v-.48c1.79-1.32,3.61-2.59,5.39-3.93,0-12.85.02-25.69,0-38.54-.92-1.76-2.2-3.33-3.43-4.89-.27-.38-.76-.7-.63-1.22h-.01Z" fill="#d8976f"/>
  <path d="M414.79,175.08c2.91.12,5.87.63,8.47,2.01,2.15,1.14,3.98,3.02,4.75,5.37.79,2.46.56,5.19-.4,7.57-1.31,3.17-3.91,5.67-6.87,7.33-.39.24-.82.41-1.2.67,2.41,4.03,4.79,8.08,7.19,12.12,1.37,2.29,2.66,4.63,4.28,6.75,1.25,1.67,2.64,3.23,4.2,4.61,1,.84,2.04,1.67,3.27,2.16,0,.11.01.33.01.44-2.62.62-5.47.74-8.03-.2-2.19-.81-3.95-2.46-5.35-4.27-1.46-1.85-2.54-3.95-3.74-5.96-2.73-4.7-5.47-9.4-8.21-14.09-2.09,0-4.19,0-6.28,0v19.08c0,.49-.02.99.02,1.49,1.88,1.15,3.73,2.36,5.61,3.52,0,.15,0,.31.01.47-3.7.02-7.4,0-11.1,0-2.03-.02-4.07.03-6.1-.02,0-.11.03-.33.04-.44,1.61-1.2,3.26-2.36,4.87-3.56-.02-13.61,0-27.21,0-40.81.04-.26-.25-.35-.4-.48-1.5-1.09-3-2.16-4.48-3.27v-.45c3.87-.02,7.73,0,11.6,0,2.61,0,5.22-.02,7.83.02M406.89,197.27c2.14.03,4.29,0,6.43,0,.62,0,1.24-.02,1.84-.18,2.17-.48,3.98-2.04,5.1-3.92,1.37-2.26,1.84-5.02,1.46-7.62-.25-2.09-1.12-4.16-2.69-5.59-1.95-1.82-4.69-2.53-7.3-2.57h-4.84c-.02,6.63,0,13.25,0,19.88h0Z" fill="#d8976f"/>
  <path d="M337.07,175.08c5.48-.04,10.97-.02,16.46,0v.43c-1.61,1.21-3.25,2.38-4.89,3.56-.03,13.68,0,27.36-.02,41.04,1.63,1.19,3.26,2.38,4.9,3.56v.45h-16.4c-.03-.2-.11-.45.1-.58,1.58-1.12,3.14-2.29,4.73-3.4.02-13.69.01-27.38,0-41.06-1.56-1.13-3.11-2.27-4.68-3.39-.22-.12-.19-.4-.21-.61h0Z" fill="#d8976f"/>
  <path d="M646.98,175.06c10.81,0,21.62-.02,32.43,0-.02,2.9.03,5.8-.03,8.7-.16,0-.32-.02-.47-.02-1.61-2.08-3.24-4.16-4.9-6.21-5.18,0-10.35-.03-15.53.02.03,6.4,0,12.8.02,19.2,5.32,0,10.64,0,15.96,0,1.12-1.7,2.24-3.4,3.34-5.12h.41c.03,4.2,0,8.39.01,12.59-.08.02-.23.07-.31.09-.3-.26-.47-.62-.69-.93-.92-1.39-1.83-2.77-2.75-4.16-5.32,0-10.64,0-15.97,0-.04,7.44-.01,14.89-.02,22.34,5.68,0,11.36,0,17.04,0,1.67-2.51,3.38-5,5.05-7.52.1-.24.36-.18.57-.15-.02,3.41,0,6.82-.01,10.22h-34.16v-.47c1.61-1.19,3.25-2.35,4.85-3.55.04-13.67,0-27.34.01-41.01-1.62-1.16-3.21-2.36-4.85-3.5-.02-.18-.03-.36-.03-.53l.03.02Z" fill="#d8976f"/>
  <g>
    <path d="M215.92,152.04v3.46l-.62,1.24c-2.36-1.21-4.85.37-6.56,2.38-3.98,4.66-6.68,12.11-8.57,18.08-1.33,4.2-2.7,8.16-4.56,12.16-6.14,13.26-15.75,22.34-28.47,29.34-13.78,7.58-29.87,12.08-45.26,15.23l-.42-.21.62-.45c6.64-1.68,12.99-3.87,19.17-6.86,8.88-4.39,17.2-10.33,22.72-18.61,4.64-6.95,5.26-14.25,3.94-22.4-.81-5.02-2.65-9.44-4.64-14.43,2.75,2.24,4.07,5.61,5.17,8.8,2.03,5.88,2.69,12.01,1.95,18.15-1.01,8.39-5.25,15.59-11.98,20.67,3.52-1.51,6.59-3.32,9.7-5.43,12.82-8.69,20.41-20.93,25.12-35.53l4.36-11.73,2.86-5.1c-10.23,8.3-16.76,21.08-20.67,33.71-1.47-2.61-2.68-5.62-2.91-8.62,1.01-4.75,3.29-8.88,5.29-13.14,1.12-2.39.65-5.06-1.05-6.89-.28,2.49-1.16,4.63-2.85,6.32-2.53,2.52-6.18,2.79-9.03.37.44,3.11,1.91,7.54,4.45,8.68.56.25,1.55.09,1.83-.3.37-.52.36-1.29.36-2.1,1.47,1.54,1.55,4.09.19,4.78-2.1,1.06-4.03-1.03-5.23-3.4-1.26-2.49-1.57-5.2-2.13-7.95-1.12-1.42-2.42-3.14-3.07-4.92-1.98-.02-3.84-.81-4.68-2.7-.52-1.17-.67-2.53-.67-3.81,1.63.31,3.04-.06,4.46-.74,2.63-1.26,5.22-2.32,8.32-2.54-1.17-3.74-2.87-7.01-4.98-10.23-3.12-4.77-6.1-9.47-8.53-14.63-1.03-2.2-1.83-4.29-2.17-6.73-3.52,7.01-3.78,14.59,2.27,20.26,1.74,1.63,3.69,2.92,5.8,3.89l.22.14-.21.1-.16-.07c-4.27-.51-8.13-2.49-11.02-5.83-2.93-3.36-4.63-7.45-5.42-11.89-1.81-2.65-2.88-5.54-3.47-8.73-.56-3.55-.56-7.06-.11-10.66.42-3.4.24-6.57-.51-9.92-1.21-5.41-3.17-10.5-5.73-15.46-1.59,3.65-3.4,6.77-5.84,9.64-1.41,1.66-2.92,3.4-4.99,4.11,4-6.52,6.45-13.16,7.07-20.51l-7.63-11.68c-.34,3.82.13,9.73,2.8,11.97.59.5,1.47.57,2.02.21s.76-1.03.88-1.79c1.27,1.66.76,4.15-.75,4.63-2.07.66-3.93-1.87-4.63-4.44-.95-3.5-1.06-7.15-.5-10.83l-5.93-8.97c-5.77-8.73-10.3-21.87-6.51-32.17.43,7.2,4.08,13.71,10.23,17.62.36,2.57.37,4.9.3,7.43,2.71,5.03,5.73,9.68,8.8,14.33l.16-.11c-.94-5.81-2.91-11.27-5.87-16.44l-5.93-10.38c-4.84-8.48-8.8-17.62-10.96-27.07-2.13,9.37-6.13,18.61-10.81,26.8l-5.7,9.98c-3.27,5.73-5.24,10.83-6.34,17.51,3.27-4.76,6.28-9.51,9.05-14.61-.07-2.53-.06-4.88.3-7.43,6.07-3.92,9.77-10.24,10.22-17.61,3.75,10.05-.61,23.23-6.43,32.03l-6.1,9.23.18.18c.37,3.39.37,6.96-.55,10.36-.67,2.5-2.34,5.1-4.51,4.65-.53-.11-1.18-.73-1.43-1.37-.44-1.16-.14-2.41.52-3.3.1.75.33,1.43.89,1.78s1.43.28,2.02-.21c2.71-2.28,3.05-8.16,2.85-11.83l-.09-.11-7.6,11.63c.6,7.43,3.16,14.15,7.1,20.59-2.17-.88-3.54-2.46-4.93-4.07-2.52-2.91-4.35-6.2-5.94-9.74-2.52,4.93-4.38,9.76-5.61,14.94-.85,3.59-1.07,6.98-.6,10.63.4,3.09.38,6.1.06,9.18-.49,3.65-1.6,6.99-3.66,10.01-.65,3.77-2,7.18-4.15,10.3-3.02,4.27-7.59,7.03-12.72,7.44,3.09-1.54,5.6-3.25,7.65-5.79,4.47-5.53,3.82-12.26.71-18.54-.37,2.46-1.23,4.76-2.37,7.13-2.32,4.83-5.08,9.25-8.02,13.73-2.23,3.39-4.1,6.8-5.29,10.74,3.11.21,5.7,1.28,8.32,2.54,1.42.68,2.85,1.08,4.43.72.07,1.51-.22,3.04-.92,4.33-.93,1.72-2.89,2-4.39,2.25-.79,1.7-1.94,3.49-3.1,4.86-.61,3.88-1.8,10.01-5.32,11.44-.74.3-1.66.21-2.28-.27-1.27-1-.8-3.25.51-4.77-.09.88-.26,1.94.47,2.41,2.81,1.8,5.75-4.83,6.1-8.54-2.76,2.35-6.24,2.21-8.84-.14-1.84-1.66-2.74-3.97-3.07-6.53-1.71,1.84-2.16,4.51-1.04,6.9,1.99,4.25,4.28,8.39,5.27,13.14-.19,2.97-1.47,5.98-2.89,8.62-2.38-7.68-5.44-14.67-9.68-21.25-3.05-4.68-6.55-8.88-10.81-12.32l-.09.14c1.14,1.6,2.14,3.35,2.96,5.27,1.61,3.78,2.95,7.49,4.22,11.42,3.73,11.55,9.2,21.6,18.17,29.89,4.83,4.48,10.33,8.01,16.19,10.79l.13-.15c-6.44-4.81-10.59-11.93-11.66-20.02-.82-5.97-.17-11.87,1.57-17.64,1.03-3.44,2.58-6.49,4.76-9.31l.36-.24c.07-.05.23.14.36.31-1.98,4.12-3.46,8.28-4.38,12.76-1.72,8.77-1.08,16.68,4.05,24.11,5.97,8.65,15.11,14.83,24.62,19.16,5.6,2.55,11.3,4.39,17.22,5.91l.31.43c.04.05-.23.1-.39.14-8.72-1.75-17.2-3.9-25.64-6.73-11.96-4.1-23.55-9.49-33.12-17.79-6.18-5.36-11.06-11.82-14.59-19.21-2.1-4.4-3.65-8.79-5.1-13.44-1.73-5.55-4.26-12.17-7.68-16.73-1.81-2.42-4.53-4.63-7.29-3.3-.74-1-1.03-2.25-.91-3.45.28-2.79,2.42-4.59,5.17-4.42,2.61.16,4.99.94,7.35,2.2,7.08,3.78,12.92,9.15,17.74,15.85.65-3.41,2.57-6.05,5.46-7.77,1.88-6.73,5.34-12.21,9.3-17.92,4.19-6.04,9.87-16.06,7.66-23.13l3.59-8.67c6.23,4,9.01,11.68,10.12,18.7.59-1.44.56-2.87.41-4.38-.51-5.04-2.11-9.78-4.33-14.31-.98-2-1.42-3.99-1.32-6.26.19-4.13,1.53-8.05,3.69-11.54.31-.5.73-.93,1.24-1.18-.23,4.17.36,8.36,3.32,11.56-.81-8.57,1.15-16.64,5.45-23.81-.32-6.19,1.39-13.03,3.31-18.91,2.76-8.51,6.38-16.52,10.52-24.43,2.58-4.92,7.16-14.32.71-15.77,8.18-4.56,12.34-14.51,15.02-23.53,2.31,6.71,5.08,13.37,9.62,18.93,1.53,1.87,3.32,3.42,5.36,4.55-.93.36-2.04.76-2.54,1.58-2.07,3.44,1.03,9.84,3.03,13.69,3.7,7.12,7.04,14.22,9.71,21.81,2.5,7.1,4.66,14.71,4.43,22.16,4.27,7.17,6.2,15.09,5.4,23.66,2.96-3.02,3.49-7.34,3.37-11.73,3.28,3.79,4.74,8.77,4.9,13.55.07,2.1-.5,3.94-1.39,5.77-2.22,4.58-3.81,9.31-4.29,14.39-.14,1.44-.15,2.81.44,4.16,1.08-7.01,3.91-14.71,10.11-18.68l3.61,8.68c-1.34,3.83.06,8.75,1.7,12.59,1.72,4.03,3.93,7.66,6.44,11.26,3.78,5.43,7.01,10.84,8.82,17.2,2.88,1.73,4.88,4.41,5.39,7.8l5.35-6.42c4.07-4.19,8.67-7.73,13.97-10.2,4-1.86,9.41-2.58,10.72,1.73h.07ZM134.53,67.58l.09-.23-.09.23ZM22.93,160.95l.17-.14-.17.14ZM54.56,168.13l.91-1.17-5.79-2.49c.1,1.39.58,2.8,1.56,3.78.93.93,2.45.98,3.31-.12h0ZM169.62,168.67c.87.57,1.89.26,2.54-.34,1.07-.98,1.58-2.42,1.68-3.86l-5.78,2.5c.35.54.95,1.29,1.57,1.69h0ZM64.82,218.56l.23-.09-.23.09Z" fill="#fff"/>
    <path d="M112.08,256.89h-.61l-.61-.38c-1.56-.8-2.63-2.09-2.89-3.93-2.96,2.99-7.29,3.5-11.01,1.46-30.21.81-58.96-18.21-78.75-39.58l-.17-.18s.18-.09.11-.05l.2.07c15.68,13.52,37.81,27.23,58.51,30.55,4.6.74,9.01.62,13.61.03l5.31-.68c2.13-.27,4.6.32,4.98,2.14.19.94-.3,1.72-.71,2.66,2.43-1.75,2.53-4.77,4.69-7.13,1.05-1.15,2.44-1.85,3.95-1.55-.5.6-.69,1.16-.44,1.75.18.42.88.73,1.43.57.43-.12.83-.84.79-1.41-.1-1.55-1.42-2.2-2.97-2.42.82-1.72,2.2-2.97,3.61-3.96l.62-1.45.71,1.58c1.53.87,2.75,2.21,3.53,3.8-.98.23-1.89.52-2.49,1.2s-.64,1.85.03,2.47c.51.47,1.32.22,1.65-.26.37-.54.23-1.2-.33-1.85,1.51-.33,2.89.41,3.95,1.56,1.96,2.13,2.21,4.98,4.34,6.89l.17-.14c-.37-.71-.75-1.58-.5-2.47.48-1.71,2.92-2.23,4.97-1.96l5.68.73c3.92.51,7.68.65,11.63.14,11.21-1.45,22.52-6.15,32.45-11.52,10.03-5.43,19.11-11.95,27.95-19.44-2.12,2.67-4.58,5.05-7.16,7.49-19.24,18.17-44.74,33.17-71.82,32.47-3.68,2.05-8,1.48-10.92-1.46-.27,1.86-1.44,3.15-3.01,3.98l-.47.32v-.04ZM123.31,248.92l.16-.18-.16.18Z" fill="#fff"/>
    <path d="M13.79,193.52l-2.51.67,1.37-7.98c2.34-1.72,5.31-1.28,8.06-.45l-.98,7.85c-2.05-.21-3.9-.34-5.94-.09h0Z" fill="#fff"/>
    <path d="M209.93,193.48c-2.12-.14-3.99-.13-6.14.12l-.98-7.84c2.71-.87,5.87-1.26,8.06.47l1.36,7.96-2.31-.71h0Z" fill="#fff"/>
    <path d="M86.87,105.88c-2.31-.81-4.38-1.52-6.81-1.91.42-2.82,1.26-5.53,2.48-8.13,2.63.1,4.96.94,7.2,2.28l-2.87,7.76Z" fill="#fff"/>
    <path d="M143.49,103.94c-2.43.47-4.55,1.1-6.81,1.98l-2.89-7.79c2.26-1.35,4.59-2.19,7.2-2.28,1.21,2.54,1.99,5.15,2.5,8.09Z" fill="#fff"/>
    <path d="M210.05,183.63c-2.42-1.16-4.95-.69-7.74.06l-1-7.82c2.56-.76,5.43-1.31,7.76-.06l.97,7.82h.01Z" fill="#fff"/>
    <path d="M16.26,182.83l-2.79.78.96-7.75c2.18-1.29,5.08-.78,7.77,0l-.98,7.84s-4.96-.86-4.96-.86Z" fill="#fff"/>
    <path d="M186.37,150.92c1.59.15,3.2.67,4.47,1.77,1.51,1.31,2.18,3.65.86,5.28-1.17,1.44-3.25,1.64-4.99,1.06-2.4-.79-4.32-2.46-5.87-4.5-2.41-3.18-4.37-6.72-5.45-10.74,1.81,3.06,3.07,6.13,5.56,8.6,1.48,1.47,3.01,2.82,5.07,3.27.8.17,1.6,0,2.05-.63.36-.49.53-1.51.07-2.05l-1.77-2.07h0Z" fill="#fff"/>
    <path d="M166.14,157.92c-2.65,0-4.9.56-7.28,1.57l-2.59-6.83c2.16-1.32,4.59-1.95,7.21-1.48l2.65,6.74h0Z" fill="#fff"/>
    <path d="M64.67,159.49c-2.36-.97-4.61-1.63-7.3-1.53l2.64-6.74c2.52-.54,5.07.11,7.24,1.44l-2.59,6.83h0Z" fill="#fff"/>
    <path d="M48.77,196.84c.86,1.33-1.17,4.5,1.11,4.68.31.02.97-.39,1.03-.73l.39-2.39c1.15,1.66.9,3.94-.3,5.56-.53.72-1.43,1.07-2.24.92-1.83-.33-2.22-2.04-2.15-4.14-1.01.33-1.85-.34-2.07-1.35-.45-2.15.26-4.26,1.59-6,.62-.81,1.32-1.53,2.45-1.69.15,1.1-.07,2.26-.61,3.14-.58.33-1.39.7-1.79,1.23-.19.25-.15,1.06,0,1.31.16.29.91.55,1.19.36l1.41-.91h0Z" fill="#fff"/>
    <path d="M172.59,200.79c.04.28.65.71.92.74.31.02.93-.28,1.08-.59.78-1.58-.89-3.08.33-4.14.53.85,1.63,1.37,2.31.62s-.02-1.87-.88-2.15c-.71-.23-1.07-.7-1.25-1.4-.19-.79-.42-1.54.08-2.29,2.88,1.59,4.43,4.88,3.77,7.93-.22,1-1.13,1.54-2.01,1.24l-.23,2.28c-.1,1.03-1.05,1.7-1.92,1.86-.94.17-1.9-.26-2.44-1.13-1.02-1.63-1.25-3.77-.12-5.33l.36,2.37h0Z" fill="#fff"/>
    <path d="M208.76,173.41c-1.01-.56-1.98-.78-3.33-.64.44-4.76,1.86-9.38,4.75-13.48-1.02,4.57-1.66,9.12-1.42,14.12Z" fill="#fff"/>
    <path d="M18.1,172.74c-1.31-.04-2.35.04-3.35.71.26-4.83-.34-9.37-1.42-14.17,2.8,3.95,4.28,8.53,4.78,13.46h-.01Z" fill="#fff"/>
    <path d="M143.29,119.5c-2.39-4.14-3.44-8.94-3.11-13.84l2.62-.61c-.66,4.8-.53,9.51.66,14.21l.12.22-.11.39-.19-.36h.01Z" fill="#fff"/>
    <path d="M83.35,105.64c.3,5.05-.74,10.07-3.43,14.32,1.29-5.02,1.53-9.89.8-14.91l2.63.6h0Z" fill="#fff"/>
    <path d="M23.12,181.3s.18-.1.12-.07l.22.1c1.83,3.42,3.93,9.27,1.44,12.19-.48.57-1.2.91-1.91.9-.57,0-1.3-.53-1.64-1.14-.7-1.24-.36-2.67.26-3.83.16.73.34,1.51.81,1.91.52.45,1.36.05,1.69-.48,1.62-2.63.36-6.55-.83-9.42l-.16-.17h0Z" fill="#fff"/>
    <path d="M201.96,189.67c.58.96.83,2.29.28,3.46-.33.7-1.03,1.27-1.7,1.3-.76.03-1.49-.36-2.01-1.01-2.39-2.98-.24-9.13,1.7-12.23-1.07,3.33-2.39,6.41-.98,9.48.32.69,1.18,1.22,1.89.67.32-.25.52-.9.82-1.68h0Z" fill="#fff"/>
    <path d="M161.26,138.83c.78.68,1.42,1.79,1.29,3.03-.07.7-.57,1.52-1.05,1.73-.72.32-1.75.15-2.38-.32-2.92-2.21-2.77-8.08-1.78-11.85-.11,3.14-.47,6.59,1.69,9.09.44.51,1.34.82,1.88.26.34-.35.34-1.13.34-1.93h.01Z" fill="#fff"/>
    <path d="M62.34,138.82c-.08.65-.12,1.51.3,1.96.5.53,1.44.22,1.86-.28,2.07-2.42,1.85-5.83,1.65-9.07.79,2.66.88,5.58.28,8.33s-2.79,4.73-4.51,3.76c-1.34-.75-1.35-3.41.41-4.71h.01Z" fill="#fff"/>
    <path d="M32.64,152.73c1.28-1.12,2.75-1.61,4.5-1.83-.7.77-1.48,1.46-1.91,2.48-.32.76.04,1.86.84,2.18,2.41.94,5.89-2.32,7.74-4.59s2.8-4.71,4.34-7.17c-1.14,4.05-3.09,7.63-5.55,10.83-1.56,2.03-3.51,3.69-5.93,4.44-1.71.53-3.71.3-4.85-1.09-1.29-1.58-.72-3.91.81-5.24h.01Z" fill="#fff"/>
  </g>
</svg>