<?xml version="1.0" encoding="UTF-8"?>
<svg id="Layer_1" xmlns="http://www.w3.org/2000/svg" version="1.1" viewBox="0 0 747.13 243.27">
  <!-- Generator: Adobe Illustrator 30.3.0, SVG Export Plug-In . SVG Version: 2.1.3 Build 182)  -->
  <path d="M658.44,151.19l1.99.81c.3.12.14,3.16-1.47,3.86-.05,1.39-.79,2.88-2.06,3.59l-.82-1.04-.93,2.32-3.2.83-37.68.03-.08-20.19,1.28-4.35,18.93-27.99,1.46-2.21,12.91-22.25c7.9-13.62,10.57-36.66-.47-33.07-1.54.5-3.54,2.59-3.58,4.71l-.31,16.55-15.57.02-1.48-1.66.6,1.65h-13.07s.26-14.26.26-14.26c.08-4.49,1.38-8.93,3.34-12.93l1.15-2.35c2.61-5.34,7.6-10.61,12.62-12.83,1.61-.71,3.82-2.78,5.79-2.59.81-.35,2.39-1.24,3.56-1.09l3.38.42,1.49.2c.4.05.88-1.23.98-1.82,3.71-.47,7.4-.26,11.28.45,17.29,3.16,28.71,19.19,26.17,36.59l-1.65-.41-.76,3.46,1.76-1.48.31,3.51c-1.3,9.09-4.35,17.29-8.58,25.29l-11.64,19.7-3.32,5.02-7.77,11.72c-.45.68-1.62,1.67-2.13,2.12l-1.49,3.26,4.7.2,3.56,2.14.56-2.18,24.9-.09v26.68s-4.28-.15-4.28-.15l2.95-1.31-2.13-2.57-.68-1.15c-.15-.26-.51-.12-1.44.02l-1.95-2.7,1.41-.51c.22-.08-.73-.82-.83-.9l1.49-1.37c-1.15-.08-1.64.36-2.19,1.45l-3.75-2.66c-.3-.21-1.22-.73-1.47-.54l-1.46,1.07-.86-1.26c-.62-.91-2.03,1.38-5.63.55-1.67-.39-3.4.38-4.05,1.68Z" fill="#ff0209"/>
  <path d="M274.28,71.23l-.07,62.9-16.36.14-16.1-45.87.46-1.23c.07-.2-.66-.19-.96-.2l-7.58-21.02-.07,68.29h-9.96s-7.02-.02-7.02-.02l.07-46.4c0-.98.72-2.07-.03-3.09V25.11s17.42,0,17.42,0l22.98,62.46.19-40.02c-.17-.31-.9-1.13-.75-1.4l.74-1.3v-19.74s16.93,0,16.93,0l.05,20.19c.26.61.07,1.16.07,1.78v21.28s-.01,2.87-.01,2.87Z" fill="#fff"/>
  <path d="M528.11,116.52l-.16-3.31h-19.94s0,48.37,0,48.37h-18.82s.13-26.79.13-26.79l-.12-11.57,2.44-1.76-.03-2.11c0-.54-1.82-.75-2.38-.82l1.16-1.17-1-.04c-.24-.01-.16-.9-.14-1.15s.5-.02,1.17.32c.82-1.04,1.23-2.51.71-3.61l-1.92,1.14v-61.61s18.75,0,18.75,0v44.44s20.03,0,20.03,0v-38.77s1.38-2.4,1.38-2.4c.22-.38.34-1.37.07-1.64l-1.58-1.6h18.91s0,109.1,0,109.1h-18.78s0-44.43,0-44.43l3.47-.06.28-.38-3.66-.15Z" fill="#fff"/>
  <path d="M120.54,111.06c.61.67-2,1.71-2.49,3.57-.15.59.35,1.47.59,2.13l-1.03,4.23c-.93,3.81-4.24,6.07-7.17,8.48-4.52,3.14-10.12,4.72-15.9,4.74l-30.18.11-.05-32.94c0-1.32.73-2.64,1.49-3.54-.47-.73-1.43-2.59-1.43-3.85l-.05-68.89h28.19c3.87,0,7.54.61,11.21,1.52,13.77,4.31,18.22,16.99,18.21,30.95l-.04,49.31c0,.46.24,1.59.59,1.75l2.27,1.01-4.99.6.76.83ZM82.68,121.24l1.77-2.33c7.24.03,14.82.61,17.37-6.21,1.8-4.81.55-7.98,1.83-11.43-.7-1.79-.52-3.79-.52-5.9v-40.85c0-2.53-.46-5.12-1.18-7.38-2.35-7.41-10.47-6.57-17.98-6.65l-.89-3.71c-.66,5.99.47,12.42-.03,19.17-1,.64-1.96,1.77-2.09,2.4.48.54,1.04,1.2.8,1.23l-1.12.11c-2.35,1.93-2.85,5.41-.57,7.7l1.63.04.05,3.45c.36.47.95,2.01.43,2.25l-2.17,1.01,3.1,1.71-.03,38.17-.4,7.23Z" fill="#fff"/>
  <path d="M307.64,79.43l11.34-.13h3.04s13.08.12,13.08.12c.21-.37.62-1.17.81-1.03l1.5,1.13.03,27.73c0,3.41-.65,6.55-1.45,9.75-2.79,11.14-11.91,18.93-23.65,19.67-6.35.41-12.96-.27-18.17-3.65l.49-1.17c.07-.16-.61-.29-.71-.14l-.6.92c-6.7-4.1-10.61-11.53-11.41-19.56-.14-1.38-.52-2.79-.77-3.7l.71-8.96c.08-.97.17-1.3-.17-2.17l-.06-44.73.42-8.03-2.29-.04-.28-.41,2.96-.19c1.95-11.23,10.89-19.62,22.18-20.3,1.24.67,2.75,1.15,3.81,1.06.16.4,1.43.78,2.18.76.49-.01.5-.9.47-2.09,12.13,0,21.97,8.02,25,19.71,1.43,5.52,1.41,10.99,1.28,16.95l-17.86.02c-.14-9.46-.39-20.37-10.18-20.59-3.38-.08-6.29,1.29-7.66,4.54-1.48,3.52-1.16,7.23-1.16,10.9l-.05,54.75c0,3.28,1.26,6.76,3.71,8.55,3.21,2.34,7.14,1.66,10.47-.37,5.36-3.26,4.84-15.76,4.85-23.57l5.07-.69-17.01-.31-.23-7.53.29-7.22Z" fill="#fff"/>
  <path d="M463.88,121.06l-5.32-.3-6.58.3v-13.45c.58-.55,1.81-1.99,1.68-1.51l28.15.18.03,26.38c0,6.24-.94,12.09-3.87,17.52-6.95,13.42-24.76,16.65-37.66,10.73-6.79-3.11-11.16-9.14-13.1-16.19-1.36-4.94-1.06-9.77-1.06-14.75v-18.98s-.12-28.72-.12-28.72c-.02-5.02.17-9.79,1.8-14.46,2.33-6.67,6.97-12.02,13.65-14.66,8-3.16,17.1-3.16,25.01.37,7.52,3.35,12.3,10.2,14.23,18.1,1.3,5.32,1.14,10.6,1.07,16.15h-17.83c-.22-9.48-.34-20.34-10.08-20.6-3.43-.09-6.57,1.26-7.86,4.72-.74,2-1.18,4.45-1.18,6.83v57.46c.02,6.31,2.38,11.09,8.53,11.16,4.47.06,7.87-2.32,9.08-6.72s1.73-8.88,1.59-13.55l-.17-6.06Z" fill="#fff"/>
  <path d="M162.18,115.2l-.49,3.98c.37,1.26.55,2.58.57,3.96l.13,11.11h-15.26c.12-2.26-1.13-4.92-2.6-6.41l-.93-2.56c.65-.92,1.53-1.76,1.04-3.15l-1,2.15-.09-19.2-1.69.17,1.17-2.57,1.31-3.58c-.94-.46-2.03-1.53-1.88-2.67l1.1,1.14v-8.75s-22.66-63.64-22.66-63.64l9.27-.06c.38,0,1.19,1.21,1.48,1.04s1.23-.96,1.57-.95l6.76.03,13.31,41.72,8.74-28.65-.56-.8c-.11-.16.54-.44.96-.62l3.59-11.79h19.1s-13,36.54-13,36.54l-1-.28c-.22-.06-.78.43-.73.47l1.22.74c.2.12.06.7-.09.88-.2.25-.73.44-1.05.46l-.97.06c-.24.02.03.88.26.85l1.17-.11-8.5,24.15-.07,23.54-2.26.94,1.92.27c.41.06.23,1.01.16,1.59Z" fill="#fff"/>
  <path d="M571.56,161.58v-92.84s-18.15-.01-18.15-.01l-.09-10.14c-.32-.91-.28-1.37-.2-2.14l.44-4.03h54.94s0,16.3,0,16.3l-18.18.02.02,92.83h-18.79Z" fill="#fff"/>
  <path d="M368.08,145.26c.23,0,1.07-.86,1.23-.73l.81.69,19,.11,4.33-.04v16.29s-48.32-.07-48.32-.07l.05-15.2-.03-3.54-.02-90.33h18.78s.02,63.09.02,63.09c.25,1.48.23,2.68.02,4.05l-.05,14.03-.67.82c-.13.15.68.89.69,1.17l.04,9.58,4.14.08Z" fill="#fff"/>
  <path d="M414.93,101.67c.93,1.35,2.16,2.23,3.24,2.56l.41,3.49.06,13.66c0,.79-.17,1.11.17,1.89l.02,38.33h-18.81s-.02-105.03-.02-105.03c0-1.48-.47-3.67.47-4.1l2.73-.26c1.15-.11-1.08-5.27.88-5.42l4-.3-1.93,3.81c-.38-.08-1.52-.12-1.48.28l.17,1.84h13.94s.1,21.8.1,21.8v3.94s-.03,10.28-.03,10.28c0,2.05-.05,4.36-1.2,5.92l-1.51.52c-.95.32,3.02,4.31-1.21,6.81Z" fill="#fff"/>
  <path d="M201.37,134.25c-.77,0-1.99.76-2.57,1.2-.12.33.12-.34.41-1.15h-6.75s-2.12-3.21-2.12-3.21V27.33c.12-.94.99-2.25,1.64-2.25l17.17.06-.02,69.51c-.71.18-1.51.29-1.67.65l-.74,1.71c-.37.86-.78,1.93-.81,2.62-.06,1.17,1.62,1.81,3.2,1.22v33.4s-7.73.02-7.73.02Z" fill="#fff"/>
  <path d="M490.88,217.91l.29,10.55-8.83-.07-.2-24.16-4.93,14.49h-4.76s-4.63-14.42-4.63-14.42l-.97,7.58c.92,1.49,1.13,3.62-.26,5.14-.65,1.92-.41,3.33.9,4.67l.11,6.7-8.27-.05v-46.27s7.38-.06,7.38-.06l7.22,19.76-1.92,1.5,1.94-.37c.37-.07.69.87,1.03,1.57l6.01-16.55,2.8-.27,1.14-5.59,5.6-.05.18,8.89-.1,7.41.29,19.6Z" fill="#fff"/>
  <path d="M590.53,219.64l-.17,8.51c-.07.56-1.78-.04-2.17-.81-.93,1.21-3.72,1.68-5.15.6l-3.69-9.19c-.08-.21-1.3-.82-1.53-.79-.3.04.48-.59.94-.97l-4.94-12.32-.09,9.36-.08,14.37h-8.25s.49-5.39.49-5.39l-.47-3.47v-19.67s1.83-.8,1.83-.8l-1.84-.72.03-16.35,7.32.1,9.28,23.49.29-7.45c0-.14.76-.93.67-1.06-.13-.18-.74-1.02-.3-.42,1.93-.48.88-1.21-.44-1.09l-.06-13.56,8.24.02v21.85s-2.19,2.04-2.19,2.04l-.2,3.72c-.16.76.06.75.58.06,1.47,2.78,5.77,5.54,4.74,6.73l-2.81,3.22Z" fill="#fff"/>
  <path d="M381.62,228.46l-5.98-.14-.49-6.36.24-3.05.12-10.24c-3.05,0-5.21-.05-7.54-.48l.05,20.25-8.23-.08.1-5.28c.06-2.87-.22-5.68.32-8.39l-.73-2.86c-.33-1.3.15-2.81.15-4.11l.11-25.72,10.42.18-2.15.69-.04,18.11,6.6.11.43,4.19,1.08-2,2.08-3.89-2.7-.11.03-17.23,8.27.02-.04,46.98-2.09-.57Z" fill="#fff"/>
  <path d="M432.88,182.01l.44,2.66-.02,33.3c-.53,5.24-3.76,9.27-8.76,10.56-.22.31-.54.85-.74.78l-1.08-.33-3.96-.38c-.12-.86-.15-2.24-.68-2.35l-2.4-.48-2.88-3.88-1.19,2.35c-.8-1.41-1.99-3.14-2.01-4.4l-.22-23.58-.13-14.22,6.17.13,2.08-.06-.02,34.86c0,1.19.73,2.9,1.45,3.54.85.76,2.91.82,4.05.06.78-.52,2.04-1.23,2.04-2.68l.02-19.64c0-1.54.52-2.96,1.48-3.87-.41-.23-1.33-.62-1.33-1.03l-.03-1.86-.14-9.49h7.86Z" fill="#fff"/>
  <path d="M532.71,219.48l-9.37-.05-1.85,8.97-8.63-.1,4.63-18.97c.82-.61,1.05-1.49.58-2.43l5.32-21.39.82-3.51,7.76.02,6.92,28.81c-1.13,1.05-1.49,3.37-.85,4.25.15.21,1.05.18,1.07-.06l.18-2.11,3.88,15.42-8.67.05-1.78-8.91ZM531.72,207.85c.21-.79-.85-2.05-1.78-2.3l-1.98-8.48-3.01,14.71,5.71.05,1.07-3.99Z" fill="#fff"/>
  <path d="M259.97,225.31l.52,1.39c.13.36-.38,1.45-.58,1.72l-1.29-3.46c.23-.41.65-1.56.51-2.12l-.86-3.39-9.4.11-1.65,8.81-8.73.02,11.27-46.31,7.81-.09,4.39,18.34,6.77,27.95c-.31.04-1.02-.32-1.11-.52.41-1.51-.56-1.67-1.23-.17l-3.7-2.33c-.21-.13-.9.55-1.14.48l-1.59-.43ZM250.71,211.81l6.01.02-.73-4.52-.58-2.91-1.81-7.31-1.02,4.7c-.56-1.15-.76-.87-.77-.07.3,2.14.35,3.76-.77,4.94-1.26-.8-1.78-.1-.95.74.88,1.37,1,2.37.62,4.4Z" fill="#fff"/>
  <path d="M181.54,221.04l-.85,1.25c-.17.25.55.91.68,1.1l-1.14-.04c-.31-.01-.57.95-.76,1.2-4.28,5.64-15.56,5.68-19.75.56-2.31-2.82-2.68-6.46-2.49-10.18h8.06c.16,1.59.27,3.15.71,4.41.67,1.92,3.24,2.2,4.97,1.62,3.37-1.14,2.57-9.51,1.12-10.65-4.14-3.28-11.34-3.6-13.34-8.44-1.61-3.92-1.59-8.52-.43-12.51,1.57-5.4,6.67-7.95,12.03-7.74,5.79.23,10.05,3.82,10.63,9.74l.4,4.05h-7.35s.25-1.07.25-1.07c.03-.15.08-.32-.07-.31l-1.21.1c.14-1.37-.54-3.53-1.56-4.26-1.38-.98-3.87-.91-4.82.84-1.02,1.87-1.7,6.4.37,7.88,4.66,3.32,13.9,4.18,13.84,10.89-.04,4.27-2.63,5.69-1.41,8.23l-.33,3.59,2.44-.23Z" fill="#fff"/>
  <path d="M300.08,213.98c.33,1.34-.4,3.36-1.43,3.75l.49,3.67,2.36,2.28c-.96,1.27-1.06,2.36-.86,4.63l-8.27.15-.3-16.64c-.01-.68-.96-1.43.05-2.26l-8.67-27.48,9-.11,4.02,15.67,3.95-15.61,9.04.05-9.23,29.35-1.95,2.75c.14.14.67.65.67.66,0,.01.58-.44,1.13-.86Z" fill="#fff"/>
  <path d="M215.48,205.28l-1.13-1.2c-.26-.27-1.15.24-1.02.59l.56,1.46-.51,2c-.13.51,1.19,1.28,2.07,1.68l.11,18.56-8.3.05.02-38.74-7.48-.04v-7.62s23.25-.01,23.25-.01v7.63s-7.57.04-7.57.04l.03,8.19c0,1.17-1.14,3.47-1.44,4.32.68,1.08,1.09,1.88,1.43,3.1Z" fill="#fff"/>
</svg>