<?xml version="1.0" encoding="UTF-8"?>
<svg id="Layer_1" xmlns="http://www.w3.org/2000/svg" version="1.1" viewBox="0 0 256 256">
  <!-- Generator: Adobe Illustrator 30.3.0, SVG Export Plug-In . SVG Version: 2.1.3 Build 182)  -->
  <path d="M215.11,88.04c-2.15.67-4.17,1.29-6.32,1.46-3.6-6.25-7.6-11.66-14.58-14-2.12-.71-4.15-1.16-6.37-.95l-2.26.22c-3.2.53-6,1.77-8.89,3.39l.32-1.64c.12-.64.47-1.51.17-2.18-1.97-4.39-4.44-8.49-7.65-12.08l-2.1-2.34,1.6-4.19,1.75-4.05c.35-.8.78-1.64,1.4-2.27l3.88-3.86,3.11-2.83,4.82-4.2,3.29-2.5,2.18-1.13c.85,2.21,1.87,4.26,3.09,6.31,1.42,2.38,3.24,4.29,5.27,6.16,1.77,1.63,3.76,2.82,6.03,3.72,1.99.79,4.12,1.16,6.28,1.41l2.17-.14.71,1.67,1.45,3.08,1.86,3.19,2.6,3.18,3,2.63,3.84,2.65,4.03,2.17,3.27,1.39c.89.38,1.59.86,2.23,1.64l-3.56,4.82c-.85,1.15-1.46,2.34-1.93,3.74l-2.59,1.2-6.02,2.44-6.1,1.89ZM172.57,59.37c.11-.67-.11-1.27-.46-1.63s-.92-.51-1.48-.39c-.74.15-1.2,1.03-1.09,1.7s.7,1.26,1.34,1.37,1.56-.27,1.69-1.04Z" fill="#fff"/>
  <path d="M45.55,89.29l-4.43-1.18-5.18-1.6-4.26-1.53-5.45-2.43c-.47-1.41-1.11-2.63-1.98-3.81l-3.54-4.79c.72-.83,1.58-1.35,2.59-1.76,1.92-.77,3.79-1.51,5.55-2.6l3.15-1.95c4.45-2.76,7.77-6.71,10-11.43l.99-2.1.71-1.72c1.12.11,2.05.22,3.11.03,1.82-.32,3.64-.6,5.33-1.3,4-1.65,6.29-3.63,9.11-6.83,1.81-2.06,3.1-4.41,4.27-6.87l1.05-2.51,1.51.74c1.68.82,3.04,2.06,4.45,3.3l5.77,5.09,4.89,4.7c.58.55,1.12,1.18,1.5,1.89,1.13,2.07,1.97,4.18,2.79,6.39l1.12,3.01-1.46,1.57-2.4,2.83c-2.32,3.14-4.38,6.4-5.9,10.02-.41.97.5,2.52.47,3.75-2.8-1.61-5.48-2.85-8.55-3.33l-1.19-.19-3.45-.04c-5.25.44-10.39,3.34-13.74,7.37-1.95,2.35-3.58,4.78-5.11,7.48-.52.02-1.1,0-1.72-.16ZM85.61,57.42c-.73-.26-1.35-.05-1.74.39-.36.4-.52,1.03-.39,1.65.16.71,1,1.07,1.71.95.59-.1,1.18-.68,1.3-1.37.09-.54-.27-1.4-.88-1.62Z" fill="#fff"/>
  <path d="M86.49,185.87l-4.21-1.42-4.53-1.4-7.53-2.33c-1.18-.37-2.52-.51-3.57-1.12-1.33-.77-2.19-2.14-3.3-3.16l-1.87-2.11c-2.03-2.29-3.52-4.86-4.76-7.65l-.89-2.24c-1.08-2.71-1.74-5.51-2.1-8.44l-.12-3.49c-.02-.63.83-1.2,1.3-1.59,2.49-2.08,4.91-4.05,7.16-6.38,1.21-1.25,2.24-2.55,2.9-4.14l.96-1.68c.9.84,1.45,1.64,2.03,2.63l3.39,5.76c1.1,1.87,2.48,3.48,3.99,5.05l4.98,5.16,1.96,2,3.44,3.91c3.05,3.12,6.43,5.75,9.83,8.48l4.67,3.39,2.16,1.27c-.71,2.76-1.24,5.52-1.06,8.37-1.61,1.15-2.81,2.55-3.86,4.2-.34.53-.56,1.07-.73,1.72-1.33-1.15-2.78-1.93-4.35-2.54l-5.9-2.27ZM55.84,155.18c1.27.07,2.31-1.1,2.03-2.29-.17-.72-.67-.99-1.35-.92-.56.06-.91.31-1.27.7-.45.49-.76.88-.58,1.61.1.41.58.87,1.17.9ZM100.62,178.73c.17-.22.22-.79.18-1.06-.13-.88-.7-1.41-1.47-1.35s-1.29.6-1.3,1.49c0,.38.13.84.36,1.06.63.6,1.83.39,2.23-.13Z" fill="#fff"/>
  <path d="M166.3,187.04l-4.12,1.75c-1.01.43-1.93,1.16-2.86,1.85-.21-.7-.54-1.37-.96-1.99-1.02-1.5-2.09-2.86-3.66-3.86.17-2.88-.34-5.65-1.07-8.43l2.2-1.27,4.51-3.26,7.03-5.8,4.8-4.8,1.99-2.39,6.01-6.11c1.55-1.58,2.96-3.18,4.12-5.05l2.6-4.18c.75-1.2,1.22-2.56,2.15-3.63l1.04-1.2.76,1.27c.6,1.43,1.35,2.67,2.39,3.83,1.67,1.88,3.53,3.49,5.45,5.11l2.85,2.4c.28.23.86.83.91,1.19l-.16,3.62c-.4,3-1.19,5.8-2.2,8.66-1.58,4.44-4.22,8.43-7.52,11.79-1.03,1.05-1.91,2.37-3.22,3.08-1.08.58-2.4.75-3.59,1.11l-7.63,2.36-5.06,1.58-6.76,2.36ZM199.59,155.12c.73.24,1.45-.11,1.7-.66.31-.67.05-1.19-.41-1.72-.58-.66-1.62-1.15-2.4-.45-.45.39-.42,1.24-.17,1.8.2.45.64.82,1.28,1.03ZM156.71,179.23c.92-.02,1.26-.61,1.28-1.3.03-.88-.42-1.53-1.24-1.62-.75-.08-1.4.46-1.52,1.34-.05.39.02.94.29,1.19.23.22.78.4,1.19.39Z" fill="#fff"/>
  <path d="M163.9,132.18c.79-1.95,1.39-3.85,2.63-5.53.78-.33,1.94-.49,2.51-1.27.96-1.31,1.75-2.79,2.26-4.33.22-.67.4-1.19.84-1.73l1.06-1.33,3.73.77c.39.49.36,1.32.14,1.86l.27,1.56.73,3.08.81,3.11c.21.79.3,1.49.18,2.3l-.31,2.28c-.29.14-.59.31-.75.56l-7.19,11.3v3.21c0,1.78.74,3.45,1.13,5.16l.39,1.71-6.33,6.66-8.34,8.72-5.29,5.66.49,2.83c-.96.93-1.98,1.64-3.11,2.38-1.55,1.01-2.81,2.37-3.85,3.9l-1.61,2.38-1.63-1.26c-2.02-1.56-4.07-2.89-6.31-4.15-.21-.12-.53.03-.75.07l-5.61.87c-1.26.2-2.61.2-3.87,0l-5.62-.87c-.3-.05-.55-.2-.87-.03-2.81,1.56-5.38,3.39-7.88,5.37l-1.58-2.34c-.93-1.38-2.08-2.64-3.43-3.62l-3.54-2.59.46-2.94-3.2-3.44-5.14-5.43-3.39-3.53-2.75-2.9-3.45-3.59-2.01-2.13.37-1.66c.36-1.64.96-3.19,1.12-4.88l.04-3.54c-2.36-3.99-4.75-7.85-7.45-11.59-.3-.41-.68-.45-.72-1.22l-.13-2.32.58-2.75.85-3.36c.25-.98.56-2.03.52-3.04-.03-.61-.21-1.32.25-1.84l3.04-.63c.52-.11.84-.02,1.16.44l1.04,1.5c.52,1.75,1.28,3.34,2.28,4.92.61.96,1.69,1.42,2.85,1.65,1.17,1.76,1.88,3.69,2.65,5.66.17.44.26.85.15,1.31-1.33.12-2.39.59-3.24,1.59-.99,1.16-1.88,2.65-2,4.24-.37,4.83,2.26,9.27,2.32,12.41.04,1.87.58,3.27,2.01,4.53.78.68,1.64,1.64,2.82,1.43l.6-.36c.28,3.39,1.39,6.6,3.57,9.23,1.13,1.37,2.49,2.3,3.9,3.33.83.6,1.76,1.05,2.72,1.35l2.95,4.1c.66.92,2.2.36,3.36-.48l1.17.29c.11.87.38,1.58.89,2.25l1.59,2.07c.34.44.75,1.02,1.31,1.06,1.39-1.04,2.69-1.8,4.28-2.42l1.62,1.22,2.64,1.89c.76.55,1.88-1.29,2.6-2.47l.59-.96.79,1.26c.52.84,1.08,1.59,1.83,2.29.44-.08.89-.27,1.24-.53l2.12-1.57,1.52-1.13c1.61.66,2.88,1.4,4.3,2.45.53-.15.9-.59,1.24-1.03l1.7-2.24c.47-.62.69-1.28.79-2.11l1.15-.36c.67.45,1.37.86,2.13.99s1.29-.43,1.68-.98l2.53-3.57c1.04-.36,2.02-.86,2.94-1.51,1.84-1.32,3.56-2.65,4.74-4.59,1.49-2.44,2.34-5.02,2.53-7.87l.84.48c1.07-.18,2.03-.79,2.69-1.65,1.3-1.11,2.05-2.68,1.8-4.39l1.31-5.21c1.12-4.46,2.55-8.69-1.75-12.23-.68-.56-1.46-.65-2.32-.87-.28-.26-.05-.9.13-1.34Z" fill="#fff"/>
  <path d="M175.03,79.27l-2.89,2.74c-.69-.72-1.78-1.54-2.89-1.38-1,.15-2.09.61-2.87,1.19l-3.01,2.23c-.74.55-1.26,1.25-1.98,2.1-.76-2.45-1.41-4.76-2.43-7l-.8-1.75c-.3-.65-.04-1.13.22-1.71.85-1.92,1.19-3.98,1.47-6.06.2-1.49.29-2.99-.03-4.43l-1.09-.91-1.78-1.75-1.14-1.12c-1.5-1.47-2.6-3.23-3.67-5.07-1.51-2.57-2.36-5.36-2.9-8.36l4.66-1.22c1.29-2.03,2.08-4.24,2.73-6.56.21-.62.33-1.25.34-1.88l-3.35-3.01,1.74-4.43c.32.81.55,1.48,1.16,1.9,4.78,3.26,9.01,4.12,14.55,5.13l1.01.18h5.19s1.57-.23,1.57-.23l1.81-.45,4.18-1.69-2.83,2.34-5.91,5.22-1.79,1.48-1.68,1.68-2.12,2.55c-.58.7-1.01,1.69-1.37,2.55l-3.31,7.92c-.14.33.32,1.02.53,1.31l6.41,8.8,1.82,3.15c.26.45.5,1.08.49,1.63l-.05,4.92ZM163.1,54.69l.91-2.41,2.45.65c.11.03.38-.07.4-.18s-.18-.33-.31-.37l-2.93-.85-1.29,3.28c.12.17.38.44.54.52l2.23,1.16.22-.45-2.22-1.35Z" fill="#fff"/>
  <path d="M81,79.33l-.1-3.4c-.03-.85-.05-1.91.31-2.68,1.13-2.43,2.54-4.58,4.14-6.72l4.59-6.13c.28-.37.34-.85.17-1.26l-3.27-7.74c-.38-.89-.86-1.88-1.44-2.6-1.16-1.45-2.28-2.78-3.61-4.04l-1.28-.98-4.47-3.99-4.87-4.06c1.55.4,2.81,1.14,4.27,1.69l1.83.45,1.57.23,5.08-.02,1.51-.24c2.63-.41,5.12-1.02,7.63-1.82,2.37-.76,4.45-1.85,6.52-3.27.6-.4.83-1.12,1.11-1.87l1.75,4.42-3.32,3.02c-.05.56.09,1.24.29,1.8.64,2.34,1.45,4.52,2.73,6.64l4.68,1.24c-.56,3.02-1.39,5.82-2.94,8.41-1.05,1.75-2.13,3.46-3.55,4.89l-1.84,1.86-2.33,2.17c-.21,1.46-.18,2.84.02,4.26l.19,1.33c.28,1.96.73,3.81,1.68,5.59-.11.92-.52,1.68-.91,2.5-1.08,2.28-1.72,4.59-2.45,7.06-.27-.19-.42-.36-.61-.57-1.68-1.86-5.08-4.64-7.35-4.88-1.09-.11-2.14.65-2.86,1.41-.85-1-1.72-1.9-2.85-2.7ZM90.67,56.06l.25.45,2.36-1.23c.31-.16.43-.5.29-.83l-1.2-2.92-3.18.98c-.15.04.14.5.31.46l2.48-.69.93,2.42-2.24,1.37Z" fill="#fff"/>
  <path d="M148.68,203.02l-.82,1.05-1.91,2.39c-3.42.81-6.79,1.44-10.32,1.7l-7.58-.03-7.6.04-6.07-.81c-1.5-.2-3.03-.54-4.41-1.02l-2.62-3.29,3.52-2.12c.32-.19.43-.57.27-.95l1.09-3.35,1.46-3.76-.47-.82-1.88-2.98,1.38-1.37c1.67-1.43,3.54-2.48,5.41-3.61l1.78-1.08,2.01.86,1.34,2.64c.19.38.84.71,1.27.71h7.02c1.26,0,1.94-2.04,2.56-3.37.69-.2,1.35-.46,2-.84l4.54,2.75c1.51.92,2.85,2.03,4.01,3.35l-1.95,3.08c-.26.41-.44.79-.14,1.26l1.1,2.84,1.12,3.53c.15.49-.05.91.48,1.22l3.39,2.01Z" fill="#fff"/>
  <path d="M65.97,126.84c-.09-1.2.39-2.55.41-3.78l.07-3.96-.2-3.82c-.48-5.76-2.07-11.34-5.11-16.31-1.92-3.13-4.3-3.44-4.71-4.75l-1.16-3.76-1.09-3.89c-.22-.79,0-1.45.73-1.81l2.55-1.25c.54,1.62,1.2,2.83,2.38,3.92.32.29.69.57,1.11.56.39-.01.79-.27,1.11-.55l.6-.54c.6-1.02.68-2.17.78-3.32.16-1.7-.18-3.1-.99-4.58l-.46-1.64c-.05-.18.08-.71.26-.77l1.69-.57,1.11,4.54c.25,1.02.98,1.92,1.49,2.83l2.42,4.38c.63,1.14,1.02,2.44,1.32,3.75l2.17,9.52,1.85,8.01c.31-.7-.09-1.28-.21-1.89l-1.51-7.38c-.8-3.93-1.71-7.74-2.96-11.56l-.87-1.95c-.58-1.3-1.08-2.59-1.88-3.78-.51-.76-1.05-1.52-1.23-2.43l-.87-4.28c2.69-.4,5.21.07,7.67,1.01.39,1.67.89,3.24.96,4.93l.16,3.69c-.04,4.01-.11,7.93.57,11.87.58,3.36,1.32,6.58,2.26,9.83l1.4,3.74-1.46.47c-.85,1.04-2.34,3.7-2.26,3.83-.03-.06-.23-.28-.25-.39l-.51-3.42c-.97-6.53-2.66-12.82-4.79-19.05-.31-.9-.44-1.85-1.3-2.47l2.99,9.65,2.5,10.92c-.03,2.02.19,3.88.85,5.82l-4.23,10.62c-.77-1.11-.85-2.36-.89-3.62l-.05-1.85c-.11-3.75-.3-7.41-1.08-11.09-.69-3.26-2.04-6.17-3.59-9.08-.96-1.8-1.83-3.53-3.02-5.17-.33-.46-.76-1.03-1.36-.93.89,1.08,1.64,2.02,2.23,3.15l1.26,2.41,1.11,2.28c1.26,2.6,2.32,5.17,2.81,8.06.67,3.97,1.04,7.88,1.12,11.91.03,1.18,0,2.27.36,3.39.2.66.81,1.52.66,2.21l-1.17,3.82-1.77-5.48Z" fill="#fff"/>
  <path d="M189.64,122.94l.32,2.55c.11.85.16,1.51-.12,2.33l-1.55,4.53-1.26-3.98.71-2.05c.43-1.23.36-2.52.4-3.85.11-3.91.45-7.71,1.13-11.55.39-2.2,1-4.23,1.97-6.23l2.67-5.51c.73-1.51,1.68-2.78,2.74-4.15-.73.04-1.19.63-1.5,1.17l-2.93,5.11c-3.78,6.58-4.43,12.52-4.59,19.97l-.04,1.9c-.03,1.26-.13,2.49-.91,3.62l-4.21-10.57c.59-1.93.89-3.82.84-5.9l2.57-11.01,2.9-9.52c-.95.78-1.11,1.96-1.48,3.07-2.05,6.04-3.66,12.16-4.6,18.46l-.66,3.82c-.74-1.4-1.4-2.58-2.35-3.83l-1.46-.45,1.46-3.93c1.05-3.82,1.99-7.58,2.47-11.52.43-3.52.33-6.9.31-10.4l.17-3.43c.08-1.66.56-3.2.97-4.82,2.46-.92,4.92-1.36,7.64-1l-.95,4.58c-.09.42-.38,1.01-.62,1.35-1.01,1.41-1.71,2.86-2.36,4.45l-1.23,3.01-2.47,9.78-1.46,7.17c-.2,1-.65,1.94-.49,3l1.91-8.1,1.89-8.4c.36-1.61.75-3.26,1.53-4.68l2.5-4.57c.51-.92,1.24-1.81,1.49-2.84l1.09-4.52,1.74.62c.24.08.23.71.17.94l-.38,1.45c-.88,1.43-1.19,2.93-1.02,4.6.19,1.91.15,2.91,1.68,4.1.61.47,1.32.3,1.81-.15,1.24-1.12,1.95-2.4,2.51-4.05l3,1.59c.22.12.35.71.39.99l-2.14,7.46c-.15,1.04-.92,1.68-1.76,2.2-1.41.88-2.42,1.97-3.28,3.38-3.01,4.95-4.55,10.49-5.03,16.23l-.2,3.61.08,3.98Z" fill="#fff"/>
  <path d="M107.87,69.99c-1.52.39-2.34,1.89-2.68,3.25l-1.57,6.17-.48-.6-3.73-3.02c-.77-1.93-1.14-3.97-1.59-6.01-.35-1.58-.64-3.16-.3-4.7l1.88-1.96,2.25-2.54c2.23-2.52,3.9-5.33,5.03-8.51l.85-2.37,3.16-.19h7.46s3.5.21,3.5.21v10.25c-.56,1.86-1.24,3.57-2.05,5.3-.32.42-.48.89-.55,1.42-1.44.73-2.36,1.91-3.09,3.29-.5.96-1.01,1.85-1.19,2.92l-.42,2.44c-.91-1.36-1.49-2.72-2.56-3.89-.95-1.04-2.47-1.82-3.94-1.44ZM104.46,65.21c1.03-.23,1.15-1.01,1.72-1.5.95-.81,2.31-.87,3.48-1.38.04-.47-.11-.88-.42-1.39l-3.35.97c-1.28-.91-3.44-.41-4.29.84-.39.57-.56,1.28-.2,1.94.23.42.81.84,1.47.9.48.04,1.14-.27,1.6-.38Z" fill="#fff"/>
  <path d="M152.4,79.43l-1.57-6.21c-.34-1.35-1.14-2.78-2.59-3.2s-3.09.34-4.07,1.45c-1.03,1.18-1.63,2.52-2.53,3.87l-.45-2.64c-.17-1-.66-1.82-1.12-2.72-.72-1.41-1.72-2.56-3.12-3.37-.06-.52-.22-.95-.51-1.34-.85-1.76-1.54-3.51-2.09-5.41v-10.17s3.43-.2,3.43-.2h7.59s3.1.2,3.1.2c1.26,3.74,2.74,7.22,5.34,10.2l2.51,2.88,2.18,2.34c.37,1.55.02,3.14-.3,4.68-.42,2.05-.87,4-1.54,5.97l-2.57,1.95c-.61.46-1.13,1.02-1.69,1.7ZM154.62,64.76c.29-.51.25-1.19,0-1.7-.78-1.52-3.07-2.11-4.46-1.15l-3.32-.97c-.37.48-.52.92-.46,1.41l3.63,1.31c.11.33.33.87.58,1.02,1.47.89,3.27,1.39,4.03.07Z" fill="#fff"/>
  <path d="M80.04,100.04c-.5-5.18,1.2-11.2,4.09-15.4.37-.54.78-1.04,1.42-1.51-.45,1.76-.81,3.26-.94,5-.18,2.36-.25,4.73,0,7.07l.2,1.86c.58,5.36,2.35,10.42,4.96,15.15,1.28,2.28,2.56,4.4,4.11,6.47l.23.14s.17,0,.16-.06l-.04-.28c-1.57-2.34-2.99-4.63-4.26-7.17-2.17-4.38-3.76-8.93-4.38-13.79l-.23-1.81-.24-3.25v-2.95s.22-2.83.22-2.83c.1-1.39.7-2.69,1.17-4.05l1.31.81,3.23,2.71c.74.62,1.5,1.24,2.02,2.07l1.66,2.67c.4.64.24,1.8.09,2.54l-.98,5.03-.06,4.88c.28,4.01.9,7.89,1.67,11.81.39,1.96,1.01,3.79,2.01,5.47l1.85,3.09-2.88-1.21c-1.8-1-3.31-2.38-4.68-3.92l-3.79-4.26-2.14-2.67c-2.43-3.04-5.41-7.71-5.79-11.59Z" fill="#fff"/>
  <path d="M176,99.86c-.33,3.97-3.29,8.57-5.72,11.65l-1.89,2.39-5.36,5.9c-1.44,1.59-4.01,3.26-6.36,3.85,2.45-3.38,3.76-6.96,4.36-10.95l.74-4.89.2-1.56.21-2.11.03-5.24c.01-2.63-1.86-6.59-.89-8.14l1.46-2.36c.85-1.38,4.8-4.62,6.69-5.8.49,1.28,1.07,2.61,1.18,4.06l.22,2.84v2.95s-.24,3.26-.24,3.26l-.25,1.9c-.62,4.75-2.18,9.17-4.24,13.48l-4.48,7.85c1.97-1.87,3.12-4.23,4.42-6.5,2.76-4.82,4.39-10.07,5.14-15.57l.22-2.16-.03-6.42c0-1.75-.46-3.29-.97-5.15.76.48,1.26,1.24,1.75,1.98,1.06,1.6,1.79,3.23,2.43,5.04,1.09,3.12,1.65,6.26,1.37,9.71Z" fill="#fff"/>
  <path d="M55.33,149.47c.46-1.42.93-2.43,1.09-3.71.34-1.33.13-4.61-.28-5.68l-2-5.21-3.71-8.54-1.89-4-.03-3.49c1.11,1.16,2.37,1.87,4.01,1.85l1.31,1.69c.19.25.64.53.92.37l2.33-1.33-1.27-1.92c.8-1.35,1.15-2.92.9-4.49l-.34-2.21,3.37.46,2.31.21c.18.02.46.23.48.4l.37,3.06.95,6.28c.17,1.12.48,2.28.94,3.28l.61,1.35,1.73,5.32c.43,1.32,1.11,2.49,1.89,3.75-1.16.14-2.31.34-3.4.73l-2.34,4c-.46.79-.96,1.53-1.62,2.19-1.99,1.99-4,3.82-6.32,5.62Z" fill="#fff"/>
  <path d="M199.97,139.8c-.49,1.2-.71,4.56-.36,6.01.15,1.26.63,2.25,1.09,3.65-2.42-1.83-4.51-3.79-6.59-5.86l-.75-.94-2.94-4.98c-1.09-.42-2.18-.62-3.42-.75.85-1.32,1.56-2.64,2.03-4.11l1.61-5.01.62-1.36c.61-1.33.88-2.82,1.1-4.27l.56-3.82.61-4.49c.02-.17.33-.39.51-.41l2.29-.21,3.33-.46-.32,2.15c-.24,1.61.05,3.16.91,4.54l-1.01,1.37c-.09.13-.15.65-.01.72l1.96,1.1c.41.23.77.04.99-.26l1.3-1.71c1.59-.04,2.89-.67,4.06-1.86l-.05,3.48-1.85,3.95-3.05,7.08-2.59,6.43Z" fill="#fff"/>
  <path d="M148.6,48.29l-9.69-.13c-1.61-.02-3.06-.02-4.68.26l-1.4-2.38,3.73-6.57,1.66-2.73,6.98-12.44c.15-.13.68-.15.87-.06l2.28,1.1c2.35,1.14,4.37,2.83,6.45,4.43l-1.28,3.67-3.18,9.35-1.73,5.5ZM148.02,26.99c.06-.6-.47-1.06-.91-1.23-.54-.21-1.09-.17-1.53.32-.25.27-.39.85-.24,1.16.18.35.55.59.98.7.72.19,1.63-.14,1.7-.94Z" fill="#fff"/>
  <path d="M117.38,48.15l-9.94.15-1.3-4.22-3.55-10.38-1.37-3.93,4.9-3.52,3.61-1.91c.25-.13.88-.38,1.09,0l7.04,12.53,1.21,1.92,4.11,7.23-1.38,2.4c-1.47-.24-2.85-.29-4.43-.26ZM109.8,27.9c.55-.13.91-.5.95-1,.03-.33-.27-.83-.59-1.06-.51-.36-1.02-.22-1.51.05-.39.22-.77.84-.61,1.32.24.74,1.03.86,1.76.69Z" fill="#fff"/>
  <path d="M63.33,35.13l-5.51,4.03-5.54,3.66-2.22-1.76c-.61-.48-.98-1.34-1.29-2.07l-2.23-5.24c-.33-.78-.09-1.01.29-1.63l3.26-5.35c3.56-5.85,6.61-11.85,9.32-18.14.27-.62.99-1.39,1.68-1.01,1.17.65,2.14,1.63,3.17,2.59-.42.18-1.12.26-1.28.53l-1.02,1.99-3.12,5.9c-1.21,2.28-2.44,4.4-3.91,6.52-.19.28-.23.83-.13,1.15.41,1.28.77,2.5,1.43,3.67,1.5,2.65,4.11,4.45,7.09,5.16Z" fill="#fff"/>
  <path d="M197.21,38.44l-4.52-3.31c2.88-.71,5.38-2.36,6.91-4.85.77-1.27,1.19-2.63,1.63-4.05.13-.43-.02-.97-.28-1.33-1.93-2.69-3.39-5.54-4.92-8.47l-2.96-5.68c-.23-.24-.84-.4-1.31-.57,1.04-.92,2.02-1.93,3.22-2.58.63-.34,1.38.39,1.63.96,3.08,7.24,6.72,14.11,10.9,20.77l2.28,3.63-2.12,5.08c-.42,1.01-.75,2.21-1.59,2.9l-2.28,1.87-3.57-2.35-2.99-2.03Z" fill="#fff"/>
  <path d="M175.59,151.23c-.99-1.84-1.69-3.72-1.94-5.76-.12-.99.18-2.09.41-3.09.25-1.08,1-1.98,1.56-2.91l2.97-4.95c.26-.44.76-1.17.82-1.62l.31-2.26c.09-.63-.22-1.44-.32-2.09l-.39-2.47-.8-5.37-.28-2.97c-1.47-.67-2.93-.97-4.64-1.39l1.7-2.34,1.26-1.39h3.21s3.01,6.87,3.01,6.87l-.83,1.81c-.15.33.3.99.44,1.34l2.04,4.85c.72.17,1.43.34,1.95.72.34.43-.14,1-.31,1.37-.84,1.82-1.37,3.67-1.91,5.59-.42,1.5-.73,3.9.07,5l-2.07,3.01c-1.93,2.78-3.88,5.36-6.27,8.06Z" fill="#fff"/>
  <path d="M82.39,145.44c-.27,2.07-1,3.95-1.93,5.83-2.54-2.9-4.79-5.89-6.97-9.07l-1.35-1.97c.7-1.36.47-3.44.03-5.04-.54-1.96-1.08-3.83-1.94-5.69-.15-.32-.66-.95-.23-1.31.46-.38,1.17-.53,1.88-.7l2.03-4.81c.13-.32.63-.97.49-1.27l-.85-1.92,2.99-6.86,3.32-.02,2.87,3.73c-1.64.4-3.11.73-4.62,1.39l-.3,3.05-.78,5.26-.39,2.47c-.11.67-.41,1.48-.32,2.14l.31,2.27c.06.43.54,1.13.79,1.55l3.08,5.12,1.55,2.8c.06,1.05.48,2.06.35,3.07Z" fill="#fff"/>
  <path d="M114.92,27.95l1.5-3.86c.09-.23,0-.75-.18-.93l-1.75-1.7-1.9,3.1-1.06-.99c.72-2.34,1.67-4.48,2.91-6.65,3.35-6.27,7.55-11.89,12.95-16.92l.03,13.83c-1.33,1.11-2.45,2.33-3.54,3.67l-3.93,5.52c-1.51,2.46-2.75,4.99-3.54,7.68l-1.5-2.76Z" fill="#fff"/>
  <path d="M141.59,21.52c-1.02.69-2.26,1.84-1.96,2.61l1.48,3.84-1.52,2.78-1.25-3.48c-2.31-4.88-5.69-9.79-9.74-13.45V.05s1.21,1.06,1.21,1.06l3.02,3.21c4.19,4.45,9.75,13.19,11.65,19.19-.28.4-.65.76-1.04,1.08l-1.84-3.05Z" fill="#fff"/>
  <path d="M129.32,46.93c0,.6.11.91-.12,1.18-.62.72-1.88.63-2.3.14-.29-.33-.18-.69-.18-1.18l.02-27.78c-1.9,1.4-3.2,3.02-4.49,4.75l-1.53,2.15c-1.48,2.07-2.62,4.18-3.11,6.82l-.88-1.65c1.38-3.89,3.24-7.48,5.68-10.8l2.61-3.33,3.03-2.94c.9.67,1.62,1.37,2.31,2.22l2.1,2.57c3,3.68,5.26,7.75,6.81,12.28l-.88,1.62c-.44-2.53-1.53-4.61-2.95-6.6l-1.94-2.72c-1.17-1.64-2.46-3.16-4.23-4.36l.04,27.63Z" fill="#fff"/>
  <path d="M137.68,84.17l-7.55-.13-.73-.57c-.72-.56-.92-1.27-.78-2.2l.36-2.31c.35-2.27,1.17-4.33,1.96-6.46l.61-1.65c.47-1.28,1.15-2.32,2.33-3.06.43-.27,1-.32,1.42.02,1.42,1.16,2.48,2.55,3.27,4.22l1.74,4.44c.56,1.42.56,2.96.7,4.53-.39,1.76-.83,1.86-1.63,2.59-.48.44-.97.69-1.7.56ZM136.7,82.51c.53.14,1.13.03,1.44-.51-2.1-.39-4.13-.53-6.06.1,1.63.05,3.1.02,4.61.42Z" fill="#fff"/>
  <path d="M126.01,84.03l-7.7.16c-.64.01-1.22.01-1.59-.6-1.28-.67-1.89-2.11-1.64-3.52l.67-3.71,1.86-4.62c.6-1.48,1.68-2.59,2.82-3.67.57-.54,1.16-.67,1.85-.17.75.54,1.47,1.19,1.82,2.1l1.03,2.66c.76,1.95,1.51,3.85,1.84,5.93l.25,1.59c.29,1.84.59,2.5-1.21,3.85ZM119.04,82.54c1.75-.4,3.28-.43,4.95-.46-2.04-.62-4.08-.49-6.13-.07.23.3.77.62,1.18.53Z" fill="#fff"/>
  <path d="M165.59,166.5l-2.57,2.11c-2.74,2.54-5.51,4.89-8.97,6.67l3.06-3.28,2.75-2.91,5.08-5.22,8.19-8.56c.8-.84,1.39-1.8,2.31-2.5.3-.23.44-.48.66-.77l6.7-8.79,3.58-5.58,3.19.64c-.68.55-1.31,1.04-1.75,1.8l-4.27,7.28c-.87,1.49-1.85,2.8-2.98,4.07l-2.46,2.76-3.53,3.52-2.81,2.69-2.47,2.35-3.72,3.73Z" fill="#fff"/>
  <path d="M101.98,175.3c-3.15-1.66-5.95-3.86-8.57-6.34l-3.83-3.24-3.58-3.62-4.38-4.22-4.44-4.43-2.23-2.58c-.94-1.08-1.73-2.21-2.47-3.46l-4.32-7.37c-.48-.7-.94-1.12-1.74-1.72l3.19-.68,3.28,5.13c1.95,3.05,4.12,5.84,6.5,8.58l.8,1.09.99.92,2.05,2.32,2.48,2.62,4.86,5.01,7.27,7.52c1.29,1.55,2.81,2.66,4.13,4.45Z" fill="#fff"/>
  <path d="M87.54,244.33l.02,10.14c.06.17.15.49.07.59s-.31.25-.45.31l-1.19.57v-11.61s-7.06,0-7.06,0v1.86s-1.6,1.01-1.6,1.01v-1.2s.02-15.3.02-15.3l-.07-1.26,1.74,1.22h15.39s1.12-1.23,1.12-1.23l1.47,1.64-.97.78.03,11.49.08,2.21-1.55.68-.04-1.88h-7.01ZM86.01,231.36h-7.08v5.95h7.08v-5.95ZM94.58,231.35h-7.04s0,5.95,0,5.95h7.04s0-5.95,0-5.95ZM86.01,238h-7.08s0,5.62,0,5.62h7.08s0-5.62,0-5.62ZM94.58,238h-7.04s0,5.63,0,5.63h7.04s0-5.63,0-5.63Z" fill="#fff"/>
  <path d="M151.59,254.99c-2.07-2.17-4.39-3.83-7.08-5.18-3.54,3.61-8.18,5.38-13.08,6.53-.15.03-.47.13-.5.02l-.14-.5c1.97-.57,3.8-1.18,5.63-2.01,2.44-1.21,4.62-2.63,6.54-4.79l-6.97-2.84,3.02-8.64-5.82.03-1.88.36-.95-1.09,8.9-.03,2.18-8.82,2.54,1.57-.96.79-2.14,6.47h10.12s1.68-1.9,1.68-1.9l2.32,2.59-5.71.03c-.99,3.84-2.18,7.42-3.93,10.95l2.41,1.04c2.74,1.19,5.98,2.68,4.65,5.56-.14.08-.65,0-.81-.17ZM143.76,247.93c1.67-3.52,2.74-6.78,3.55-10.34l-6.57.03-2.94,8.41,5.96,1.9Z" fill="#fff"/>
  <path d="M148.48,85.1l-1.3-.53-4.58-.04c-.52-.52-1.21-1.43-1.04-2.16.38-1.04.6-1.94.69-3.05l.74-3.52c.15-.72.16-1.24.54-1.86.64-1.05,1.24-2.12,2.33-2.75.84-.48,2.09-.8,2.85-.14.94.81,1.18,2.05,1.47,3.2.57,2.26,1.23,4.41,1.29,6.77l-.22,1.38c-.3,1.9-.84,1.9-1.67,2.51-.34.25-.69.35-1.1.18Z" fill="#fff"/>
  <path d="M108.92,84.56l-1.4.54c-.32.12-.69.11-.96-.08-1.08-.76-1.49-.85-1.79-2.6l-.23-1.39c.07-2.37.72-4.52,1.3-6.79.29-1.15.56-2.52,1.57-3.25.94-.68,2.36-.16,3.2.5s1.33,1.59,1.89,2.49c.36.58.37,1.12.51,1.79l.75,3.55c.23,1.11.32,2.06.74,3.13,0,.71-.56,1.52-1.03,2.08l-4.55.02Z" fill="#fff"/>
  <path d="M151.55,162.02c-.32-.39-1.28-.8-1.79-.82l-2.08-.1-1.81-.24c.27-.71.69-1.34,1.15-1.92l1.81-2.28c1.54-1.93,3-3.73,4-6.03,1.74-3.99,2.54-8.21,2.51-12.53l.65,2.85c.44,1.93.74,3.79.89,5.78.18,2.34.34,4.61.12,6.94-.26,2.76-.89,5.29-2.16,7.73l-2.21,3.75c-.22-1.18-.3-2.17-1.09-3.13Z" fill="#fff"/>
  <path d="M106.32,161.19c-.5.03-1.49.42-1.82.78-.74.89-.9,1.97-1.1,3.19-1.52-2.18-2.79-4.55-3.58-7.12-1.29-4.2-1.06-11.16-.15-15.4l.97-4.53c.09,4.43.81,8.59,2.58,12.57,1.01,2.29,2.39,4.15,4.02,6.02l1.61,2.05c.52.67,1.08,1.37,1.29,2.14l-1.73.21-2.08.1Z" fill="#fff"/>
  <path d="M64.96,252.46c-1.82,1.28-3.75,2.14-5.84,2.81l-.37.02c-.11,0-.08-.33-.03-.43,2.03-.77,3.71-1.95,5.48-3.42-1.07-1.75-1.56-3.66-1.79-5.67l-3.67.03-.37,2.64c1.29.69,2.99,1.26,2.97,2.61,0,.41-.29.82-.64,1.21-.12-.1-.39-.35-.46-.5-.49-1.03-1.11-2.04-2.01-2.84-.87,3.29-2.98,5.86-5.9,7.26l-.19-.22c-.05-.06.11-.25.18-.3,3.49-2.43,4.65-5.67,5.01-9.85-.92-.11-1.62-.04-2.48.22l-.84-.95,3.35-.04-.14-3.08,2.16,1.16c-.66.46-.82,1.31-.53,1.94h3.47s-.11-2.61-.11-2.61l-.14-3.95-.06-10.47,2.38,1.16-.97.98.06,12.27.12,2.62h3.94s-1.34-2.64-1.34-2.64c-.14-.27-.35-.54-.12-.79.7.35,1.38.78,1.88,1.25.62.58.51,1.22.08,1.88l-.15.22c-.03.05.35.12.39.08l1.37-1.38,1.91,2.08-7.82.03c.16,1.6.57,3.14,1.52,4.64,1.13-1.07,1.97-2.23,2.64-3.6l1.81,1.6-1.16.77-2.42,2.38c.92,1.19,2.05,1.92,3.6,2.47l.84-4.07.32.03v2.66c-.02,1.14.12,2.13.49,3.33-.71.19-1.42,0-2.09-.3-1.68-.73-3.19-1.7-4.34-3.23Z" fill="#fff"/>
  <path d="M160.22,158.35c-.84,5.21-2.95,8.85-7.8,11.32l.24-3.8,1.19-1.65c1.2-1.68,1.98-3.53,2.7-5.48.55-1.5.81-3.04.8-4.66v-5.78s-.25-2.96-.25-2.96l-1.79-10.9c.73.77.98,1.66,1.41,2.54,1.49,3.09,2.48,6.27,3.03,9.65l.45,2.78.25,2.41v4.96s-.25,1.58-.25,1.58Z" fill="#fff"/>
  <path d="M103.62,169.69c-4.93-2.59-6.88-5.92-7.83-11.42l-.24-1.41v-4.98s.25-2.4.25-2.4l.48-2.9c.56-3.38,1.52-6.56,3.03-9.63.43-.88.67-1.79,1.41-2.53-1.47,7.14-2.5,13.57-1.98,20.79.27,3.71,2.4,7.68,4.65,10.75l.24,3.74Z" fill="#fff"/>
  <path d="M112.2,171.07l-.09,1.3-2.05,1.96c-.26.25-.78.45-1.23.68-.79-.84-1.38-1.73-1.99-2.7l-1.35-2.15c-1.02-2.53-1.84-5.24-.38-7.54.43-.68,1.39-.63,2.04-.65l2.71-.1c.33.04,1,.19,1.33.33,1.67.67,3.19,1.17,4.98,1.52l.77,1.24c.17.28.07,1.05-.04,1.32l-1.87.17c-2.36.21-2.66,2.4-2.82,4.64ZM114.19,163.7l-3.45-.51-1.8-.55-.11.15,1.89.84c1.02.45,2.3.6,3.48.07Z" fill="#fff"/>
  <path d="M145.49,173.86l-1.53-1.45-.13-1.27c-.2-1.88-.21-4.49-2.78-4.71l-1.83-.16c-.57-.81.17-2.49,1.18-2.69,1.56-.32,2.92-.78,4.39-1.38.31-.13,1.01-.32,1.34-.33l2.69.08c.69.02,1.72-.04,2.15.66,1.4,2.34.65,4.98-.38,7.49l-1.39,2.25-1.87,2.61c-.76-.19-1.27-.6-1.81-1.11ZM141.75,163.72c1.94.7,3.89-.01,5.45-1.02l-2,.49-3.45.54Z" fill="#fff"/>
  <path d="M133.93,65.63l-2.45,1.6c-1.21.79-2.1,1.67-2.97,2.98v-20.83c1.51-.22,2.67-.69,3.74-1.61l1.07,1.93v10.01s-.54.46-.54.46c.04,1.03.15,2.08.45,3.08l.71,2.37Z" fill="#fff"/>
  <path d="M122.13,65.65l.68-2.42c.29-1.01.39-1.99.43-3.05l-.53-.39v-10.07s1.04-1.91,1.04-1.91c1.08.87,2.27,1.38,3.77,1.6v20.83c-.77-1.23-1.63-2.11-2.77-2.87l-2.62-1.73Z" fill="#fff"/>
  <path d="M159.48,90.66c-2.02.5-4.88-.58-6.47-1.74l-1.5-1.71,1-5.27c.25-1.32.84-2.35,1.88-3.24.64-.55,1.37-1.18,2.28-1.26.74.61,1.3,1.44,1.7,2.31.98,2.16,1.66,4.37,2.14,6.72.29,1.42.11,3.14-1.03,4.19Z" fill="#fff"/>
  <path d="M102.72,89.12c-1.77,1.09-4.11,2.02-6.09,1.53-1.19-.79-1.4-2.64-1.13-4.11.43-2.32,1.14-4.5,2.07-6.64.43-.99,1.03-1.76,1.78-2.53,2.07.64,3.75,2.4,4.15,4.49l1.01,5.31c-.58.71-1.05,1.49-1.79,1.94Z" fill="#fff"/>
  <path d="M182.43,248.38l-.3,2.79c-.2,1.91.03,3.53.66,5.49-3.28-1.16-4.8-4.32-6.44-7.34-2.11,2.69-4.73,4.76-7.68,6.44l-.35.15c-.07.03-.18-.21-.2-.3,3.06-2.06,5.58-4.79,7.59-7.89-.45-2.13-.8-4.19-.92-6.36l-.18-3.23-1.88.38-.8.36-1.12-.82,3.8-.63-.09-5.57-.05-3.94,2.64,1.4-.96.84v7.05s3.36-.59,3.36-.59l.92-1.35,2.06,1.55-6.38,1.13c.08,2.71.26,5.17.7,7.82,1.3-2.38,2.11-4.68,2.88-7.07l2.07,1.76-1.17.6c-.93,2.31-1.96,4.4-3.25,6.58.75,1.9,1.76,3.53,3.27,5.19l1.37-4.45.16-.21s.3.17.29.25Z" fill="#fff"/>
  <polygon points="208.85 253.51 191.13 253.53 189.16 253.93 188.2 252.83 197.32 252.82 197.32 240.23 188.27 240.24 186.81 240.54 185.98 239.52 197.32 239.53 197.29 228.84 197.29 228.22 199.94 229.51 198.99 230.44 198.99 239.52 206.56 239.52 208.38 237.53 210.75 240.21 198.99 240.24 198.99 252.83 205.06 252.8 206.61 251.01 208.85 253.51" fill="#fff"/>
  <path d="M137.05,177.45l-1.73-1.03c.16-.53.29-.91.28-1.32l-.09-4.11c-.02-.95-.37-1.82-.93-2.69,2.33-.96,4.8-1.11,7.25-.98.81.83.92,1.87,1.05,2.98.26,2.2.27,4.52-.89,6.49l-2.04,2.68-2.91-2.02Z" fill="#fff"/>
  <path d="M119.19,177.32l-3.12,2.14-1.98-2.55c-1.23-2.01-1.24-4.39-.97-6.64.13-1.08.28-2.04.99-2.95,2.47-.12,4.97.02,7.34,1-.7.91-.95,1.9-.97,2.95l-.08,3.84c0,.42.12.76.29,1.28l-1.52.93Z" fill="#fff"/>
  <path d="M163.8,253.5l.05-3.35-3.05.02-1.98.36-.96-1.09,5.98-.03.02-3.12h-3.21s-.04.83-.04.83l-1.42.66.12-2.47v-7.29s-.03-1.2-.03-1.2l1.7.86h7.2s.9-1.02.9-1.02l1.48,1.6-.89.73.07,3.87.09,3.14-1.36,1.09-.09-.79h-3.23s0,3.13,0,3.13l3.58.02,1.19-1.27,1.82,1.94-6.58.04.07,5.2-1.46.81.04-2.66ZM163.85,241.68v-3.26s-3.21-.02-3.21-.02v3.28s3.21,0,3.21,0ZM168.4,238.4h-3.27v3.28h3.27v-3.28ZM163.85,242.38h-3.22s0,3.22,0,3.22h3.22s0-3.22,0-3.22ZM168.4,245.59v-3.21s-3.27.04-3.27.04l.02,3.18h3.25Z" fill="#fff"/>
  <path d="M165.51,144.07c1.89,3.54.48,10.46-3.32,12.62l-.8-.84-.15-4.93c-.31-3.06-.88-5.98-1.66-8.95l1.29.08,2.59.28c.71.08,1.71,1.11,2.05,1.75Z" fill="#fff"/>
  <path d="M93.83,156.68c-1.65-1.02-2.54-2.41-3.25-4.11-1.02-2.44-1.34-6.6.06-8.71.36-.54,1.32-1.49,1.95-1.55l2.61-.26,1.26-.09-1.42,6.8c-.49,2.33-.41,4.62-.43,7.04,0,.26-.48.69-.78.89Z" fill="#fff"/>
  <path d="M53.76,243.66c-.28.43-1.23-2.73-2.58-3.79l.03,10.19.09,5.41-1.57.92.03-14.55c-1.12,2.52-2.17,4.82-3.75,6.95l-.16.21c-.05.06-.26-.12-.32-.19,2.11-4.2,3.62-8.59,4.24-13.43-1.03-.12-2.02-.09-3.06.18l-.74-.93,3.79-.03-.04-6.83,2.39,1.12-.95,1.08v4.63c.18.03.62,0,.73-.12l1.04-1.17,1.73,2-3.49.03v3.74c.83.39,1.59.75,2.27,1.26,1.01.75,1.2,1.97.52,3.02l-.2.3Z" fill="#fff"/>
  <path d="M152.06,198.61c-.67,1.28-1.5,2.39-2.55,3.32-1.1-.82-2.11-1.43-3.36-1.95l-1.05-4.14-1.23-3.19c.88-.88,1.61-1.88,2.26-3.06l3.87,1.9c.2.1.52.49.61.68l.91,4.14.55,2.29Z" fill="#fff"/>
  <path d="M106.54,201.95c-1.04-.91-1.87-2.03-2.54-3.3l.47-2.14.97-4.4c.39-.47,1.05-.86,1.6-1.2l2.86-1.31c.62,1.12,1.31,2.11,2.28,3.02l-1.55,4.42-.73,2.94c-1.19.5-2.18,1.04-3.36,1.98Z" fill="#fff"/>
  <path d="M131.36,180.32c-2.06-1.28-2.97-4.18-3.03-6.64l-.08-3.51c-.02-.99,2.38-1.56,4.45-1.28.55.07,1.69.48,1.77,1.13.23,1.74.35,3.45.24,5.2-.08,1.27-.77,2.62-1.58,3.53l-1.78,1.56Z" fill="#fff"/>
  <path d="M125.7,179.44l-.88.9c-1.73-.9-3.59-3.45-3.52-5.09l.22-5.19c.04-1.03,2.93-1.73,5.24-.87.35.13,1.08.64,1.07,1.01l-.15,3.9c-.07,1.7-.78,4.12-1.97,5.33Z" fill="#fff"/>
  <path d="M96.76,141.02l-2.86.2c-1.2.08-2.29.2-3.14,1.17l-1.4,1.59c-.58.66-.21,1.68-.63,2.62-1.19-2.39-.74-6.45.17-9.09.47-1.37,1.43-2.53,2.91-2.93l2.4.27c.76.09,1.64.17,2.31.52.73,1.63-.18,3.2.67,4.45l-.42,1.2Z" fill="#fff"/>
  <path d="M162.55,141.25l-2.56-.2-.73.03-.42-1.25c.78-1.17.02-2.73.63-4.53l1.59-.33,3.09-.32c1.44.16,2.48,1.53,2.94,2.8.95,2.65,1.37,6.66.22,9.2-.46-.97-.15-1.94-.67-2.69-.48-.69-1.14-1.32-1.76-1.87s-1.43-.76-2.34-.83Z" fill="#fff"/>
  <path d="M228.52,68.49l-.97-.79c.46-1.06.71-2.04.86-3.17l-.14-3.64c1.22.23,2.38.01,3.55-.69l3.91,6.26c-1.7,2.24-4.42,2.51-7.21,2.03Z" fill="#fff"/>
  <path d="M28.45,67.64c-.81,1.35-3.34,1.17-5.12.82-.54-.11-1.4-.46-1.79-.81l-1.27-1.15,3.91-6.31c1.13.67,2.29.92,3.57.7l-.09,3.71c-.03,1.08.37,2.02.8,3.04Z" fill="#fff"/>
  <path d="M78.93,98.8c-.98-1.3-1.1-3.03-.69-4.68l.87-4.32v-3.15c-.23-3.02-1.29-5.81-2.71-8.43,3.56.76,5.18,4.29,5.71,7.73-.96,1.86-1.63,3.7-2.13,5.7-.66,2.3-.95,4.55-1.05,7.15Z" fill="#fff"/>
  <path d="M177.05,98.93c.02-4.39-1.19-9.1-3.14-13.03.55-3.41,2.21-6.96,5.69-7.66-1.48,2.69-2.34,5.36-2.72,8.27l.03,3.25.91,4.37c.35,1.68.28,3.34-.77,4.8Z" fill="#fff"/>
  <path d="M102.47,255.94c-.43.08-.67.16-.85-.2,6.41-2.03,11.88-4.19,16.47-9.2l3.23-4.14,2.28,2.71-1.44.42c-6.15,6-11.12,8.81-19.68,10.41Z" fill="#fff"/>
  <path d="M68.04,237.22c.53-.28,2.14,1.56,2.52,2.5s.18,1.89-.85,2.33l-.58-1.96c-1.54.44-2.92.99-4.29,1.87l-.82-1.79c.68-.49,1.27-1.03,1.68-1.74l1.9-3.28c-1.14.08-2,.44-2.88,1.16l-.91-1.74c.53-.38.86-.67,1.14-1.13.96-1.58,1.62-3.21,2.01-5.08l1.98,1.37c-.61.47-1.21,1.01-1.66,1.67l-2.09,3.09,2.57-.04,1.05-2.33,1.76,1.25-2.17,2.4-3,4.3,3.65-.44-1-2.4Z" fill="#fff"/>
  <polygon points="115.21 245.37 115.29 246.25 113.52 247.16 113.51 228.08 116.17 229.5 115.2 230.3 115.21 245.37" fill="#fff"/>
  <path d="M59.5,236.91c1.81,1.37,2.89,4.74.87,5.25l-.34-2.07c-1.56.4-3.02.98-4.26,1.87l-.84-1.85,1.19-1.1c.93-1.22,1.64-2.46,2.39-3.86-1.19.09-2.16.35-3.15,1l-.62-1.55c1.75-1.11,2.43-3.96,3.04-6.14l1.9,1.17-1.11,1.1-2.45,3.73,2.63-.04c.48-.75.74-1.63.99-2.54l1.76,1.1-5.18,7.08,3.73-.46-.55-2.72Z" fill="#fff"/>
  <path d="M54.53,118.83c-1.48,1.3-4.36.24-5.23-.84-.41-.51-.66-1.23-.96-1.83l2.03-1.09,4.38-2.51c.75,1.98,1.26,4.97-.22,6.26Z" fill="#fff"/>
  <path d="M206.6,118.15c-.97.82-2.15,1.22-3.38,1.3-.52.04-1.18-.29-1.66-.5-1.58-1.64-1.07-4.15-.31-6.39l4.26,2.42,1.68.89c.13.07.36.25.42.36.02.04-.63,1.59-1.01,1.92Z" fill="#fff"/>
  <path d="M151.88,193.53l-.5-1.61c-.19-.62-.88-.95-1.46-1.45.5-.79,1.09-1.59,1.87-2.07l3.39-2.12c.98.83,1.73,1.81,2.46,2.95-2.19,1.17-3.86,2.53-5.76,4.32Z" fill="#fff"/>
  <path d="M106.03,190.41c.09.46-1.03.22-1.56,2.04l-.32,1.09c-1.79-1.76-3.62-3.15-5.77-4.37l2.44-2.91,3.33,2.04c.51.31,1.8,1.66,1.89,2.11Z" fill="#fff"/>
  <path d="M162.32,235.16h-2.08s-.05.73-.05.73l-1.48.63c.25-2.61.31-5.02.09-7.76l1.48.75,1.89.05.81-.92,1.34,1.38-.73.69.04,4.02.1.86-1.4.72v-1.15ZM162.32,234.44v-4.18s-2.11,0-2.11,0v4.18s2.11,0,2.11,0Z" fill="#fff"/>
  <path d="M169.06,235.16h-2.18s-.12.78-.12.78l-1.25.58v-7.75s1.62.77,1.62.77h1.86s.75-.96.75-.96l1.35,1.46-.75.68.05,4.03.04.79-1.29.76-.09-1.12ZM169.1,234.4l-.02-4.14h-2.22s0,4.19,0,4.19l2.24-.05Z" fill="#fff"/>
  <path d="M109.98,236.53l-3.96,6.09-3.64,4.04c-.16-.16-.26-.31-.28-.45,3-3.74,5.15-7.85,6.47-12.44l2.34,2.14-.93.63Z" fill="#fff"/>
  <path d="M125.5,239.4c.69.89.66,3.04-.46,3.75-.44-.48-.74-.97-1.06-1.53-1.52-2.68-3.66-4.83-6.06-6.75l-.2-.21c-.06-.06.07-.27.18-.42l5.07,2.88c.94.68,1.82,1.36,2.53,2.28Z" fill="#fff"/>
  <path d="M181.39,222.15l-.03-4.55-2.41,5.08-2.19-4.91c-.21,1.47-.24,2.92-.21,4.37l.94.47h-2.43c.72-.44.93-.6.98-1.24l.32-3.73c.01-.15-.04-.46-.16-.52l-.77-.39,1.7-.05,2.1,4.5,2.17-4.51,1.74.03c-.38.22-.47.24-.92.39l.16,5.01.91.51h-2.75c.33-.29.44-.31.85-.46Z" fill="#fff"/>
  <path d="M161.2,221.51l-.08-3.82-2.48,4.97-2.17-4.9-.24,4.27,1,.57-2.41.02.85-.6.43-4.49c.02-.23-.33-.54-.52-.57l-.33-.04c-.05,0,0-.26.05-.26l.28-.02,1.24.06,2.14,4.47,2.13-4.47,1.77-.02c-.39.33-.43.3-.94.46l.06,2.79.04,1.59c0,.2.05.59.2.67l.77.4-2.74.02c.64-.36.94-.52.93-1.1Z" fill="#fff"/>
  <path d="M55.74,222.61h-2.74s.95-.5.95-.5l.02-4.82-.97-.57h2.73s-.9.46-.9.46l-.02,2.06h3.26s-.01-2.1-.01-2.1l-.9-.42,2.17-.09.24-.03c.08-.01.18.14.22.2s-.18.14-.32.16c-.25.03-.53.3-.53.55v3.99c0,.19.06.59.2.67l.77.41h-2.81s.98-.55.98-.55v-2.37s-3.24,0-3.24,0v2.36s.92.57.92.57Z" fill="#fff"/>
  <path d="M152.21,222.7c-2.7.25-2.31-3.3-4.02-2.52l.04,1.91.91.53-2.74-.02c.35-.31.95-.42.95-.7v-4.69c-.41-.21-.57-.28-.93-.57l3.33.07c.76.02,1.36.7,1.37,1.35.02.71-.34,1.3-1.18,1.67.51.88,1.07,1.77,1.77,2.48l.49.5ZM148.2,219.63c.92.19,1.52,0,1.84-.62.25-.48.21-1.2-.17-1.64-.35-.4-1.16-.54-1.65-.25l-.02,2.51Z" fill="#fff"/>
  <path d="M90.78,222.51c-1.36-1.07-1.4-2.96-2.68-2.33l.03,1.91.92.53-2.76-.02.97-.58v-4.81s-.9-.51-.9-.51l3.03-.05c.83-.01,1.54.5,1.63,1.28.08.71-.28,1.41-1.17,1.78.51.88,1.09,1.75,1.77,2.48l.5.54-1.34-.24ZM88.1,219.58c.53.27,1.37.14,1.73-.37s.38-1.22,0-1.76c-.31-.45-1.19-.67-1.71-.32l-.02,2.44Z" fill="#fff"/>
  <path d="M200.05,222.89l-4.39-4.88-.03,4.02,1.04.58h-2.45s.74-.44.74-.44c.14-.08.24-.46.24-.64v-3.87c0-.25-.44-.59-.66-.69l-.35-.17c-.07-.03.24-.19.32-.18l1.2.12,3.95,4.46.06-3.24c0-.19-.05-.71-.22-.79l-.85-.43,2.42-.02-.91.52-.1,5.67Z" fill="#fff"/>
  <path d="M121.25,219.65c0,1.77-1.44,3.21-3.21,3.21s-3.21-1.44-3.21-3.21,1.44-3.21,3.21-3.21,3.21,1.44,3.21,3.21ZM119.97,221.26c.49-1.13.38-2.35-.2-3.35-.4-.69-1.1-1.07-1.83-1.06s-1.46.37-1.8,1.07c-.6,1.25-.45,2.69.42,3.76.46.57,1.19.84,1.87.75.62-.08,1.23-.46,1.53-1.16Z" fill="#fff"/>
  <path d="M75.99,220.38l-1.14-.52,2.65-.04-.64.53v2.06c-.99.34-2.12.49-3.16.27-1.5-.32-2.52-1.4-2.59-2.86s.84-2.71,2.36-3.12c1.05-.28,2.16-.2,3.25.1.12.54.21.97.08,1.58-.49-.93-.83-1.47-1.83-1.53-.76-.05-1.53.18-2.04.66-1.25,1.21-.95,3.56.39,4.46.79.54,1.7.64,2.63.16l.04-1.76Z" fill="#fff"/>
  <path d="M189.75,219.79l-1.63-.06.03,2.43c.81.25,1.56.23,2.29-.03.26-.44.36-.68.8-1.02l-.34,1.55-4.69-.05c.32-.24.58-.32.76-.39.14-.05.3-.42.3-.59v-4.08c0-.31-.4-.6-.65-.59-.07,0-.21-.3-.14-.3h.42s3.76.02,3.76.02l.15,1.01c.01.1-.12.39-.19.33-.35-.3-.34-1.02-.89-1.02h-1.59s0,2.35,0,2.35l1.03.03c.51.01.63-.22,1.08-.84v1.97s-.48-.71-.48-.71Z" fill="#fff"/>
  <path d="M64.05,219.85l-1.76-.11.04,2.41c.82.28,1.66.27,2.34-.08.23-.39.32-.55.71-1l-.25,1.57h-4.68c.17-.43,1-.27,1-.87v-4.56s-.93-.53-.93-.53l4.33-.02c.07.58.11.8.07,1.48l-.67-1.1-1.94-.08v2.33c.55.08,1.26.08,1.72-.11.07-.26.21-.52.45-.53l-.06,1.73c-.15.02-.28-.2-.36-.54Z" fill="#fff"/>
  <path d="M169.92,220.51h-2.11s-.54,1.54-.54,1.54l.83.56h-2.24c.7-.48,1.02-.71,1.23-1.41l1.84-4.48.25-.16c.07-.05.19.14.22.23l1.86,4.94c.15.39.53.5,1.04.87l-2.56.02.67-.56-.51-1.56ZM169.76,220.08l-.88-2.24-.91,2.22,1.79.02Z" fill="#fff"/>
  <path d="M141.13,220.51h-2.08s-.51,1.6-.51,1.6l.78.5-2.24.02c.35-.3.45-.33.81-.47l2.51-5.77,2.1,5.32c.17.42.47.52,1.05.9l-2.54.05.67-.62-.56-1.52ZM140.98,220.04l-.85-2.27-.91,2.32,1.76-.05Z" fill="#fff"/>
  <path d="M105.62,219.63c.35.19.72.72.79,1.03.1.41-.07,1.07-.38,1.4-.85.92-2.23.91-3.21.3-.07-.6-.13-1.03-.11-1.57.58.88.79,1.58,1.78,1.65.43.03.94-.32,1.06-.67.13-.4.02-1.03-.35-1.27l-1.6-.98c-.42-.26-.78-.8-.81-1.23-.04-.53.26-1.11.74-1.43.73-.49,1.6-.41,2.45-.12l.16,1.37c-.49-.58-.63-.9-.92-1.13-.37-.3-1.13-.16-1.39.16-.49.61-.19,1.41.42,1.74l1.37.74Z" fill="#fff"/>
  <path d="M128.58,218.74v1.91s-.49-.72-.49-.72l-1.73-.07.03,2.24,1.02.49-2.84.02.93-.52v-4.92c-.39-.18-.55-.25-.91-.49l4.28-.03.13,1.13c0,.06-.2.29-.22.24l-.17-.37c-.1-.22-.43-.68-.69-.67l-1.55.02v2.45s1.32.06,1.32.06c.24.01.48-.3.89-.77Z" fill="#fff"/>
  <path d="M207.18,222.1l1.05.48c-1.04.08-1.97.1-2.93-.04.36-.2,1.01-.36,1.01-.64l.02-4.85c-.67-.13-1.3-.1-1.8.19l-.32.88-.26-.02.15-1.67c.45.16.81.25,1.25.25h2.85c.41,0,.71-.07,1.12-.22.08.53.14,1.18.07,1.76-.34-.36-.46-1-.73-1.1-.45-.17-.98-.13-1.48-.1v5.09Z" fill="#fff"/>
  <path d="M50.18,221.95c.27.23.64.38,1.1.64h-3.03s1.06-.48,1.06-.48l.02-5.11c-.53-.03-1.14-.06-1.59.13-.25.1-.32.74-.63,1.07l-.05-1.57s.19-.24.22-.21l.26.24h4.17s.71-.28.71-.28l.03,1.86-.58-1.08c-.43-.19-1.08-.23-1.69-.12v4.9Z" fill="#fff"/>
  <path d="M99.47,221.12c.1.47-.04.97-.24,1.52l-4.42-.03c.35-.23.52-.3.93-.48v-4.99s-.87-.41-.87-.41l2.11-.11.32-.02c.08,0,.13.31.1.29l-.71.24v4.89c.31.21.79.31,1.11.31.86-.01,1.11-.38,1.65-1.23Z" fill="#fff"/>
  <path d="M148.57,189.18l-.94-.4,1.35-1.22,4.34-3.43c.24.19.47.62.51.93l-3.12,2.25-2.13,1.88Z" fill="#fff"/>
  <path d="M107.56,189.21l-2.61-2.18-2.72-1.96c-.02-.33.24-.78.49-.93l3.5,2.76,2.18,1.87-.84.45Z" fill="#fff"/>
  <path d="M179.99,234.28c-.34-.15-.46-.72-.58-1.13-.31-1.1-1.04-2.31-1.64-3.24-.08-.12.32-.31.45-.23,1.34.9,3.07,2,2.83,3.38-.08.47-.45,1.04-1.06,1.22Z" fill="#fff"/>
  <path d="M83.11,222.59c-.9.05-1.68.07-2.52-.04l.59-.3c.13-.06.28-.33.28-.51v-4.17c0-.16-.16-.44-.28-.5l-.67-.35,2.75-.06c-.34.3-.47.31-.92.43l-.02,4.97.8.53Z" fill="#fff"/>
</svg>