<?xml version="1.0" encoding="utf-8"?>
<!-- Generator: Adobe Illustrator 30.3.0, SVG Export Plug-In . SVG Version: 9.03 Build 0)  -->
<svg version="1.0" id="Layer_1" xmlns="http://www.w3.org/2000/svg" xmlns:xlink="http://www.w3.org/1999/xlink" x="0px" y="0px"
	 viewBox="0 0 1272 197" enable-background="new 0 0 1272 197" xml:space="preserve">
<g transform="translate(0.000000,197.000000) scale(0.100000,-0.100000)">
	<path fill="#FFFFFF" d="M1430,985V280h163h164l116,119l117,119v586v586h-280h-280V985z"/>
	<path fill="#FFFFFF" d="M2545,1678c-3-7-66-317-140-688c-75-371-138-683-141-692c-5-17,8-18,185-18c105,0,191,2,191,4
		c0,5,195,970,211,1044l11,52h244c134,0,244,4,244,9c0,8-45,235-55,279l-5,22h-371C2633,1690,2548,1687,2545,1678z"/>
	<path fill="#FFFFFF" d="M3370,1681c0-5,63-321,140-702s140-694,140-696s85-3,189-3h188l-142,702l-141,703l-187,3
		C3443,1689,3370,1687,3370,1681z"/>
	<path fill="#FFFFFF" d="M4370,985V280h180h180l-2,702l-3,703l-177,3l-178,2V985z"/>
	<path fill="#FFFFFF" d="M4800,1535v-155h655h655v155v155h-655h-655V1535z"/>
	<path fill="#FFFFFF" d="M6667,1643c-24-27-76-84-115-128l-72-80V981V527l122-124l122-123h58h58v705v705h-64
		C6712,1690,6711,1690,6667,1643z"/>
	<path fill="#FFFFFF" d="M6914,1677c-2-7-3-76-2-152l3-140h655h655v150v150l-653,3C7043,1690,6918,1688,6914,1677z"/>
	<path fill="#FFFFFF" d="M8767,1643c-24-27-76-84-115-128l-72-80V981V527l122-124l122-123h303h303v150v150h-183h-183l-62,69l-62,70
		v266v267l56,64l56,64h189h189v155v155h-309h-310L8767,1643z"/>
	<path fill="#FFFFFF" d="M9504,1677c-2-7-3-76-2-152l3-140l187-3l187-2l55-62l56-61V982V708l-62-64l-61-64h-184h-183V430V280h308
		h307l118,124l117,124v456v455l-112,126l-112,125h-308C9574,1690,9508,1687,9504,1677z"/>
	<path fill="#FFFFFF" d="M10851,1566l-111-124V983l1-458l115-122l116-123h309h309v150v150h-183h-183l-62,63l-62,63v278v278l52,57
		l51,56l191,5l191,5v150v150l-312,3l-311,2L10851,1566z"/>
	<path fill="#FFFFFF" d="M11654,1677c-2-7-3-76-2-152l3-140l191-5l191-5l51-56l52-57V983V704l-63-62l-63-62h-182h-182V430V280h309
		h309l116,122l116,123v460l-1,460l-110,123l-111,122h-309C11724,1690,11658,1687,11654,1677z"/>
	<path fill="#FFFFFF" d="M4800,980V830h610h610v150v150h-610h-610V980z"/>
	<path fill="#FFFFFF" d="M220,575c0-4,55-71,123-150l122-145h448h447v150v150H790C476,580,220,578,220,575z"/>
	<path fill="#FFFFFF" d="M4800,430V280h655h655v150v150h-655h-655V430z"/>
	<path fill="#FFFFFF" d="M6910,430V280h660h660v150v150h-660h-660V430z"/>
</g>
</svg>
