<?xml version="1.0" encoding="UTF-8"?>
<svg id="Layer_1" xmlns="http://www.w3.org/2000/svg" version="1.1" viewBox="0 0 862.13 203.58">
  <!-- Generator: Adobe Illustrator 30.3.0, SVG Export Plug-In . SVG Version: 2.1.3 Build 182)  -->
  <g>
    <g>
      <polygon points="434.59 203.45 434.52 45.05 421.69 44.64 456.91 0 456.99 165.7 434.59 203.45" fill="#ffad01"/>
      <polygon points="383.01 166.01 382.96 44.99 369.97 44.7 405.31 .15 405.32 203.58 383.01 166.01" fill="#ffad01"/>
    </g>
    <g>
      <path d="M657.62,132.22l-.73-34.97-14.41,40.01-15.16-41.67-.36,36.18,5.09,5.71-26.21-.05c1.36-2.91,3.55-3.68,5.08-5.8l-.02-69.37-5.07-5.44,20.51-.17,16.2,48.51,15.52-48.22,21.87.2c-1.26,1.61-5.21,3.23-5.22,5.78l-.21,68.91c1.55,2.09,3.53,2.78,4.82,5.58h-26.62c1.17-2.48,2.61-3.35,4.91-5.21v.02Z" fill="#ffad01"/>
      <path d="M738.88,95.62v35.22c.02,4.35-3.88,6.7-7.85,6.69l-45.41-.13,4.75-5.57-.05-69.7c-1.82-1.98-3.62-3-4.7-5.44h46.47c3.14,0,6.69,3.09,6.72,6.18l.23,22.07c.03,2.96-1,5.04-3.45,6.87l3.29,3.8h0ZM721.95,89.37v-23.32l-15.47-.35v24.21l15.47-.54ZM722.52,101.66c0-1.86-2.07-2.91-3.46-2.91l-12.65.07.05,29.58,13.2-.03c1.97,0,2.97-1.76,2.96-3.62l-.11-23.09h.01Z" fill="#ffad01"/>
      <path d="M593.94,137.28h-39.47c-2.78,0-6.36-2.49-6.35-5.42l.13-70.77c0-2.81,4.44-4.33,6.71-4.33l38.94.1c3.37,0,6.04,2.85,6.05,6.1l.07,67.95c0,3.24-2.12,6.36-6.08,6.36h0ZM584.01,65.67h-19.57v62.75h19.57v-62.75Z" fill="#ffad01"/>
      <path d="M536.57,130.81l6.89,6.54-19.86.03-18.52-31.15c-2.05,3.08-5.56,5.68-5.64,8.96l-.42,16.54,5.09,5.72h-26.15l5.18-5.75-.16-68.72c0-2.57-3.76-4.02-5.07-6.06l26.23-.13-5.13,5.41.27,28.39,18.61-27.95c-.47-2.2-1.8-3.57-3.04-5.88l27.42.1-8.83,6.45-19.65,29.17,22.79,38.33h0Z" fill="#ffad01"/>
      <path d="M842.04,137.6l-26.21.19c1.03-2.56,2.92-3.56,4.85-5.57l.08-66.39-15.66.12-6.21,3.57,3.21-12.63,53.59.05c1.59,4.52,2.83,8.35,3.35,13.05-2.47-1.47-4.18-4.17-6.98-4.17h-14.98l.21,65.77,4.76,6h-.01Z" fill="#ffad01"/>
      <path d="M784.6,117.45l-18.52.13-4.66,15.41c1.48,1.66,3.17,2.5,3.62,4.5h-24.06l6.37-6.47,19.68-68.17c.68-2.35-2.65-3.37-4.4-5.87l25.62-.5c-1.11,2.86-3.13,3.39-4.82,5.64l19.62,68.57,6.4,6.73-23.95-.06c2.98-3.23,3.44-5.73,2.39-9.18l-3.26-10.72h-.03ZM782.31,108.12l-6.87-24.3-7.31,24.88c5.01-.28,9.62.61,14.18-.58Z" fill="#ffad01"/>
    </g>
  </g>
  <g>
    <path d="M51.72,132.24l-.72-34.33-14.53,39.24-15.02-40.77-.38,35.27c1.59,2.04,3.63,2.96,5.05,5.79H0c1.33-2.83,3.46-3.66,5.01-5.76V62.1c-1.56-2.11-3.67-2.9-5.01-5.76l20.42.07,16.14,48.11,15.74-48.01,21.71.31c-1.72,2.32-5.31,3.45-5.32,6.1l-.16,68.88c1.61,2.07,3.52,2.83,4.85,5.6h-26.64c1.18-2.47,2.61-3.32,4.99-5.17h0Z" fill="#ffad01"/>
    <path d="M181.31,137.74l-18-33.09c-2.5-.38-4.16-.56-6.51.16v27.09l5.12,5.7h-26.15l4.91-5.73-.18-68.98c0-2.61-3.7-4.04-4.83-5.87l44.31-.03c2.84,0,6.35,2.37,6.34,5.31l-.09,34.99c0,3.65-3.8,5.83-7.71,6.88l15.15,26.06,6.63,7.54-18.98-.03h-.01ZM170.27,94.59l-.11-28.37c-4.73-.92-8.76-.6-13.69-.45v29.27l13.8-.46h0Z" fill="#ffad01"/>
    <path d="M124.94,137.28l-39.5.03c-2.76,0-6.48-2.45-6.48-5.42l-.1-68.99c0-4.01,3.34-6.19,7.14-6.18l38.88.15c3.42,0,6,2.84,6,6.1l.07,67.93c0,3.24-2.05,6.38-6,6.38h-.01ZM114.96,65.66h-19.61l.03,62.77h19.61l-.03-62.77Z" fill="#ffad01"/>
    <path d="M235.03,137.59l-26.16.27c1.13-2.59,2.94-3.61,4.92-5.6l.09-66.44-15.72.18c-2.46.03-3.98,2.73-6.2,3.99l3.14-13.08,53.66.04c1.63,4.49,2.82,8.31,3.29,13.03-2.25-1.29-3.72-3.92-6.19-3.97l-15.63-.33v65.95c.55,2.1,3.23,2.83,4.8,5.97h0Z" fill="#ffad01"/>
    <path d="M362.06,124.13l-5.82,13.44-46.4.2c1.03-2.61,3.13-3.57,4.87-5.88l-.18-69.01c0-2.59-3.8-3.89-4.88-5.78h26.36c-1.25,1.78-5.17,3.27-5.18,5.81l-.19,65.31,20.31.02s11.11-4.11,11.11-4.11Z" fill="#ffad01"/>
    <path d="M282.47,117.64l-18.57-.09-4.31,14.43c-.61,2.06,1.76,3.89,3.47,5.54l-24.12.16,6.31-6.82,19.94-68.61-4.37-5.48,25.37.13c-1.44,1.97-4.47,3.55-4.64,5.99l19.37,67.88,6.25,6.88-24.18-.06c.94-1.21,3.92-2.87,3.43-4.73l-3.95-15.22h0ZM280.1,108.25l-7.07-24.07-7.22,24.18,14.3-.11h0Z" fill="#ffad01"/>
  </g>
</svg>