<?xml version="1.0" encoding="UTF-8"?>
<svg id="Layer_1" xmlns="http://www.w3.org/2000/svg" version="1.1" viewBox="0 0 135 18">
  <!-- Generator: Adobe Illustrator 30.3.0, SVG Export Plug-In . SVG Version: 2.1.3 Build 182)  -->
  <g id="logo">
    <g>
      <path d="M134.25,17.37h-3.97v-.12L124.1.51h3.92l.05.12,6.18,16.74Z" fill="#fff"/>
      <path d="M122.99.51l1.6,4.43h-4.47l-3.75,12.43h-3.64L117.53.57l5.46-.06Z" fill="#fff"/>
      <path d="M4.43,10.95L.84,6.99v-3.68L3.38.51l17.06.06,2.76,2.74v5.66l-5.52-5.78H6.25l-1.88,2.1v3.21l.06.06v2.39Z" fill="#fff"/>
      <path d="M19.66,6.87l3.59,3.62v4.03l-2.82,2.86H3.6l-2.76-2.8v-6.13l5.35,6.18h11.43l1.99-1.87v-.12h.06v-5.78Z" fill="#fff"/>
      <path d="M61.39,10.95l-3.64-3.97v-3.68l2.59-2.8,17.06.06,2.7,2.74v5.66l-5.52-5.78h-11.37l-1.88,2.1v3.21l.06.06v2.39Z" fill="#fff"/>
      <path d="M76.63,6.87l3.53,3.62v4.03l-2.76,2.86h-16.89l-2.76-2.8v-6.13l5.41,6.18h11.43l1.99-1.87v-.12h.06v-5.78Z" fill="#fff"/>
      <path d="M49.3.51l2.48,2.86v14.12h-3.59V4.95h-2.7l-2.15,12.43-1.49-.06-.88-5.13,2.15-11.67h6.18Z" fill="#fff"/>
      <path d="M37.93.57l2.98,16.92h-3.64l-1.99-12.49h-2.7v12.43h-3.64V3.49l2.43-2.92h6.57Z" fill="#fff"/>
      <path d="M105.5.51l3.37,2.8v11.26l-2.65,2.8h-19.76V.51h13.36l3.37,2.8h-12.97v11.32h12.36l2.65-1.93V3.55l-3.7-3.03h3.97Z" fill="#fff"/>
    </g>
  </g>
</svg>