<?xml version="1.0" encoding="UTF-8"?>
<svg id="Layer_1" xmlns="http://www.w3.org/2000/svg" version="1.1" viewBox="0 0 115 29">
  <!-- Generator: Adobe Illustrator 30.3.0, SVG Export Plug-In . SVG Version: 2.1.3 Build 182)  -->
  <path d="M26.08,25.76h-7.02v-8.67l-7.02-7.02V2.34h14.03v23.42ZM2.68,25.76V2.34h7.01v8.69l7.02,7.02v7.7H2.68ZM28.41,0H.34v28.1h28.07V0Z" fill="#fff"/>
  <path d="M50.32,9.49l-7.28,7.59h6.9v1.55h-10.72v-.03l7.28-7.59h-6.87v-1.55h10.7v.02h0Z" fill="#fff"/>
  <path d="M95.82,18.64l-6.72-4.74v4.74h-1.88v-9.18h1.88v4.42l6.53-4.42h2.89l-6.57,4.38,6.79,4.79h-2.92Z" fill="#fff"/>
  <path d="M114.74,18.64l-5.09-3.43h.95c1.79,0,3.37-1.03,3.37-2.78v-.12c0-1.78-1.59-2.85-3.43-2.85h-7.47v9.17h1.88v-4.79l7.04,4.79h2.76ZM104.93,11.02h5.63c.7,0,1.35.28,1.53.85,0,.1.03.34.03.58s-.02.49-.03.58c-.19.5-.83.81-1.53.81h-5.63v-2.81Z" fill="#fff"/>
  <path d="M65.55,17.01v1.63h-9.52v-9.18h9.52v1.63h-7.7v1.97h7.3v1.63h-7.3v2.31h7.7Z" fill="#fff"/>
  <path d="M81.15,17.01v1.63h-9.52v-9.18h9.52v1.63h-7.7v1.97h7.3v1.63h-7.3v2.31h7.7Z" fill="#fff"/>
</svg>