<?xml version="1.0" encoding="UTF-8"?>
<svg id="Layer_1" xmlns="http://www.w3.org/2000/svg" version="1.1" viewBox="0 0 704.33 617.65">
  <!-- Generator: Adobe Illustrator 30.3.0, SVG Export Plug-In . SVG Version: 2.1.3 Build 182)  -->
  <polygon points="462.01 596.02 316.15 572.4 184.99 550.9 278.9 317.26 391.79 316.7 639.72 315.87 650.35 316.34 630.31 424.23 604 567.86 594.52 617.65 462.01 596.02" fill="#fff"/>
  <path d="M347.12,306.66l-44.28,1.06c-6.98.17-13.47.89-20.55.39l6.2-17.08,93.71-234.57,106.13-18.1,112.09-20.07L704.33,0l-52.92,301.22-33.73.45-45.03.88-84.65,1.29-52.28.89-46.8,1.03-41.8.9Z" fill="#fff"/>
  <g>
    <polygon points="29.1 252.34 36.98 187.9 46.29 112.81 368.14 56.33 255.68 341.25 29.1 252.34" fill="#fff"/>
    <polygon points="171.42 552.11 0 523.77 26.39 261.5 251.13 355.21 171.42 552.11" fill="#fff"/>
  </g>
</svg>