<?xml version="1.0" encoding="UTF-8"?>
<svg id="Layer_1" xmlns="http://www.w3.org/2000/svg" version="1.1" viewBox="0 0 708 618.67">
  <!-- Generator: Adobe Illustrator 30.3.0, SVG Export Plug-In . SVG Version: 2.1.3 Build 182)  -->
  <polygon id="_x33_D_Texture" points="463.29 598.55 317.43 574.92 186.27 553.42 280.18 319.78 393.07 319.22 641.01 318.39 651.63 318.86 631.59 426.76 605.28 570.38 595.8 620.17 463.29 598.55" fill="#fff"/>
  <g id="Inner-3D_Textureing">
    <path d="M592.6,615.59l-.96-.16-127.7-20.84-145.86-23.63-126.23-20.69.47-1.16,90.58-225.36h.67s109.54-.54,109.54-.54l247.81-.83,5.96.26-19.2,103.37-26.3,143.64-8.75,45.93ZM194.63,548.71l123.77,20.29,145.86,23.63,126.74,20.68,8.39-44.01,26.3-143.63,18.78-101.11-3.61-.16-247.76.83-108.86.54-89.61,222.95Z"/>
  </g>
  <path id="Poster_Desing" d="M348.41,309.18l-44.28,1.06c-6.98.17-13.47.89-20.55.39l6.2-17.08,93.71-234.57,106.13-18.1,112.09-20.07,103.89-18.3-52.92,301.22-33.73.45-45.03.88-84.65,1.29-52.28.89-46.8,1.03-41.8.9Z" fill="#fff"/>
  <g id="Inner_Poster_Design">
    <path d="M289.22,306.81l4.3-11.85,92.85-232.41,103.92-17.72,112.13-20.07,98.26-17.31-.25,1.41-51.11,290.93-30.42.4-45.05.88-84.63,1.29-52.29.89-46.82,1.04-41.8.9-44.29,1.06c-2.27.05-4.49.17-6.63.27-2.33.12-4.51.23-6.72.27l-1.46.03ZM295.39,295.69l-3.29,9.05c1.69-.05,3.39-.14,5.17-.23,2.19-.11,4.42-.22,6.71-.28l44.29-1.06,41.8-.9,46.82-1.04,52.29-.89,84.63-1.29,45.06-.88,28.77-.38L698.22,9.92l-95.45,16.81-112.13,20.07-102.83,17.54-92.43,231.36Z"/>
  </g>
  <polygon id="Branding" points="30.38 254.87 38.26 190.43 47.57 115.33 369.42 58.85 256.96 343.78 30.38 254.87" fill="#fff"/>
  <g id="inner-Branding">
    <path d="M254.7,338.6l-.93-.37L34.72,252.28l7.51-61.37,8.94-72.15,311.9-54.74-108.37,274.57ZM36.9,250.98l216.68,85.02,106.33-269.39L52.98,120.47l-8.76,70.68-7.32,59.82Z"/>
  </g>
  <polygon id="_x33_D_Modeling" points="172.7 554.63 1.28 526.3 27.67 264.02 252.41 357.73 172.7 554.63" fill="#fff"/>
  <path d="M170.2,550.16l-.79-.13-163.77-27.07.09-.93,25.38-252.24,216.11,90.11-77.01,190.26ZM7.81,521.29l161.13,26.63,75.67-186.94-211.79-88.31-25.01,248.62Z"/>
</svg>